<svg width="25" height="26" viewBox="0 0 25 26" fill="none" xmlns="http://www.w3.org/2000/svg">
<g clip-path="url(#clip0_26_32)">
<path d="M24.9868 13.2339C24.9868 12.2097 24.9018 11.4622 24.7177 10.6871H12.749V15.31H19.7744C19.6328 16.4589 18.8679 18.189 17.1682 19.3516L17.1444 19.5064L20.9286 22.3712L21.1908 22.3968C23.5987 20.2237 24.9868 17.0264 24.9868 13.2339Z" fill="#4285F4"/>
<path d="M12.7488 25.4141C16.1907 25.4141 19.0801 24.3067 21.1906 22.3967L17.168 19.3516C16.0915 20.0852 14.6468 20.5973 12.7488 20.5973C9.37779 20.5973 6.51666 18.4243 5.49674 15.4208L5.34725 15.4332L1.4123 18.409L1.36084 18.5488C3.45711 22.6181 7.76301 25.4141 12.7488 25.4141Z" fill="#34A853"/>
<path d="M5.49709 15.4208C5.22798 14.6457 5.07223 13.8152 5.07223 12.957C5.07223 12.0988 5.22798 11.2684 5.48293 10.4933L5.4758 10.3282L1.49155 7.30457L1.36119 7.36516C0.497215 9.0538 0.00146484 10.9501 0.00146484 12.957C0.00146484 14.964 0.497215 16.8602 1.36119 18.5488L5.49709 15.4208Z" fill="#FBBC05"/>
<path d="M12.7488 5.3167C15.1425 5.3167 16.7572 6.3271 17.6779 7.17147L21.2756 3.73884C19.066 1.73187 16.1907 0.5 12.7488 0.5C7.76301 0.5 3.45711 3.2959 1.36084 7.36517L5.48258 10.4933C6.51666 7.48979 9.37779 5.3167 12.7488 5.3167Z" fill="#EB4335"/>
</g>
<defs>
<clipPath id="clip0_26_32">
<rect width="25" height="25" fill="white" transform="translate(0 0.5)"/>
</clipPath>
</defs>
</svg>
