<svg width="25" height="25" viewBox="0 0 25 25" fill="none" xmlns="http://www.w3.org/2000/svg">
<rect x="1" y="1" width="23" height="23" rx="6.5" fill="#FDE8E1"/>
<rect x="1" y="1" width="23" height="23" rx="6.5" stroke="white" stroke-width="2"/>
<path d="M5.52539 19.5098C6.07335 20.1489 6.70421 20.6999 7.41797 21.1628" stroke="#FDDDD3"/>
<path d="M7.41797 21.1628C8.32609 21.7955 9.33185 22.2407 10.4353 22.4984C10.4449 22.5006 10.4549 22.5006 10.4646 22.4984C10.4742 22.4962 10.4833 22.492 10.491 22.4859C10.4988 22.4798 10.505 22.472 10.5094 22.4632C10.5137 22.4544 10.516 22.4447 10.5161 22.4349L10.5189 21.1845" stroke="#9E919B"/>
<path d="M10.519 21.1844L10.5352 20.7134C10.5356 20.6987 10.538 20.6851 10.542 20.6743C10.546 20.6635 10.5514 20.656 10.5577 20.6527L10.6069 20.6262" stroke="#FCF9F7"/>
<path d="M10.6069 20.6262C10.9329 21.0299 11.3256 21.3181 11.7851 21.4907C12.2014 21.6465 12.6623 21.6938 13.1676 21.6323C13.8771 21.5458 14.5228 21.2642 15.1044 20.7874C15.2641 20.6566 15.3852 20.5092 15.4676 20.345" stroke="#FEDCD3"/>
<path d="M15.4673 20.345L15.4512 22.372C15.4512 22.3794 15.453 22.3867 15.4563 22.3934C15.4597 22.4 15.4645 22.4058 15.4704 22.4103C15.4764 22.4147 15.4832 22.4177 15.4905 22.4191C15.4977 22.4204 15.5052 22.4201 15.5123 22.418C16.36 22.1794 17.1407 21.8356 17.8545 21.3867" stroke="#9E919B"/>
<path d="M17.8545 21.3868C18.8296 20.7914 19.659 20.0336 20.3428 19.1135" stroke="#FDDBD2"/>
<path d="M20.3428 19.1135C20.4397 18.9898 20.5458 18.8467 20.661 18.6844C20.742 18.5699 20.7591 18.4344 20.7123 18.2776" stroke="#E5AB99"/>
<path d="M20.7129 18.2775C20.8525 18.3147 20.9443 18.2728 20.9883 18.1519" stroke="#FCF7F4"/>
<path d="M20.9883 18.1519C21.1583 17.9975 21.2358 17.8293 21.2208 17.6475" stroke="#F7B89C"/>
<path d="M21.2205 17.6475C21.3123 17.6182 21.3666 17.5863 21.3835 17.5519C22.819 14.6338 22.8703 11.6876 21.5374 8.7133C21.0175 7.55268 20.296 6.53302 19.3729 5.6543C18.1917 4.53043 16.8242 3.75591 15.2702 3.33074C14.8239 3.20887 14.3644 3.12095 13.8919 3.06699C12.7252 2.93348 11.5986 2.99954 10.5121 3.26515C8.76796 3.69125 7.25169 4.53718 5.96328 5.80292C5.63637 6.12389 5.32961 6.47464 5.04298 6.85515C3.32463 9.13312 2.69026 11.7174 3.13987 14.608C3.38387 16.1775 4.00583 17.624 5.00575 18.9474C5.08958 19.0581 5.26287 19.2456 5.52561 19.5098" stroke="#FEF3F0"/>
<path d="M21.2206 17.6475C21.1977 16.9674 20.9235 16.4208 20.398 16.0077C20.2912 15.9235 20.1858 15.8372 20.0819 15.7488C19.8482 15.5502 19.7053 15.3071 19.6533 15.0197C19.6369 14.928 19.6351 14.781 19.6477 14.5787C19.6566 14.4317 19.6629 14.2845 19.6667 14.137C19.6831 13.4402 19.3714 12.9648 18.7316 12.7108C18.4019 12.5796 18.0898 12.4179 17.7952 12.2258C17.627 12.1165 17.5097 12.0123 17.4432 11.9132C17.3528 11.7788 17.3015 11.6248 17.2894 11.4513C17.2805 11.3252 17.2767 11.1447 17.2781 10.9098C17.2791 10.7545 17.2971 10.6163 17.3322 10.4954" stroke="#F7AD8D"/>
<path d="M17.3321 10.4954C17.6988 10.2084 17.9515 9.85885 18.0901 9.44671C18.1861 9.16155 18.2013 8.86663 18.1358 8.56194C17.9995 7.92791 17.625 7.44854 17.0124 7.12385C16.7703 6.99546 16.6488 6.79218 16.6478 6.514C16.646 6.01347 16.4549 5.60365 16.0746 5.28454C15.639 4.91845 15.1498 4.68423 14.607 4.58189C14.2178 4.50886 13.8804 4.51444 13.5947 4.59864C13.2603 4.69725 12.9687 4.89589 12.7201 5.19453C12.7158 5.19964 12.7105 5.20376 12.7045 5.20659C12.6985 5.20941 12.6919 5.21088 12.6853 5.21088C12.6786 5.21088 12.6721 5.20941 12.666 5.20659C12.66 5.20376 12.6547 5.19964 12.6505 5.19453C12.5006 5.0159 12.3323 4.88961 12.1454 4.81564C11.6728 4.62818 11.1883 4.59538 10.6919 4.71726C10.246 4.82657 9.89009 5.03451 9.62407 5.34106C9.50885 5.47317 9.41238 5.64156 9.33463 5.84624C9.26532 6.02952 9.20982 6.21745 9.16814 6.41004C9.0665 6.88545 8.8328 7.28247 8.46703 7.60112C8.16167 7.86766 7.97971 8.03583 7.92117 8.1056C7.51465 8.59125 7.5205 9.08852 7.93873 9.59742C8.0694 9.75605 8.30076 9.92444 8.63282 10.1026" stroke="#FDBC96"/>
<path d="M8.63281 10.1025L8.87588 10.5212" stroke="#928082"/>
<path d="M8.87564 10.5212C8.22652 10.8818 7.86261 11.4302 7.78393 12.1666C7.75161 12.4713 7.71977 12.6804 7.68839 12.7939C7.63219 12.9971 7.52587 13.1707 7.36945 13.3144C7.18679 13.4819 7.0046 13.6496 6.82289 13.8175C6.45289 14.1603 6.29038 14.5862 6.33534 15.0951C6.35126 15.2765 6.36953 15.4579 6.39014 15.6393C6.42807 15.9766 6.31497 16.2478 6.05082 16.4529C5.83866 16.6176 5.68669 16.8358 5.59489 17.1074C5.53541 17.2851 5.5045 17.5408 5.50216 17.8743C5.49935 18.373 5.52557 18.8707 5.58084 19.3675" stroke="#F7AD8D"/>
<path d="M5.58089 19.3674L5.52539 19.5098" stroke="#FCD2C5"/>
<path d="M17.332 10.4954C17.4083 10.3628 17.3678 10.2858 17.2104 10.2644" stroke="#F78142"/>
<path d="M17.2108 10.2645C17.2609 9.92861 17.1534 9.66788 16.8883 9.48228C16.7043 9.35342 16.5043 9.25806 16.2884 9.19619C16.2795 9.19364 16.2713 9.18827 16.2647 9.18065C16.2582 9.17303 16.2535 9.16345 16.2512 9.15293C16.2479 9.13619 16.242 9.1213 16.2336 9.10827C16.2219 9.08967 16.1999 9.07734 16.1676 9.07129C15.857 9.01315 15.6067 8.95151 15.4166 8.88639C15.1468 8.79382 14.914 8.62379 14.7183 8.37632C14.6073 8.23537 14.4087 7.91393 14.1225 7.41201C13.9549 7.11802 13.7818 6.91311 13.6034 6.79728C13.4469 6.69587 13.2961 6.65377 13.151 6.67098C12.8423 6.70727 12.58 6.85984 12.3641 7.12872C12.1997 7.33386 12.0578 7.55249 11.9384 7.78461C11.7581 8.13489 11.6476 8.33515 11.6068 8.38539C11.4293 8.60728 11.2015 8.77451 10.9233 8.88708C10.38 9.10711 9.82126 9.28062 9.24707 9.40762" stroke="#FDA579"/>
<path d="M9.24709 9.40747C9.04242 9.51865 8.8607 9.65192 8.70194 9.80729C8.69255 9.81659 8.68554 9.82719 8.68178 9.83775C8.67803 9.84832 8.67771 9.85836 8.68086 9.8666C8.68601 9.87962 8.69491 9.89102 8.70756 9.90079" stroke="#F8AC83"/>
<path d="M8.70728 9.90088L8.63281 10.1025" stroke="#925436"/>
<path d="M20.9881 18.152C21.0185 17.5608 20.8745 17.0325 20.556 16.5674C20.4806 16.4567 20.3481 16.3208 20.1584 16.1599C19.9973 16.0231 19.8453 15.8771 19.7025 15.7217C19.5732 15.5812 19.4858 15.4535 19.4404 15.3386C19.3819 15.1911 19.3561 15.0348 19.3631 14.8697C19.3758 14.579 19.3819 14.2882 19.3814 13.9975C19.3809 13.6821 19.2959 13.4365 19.1264 13.2607C18.9723 13.1006 18.7332 12.9532 18.4091 12.8183C18.1309 12.7025 17.8872 12.5794 17.6778 12.4492C17.2198 12.1649 16.9992 11.7435 17.016 11.1848" stroke="#F5B191"/>
<path d="M16.8743 11.157C16.8199 11.1793 16.778 11.2133 16.7485 11.2589C16.705 11.3268 16.6755 11.3682 16.66 11.3831C16.6066 11.4342 16.5532 11.4852 16.4998 11.5359C16.4912 11.544 16.4846 11.5537 16.4807 11.5641C16.4768 11.5744 16.4756 11.5851 16.4773 11.5952L16.5033 11.7466" stroke="#8F868A"/>
<path d="M16.503 11.7464C16.4501 11.7557 16.4171 11.7371 16.404 11.6906C16.3782 11.5966 16.33 11.5854 16.2593 11.6571" stroke="#75362A"/>
<path d="M16.2594 11.6572L15.9932 11.7821" stroke="#936964"/>
<path d="M15.993 11.782C15.4989 11.982 14.991 12.035 14.4692 11.9411" stroke="#91504D"/>
<path d="M14.4692 11.9412C14.2299 11.8007 14.0442 11.6179 13.9121 11.3927C13.7154 11.0564 13.5869 10.6961 13.5265 10.3119C13.5162 10.2468 13.5019 10.1965 13.4836 10.1612C13.4171 10.0342 13.348 10.0511 13.2764 10.2121" stroke="#926965"/>
<path d="M13.2762 10.2122L13.2207 10.4885" stroke="#8F4B47"/>
<path d="M13.2208 10.4883C13.0986 10.9497 12.8598 11.2954 12.5043 11.5252C12.1994 11.7224 11.8175 11.8208 11.3585 11.8203C10.892 11.8198 10.4415 11.7131 10.0068 11.5" stroke="#936964"/>
<path d="M10.007 11.5001L9.44775 11.1541" stroke="#8E5857"/>
<path d="M9.4478 11.1542L9.07617 10.8025" stroke="#8F868A"/>
<path d="M9.07611 10.8023C9.05785 10.7786 9.03443 10.7612 9.00586 10.75" stroke="#6B2C2C"/>
<path d="M9.00581 10.7502C9.0194 10.6944 9.00183 10.6595 8.95312 10.6455" stroke="#918689"/>
<path d="M8.95325 10.6454L8.87598 10.5212" stroke="#8C452E"/>
<path d="M8.70703 9.90093C8.83255 9.73114 8.98921 9.61252 9.17701 9.54507C9.30159 9.49995 9.4346 9.51762 9.57604 9.5981" stroke="#8D706F"/>
<path d="M9.65283 9.70616C9.68562 9.77035 9.7006 9.83874 9.69779 9.9113C9.69732 9.93131 9.70107 9.93247 9.70903 9.91479C9.80879 9.705 9.97856 9.56242 10.2184 9.48706" stroke="#90777C"/>
<path d="M8.95344 10.6455C8.66494 10.8725 8.49376 11.0174 8.4399 11.0802C8.15795 11.4063 7.99778 11.7854 7.95937 12.2176C7.92472 12.6139 7.8917 12.8511 7.86032 12.9293C7.76291 13.1726 7.61608 13.3817 7.41984 13.5566C7.31212 13.6529 7.20394 13.748 7.09528 13.842C6.60024 14.2695 6.43913 14.8044 6.61195 15.4468C6.72716 15.8748 6.6164 16.2393 6.27966 16.5402C5.964 16.8217 5.78392 17.1836 5.73942 17.6259C5.70383 17.979 5.71647 18.514 5.77736 19.2308" stroke="#F5B395"/>
<path d="M5.77706 19.2307C5.73771 19.3121 5.67238 19.3577 5.58105 19.3675" stroke="#F69771"/>
<path d="M17.2105 10.2644C17.1932 10.4975 17.1513 10.6893 17.0848 10.8401C17.0277 10.9694 17.0047 11.0843 17.016 11.1848" stroke="#F79671"/>
<path d="M17.0161 11.1848C16.9393 11.1765 16.9028 11.1895 16.9065 11.2239" stroke="#FCD4C9"/>
<path d="M16.9063 11.2237L16.874 11.186" stroke="#ED7365"/>
<path d="M16.874 11.1863V11.157" stroke="#FAD6CD"/>
<path d="M16.8739 11.1569C17.058 10.8326 17.1521 10.4828 17.1563 10.1074C17.1587 9.88601 17.0776 9.71017 16.9132 9.57992C16.7779 9.47247 16.6261 9.39501 16.458 9.34756C16.384 9.32663 16.2187 9.29802 15.962 9.26174C15.467 9.1915 14.9689 9.16289 14.4678 9.17591C14.0486 9.18708 13.7016 9.34524 13.4267 9.6504C13.3353 9.7518 13.2447 9.75111 13.1548 9.6483C12.9131 9.37059 12.6014 9.21545 12.2197 9.18289C11.6081 9.13033 10.9409 9.23174 10.2183 9.48712" stroke="#926965"/>
<path d="M10.2184 9.48706C10.0076 9.49543 9.81909 9.56847 9.65283 9.70616" stroke="#FBC8BF"/>
<path d="M9.65275 9.7063L9.57617 9.59814" stroke="#926965"/>
<path d="M9.57655 9.59796C9.52222 9.47469 9.4124 9.41119 9.24707 9.40747" stroke="#F8C0B2"/>
<path d="M8.61958 13.6108C8.47486 13.8034 8.32125 13.9658 8.15873 14.0979C7.80139 14.3877 7.65128 14.7489 7.70842 15.1815C7.70889 15.1829 7.74097 15.3073 7.80467 15.5548C7.88944 15.8837 7.86063 16.2026 7.71825 16.5114C7.71779 16.5124 7.66721 16.5982 7.56651 16.7689C7.41196 17.0303 7.36582 17.3157 7.42811 17.6251C7.48104 17.8879 7.46301 18.1612 7.37402 18.445" stroke="#E6A995"/>
<path d="M7.37395 18.4451L6.09326 19.0214" stroke="#E68A6D"/>
<path d="M8.21538 18.2336L7.70605 18.3788" stroke="#873D37"/>
<path d="M7.70599 18.3788L7.63574 18.3384" stroke="#E6896F"/>
<path d="M7.63596 18.3384C7.6917 18.0472 7.68397 17.749 7.61278 17.4438C7.59123 17.3522 7.59943 17.2636 7.63737 17.178C7.73994 16.9468 7.84484 16.7033 7.95209 16.4474C8.01766 16.2897 8.04108 16.1418 8.02235 16.0036C8.00314 15.8636 7.94601 15.6006 7.85093 15.2145C7.75399 14.8209 7.86381 14.4734 8.18041 14.172C8.38227 13.9799 8.54034 13.8006 8.65461 13.634" stroke="#E5A897"/>
<path d="M10.519 20.5391V21.1845" stroke="#9C8B94"/>
<path d="M7.41797 21.1627C7.56971 20.2291 7.66572 19.3011 7.706 18.3787" stroke="#9C6F70"/>
<path d="M7.63606 18.3384C7.55738 18.4012 7.47003 18.4368 7.37402 18.4451" stroke="#FBDAD1"/>
<path d="M9.00572 10.75L8.84766 10.907" stroke="#D49A93"/>
<path d="M8.8479 10.907C8.62919 11.0544 8.46691 11.2489 8.36106 11.4903C8.22243 11.8048 8.1592 12.1346 8.17138 12.4797C8.18871 12.9659 8.02127 13.3722 7.66908 13.6987C7.49064 13.8648 7.31993 14.0383 7.15695 14.2193C6.98038 14.416 6.88226 14.64 6.86259 14.8912C6.85557 14.9782 6.87313 15.1129 6.91528 15.2952C6.94666 15.4287 6.96961 15.5636 6.98413 15.6999C7.00754 15.9139 6.98694 16.1009 6.92231 16.2609C6.84644 16.4465 6.7345 16.6063 6.5865 16.7403C6.42633 16.8854 6.30222 17.0464 6.21417 17.2231C6.14205 17.3678 6.09521 17.5604 6.07367 17.8009C6.03761 18.2075 6.04416 18.6143 6.09334 19.0213" stroke="#E6A691"/>
<path d="M6.09348 19.0215C6.01152 19.1271 5.90614 19.1969 5.77734 19.2308" stroke="#FBD7CC"/>
<path d="M20.7128 18.2777C20.6571 17.8399 20.5395 17.4097 20.3601 16.9868C20.2562 16.7426 20.0836 16.537 19.8424 16.37C19.6326 16.2244 19.4291 16.0311 19.2319 15.7901C19.0282 15.5403 18.9556 15.2371 19.0141 14.8803C19.0867 14.4411 19.0993 14.1237 19.052 13.9278C18.9912 13.6752 18.861 13.4847 18.6614 13.3563C18.4835 13.2419 18.1725 13.0686 17.7285 12.8365C17.2986 12.6123 17.0232 12.2688 16.9023 11.8059" stroke="#E3A48F"/>
<path d="M13.4894 12.5581C13.3395 12.6246 13.1822 12.657 13.0173 12.6551C12.9986 12.6546 12.982 12.6558 12.9674 12.6586C12.8771 12.6758 12.8794 12.6984 12.9745 12.7263C13.1997 12.7923 13.4147 12.7879 13.6194 12.713" stroke="#FDA895"/>
<path d="M14.1665 12.0611C14.2176 12.0099 14.2693 12.0013 14.3218 12.0353C14.3442 12.0497 14.3648 12.0592 14.3836 12.0639C14.4538 12.0806 14.5009 12.1132 14.5248 12.1616C14.618 12.3472 14.6765 12.4577 14.7004 12.493C14.8447 12.7051 15.0547 12.7861 15.3306 12.7358C15.5263 12.7 15.6823 12.6074 15.7984 12.4581C15.902 12.3246 15.9895 12.1704 16.0612 11.9955C16.0795 11.9508 16.0827 11.9125 16.071 11.8804C16.0565 11.8418 16.0305 11.809 15.993 11.782" stroke="#FCA08F"/>
<path d="M16.2594 11.6572C16.1424 12.462 15.9185 13.2232 15.5878 13.941C15.4019 14.3443 15.1415 14.6944 14.8066 14.9911" stroke="#E0866C"/>
<path d="M14.8064 14.9911C14.0795 15.6372 13.2656 15.8279 12.3645 15.5632C11.9725 15.4479 11.5554 15.2234 11.1133 14.8899" stroke="#F9A091"/>
<path d="M11.1132 14.89C10.4856 14.3448 10.0348 13.6807 9.76083 12.8979C9.75899 12.8929 9.75622 12.8887 9.75294 12.8856C9.74966 12.8826 9.74603 12.881 9.74257 12.8811H9.72852" stroke="#E2866B"/>
<path d="M9.72875 12.881L9.70557 12.7764" stroke="#FCD9D0"/>
<path d="M9.70556 12.7763C9.62453 12.4582 9.5332 12.1893 9.43157 11.9697C9.32104 11.7302 9.28592 11.4827 9.32619 11.2273" stroke="#E7886E"/>
<path d="M9.32617 11.2273C9.44279 11.4469 9.558 11.6648 9.67181 11.8811C9.78983 12.1044 9.92355 12.3179 10.0729 12.5216C10.2411 12.7505 10.4532 12.8645 10.7094 12.8636C11.3009 12.8617 11.5644 12.5665 11.4998 11.9781C11.4986 11.9682 11.494 11.9591 11.4867 11.9522C11.4794 11.9453 11.4698 11.9411 11.4597 11.9404C11.0546 11.906 10.6581 11.829 10.2704 11.7095" stroke="#FDA191"/>
<path d="M10.2703 11.7096C10.1527 11.6826 10.0605 11.6414 9.99351 11.5861C9.94995 11.5493 9.9544 11.5207 10.0069 11.5002" stroke="#FAA999"/>
<path d="M14.4694 11.941C14.3125 11.9299 14.1784 11.8652 14.0669 11.7471" stroke="#FCA090"/>
<path d="M14.0667 11.7471C13.7969 11.4131 13.6204 11.0642 13.537 10.7005C13.4831 10.4669 13.4443 10.3106 13.4204 10.2316C13.4181 10.2237 13.4124 10.2169 13.4042 10.2124C13.396 10.2078 13.3858 10.2057 13.3754 10.2064L13.2764 10.212" stroke="#FA9C8A"/>
<path d="M16.8738 11.186C16.8143 11.2344 16.7841 11.2993 16.7832 11.3807" stroke="#E99089"/>
<path d="M16.7834 11.3809C16.6757 11.419 16.6181 11.4888 16.6106 11.5902C16.568 12.1731 16.6392 12.7662 16.8242 13.3695" stroke="#E1A693"/>
<path d="M16.8244 13.3694C16.7659 13.4015 16.7542 13.4422 16.7893 13.4915" stroke="#F8E5E3"/>
<path d="M16.7891 13.4917C16.8477 13.8038 16.8105 14.1034 16.6774 14.3904C16.5875 14.5844 16.5072 14.7823 16.4365 14.9842C16.3803 15.1461 16.369 15.3112 16.4028 15.4796C16.4529 15.7271 16.4622 15.9741 16.4309 16.2207C16.406 16.4151 16.3964 16.5388 16.4021 16.5919C16.4138 16.7058 16.4437 16.8282 16.492 16.9589C16.6006 17.252 16.5992 17.5625 16.4878 17.8904" stroke="#E0A592"/>
<path d="M16.4876 17.8903L16.2432 17.8694" stroke="#9A8B95"/>
<path d="M16.2433 17.8695C16.3299 17.5601 16.3397 17.2826 16.2728 17.037C16.1988 16.7677 16.1775 16.5153 16.2088 16.28C16.2369 16.0711 16.251 15.9557 16.251 15.9339C16.251 15.8278 16.2421 15.7115 16.2243 15.585C16.1775 15.2487 16.229 14.9247 16.3788 14.613C16.4641 14.4353 16.5069 14.346 16.5074 14.3451C16.646 13.9934 16.6809 13.6275 16.6121 13.2475C16.5226 12.7516 16.4863 12.2513 16.5032 11.7466" stroke="#DCA391"/>
<path d="M16.2431 17.8694L15.5596 17.8003" stroke="#803B35"/>
<path d="M15.5599 17.8004C15.1904 17.7073 14.9787 17.4864 14.9248 17.1375C14.8583 16.7067 14.8265 16.0418 14.8293 15.1426" stroke="#E0866D"/>
<path d="M14.8291 15.1426C14.8535 15.1119 14.846 15.0615 14.8066 14.9912" stroke="#DB6D57"/>
<path d="M9.07614 10.8025C9.04054 10.8123 9.02298 10.8355 9.02345 10.8723" stroke="#D29A93"/>
<path d="M9.02329 10.8721C8.96849 10.9125 8.90995 10.9242 8.84766 10.907" stroke="#C04D33"/>
<path d="M9.4476 11.1541C9.44948 11.181 9.43683 11.1936 9.40967 11.1917" stroke="#F6C6BE"/>
<path d="M9.40999 11.1917C9.35988 11.1801 9.31585 11.158 9.27792 11.1255C9.27464 11.1227 9.27075 11.1207 9.26661 11.1196C9.26248 11.1185 9.25823 11.1184 9.25429 11.1192C9.25034 11.12 9.24683 11.1218 9.24408 11.1244C9.24133 11.1269 9.23943 11.1302 9.23857 11.1338L9.2168 11.2385" stroke="#F9BEB7"/>
<path d="M9.21655 11.2385C9.12709 11.659 9.03225 12.0784 8.93203 12.4966C8.89503 12.651 8.89034 12.8257 8.91798 13.0206C8.98823 13.5198 9.03881 13.8328 9.06972 13.9598C9.12217 14.1761 9.11609 14.3831 9.05146 14.5808C9.02663 14.6566 8.95825 14.782 8.84632 14.9569C8.73532 15.1304 8.67139 15.2583 8.65453 15.3407C8.61191 15.5505 8.60746 15.7119 8.64118 15.8249C8.73766 16.1459 8.78895 16.3566 8.79504 16.4571C8.80534 16.6334 8.7667 16.7976 8.67912 16.9497C8.64633 17.0056 8.581 17.1218 8.48312 17.2986C8.32669 17.581 8.30772 17.8868 8.42621 18.2162" stroke="#E3A593"/>
<path d="M8.42658 18.2161C8.3582 18.2389 8.28795 18.2447 8.21582 18.2335" stroke="#9A8B95"/>
<path d="M8.21566 18.2336C8.12434 17.8679 8.16977 17.523 8.35195 17.1988C8.41846 17.0806 8.48496 16.9625 8.55147 16.8443C8.63483 16.6969 8.66996 16.5441 8.65685 16.3859C8.65685 16.385 8.61914 16.2517 8.54374 15.9861C8.47208 15.7339 8.47957 15.4851 8.56622 15.2395C8.59057 15.1711 8.65731 15.0657 8.76644 14.9234C8.97438 14.6522 9.04838 14.3435 8.98843 13.9974C8.91818 13.5904 8.87322 13.2671 8.85355 13.0275C8.85261 13.0192 8.85027 13.012 8.84652 13.0059C8.83388 12.9868 8.82638 12.9978 8.82404 13.0387C8.81233 13.2518 8.7559 13.4502 8.65474 13.6339" stroke="#E3A593"/>
<path d="M8.65475 13.6339L8.61963 13.6108" stroke="#F8F6F5"/>
<path d="M8.61963 13.6108C8.66084 13.5047 8.69011 13.3545 8.70744 13.16C8.7332 12.8744 8.83624 12.3769 9.01655 11.6675C9.04278 11.5633 9.06151 11.4524 9.07275 11.3347C9.08352 11.2217 9.0964 11.1091 9.11139 10.997C9.11748 10.9518 9.08821 10.9102 9.02358 10.8721" stroke="#E4A691"/>
<path d="M14.0669 11.7471C14.0767 11.8578 14.11 11.9624 14.1667 12.0611" stroke="#F98371"/>
<path d="M14.1664 12.061C14.2301 12.4755 14.0477 12.6927 13.6191 12.7127" stroke="#FB9C89"/>
<path d="M13.6192 12.7129C13.8763 12.6519 14.0337 12.504 14.0913 12.2691C14.0968 12.2483 14.0945 12.2252 14.085 12.2035C13.9913 11.9863 13.896 11.7697 13.7991 11.5539C13.7579 11.4622 13.7305 11.4587 13.7169 11.5434C13.7136 11.5611 13.7148 11.5802 13.7204 11.6006C13.7756 11.7969 13.7906 12.0086 13.7653 12.2356C13.7443 12.4221 13.6522 12.5296 13.4893 12.558" stroke="#F98A78"/>
<path d="M13.4891 12.5579C13.5214 11.9425 13.4963 11.3361 13.4139 10.7388C13.4111 10.7165 13.4024 10.696 13.3879 10.6774C13.3373 10.6109 13.3109 10.5663 13.3085 10.5435C13.3034 10.4965 13.2741 10.4781 13.2207 10.4883" stroke="#FB9C89"/>
<path d="M16.9066 11.2239L16.9023 11.8058" stroke="#EB8E85"/>
<path d="M16.9019 11.8058C16.8307 11.6774 16.7912 11.5358 16.7832 11.3809" stroke="#D4422B"/>
<path d="M11.1134 14.8899C11.0951 14.995 11.1022 15.0876 11.1345 15.1676" stroke="#DD6C56"/>
<path d="M11.1347 15.1677C11.1389 15.4915 11.1377 16.0841 11.1312 16.9456C11.1274 17.4113 10.9099 17.7078 10.4785 17.8353" stroke="#E1866C"/>
<path d="M10.4782 17.8352L9.79883 17.905" stroke="#813B34"/>
<path d="M15.5598 17.8003L15.4678 20.345" stroke="#9D6E70"/>
<path d="M10.6069 20.6262C10.6101 20.5615 10.5809 20.5325 10.519 20.539" stroke="#FCD6CC"/>
<path d="M10.5193 20.539L10.4785 17.8352" stroke="#9D6E70"/>
<path d="M9.70547 12.7764C9.61086 12.9127 9.56496 13.0522 9.56777 13.195C9.57293 13.4374 9.59868 13.7463 9.64505 14.1217C9.64505 14.124 9.65348 14.1807 9.67034 14.2919C9.71109 14.5599 9.69048 14.8238 9.60852 15.0839C9.5275 15.3425 9.5207 15.6144 9.58814 15.8996C9.61765 16.0247 9.60735 16.1463 9.55723 16.2645C9.49354 16.4143 9.42914 16.5738 9.36404 16.7432C9.28396 16.9525 9.24204 17.1181 9.23829 17.24C9.22986 17.5195 9.32798 17.7693 9.53265 17.9894" stroke="#E5A897"/>
<path d="M9.53273 17.9893L8.42627 18.216" stroke="#873D37"/>
<path d="M9.72869 12.8811C9.66968 13.3058 9.68256 13.7287 9.76733 14.1496C9.83993 14.512 9.83196 14.8451 9.74345 15.1488C9.70832 15.2698 9.68888 15.3812 9.68514 15.4831C9.68326 15.5356 9.70644 15.6436 9.75468 15.8068C9.78513 15.911 9.79871 16.0171 9.79543 16.125C9.79262 16.2064 9.76522 16.3074 9.71324 16.4278C9.63268 16.613 9.5629 16.8018 9.50389 16.9944C9.47017 17.1056 9.45776 17.2026 9.46665 17.2854C9.4793 17.3998 9.51442 17.4945 9.57203 17.5694C9.65493 17.6764 9.73056 17.7883 9.79894 17.905" stroke="#E0A695"/>
<path d="M9.79897 17.905C9.7245 17.9664 9.63575 17.9946 9.53271 17.9895" stroke="#9C8E99"/>
<path d="M20.3429 19.1134C19.8834 18.7994 19.412 18.5236 18.9287 18.2859" stroke="#E4886D"/>
<path d="M18.929 18.2858C19.0184 17.937 19.0629 17.5843 19.0624 17.228C19.0624 16.9829 19.024 16.7891 18.9472 16.6468C18.8554 16.477 18.7161 16.3251 18.5292 16.1911C18.1658 15.9302 18.0293 15.5729 18.1197 15.1194C18.1548 14.9445 18.1726 14.8556 18.1731 14.8528C18.196 14.677 18.1962 14.5372 18.1738 14.4335C18.1363 14.2609 18.0178 14.1225 17.8183 14.0183C17.6319 13.9211 17.442 13.8304 17.2485 13.7462C17.0654 13.6657 16.924 13.5401 16.8242 13.3694" stroke="#E39785"/>
<path d="M14.8293 15.1426C14.6106 15.4961 14.3834 15.7759 14.1479 15.982C13.7114 16.363 13.2379 16.4886 12.7274 16.3588C12.4637 16.2913 12.1745 16.1276 11.8598 15.8676C11.6003 15.6531 11.3586 15.4198 11.1348 15.1677" stroke="#F9A092"/>
<path d="M9.40967 11.1917L9.64922 11.408C9.65588 11.4141 9.66143 11.4226 9.66553 11.4329C9.66964 11.4433 9.67222 11.4552 9.67311 11.468C9.67873 11.5433 9.71831 11.6029 9.79184 11.6466C9.94873 11.7401 10.1082 11.761 10.2703 11.7094" stroke="#F89084"/>
<path d="M9.32639 11.2273C9.28517 11.1989 9.24864 11.2027 9.2168 11.2385" stroke="#E67059"/>
<path d="M17.3979 18.0444L17.8546 21.3867" stroke="#9D6D6F"/>
<path d="M18.9289 18.2861C18.8849 18.2977 18.8254 18.2907 18.7505 18.2651" stroke="#FBC7BD"/>
<path d="M18.7505 18.2651C18.839 17.8892 18.8952 17.5099 18.9191 17.1271C18.9294 16.9573 18.9076 16.8175 18.8538 16.7077C18.7882 16.5737 18.6948 16.4593 18.5735 16.3644C18.4507 16.2676 18.3887 16.2188 18.3873 16.2179C18.0679 15.9141 17.9613 15.528 18.0676 15.0596C18.0906 14.9577 18.1091 14.8549 18.1231 14.7512C18.1658 14.4316 18.0438 14.2004 17.7571 14.0576C17.5731 13.9655 17.3855 13.8801 17.1944 13.8015C17.0314 13.7341 16.8963 13.6308 16.7891 13.4917" stroke="#E29684"/>
<path d="M18.7503 18.2649C18.325 18.1468 17.8743 18.0733 17.3979 18.0444" stroke="#E3876C"/>
<path d="M17.3983 18.0446L16.4878 17.8904" stroke="#843D35"/>
<path d="M19.3844 10.1241C19.4692 10.1525 19.5392 10.1192 19.5944 10.0243C19.8089 9.66008 19.8417 9.28794 19.6928 8.90789C19.6361 8.76368 19.5589 8.75182 19.461 8.8723C19.216 9.17373 19.1411 9.53657 19.2362 9.96081C19.2549 10.0431 19.3043 10.0976 19.3844 10.1241Z" stroke="#FACCBA"/>
<path d="M20.3901 12.9321C20.4795 13.0074 20.5763 13.0181 20.6802 12.9642C20.9121 12.8441 21.0877 12.6681 21.2071 12.436C21.4642 11.9359 21.5778 11.404 21.5478 10.8402C21.5239 10.3889 21.3521 10.312 21.0322 10.6092C20.5044 11.099 20.2334 11.7328 20.2194 12.5106C20.2161 12.6934 20.273 12.8339 20.3901 12.9321Z" stroke="#FCC7AB"/>
<path d="M4.65913 15.3273C4.77903 15.3236 4.8748 15.2747 4.94646 15.1808C5.1263 14.9454 5.25697 14.6886 5.33847 14.4104C5.39373 14.2234 5.43869 14.0297 5.47335 13.8292C5.50707 13.6315 5.51691 13.4317 5.50286 13.2298C5.4963 13.1428 5.46984 13.0814 5.42347 13.0456C5.35135 12.9893 5.26915 13.0042 5.17689 13.0903C4.69121 13.5433 4.43971 14.1132 4.42239 14.7998C4.41864 14.9412 4.4355 15.0728 4.47297 15.1947C4.50107 15.2863 4.56312 15.3305 4.65913 15.3273Z" stroke="#FCC2A3"/>
<path d="M10.1116 5.86703C9.98745 6.0438 9.89917 6.23592 9.84671 6.44339C9.79426 6.64899 9.76757 6.75296 9.76663 6.75529C9.65095 7.1051 9.47953 7.427 9.25239 7.72099C9.13343 7.87543 8.96787 7.98917 8.75571 8.0622C8.59085 8.11895 8.38267 8.21199 8.13117 8.34131C8.11946 8.34736 8.10892 8.35433 8.09955 8.36224C8.01947 8.42969 8.02743 8.44411 8.12344 8.4055C8.39649 8.29525 8.67211 8.19152 8.95031 8.0943C9.1175 8.03569 9.23412 7.96103 9.30016 7.87032C9.52965 7.55307 9.7205 7.16674 9.87271 6.71133C9.87318 6.70993 9.89987 6.61225 9.95279 6.41827C10.0732 5.97775 10.3478 5.65701 10.7768 5.45605C10.8551 5.41977 10.8457 5.40535 10.7487 5.41279C10.7342 5.41418 10.7199 5.41721 10.7059 5.42186C10.4595 5.50513 10.2614 5.65352 10.1116 5.86703Z" stroke="#F9A268"/>
<path d="M14.2735 5.56703C14.8519 5.73868 15.2908 6.07407 15.59 6.5732C15.6401 6.65693 15.6748 6.76672 15.694 6.90255C15.7891 7.57612 16.1474 8.07456 16.7689 8.39786C17.0293 8.53276 17.2716 8.69348 17.496 8.88001C17.577 8.94746 17.6034 8.92932 17.5753 8.82559C17.5628 8.77913 17.5322 8.7395 17.4903 8.71534C17.177 8.53392 16.8838 8.3632 16.6108 8.20318C16.2197 7.97385 15.9556 7.65171 15.8183 7.23678C15.8174 7.23398 15.7902 7.11141 15.7369 6.86905C15.6816 6.61879 15.5734 6.3855 15.4123 6.1692C15.1304 5.79147 14.7564 5.5754 14.2904 5.52097C14.2791 5.52004 14.2686 5.52051 14.2588 5.52237C14.2068 5.534 14.2117 5.54888 14.2735 5.56703Z" stroke="#F9A268"/>
<path d="M14.3542 6.1414C14.5547 6.28607 14.7137 6.44841 14.8312 6.62844C14.8423 6.64581 14.8488 6.66799 14.8502 6.69263C14.8539 6.76241 14.8743 6.83521 14.9113 6.91103C14.9703 7.03058 14.9923 7.16572 14.9774 7.31643C14.9722 7.3676 15.0066 7.52204 15.0806 7.77975C15.1022 7.85371 15.131 7.87116 15.167 7.83208C15.1738 7.82497 15.1786 7.81562 15.1812 7.80482C15.1838 7.79402 15.184 7.78208 15.1818 7.76998C15.1523 7.61229 15.1305 7.45343 15.1164 7.29341C15.0982 7.09431 15.0654 6.93987 15.0181 6.83009C14.9137 6.58773 14.7652 6.37189 14.5727 6.18256C14.4954 6.10674 14.4336 6.06557 14.3872 6.05906C14.2678 6.04371 14.2568 6.07116 14.3542 6.1414Z" stroke="#FC9B53"/>
<path d="M10.1248 8.49921C10.0438 8.58526 9.9452 8.64015 9.82905 8.66388C9.55085 8.72016 9.26961 8.79157 8.98533 8.87809C8.65468 8.97903 8.45657 9.19697 8.391 9.5319C8.37273 9.62586 8.3917 9.70587 8.4479 9.77193C8.46055 9.78681 8.4753 9.79472 8.49216 9.79565C8.49655 9.79596 8.50094 9.79509 8.50503 9.79309C8.50912 9.79108 8.51281 9.788 8.51587 9.78404C8.51893 9.78007 8.52128 9.77533 8.52276 9.77011C8.52425 9.76489 8.52483 9.75933 8.52448 9.75379C8.50247 9.41467 8.64531 9.19534 8.95301 9.09579C9.2757 8.99113 9.59722 8.88344 9.91756 8.77273C10.0126 8.7397 10.0892 8.68714 10.1473 8.61503C10.4597 8.22615 10.6707 7.78981 10.7803 7.30603C10.8454 7.01762 10.8999 6.83271 10.9439 6.7513C11.0592 6.53825 11.2254 6.36498 11.4427 6.23147C11.4896 6.20263 11.5294 6.16867 11.5622 6.12959C11.6043 6.07936 11.5954 6.06773 11.5355 6.09471C11.2217 6.23612 10.9908 6.45476 10.8428 6.75061C10.8114 6.81387 10.7784 6.90551 10.7437 7.02552C10.7166 7.12042 10.6887 7.21485 10.6601 7.30882C10.6587 7.31301 10.6257 7.44512 10.5611 7.70515C10.4861 8.00379 10.3407 8.26848 10.1248 8.49921Z" stroke="#FAAF7A"/>
<path d="M12.0872 6.83135C12.0099 6.94346 12.0212 6.93904 12.1209 6.8181C12.1696 6.75902 12.1626 6.75856 12.0999 6.8167C12.0952 6.82135 12.091 6.82624 12.0872 6.83135Z" stroke="#F08140"/>
<path d="M11.1897 7.69518C11.1958 7.69704 11.2017 7.69494 11.2073 7.6889C11.212 7.68378 11.2145 7.67634 11.215 7.66657C11.223 7.54329 11.237 7.42095 11.2572 7.29954C11.2684 7.22884 11.2553 7.20116 11.2178 7.21651C11.2085 7.22018 11.2 7.22668 11.1932 7.23544C11.1863 7.24419 11.1813 7.25495 11.1785 7.26675L11.085 7.64843C11.0821 7.66019 11.0824 7.67215 11.0856 7.68257C11.0889 7.69298 11.0951 7.70131 11.1033 7.70634C11.1248 7.71983 11.1469 7.71657 11.1693 7.69657C11.1715 7.69473 11.1745 7.69362 11.1781 7.69337C11.1817 7.69312 11.1857 7.69375 11.1897 7.69518Z" stroke="#F08140"/>
<path d="M10.3991 7.79312C10.4361 7.75311 10.4537 7.71055 10.4518 7.66543C10.4504 7.64031 10.4399 7.63659 10.4202 7.65426C9.9884 8.05106 9.48329 8.31156 8.90489 8.43576C8.6843 8.48274 8.47237 8.55391 8.26911 8.64928C8.26431 8.65144 8.25995 8.65448 8.25633 8.65818C8.25272 8.66188 8.24993 8.66615 8.24819 8.67068C8.24644 8.67522 8.24578 8.6799 8.24623 8.6844C8.24669 8.6889 8.24827 8.69311 8.25084 8.69672C8.26724 8.71998 8.29651 8.7251 8.33866 8.71207C8.55784 8.64369 8.7782 8.57973 8.99972 8.52019C9.00394 8.51879 9.09058 8.49809 9.25966 8.45809C9.70552 8.35249 10.0853 8.13083 10.3991 7.79312Z" stroke="#FAA971"/>
<path d="M16.209 8.89262C16.5444 9.03729 16.8549 9.22127 17.1406 9.44455C17.1486 9.45082 17.155 9.45918 17.1591 9.4689C17.1633 9.47862 17.1651 9.48942 17.1645 9.50037C17.1584 9.58969 17.1949 9.64342 17.2741 9.66156C17.2786 9.66256 17.2832 9.66257 17.2877 9.6616C17.2922 9.66062 17.2965 9.65868 17.3002 9.65591C17.304 9.65313 17.3071 9.64959 17.3093 9.64551C17.3116 9.64143 17.313 9.63691 17.3134 9.63225C17.326 9.49223 17.2778 9.38455 17.1687 9.30919C16.9106 9.13102 16.6046 8.97379 16.2505 8.8375C16.2355 8.83192 16.2212 8.82959 16.2076 8.83052C16.1191 8.83378 16.1196 8.85448 16.209 8.89262Z" stroke="#FAA971"/>
<path d="M11.4193 8.8445C11.763 8.77984 12.093 8.70518 12.4091 8.62052C12.5075 8.594 12.5578 8.54167 12.5602 8.46352C12.5605 8.45402 12.5569 8.44475 12.5501 8.43771C12.5432 8.43066 12.5337 8.4264 12.5236 8.42584C12.3489 8.41421 12.1822 8.43956 12.0234 8.50189C11.8347 8.57586 11.7378 8.61377 11.7326 8.61563C11.5893 8.66401 11.4748 8.71378 11.3891 8.76495C11.2476 8.84822 11.2577 8.87473 11.4193 8.8445Z" stroke="#FCA896"/>
<path d="M14.4475 9.49683C14.2363 9.5052 14.0663 9.57521 13.9375 9.70685C13.8396 9.80687 13.7855 9.94828 13.7752 10.1311C13.7429 10.7093 13.9504 11.1966 14.3977 11.5929" stroke="#926C69"/>
<path d="M14.3975 11.593C14.596 11.7204 14.8361 11.766 15.1175 11.7297C15.4847 11.6828 15.7955 11.5979 16.0498 11.4751C16.4746 11.2704 16.7043 10.9324 16.7389 10.4612C16.767 10.0867 16.6158 9.82926 16.2851 9.68878C16.2772 9.68552 16.2491 9.67227 16.2008 9.64901C16.1062 9.60482 16.0798 9.64133 16.1214 9.75856" stroke="#905350"/>
<path d="M16.1215 9.75854C16.1243 9.77669 16.1159 9.79087 16.0962 9.80111" stroke="#8E5857"/>
<path d="M16.0965 9.80101C16.0576 9.69356 15.9894 9.61983 15.892 9.57982C15.7749 9.53191 15.6501 9.50725 15.5176 9.50586" stroke="#8D706F"/>
<path d="M15.5172 9.50594C15.1641 9.43151 14.8074 9.42849 14.4473 9.49687" stroke="#905350"/>
<path d="M15.5176 9.50586C15.6309 9.58261 15.7555 9.63541 15.8913 9.66425C15.9015 9.6665 15.9108 9.67176 15.9177 9.67928C15.9246 9.68679 15.9289 9.69618 15.93 9.70612L15.9581 9.95034" stroke="#F6AA9C"/>
<path d="M15.9581 9.95044L15.9082 9.95347" stroke="#F17F72"/>
<path d="M15.908 9.9532C15.4893 9.71038 15.0556 9.67688 14.6069 9.85272" stroke="#E46B61"/>
<path d="M14.6072 9.85278C14.3923 9.97466 14.2593 10.1526 14.2082 10.3866C14.1787 10.5238 14.1658 10.6287 14.1696 10.7013C14.1757 10.8106 14.2218 10.9115 14.308 11.0041C14.4194 11.1241 14.4923 11.1043 14.5265 10.9448C14.5817 10.682 14.7122 10.4626 14.9178 10.2868" stroke="#F17F72"/>
<path d="M14.9175 10.2868C14.8814 10.4399 14.8966 10.5648 14.9631 10.6615C15.0212 10.7462 15.1055 10.7915 15.216 10.7976C15.3725 10.8064 15.4406 10.7029 15.4205 10.4871C15.4073 10.3438 15.3415 10.257 15.2231 10.2268" stroke="#B76C62"/>
<path d="M15.2231 10.2267C15.2784 10.1751 15.3337 10.1685 15.3889 10.2072C15.4083 10.2206 15.4302 10.2263 15.4501 10.2232C15.5765 10.2037 15.6941 10.2281 15.8027 10.2965" stroke="#F17F72"/>
<path d="M15.8026 10.2966C15.7436 10.2966 15.7312 10.3213 15.7654 10.3706C15.8099 10.4339 15.8085 10.5004 15.7612 10.5702C15.75 10.5868 15.7422 10.6047 15.7384 10.6228C15.7347 10.6409 15.735 10.6586 15.7394 10.6748L15.9003 11.2916C15.9024 11.299 15.9081 11.3056 15.9166 11.3103C15.9252 11.315 15.936 11.3175 15.9473 11.3175L16.0689 11.3196" stroke="#F6AA9C"/>
<path d="M16.069 11.3194C16.0372 11.364 16.0449 11.3854 16.0922 11.3836C16.1081 11.3831 16.1245 11.3773 16.1414 11.3661C16.3578 11.2266 16.5069 11.0672 16.5889 10.8882C16.6217 10.8161 16.6339 10.7012 16.6254 10.5435" stroke="#DC6A58"/>
<path d="M16.6253 10.5437C16.6951 10.3497 16.6763 10.1655 16.5691 9.99103C16.4656 9.82217 16.3164 9.74472 16.1216 9.75868" stroke="#F79384"/>
<path d="M14.3977 11.5929C14.4436 11.571 14.4508 11.5455 14.4195 11.5162C14.1464 11.2598 13.972 10.9465 13.8961 10.5763C13.8441 10.3255 13.8272 10.1374 13.8455 10.0118C13.8806 9.77035 14.053 9.63429 14.3626 9.60358C14.4403 9.59568 14.4686 9.56009 14.4476 9.49683" stroke="#FBA696"/>
<path d="M16.0962 9.80103L16.2093 10.3865" stroke="#F4B0A3"/>
<path d="M16.2094 10.3865C16.1892 10.7014 16.1424 11.0124 16.0688 11.3194" stroke="#D98777"/>
<path d="M15.8027 10.2965L16.0282 10.5184C16.0517 10.5417 16.0659 10.5387 16.0711 10.5093C16.1123 10.2786 16.0746 10.0923 15.958 9.95044" stroke="#EE9C91"/>
<path d="M16.6254 10.5435C16.5589 10.4997 16.5059 10.4428 16.4666 10.3725C16.3729 10.2069 16.2872 10.2116 16.2095 10.3865" stroke="#DA6F5F"/>
<path d="M15.2231 10.2266C15.1116 10.1955 15.0097 10.2155 14.9175 10.2866" stroke="#AF5E56"/>
<path d="M15.908 9.95319C15.8939 10.0141 15.8661 10.0351 15.8244 10.016C15.4207 9.82852 15.0149 9.7741 14.6069 9.85271" stroke="#DC5D56"/>
<path d="M9.7054 10.4214C9.62109 10.5261 9.62507 10.627 9.71734 10.7242" stroke="#884444"/>
<path d="M9.71751 10.7243C9.72828 10.8336 9.78237 10.926 9.87979 11.0013C10.2531 11.2921 10.6593 11.4751 11.0987 11.5505C11.4092 11.604 11.6871 11.5961 11.9325 11.5267C12.2234 11.4439 12.4641 11.2835 12.6547 11.0453C12.9039 10.7327 12.9858 10.3796 12.9006 9.98608C12.8524 9.76419 12.7119 9.6258 12.4791 9.57091C11.7485 9.39972 11.0483 9.45112 10.3786 9.72511C10.0507 9.85955 9.8264 10.0917 9.70557 10.4215" stroke="#915753"/>
<path d="M9.71751 10.7242L9.96128 10.9587C9.96896 10.966 9.97904 10.9705 9.98996 10.9716C10.0009 10.9726 10.012 10.97 10.0217 10.9642C10.1088 10.9117 10.0927 10.8082 9.97322 10.6537C9.95585 10.6313 9.93236 10.6143 9.90557 10.6047C9.87878 10.5952 9.84982 10.5936 9.82218 10.6C9.74584 10.6177 9.70697 10.5581 9.70557 10.4214" stroke="#F28375"/>
<path d="M9.68753 10.0684C9.64584 10.1647 9.625 10.2654 9.625 10.3705C9.62496 10.3745 9.62611 10.3783 9.6282 10.3811C9.63029 10.384 9.63317 10.3857 9.63624 10.3859L9.64748 10.3873C9.65252 10.3879 9.65799 10.3856 9.66289 10.3807C9.66779 10.3759 9.6718 10.3688 9.67418 10.3608L9.74653 10.1012C9.75008 10.0883 9.75184 10.0757 9.75172 10.0645C9.7516 10.0532 9.7496 10.0434 9.74584 10.0356C9.73038 10.0044 9.71094 10.0154 9.68753 10.0684Z" stroke="#5E5B4B"/>
<path d="M11.228 10.5101L11.462 10.439" stroke="#CD6B5D"/>
<path d="M11.4618 10.4387C11.4379 10.7095 11.5267 10.8444 11.7281 10.8434C11.8606 10.8434 11.9519 10.7888 12.002 10.6795C12.055 10.5646 12.0386 10.4385 11.9529 10.3013" stroke="#AB6B61"/>
<path d="M11.953 10.3014C12.0733 10.2372 12.1977 10.2021 12.326 10.1961C12.336 10.1954 12.3463 10.1977 12.3556 10.2028C12.365 10.2078 12.3732 10.2153 12.3794 10.2247L12.4806 10.3754C12.4882 10.3868 12.4972 10.3962 12.5067 10.4027C12.5163 10.4092 12.5259 10.4125 12.5347 10.4124C12.5646 10.4114 12.574 10.3791 12.5628 10.3154C12.5112 10.0265 12.3382 9.85997 12.0436 9.81578C11.8165 9.78182 11.6027 9.80648 11.4022 9.88974C11.2233 9.96371 11.0879 10.0386 10.9961 10.1144C10.8744 10.2158 10.7943 10.3568 10.7559 10.5373C10.7283 10.6694 10.7737 10.7094 10.8922 10.6573L11.228 10.5101" stroke="#F28272"/>
<path d="M11.9531 10.3015C11.8051 10.2313 11.6541 10.2315 11.5 10.3022" stroke="#A1574F"/>
<path d="M11.4999 10.3022C11.3631 10.3134 11.2725 10.3827 11.228 10.5102" stroke="#C4574A"/>
<path d="M11.4619 10.439L11.4998 10.3022" stroke="#7D403A"/>
<path d="M14.5373 13.0959C13.9678 13.2388 13.3885 13.3018 12.7993 13.285" stroke="#FEDBD2"/>
<path d="M12.7994 13.2851C12.5596 13.2181 12.2953 13.1802 12.0063 13.1714C11.9552 13.17 11.9424 13.1914 11.9676 13.2356C12.1868 13.6156 12.4737 13.9129 12.8282 14.1273C13.1102 14.298 13.3893 14.3462 13.6656 14.2718C13.889 14.2108 14.0925 14.0715 14.2761 13.8538C14.441 13.6584 14.5599 13.4338 14.633 13.1798C14.6414 13.1514 14.6438 13.1265 14.64 13.1051C14.6297 13.0381 14.5955 13.0351 14.5375 13.096" stroke="#ED8679"/>
<path d="M12.7993 13.285C12.9024 13.473 13.0136 13.6349 13.133 13.7707C13.2735 13.9302 13.4367 14.0054 13.6227 13.9961C13.7707 13.9886 13.9189 13.9202 14.0674 13.7909C14.2781 13.6081 14.4348 13.3764 14.5373 13.0959" stroke="#ECA8A4"/>
<path d="M12.8522 18.1332C12.8523 18.116 12.8455 18.0995 12.8333 18.0873C12.8211 18.0751 12.8045 18.0682 12.7871 18.0681L12.7829 18.0681C12.7743 18.0681 12.7658 18.0697 12.7579 18.073C12.75 18.0762 12.7427 18.081 12.7367 18.087C12.7306 18.093 12.7257 18.1001 12.7224 18.108C12.7191 18.1158 12.7174 18.1243 12.7174 18.1328L12.7129 19.4055C12.7128 19.4227 12.7197 19.4392 12.7319 19.4514C12.7441 19.4637 12.7607 19.4705 12.778 19.4706L12.7822 19.4706C12.7908 19.4707 12.7993 19.469 12.8072 19.4658C12.8152 19.4625 12.8224 19.4578 12.8285 19.4518C12.8346 19.4458 12.8394 19.4386 12.8427 19.4308C12.846 19.4229 12.8477 19.4145 12.8478 19.406L12.8522 18.1332Z" stroke="#FBA393"/>
<path d="M21.2205 17.6475C21.1976 16.9674 20.9234 16.4208 20.3979 16.0077C20.2911 15.9235 20.1857 15.8372 20.0817 15.7489C19.848 15.5502 19.7052 15.3072 19.6532 15.0197C19.6368 14.9281 19.6349 14.7811 19.6476 14.5787C19.6565 14.4317 19.6628 14.2845 19.6666 14.137C19.6829 13.4402 19.3713 12.9648 18.7315 12.7108C18.4018 12.5796 18.0896 12.418 17.7951 12.2258C17.6269 12.1165 17.5096 12.0123 17.4431 11.9132C17.3527 11.7788 17.3014 11.6248 17.2892 11.4513C17.2803 11.3253 17.2766 11.1448 17.278 10.9099C17.2789 10.7545 17.297 10.6163 17.3321 10.4954C17.6988 10.2084 17.9515 9.8588 18.0901 9.44665C18.1861 9.1615 18.2013 8.86658 18.1358 8.56188C17.9995 7.92785 17.625 7.44848 17.0124 7.12379C16.7703 6.9954 16.6488 6.79212 16.6478 6.51394C16.646 6.01341 16.4549 5.60359 16.0746 5.28448C15.639 4.91839 15.1498 4.68417 14.607 4.58183C14.2178 4.5088 13.8804 4.51438 13.5947 4.59858C13.2603 4.6972 12.9688 4.89583 12.7201 5.19447C12.7159 5.19958 12.7106 5.2037 12.7045 5.20653C12.6985 5.20935 12.692 5.21082 12.6853 5.21082C12.6786 5.21082 12.6721 5.20935 12.6661 5.20653C12.6601 5.2037 12.6547 5.19958 12.6505 5.19447C12.5007 5.01584 12.3323 4.88955 12.1454 4.81558C11.6729 4.62812 11.1884 4.59532 10.6919 4.7172C10.2461 4.82652 9.89011 5.03445 9.62409 5.341C9.50888 5.47311 9.4124 5.64151 9.33465 5.84618C9.26534 6.02946 9.20984 6.21739 9.16816 6.40998C9.06653 6.88539 8.83282 7.28241 8.46705 7.60106C8.16169 7.86761 7.97973 8.03577 7.92119 8.10555C7.51467 8.59119 7.52052 9.08846 7.93875 9.59737C8.06942 9.75599 8.30078 9.92439 8.63284 10.1025L8.87591 10.5212C8.22679 10.8817 7.86288 11.4302 7.7842 12.1665C7.75188 12.4712 7.72004 12.6803 7.68866 12.7938C7.63246 12.9971 7.52614 13.1706 7.36972 13.3144C7.18706 13.4818 7.00487 13.6495 6.82316 13.8174C6.45317 14.1603 6.29065 14.5862 6.33561 15.0951C6.35153 15.2765 6.3698 15.4579 6.39041 15.6393C6.42835 15.9766 6.31524 16.2478 6.05109 16.4529C5.83893 16.6176 5.68696 16.8357 5.59516 17.1074C5.53568 17.2851 5.50477 17.5407 5.50243 17.8743C5.49962 18.3729 5.52584 18.8707 5.58111 19.3675L5.52561 19.5098C5.26287 19.2456 5.08958 19.0581 5.00575 18.9474C4.00583 17.624 3.38387 16.1775 3.13987 14.608C2.69026 11.7174 3.32463 9.13312 5.04298 6.85515C5.32961 6.47464 5.63637 6.12389 5.96328 5.80292C7.25169 4.53718 8.76796 3.69125 10.5121 3.26515C11.5986 2.99954 12.7252 2.93348 13.8919 3.06699C14.3644 3.12095 14.8239 3.20887 15.2702 3.33074C16.8242 3.75591 18.1917 4.53043 19.3729 5.6543C20.296 6.53302 21.0175 7.55268 21.5374 8.7133C22.8703 11.6876 22.819 14.6338 21.3835 17.5519C21.3666 17.5863 21.3123 17.6182 21.2205 17.6475ZM19.3841 10.1242C19.4689 10.1526 19.5389 10.1193 19.5942 10.0244C19.8087 9.66017 19.8415 9.28802 19.6926 8.90798C19.6359 8.76377 19.5586 8.75191 19.4607 8.87239C19.2158 9.17382 19.1408 9.53666 19.2359 9.9609C19.2546 10.0432 19.3041 10.0977 19.3841 10.1242ZM20.3901 12.932C20.4796 13.0073 20.5763 13.018 20.6803 12.9641C20.9121 12.8441 21.0877 12.668 21.2072 12.4359C21.4643 11.9358 21.5779 11.4039 21.5479 10.8401C21.524 10.3889 21.3521 10.3119 21.0322 10.6091C20.5044 11.099 20.2335 11.7328 20.2194 12.5105C20.2162 12.6933 20.2731 12.8338 20.3901 12.932ZM4.65941 15.3274C4.7793 15.3237 4.87508 15.2748 4.94674 15.1809C5.12658 14.9455 5.25725 14.6887 5.33874 14.4105C5.39401 14.2235 5.43896 14.0298 5.47362 13.8293C5.50734 13.6316 5.51718 13.4318 5.50313 13.2299C5.49657 13.1429 5.47011 13.0815 5.42375 13.0457C5.35162 12.9894 5.26943 13.0043 5.17716 13.0904C4.69149 13.5435 4.43999 14.1133 4.42266 14.7999C4.41891 14.9413 4.43577 15.073 4.47324 15.1948C4.50134 15.2865 4.5634 15.3307 4.65941 15.3274Z" fill="#FDE8E1"/>
<path d="M17.3321 10.4954C17.4084 10.3629 17.3679 10.2859 17.2105 10.2645C17.2607 9.92863 17.1532 9.6679 16.8881 9.48229C16.704 9.35344 16.504 9.25808 16.2881 9.19621C16.2792 9.19366 16.2711 9.18828 16.2645 9.18066C16.2579 9.17304 16.2532 9.16347 16.2509 9.15295C16.2476 9.1362 16.2418 9.12132 16.2333 9.10829C16.2216 9.08968 16.1996 9.07736 16.1673 9.07131C15.8568 9.01316 15.6065 8.95153 15.4163 8.8864C15.1465 8.79383 14.9138 8.62381 14.718 8.37634C14.607 8.23539 14.4084 7.91395 14.1223 7.41202C13.9546 7.11803 13.7816 6.91312 13.6031 6.79729C13.4467 6.69589 13.2959 6.65379 13.1507 6.671C12.8421 6.70728 12.5798 6.85986 12.3639 7.12873C12.1995 7.33388 12.0576 7.55251 11.9382 7.78463C11.7578 8.13491 11.6473 8.33517 11.6066 8.38541C11.4291 8.6073 11.2012 8.77453 10.923 8.8871C10.3797 9.10713 9.82101 9.28064 9.24682 9.40763C9.04215 9.51881 8.86043 9.65208 8.70166 9.80745C8.69228 9.81675 8.68526 9.82735 8.68151 9.83792C8.67776 9.84848 8.67744 9.85852 8.68059 9.86676C8.68574 9.87979 8.69464 9.89118 8.70728 9.90095L8.63282 10.1026C8.30076 9.92444 8.0694 9.75605 7.93873 9.59742C7.5205 9.08852 7.51465 8.59125 7.92117 8.1056C7.97971 8.03583 8.16167 7.86766 8.46703 7.60112C8.8328 7.28247 9.0665 6.88545 9.16814 6.41004C9.20982 6.21745 9.26532 6.02952 9.33463 5.84624C9.41238 5.64156 9.50885 5.47317 9.62407 5.34106C9.89009 5.03451 10.246 4.82657 10.6919 4.71726C11.1883 4.59538 11.6728 4.62818 12.1454 4.81564C12.3323 4.88961 12.5006 5.0159 12.6505 5.19453C12.6547 5.19964 12.66 5.20376 12.666 5.20659C12.6721 5.20941 12.6786 5.21088 12.6853 5.21088C12.6919 5.21088 12.6985 5.20941 12.7045 5.20659C12.7105 5.20376 12.7158 5.19964 12.7201 5.19453C12.9687 4.89589 13.2603 4.69725 13.5947 4.59864C13.8804 4.51444 14.2178 4.50886 14.607 4.58189C15.1498 4.68423 15.639 4.91845 16.0746 5.28454C16.4549 5.60365 16.646 6.01347 16.6478 6.514C16.6488 6.79218 16.7703 6.99546 17.0124 7.12385C17.625 7.44854 17.9995 7.92791 18.1358 8.56194C18.2013 8.86663 18.1861 9.16155 18.0901 9.44671C17.9515 9.85885 17.6988 10.2084 17.3321 10.4954ZM10.1116 5.86717C9.9875 6.04394 9.89922 6.23606 9.84676 6.44353C9.79431 6.64914 9.76762 6.7531 9.76668 6.75543C9.651 7.10524 9.47958 7.42714 9.25244 7.72113C9.13348 7.87557 8.96792 7.98931 8.75576 8.06234C8.5909 8.11909 8.38272 8.21213 8.13122 8.34145C8.11951 8.3475 8.10897 8.35447 8.09961 8.36238C8.01952 8.42983 8.02748 8.44425 8.12349 8.40564C8.39654 8.29539 8.67216 8.19166 8.95036 8.09444C9.11756 8.03583 9.23417 7.96117 9.30021 7.87046C9.5297 7.55321 9.72055 7.16688 9.87276 6.71147C9.87323 6.71007 9.89992 6.61239 9.95284 6.41841C10.0732 5.97789 10.3479 5.65715 10.7769 5.45619C10.8551 5.41991 10.8457 5.40549 10.7488 5.41293C10.7343 5.41432 10.72 5.41735 10.7059 5.422C10.4596 5.50527 10.2615 5.65366 10.1116 5.86717ZM14.2733 5.56713C14.8517 5.73879 15.2906 6.07418 15.5898 6.57331C15.6399 6.65704 15.6746 6.76683 15.6938 6.90266C15.7889 7.57623 16.1472 8.07467 16.7687 8.39797C17.0291 8.53287 17.2714 8.69359 17.4958 8.88012C17.5768 8.94757 17.6032 8.92943 17.5751 8.8257C17.5626 8.77924 17.532 8.73961 17.4901 8.71545C17.1768 8.53403 16.8836 8.36331 16.6106 8.20329C16.2195 7.97396 15.9554 7.65182 15.8182 7.23689C15.8172 7.23409 15.7901 7.11152 15.7367 6.86916C15.6814 6.6189 15.5732 6.38561 15.4121 6.16931C15.1302 5.79158 14.7562 5.57551 14.2902 5.52108C14.2789 5.52015 14.2684 5.52062 14.2586 5.52248C14.2066 5.53411 14.2115 5.54899 14.2733 5.56713ZM14.3541 6.1414C14.5546 6.28607 14.7136 6.44841 14.8311 6.62844C14.8422 6.64581 14.8487 6.66799 14.8501 6.69263C14.8538 6.76241 14.8742 6.83521 14.9112 6.91103C14.9702 7.03058 14.9922 7.16571 14.9772 7.31643C14.9721 7.3676 15.0065 7.52204 15.0805 7.77975C15.1021 7.85371 15.1309 7.87116 15.1669 7.83208C15.1737 7.82497 15.1785 7.81562 15.1811 7.80482C15.1836 7.79402 15.1838 7.78207 15.1817 7.76998C15.1522 7.61228 15.1304 7.45343 15.1163 7.29341C15.0981 7.09431 15.0653 6.93987 15.018 6.83009C14.9135 6.58773 14.7651 6.37189 14.5726 6.18256C14.4953 6.10674 14.4335 6.06557 14.3871 6.05906C14.2677 6.04371 14.2567 6.07115 14.3541 6.1414ZM10.125 8.49914C10.0439 8.5852 9.94535 8.64009 9.8292 8.66382C9.551 8.7201 9.26977 8.79151 8.98548 8.87803C8.65483 8.97897 8.45672 9.19691 8.39115 9.53183C8.37289 9.6258 8.39185 9.70581 8.44806 9.77187C8.4607 9.78675 8.47545 9.79466 8.49232 9.79559C8.49671 9.7959 8.50109 9.79503 8.50518 9.79303C8.50927 9.79102 8.51297 9.78794 8.51603 9.78397C8.51909 9.78001 8.52143 9.77526 8.52292 9.77005C8.5244 9.76483 8.52499 9.75927 8.52463 9.75372C8.50262 9.41461 8.64546 9.19528 8.95317 9.09573C9.27585 8.99107 9.59737 8.88338 9.91772 8.77267C10.0128 8.73964 10.0894 8.68707 10.1474 8.61497C10.4598 8.22608 10.6708 7.78975 10.7804 7.30597C10.8455 7.01756 10.9001 6.83265 10.9441 6.75124C11.0593 6.53819 11.2256 6.36491 11.4429 6.23141C11.4897 6.20257 11.5295 6.16861 11.5623 6.12953C11.6045 6.07929 11.5956 6.06766 11.5356 6.09464C11.2218 6.23606 10.9909 6.45469 10.8429 6.75055C10.8116 6.81381 10.7785 6.90545 10.7439 7.02546C10.7167 7.12036 10.6888 7.21479 10.6603 7.30876C10.6589 7.31294 10.6259 7.44505 10.5612 7.70509C10.4863 8.00373 10.3409 8.26842 10.125 8.49914ZM12.0871 6.83148C12.0098 6.94359 12.0211 6.93917 12.1208 6.81823C12.1695 6.75915 12.1625 6.75868 12.0997 6.81683C12.0951 6.82148 12.0908 6.82637 12.0871 6.83148ZM11.19 7.69532C11.1961 7.69718 11.2019 7.69509 11.2075 7.68904C11.2122 7.68392 11.2148 7.67648 11.2153 7.66671C11.2232 7.54344 11.2373 7.4211 11.2574 7.29969C11.2687 7.22898 11.2555 7.2013 11.2181 7.21665C11.2088 7.22032 11.2003 7.22682 11.1934 7.23558C11.1866 7.24434 11.1815 7.25509 11.1787 7.26689L11.0853 7.64857C11.0824 7.66033 11.0826 7.67229 11.0859 7.68271C11.0892 7.69312 11.0954 7.70145 11.1036 7.70648C11.1251 7.71997 11.1471 7.71672 11.1696 7.69671C11.1718 7.69487 11.1748 7.69376 11.1784 7.69351C11.182 7.69327 11.186 7.69389 11.19 7.69532ZM10.3989 7.793C10.4359 7.753 10.4535 7.71044 10.4516 7.66531C10.4502 7.64019 10.4397 7.63647 10.42 7.65415C9.98821 8.05095 9.4831 8.31144 8.90469 8.43565C8.6841 8.48263 8.47218 8.5538 8.26892 8.64916C8.26412 8.65133 8.25975 8.65437 8.25614 8.65807C8.25252 8.66177 8.24974 8.66604 8.248 8.67057C8.24625 8.6751 8.24558 8.67979 8.24604 8.68429C8.2465 8.68879 8.24807 8.693 8.25065 8.69661C8.26704 8.71987 8.29631 8.72499 8.33846 8.71196C8.55765 8.64358 8.778 8.57962 8.99953 8.52008C9.00374 8.51868 9.09039 8.49798 9.25946 8.45797C9.70533 8.35238 10.0852 8.13072 10.3989 7.793ZM16.2088 8.89268C16.5441 9.03735 16.8546 9.22133 17.1403 9.44461C17.1483 9.45088 17.1547 9.45924 17.1588 9.46896C17.163 9.47868 17.1648 9.48948 17.1642 9.50043C17.1581 9.58975 17.1946 9.64348 17.2738 9.66162C17.2783 9.66262 17.2829 9.66263 17.2874 9.66166C17.2919 9.66068 17.2962 9.65874 17.2999 9.65597C17.3037 9.65319 17.3068 9.64965 17.309 9.64557C17.3113 9.64149 17.3127 9.63697 17.3131 9.63231C17.3258 9.49229 17.2775 9.38461 17.1684 9.30925C16.9103 9.13108 16.6043 8.97385 16.2502 8.83756C16.2352 8.83198 16.2209 8.82965 16.2073 8.83058C16.1188 8.83384 16.1193 8.85454 16.2088 8.89268Z" fill="#FD904A"/>
<path d="M10.1116 5.86703C10.2614 5.65352 10.4595 5.50513 10.7059 5.42186C10.7199 5.41721 10.7342 5.41418 10.7487 5.41279C10.8457 5.40535 10.8551 5.41977 10.7768 5.45605C10.3478 5.65701 10.0732 5.97775 9.95279 6.41827C9.89987 6.61225 9.87318 6.70993 9.87271 6.71133C9.7205 7.16674 9.52965 7.55307 9.30016 7.87032C9.23412 7.96103 9.1175 8.03569 8.95031 8.0943C8.67211 8.19152 8.39649 8.29525 8.12344 8.4055C8.02743 8.44411 8.01947 8.42969 8.09955 8.36224C8.10892 8.35433 8.11946 8.34736 8.13117 8.34131C8.38267 8.21199 8.59085 8.11895 8.75571 8.0622C8.96787 7.98917 9.13343 7.87543 9.25239 7.72099C9.47953 7.427 9.65095 7.1051 9.76663 6.75529C9.76757 6.75296 9.79426 6.64899 9.84671 6.44339C9.89917 6.23592 9.98745 6.0438 10.1116 5.86703Z" fill="#F5B486"/>
<path d="M14.2735 5.56703C14.2117 5.54888 14.2068 5.534 14.2588 5.52237C14.2686 5.52051 14.2791 5.52004 14.2904 5.52097C14.7564 5.5754 15.1304 5.79147 15.4123 6.1692C15.5734 6.3855 15.6816 6.61879 15.7369 6.86905C15.7902 7.11141 15.8174 7.23398 15.8183 7.23678C15.9556 7.65171 16.2197 7.97385 16.6108 8.20318C16.8838 8.3632 17.177 8.53392 17.4903 8.71534C17.5322 8.7395 17.5628 8.77913 17.5753 8.82559C17.6034 8.92932 17.577 8.94746 17.496 8.88001C17.2716 8.69348 17.0293 8.53276 16.7689 8.39786C16.1474 8.07456 15.7891 7.57612 15.694 6.90255C15.6748 6.76672 15.6401 6.65693 15.59 6.5732C15.2908 6.07407 14.8519 5.73868 14.2735 5.56703Z" fill="#F5B486"/>
<path d="M14.3542 6.1414C14.2568 6.07116 14.2678 6.04371 14.3872 6.05906C14.4336 6.06557 14.4954 6.10674 14.5727 6.18257C14.7652 6.37189 14.9137 6.58773 15.0181 6.83009C15.0654 6.93987 15.0982 7.09431 15.1164 7.29341C15.1305 7.45343 15.1523 7.61229 15.1818 7.76998C15.184 7.78208 15.1838 7.79402 15.1812 7.80482C15.1786 7.81562 15.1738 7.82497 15.167 7.83208C15.131 7.87116 15.1022 7.85371 15.0806 7.77975C15.0066 7.52204 14.9722 7.3676 14.9774 7.31643C14.9923 7.16572 14.9703 7.03058 14.9113 6.91103C14.8743 6.83521 14.8539 6.76241 14.8502 6.69263C14.8488 6.66799 14.8423 6.64581 14.8312 6.62844C14.7137 6.44841 14.5547 6.28607 14.3542 6.1414Z" fill="#FAA65C"/>
<path d="M10.1248 8.49921C10.3407 8.26848 10.4861 8.00379 10.5611 7.70515C10.6257 7.44512 10.6587 7.31301 10.6601 7.30882C10.6887 7.21485 10.7166 7.12042 10.7437 7.02552C10.7784 6.90551 10.8114 6.81387 10.8428 6.75061C10.9908 6.45476 11.2217 6.23612 11.5355 6.09471C11.5954 6.06773 11.6043 6.07936 11.5622 6.12959C11.5294 6.16867 11.4896 6.20263 11.4427 6.23147C11.2254 6.36498 11.0592 6.53825 10.9439 6.7513C10.8999 6.83271 10.8454 7.01762 10.7803 7.30603C10.6707 7.78981 10.4597 8.22615 10.1473 8.61503C10.0892 8.68713 10.0126 8.7397 9.91756 8.77273C9.59722 8.88344 9.2757 8.99113 8.95301 9.09579C8.64531 9.19534 8.50247 9.41467 8.52448 9.75379C8.52483 9.75933 8.52425 9.76489 8.52276 9.77011C8.52128 9.77533 8.51893 9.78007 8.51587 9.78404C8.51281 9.788 8.50912 9.79108 8.50503 9.79309C8.50094 9.79509 8.49655 9.79596 8.49216 9.79565C8.4753 9.79472 8.46055 9.78681 8.4479 9.77193C8.3917 9.70587 8.37273 9.62586 8.391 9.5319C8.45657 9.19697 8.65468 8.97903 8.98533 8.87809C9.26961 8.79157 9.55085 8.72016 9.82905 8.66388C9.9452 8.64015 10.0438 8.58526 10.1248 8.49921Z" fill="#F6CDAA"/>
<path d="M17.2108 10.2645C17.1935 10.4975 17.1515 10.6894 17.085 10.8401C17.0279 10.9694 17.005 11.0843 17.0162 11.1848C16.9394 11.1765 16.9029 11.1895 16.9066 11.2239L16.8743 11.1862V11.1569C17.0583 10.8327 17.1525 10.4829 17.1567 10.1075C17.159 9.88605 17.078 9.71021 16.9136 9.57996C16.7783 9.47251 16.6265 9.39506 16.4584 9.34761C16.3844 9.32667 16.2191 9.29807 15.9624 9.26178C15.4674 9.19154 14.9693 9.16293 14.4682 9.17596C14.049 9.18712 13.702 9.34528 13.427 9.65044C13.3357 9.75185 13.2451 9.75115 13.1552 9.64835C12.9135 9.37064 12.6018 9.2155 12.2201 9.18294C11.6085 9.13037 10.9413 9.23178 10.2187 9.48716C10.0079 9.49553 9.81939 9.56857 9.65313 9.70626L9.57655 9.59811C9.52222 9.47483 9.4124 9.41134 9.24707 9.40762C9.82126 9.28062 10.38 9.10711 10.9233 8.88708C11.2015 8.77451 11.4293 8.60728 11.6068 8.38539C11.6476 8.33515 11.7581 8.13489 11.9384 7.78461C12.0578 7.55249 12.1997 7.33386 12.3641 7.12872C12.58 6.85984 12.8423 6.70727 13.151 6.67098C13.2961 6.65377 13.4469 6.69587 13.6034 6.79728C13.7818 6.91311 13.9549 7.11802 14.1225 7.41201C14.4087 7.91393 14.6073 8.23537 14.7183 8.37632C14.914 8.62379 15.1468 8.79382 15.4166 8.88639C15.6067 8.95151 15.857 9.01315 16.1676 9.07129C16.1999 9.07734 16.2219 9.08967 16.2336 9.10827C16.242 9.1213 16.2479 9.13619 16.2512 9.15293C16.2535 9.16345 16.2582 9.17303 16.2647 9.18065C16.2713 9.18827 16.2795 9.19364 16.2884 9.19619C16.5043 9.25806 16.7043 9.35342 16.8883 9.48228C17.1534 9.66788 17.2609 9.92861 17.2108 10.2645ZM11.4192 8.84452C11.763 8.77986 12.093 8.7052 12.4091 8.62054C12.5074 8.59402 12.5578 8.54169 12.5601 8.46354C12.5605 8.45404 12.5569 8.44478 12.55 8.43773C12.5432 8.43068 12.5337 8.42642 12.5236 8.42586C12.3489 8.41423 12.1822 8.43958 12.0234 8.50192C11.8347 8.57588 11.7377 8.61379 11.7326 8.61565C11.5893 8.66403 11.4747 8.71381 11.389 8.76498C11.2476 8.84824 11.2577 8.87476 11.4192 8.84452Z" fill="#FDB9A8"/>
<path d="M12.0999 6.8167C12.1626 6.75856 12.1696 6.75902 12.1209 6.8181C12.0212 6.93904 12.0099 6.94346 12.0872 6.83135C12.091 6.82624 12.0952 6.82135 12.0999 6.8167Z" fill="#E27136"/>
<path d="M11.1693 7.69657C11.1469 7.71657 11.1248 7.71983 11.1033 7.70634C11.0951 7.70131 11.0889 7.69298 11.0856 7.68257C11.0824 7.67215 11.0821 7.66019 11.085 7.64843L11.1785 7.26675C11.1813 7.25495 11.1863 7.24419 11.1932 7.23544C11.2 7.22668 11.2085 7.22018 11.2178 7.21651C11.2553 7.20116 11.2684 7.22884 11.2572 7.29954C11.237 7.42095 11.223 7.54329 11.215 7.66657C11.2145 7.67634 11.212 7.68378 11.2073 7.6889C11.2017 7.69494 11.1958 7.69704 11.1897 7.69518C11.1857 7.69375 11.1817 7.69312 11.1781 7.69337C11.1745 7.69362 11.1715 7.69473 11.1693 7.69657Z" fill="#E27136"/>
<path d="M10.3991 7.79312C10.0853 8.13083 9.70552 8.35249 9.25966 8.45809C9.09058 8.49809 9.00394 8.51879 8.99972 8.52019C8.7782 8.57973 8.55784 8.64369 8.33866 8.71207C8.29651 8.7251 8.26724 8.71998 8.25084 8.69672C8.24827 8.69311 8.24669 8.6889 8.24623 8.6844C8.24578 8.6799 8.24644 8.67522 8.24819 8.67068C8.24993 8.66615 8.25272 8.66188 8.25633 8.65818C8.25995 8.65448 8.26431 8.65144 8.26911 8.64928C8.47237 8.55391 8.6843 8.48274 8.90489 8.43576C9.48329 8.31156 9.9884 8.05106 10.4202 7.65426C10.4399 7.63659 10.4504 7.64031 10.4518 7.66543C10.4537 7.71055 10.4361 7.75311 10.3991 7.79312Z" fill="#F6C197"/>
<path d="M11.4193 8.8445C11.2577 8.87473 11.2476 8.84822 11.3891 8.76495C11.4748 8.71378 11.5893 8.66401 11.7326 8.61563C11.7378 8.61377 11.8347 8.57586 12.0234 8.50189C12.1822 8.43956 12.3489 8.41421 12.5236 8.42584C12.5337 8.4264 12.5432 8.43066 12.5501 8.43771C12.5569 8.44475 12.5605 8.45402 12.5602 8.46352C12.5578 8.54167 12.5075 8.594 12.4091 8.62052C12.093 8.70518 11.763 8.77984 11.4193 8.8445Z" fill="#FB9684"/>
<path d="M16.209 8.89262C16.1196 8.85448 16.1191 8.83378 16.2076 8.83052C16.2212 8.82959 16.2355 8.83192 16.2505 8.8375C16.6046 8.97379 16.9106 9.13102 17.1687 9.30919C17.2778 9.38455 17.326 9.49223 17.3134 9.63225C17.313 9.63691 17.3116 9.64143 17.3093 9.64551C17.3071 9.64959 17.304 9.65313 17.3002 9.65591C17.2965 9.65868 17.2922 9.66062 17.2877 9.6616C17.2832 9.66257 17.2786 9.66256 17.2741 9.66156C17.1949 9.64342 17.1584 9.58969 17.1645 9.50037C17.1651 9.48942 17.1633 9.47862 17.1591 9.4689C17.155 9.45918 17.1486 9.45082 17.1406 9.44455C16.8549 9.22127 16.5444 9.03729 16.209 8.89262Z" fill="#F6C197"/>
<path d="M19.3844 10.1241C19.3043 10.0976 19.2549 10.0431 19.2362 9.96081C19.1411 9.53657 19.216 9.17373 19.461 8.8723C19.5589 8.75182 19.6361 8.76368 19.6928 8.90789C19.8417 9.28794 19.8089 9.66008 19.5944 10.0243C19.5392 10.1192 19.4692 10.1525 19.3844 10.1241Z" fill="#F7B093"/>
<path d="M16.874 11.1569C16.8197 11.1792 16.7778 11.2132 16.7483 11.2587C16.7047 11.3267 16.6752 11.3681 16.6598 11.3829C16.6064 11.4341 16.553 11.4851 16.4996 11.5358C16.4909 11.5439 16.4844 11.5536 16.4804 11.564C16.4765 11.5743 16.4754 11.585 16.4771 11.5951L16.5031 11.7465C16.4502 11.7558 16.4172 11.7372 16.404 11.6907C16.3783 11.5967 16.33 11.5855 16.2593 11.6572L15.9931 11.7821C15.499 11.9821 14.9911 12.0351 14.4693 11.9412C14.23 11.8007 14.0443 11.6179 13.9122 11.3927C13.7155 11.0564 13.587 10.6961 13.5265 10.3119C13.5162 10.2468 13.502 10.1965 13.4837 10.1612C13.4172 10.0342 13.3481 10.0511 13.2764 10.2121L13.2209 10.4884C13.0987 10.9499 12.8599 11.2955 12.5044 11.5253C12.1995 11.7225 11.8176 11.8209 11.3586 11.8204C10.8921 11.82 10.4416 11.7132 10.0069 11.5002L9.44773 11.1541L9.0761 10.8024C9.05783 10.7787 9.03442 10.7612 9.00585 10.7501C9.01943 10.6943 9.00187 10.6594 8.95316 10.6454L8.87588 10.5212L8.63281 10.1025L8.70728 9.90089C8.8328 9.7311 8.98946 9.61248 9.17726 9.54503C9.30184 9.49991 9.43485 9.51759 9.57629 9.59806L9.65287 9.70622C9.68565 9.77041 9.70064 9.83879 9.69783 9.91136C9.69736 9.93136 9.70111 9.93252 9.70907 9.91485C9.80883 9.70505 9.9786 9.56248 10.2184 9.48712C10.941 9.23174 11.6082 9.13033 12.2199 9.18289C12.6016 9.21545 12.9132 9.37059 13.1549 9.6483C13.2448 9.75111 13.3355 9.7518 13.4268 9.6504C13.7017 9.34524 14.0487 9.18708 14.4679 9.17591C14.969 9.16289 15.4671 9.1915 15.9622 9.26174C16.2188 9.29802 16.3841 9.32663 16.4581 9.34756C16.6263 9.39501 16.778 9.47247 16.9134 9.57992C17.0778 9.71017 17.1588 9.88601 17.1564 10.1074C17.1522 10.4828 17.0581 10.8326 16.874 11.1569ZM14.4475 9.49689C14.2363 9.50526 14.0663 9.57527 13.9375 9.70691C13.8396 9.80693 13.7855 9.94834 13.7752 10.1312C13.7429 10.7094 13.9504 11.1966 14.3977 11.593C14.5962 11.7204 14.8363 11.766 15.1177 11.7297C15.4849 11.6828 15.7957 11.5979 16.05 11.4751C16.4748 11.2704 16.7045 10.9324 16.7391 10.4612C16.7672 10.0867 16.616 9.82926 16.2853 9.68877C16.2774 9.68552 16.2493 9.67226 16.201 9.649C16.1064 9.60481 16.08 9.64132 16.1216 9.75855C16.1244 9.77669 16.116 9.79088 16.0963 9.80111C16.0575 9.69366 15.9893 9.61993 15.8919 9.57992C15.7748 9.53201 15.65 9.50735 15.5175 9.50596C15.1643 9.43153 14.8077 9.42851 14.4475 9.49689ZM9.70556 10.4214C9.62125 10.5261 9.62523 10.627 9.7175 10.7243C9.72827 10.8336 9.78236 10.9259 9.87978 11.0013C10.253 11.292 10.6593 11.475 11.0986 11.5504C11.4092 11.6039 11.6871 11.596 11.9325 11.5267C12.2234 11.4439 12.4641 11.2834 12.6547 11.0452C12.9039 10.7326 12.9858 10.3796 12.9006 9.98602C12.8524 9.76413 12.7119 9.62574 12.4791 9.57085C11.7485 9.39966 11.0483 9.45107 10.3786 9.72505C10.0507 9.85949 9.82639 10.0916 9.70556 10.4214ZM9.68729 10.0684C9.64561 10.1646 9.62476 10.2654 9.62476 10.3705C9.62472 10.3744 9.62587 10.3782 9.62796 10.3811C9.63006 10.384 9.63294 10.3857 9.636 10.3858L9.64725 10.3872C9.65228 10.3879 9.65775 10.3856 9.66265 10.3807C9.66755 10.3758 9.67156 10.3687 9.67394 10.3607L9.7463 10.1012C9.74984 10.0882 9.75161 10.0757 9.75149 10.0644C9.75137 10.0531 9.74937 10.0433 9.7456 10.0356C9.73014 10.0044 9.71071 10.0153 9.68729 10.0684Z" fill="#271822"/>
<path d="M9.24709 9.40747C9.41241 9.41119 9.52224 9.47469 9.57657 9.59796C9.43513 9.51749 9.30212 9.49981 9.17754 9.54493C8.98973 9.61238 8.83307 9.731 8.70756 9.90079C8.69491 9.89102 8.68601 9.87962 8.68086 9.8666C8.67771 9.85836 8.67803 9.84832 8.68178 9.83775C8.68554 9.82719 8.69255 9.81659 8.70194 9.80729C8.8607 9.65192 9.04242 9.51865 9.24709 9.40747Z" fill="#F2C7BB"/>
<path d="M10.2184 9.48706C9.97856 9.56242 9.80879 9.705 9.70903 9.91479C9.70107 9.93247 9.69732 9.93131 9.69779 9.9113C9.7006 9.83874 9.68562 9.77035 9.65283 9.70616C9.81909 9.56847 10.0076 9.49543 10.2184 9.48706Z" fill="#F9D6D5"/>
<path d="M15.5175 9.50594C15.6308 9.58269 15.7554 9.63549 15.8912 9.66433C15.9015 9.66658 15.9107 9.67184 15.9176 9.67936C15.9246 9.68687 15.9288 9.69626 15.9299 9.7062L15.958 9.95041L15.9081 9.95321C15.4894 9.71038 15.0557 9.67689 14.607 9.85273C14.3921 9.9746 14.259 10.1525 14.208 10.3865C14.1785 10.5237 14.1656 10.6286 14.1694 10.7012C14.1755 10.8105 14.2216 10.9115 14.3078 11.004C14.4192 11.1241 14.4921 11.1043 14.5262 10.9447C14.5815 10.6819 14.7119 10.4626 14.9175 10.2867C14.8815 10.4398 14.8967 10.5647 14.9632 10.6614C15.0213 10.7461 15.1056 10.7915 15.2161 10.7975C15.3725 10.8063 15.4407 10.7028 15.4205 10.487C15.4074 10.3437 15.3416 10.257 15.2231 10.2267C15.2784 10.1751 15.3337 10.1686 15.3889 10.2072C15.4083 10.2206 15.4302 10.2264 15.45 10.2232C15.5765 10.2037 15.6941 10.2281 15.8027 10.2965C15.7437 10.2965 15.7313 10.3212 15.7655 10.3705C15.81 10.4337 15.8086 10.5003 15.7613 10.57C15.75 10.5866 15.7423 10.6046 15.7385 10.6227C15.7348 10.6408 15.7351 10.6585 15.7395 10.6747L15.9004 11.2915C15.9024 11.2989 15.9082 11.3055 15.9167 11.3102C15.9253 11.3148 15.9361 11.3174 15.9474 11.3173L16.069 11.3194C16.0371 11.3641 16.0448 11.3855 16.0921 11.3836C16.1081 11.3832 16.1245 11.3773 16.1413 11.3662C16.3577 11.2266 16.5069 11.0673 16.5888 10.8882C16.6216 10.8161 16.6338 10.7012 16.6254 10.5435C16.6951 10.3495 16.6764 10.1653 16.5692 9.99088C16.4657 9.82203 16.3165 9.74457 16.1217 9.75853C16.08 9.64131 16.1064 9.60479 16.201 9.64898C16.2493 9.67224 16.2774 9.6855 16.2853 9.68875C16.616 9.82924 16.7673 10.0867 16.7392 10.4612C16.7045 10.9324 16.4748 11.2704 16.05 11.475C15.7957 11.5978 15.4849 11.6827 15.1178 11.7297C14.8363 11.766 14.5963 11.7204 14.3977 11.593C14.4436 11.5711 14.4508 11.5455 14.4195 11.5162C14.1464 11.2599 13.972 10.9466 13.8961 10.5763C13.8441 10.3256 13.8272 10.1374 13.8455 10.0118C13.8806 9.77039 14.053 9.63433 14.3626 9.60363C14.4403 9.59572 14.4686 9.56013 14.4476 9.49687C14.8077 9.42849 15.1644 9.43151 15.5175 9.50594Z" fill="#F98D7D"/>
<path d="M9.71751 10.7243L9.96128 10.9588C9.96896 10.9661 9.97904 10.9706 9.98996 10.9717C10.0009 10.9727 10.012 10.9701 10.0217 10.9643C10.1088 10.9118 10.0927 10.8083 9.97322 10.6538C9.95585 10.6314 9.93236 10.6144 9.90557 10.6048C9.87878 10.5953 9.84982 10.5937 9.82218 10.6001C9.74584 10.6178 9.70697 10.5582 9.70557 10.4215C9.8264 10.0917 10.0507 9.85955 10.3786 9.72511C11.0483 9.45112 11.7485 9.39972 12.4791 9.57091C12.7119 9.6258 12.8524 9.76419 12.9006 9.98608C12.9858 10.3796 12.9039 10.7327 12.6547 11.0453C12.4641 11.2835 12.2234 11.4439 11.9325 11.5267C11.6871 11.5961 11.4092 11.604 11.0987 11.5505C10.6593 11.4751 10.2531 11.2921 9.87979 11.0013C9.78237 10.926 9.72828 10.8336 9.71751 10.7243ZM11.2279 10.5101L11.4619 10.4389C11.438 10.7097 11.5267 10.8446 11.7281 10.8436C11.8607 10.8436 11.952 10.789 12.0021 10.6797C12.055 10.5648 12.0386 10.4387 11.9529 10.3015C12.0733 10.2373 12.1976 10.2022 12.326 10.1961C12.336 10.1955 12.3462 10.1978 12.3556 10.2028C12.365 10.2078 12.3732 10.2154 12.3793 10.2247L12.4805 10.3754C12.4881 10.3868 12.4972 10.3962 12.5067 10.4027C12.5162 10.4093 12.5258 10.4126 12.5346 10.4124C12.5646 10.4115 12.5739 10.3792 12.5627 10.3154C12.5112 10.0265 12.3381 9.86002 12.0435 9.81582C11.8164 9.78187 11.6026 9.80652 11.4021 9.88979C11.2232 9.96375 11.0879 10.0386 10.9961 10.1145C10.8743 10.2159 10.7942 10.3568 10.7558 10.5373C10.7282 10.6694 10.7736 10.7094 10.8921 10.6573L11.2279 10.5101Z" fill="#FB9684"/>
<path d="M14.4475 9.49683C14.4686 9.56009 14.4403 9.59568 14.3625 9.60358C14.053 9.63429 13.8806 9.77035 13.8455 10.0118C13.8272 10.1374 13.8441 10.3255 13.8961 10.5763C13.9719 10.9465 14.1464 11.2598 14.4194 11.5162C14.4508 11.5455 14.4436 11.571 14.3977 11.5929C13.9504 11.1966 13.7429 10.7093 13.7752 10.1311C13.7855 9.94828 13.8396 9.80687 13.9375 9.70685C14.0663 9.57521 14.2363 9.5052 14.4475 9.49683Z" fill="#FCBFAF"/>
<path d="M15.5176 9.50586C15.6501 9.50725 15.7749 9.53191 15.892 9.57982C15.9894 9.61983 16.0576 9.69356 16.0965 9.80101L16.2096 10.3864C16.1894 10.7014 16.1426 11.0123 16.0691 11.3193L15.9475 11.3173C15.9361 11.3173 15.9253 11.3148 15.9168 11.3101C15.9083 11.3054 15.9025 11.2988 15.9005 11.2914L15.7396 10.6746C15.7352 10.6584 15.7349 10.6407 15.7386 10.6226C15.7424 10.6045 15.7501 10.5866 15.7613 10.57C15.8087 10.5002 15.8101 10.4337 15.7656 10.3704C15.7314 10.3211 15.7438 10.2964 15.8028 10.2964L16.0283 10.5183C16.0517 10.5416 16.066 10.5386 16.0712 10.5092C16.1124 10.2785 16.0747 10.0922 15.9581 9.95034L15.93 9.70612C15.9289 9.69618 15.9246 9.68679 15.9177 9.67928C15.9108 9.67176 15.9015 9.6665 15.8913 9.66425C15.7555 9.63541 15.6309 9.58261 15.5176 9.50586Z" fill="#F2C7BB"/>
<path d="M15.908 9.9532C15.8939 10.0141 15.8661 10.0351 15.8244 10.016C15.4207 9.82853 15.0149 9.77411 14.6069 9.85272C15.0556 9.67688 15.4893 9.71038 15.908 9.9532Z" fill="#CF4945"/>
<path d="M16.6252 10.5437C16.5587 10.4999 16.5058 10.443 16.4664 10.3727C16.3727 10.2071 16.287 10.2118 16.2093 10.3867L16.0962 9.80124C16.1159 9.79101 16.1243 9.77682 16.1215 9.75868C16.3163 9.74472 16.4655 9.82217 16.569 9.99103C16.6762 10.1655 16.695 10.3497 16.6252 10.5437Z" fill="#F5988B"/>
<path d="M11.953 10.3014C11.805 10.2312 11.6539 10.2314 11.4999 10.3021C11.3631 10.3133 11.2725 10.3826 11.228 10.5101L10.8922 10.6573C10.7737 10.7094 10.7283 10.6694 10.7559 10.5373C10.7943 10.3568 10.8744 10.2158 10.9961 10.1144C11.0879 10.0386 11.2233 9.96371 11.4022 9.88974C11.6027 9.80648 11.8165 9.78182 12.0436 9.81578C12.3382 9.85997 12.5112 10.0265 12.5628 10.3154C12.574 10.3791 12.5646 10.4114 12.5347 10.4124C12.5259 10.4125 12.5163 10.4092 12.5067 10.4027C12.4972 10.3962 12.4882 10.3868 12.4806 10.3754L12.3794 10.2247C12.3732 10.2153 12.365 10.2078 12.3556 10.2028C12.3463 10.1977 12.336 10.1954 12.326 10.1961C12.1977 10.2021 12.0733 10.2372 11.953 10.3014Z" fill="#E86E5F"/>
<path d="M15.9083 9.95319L15.9582 9.9504C16.0748 10.0923 16.1125 10.2786 16.0713 10.5093C16.0661 10.5386 16.0519 10.5416 16.0284 10.5184L15.8029 10.2965C15.6943 10.2281 15.5767 10.2037 15.4503 10.2232C15.4304 10.2263 15.4085 10.2206 15.3891 10.2072C15.3339 10.1686 15.2786 10.1751 15.2234 10.2267C15.1119 10.1955 15.01 10.2155 14.9178 10.2867C14.7122 10.4626 14.5817 10.6819 14.5265 10.9447C14.4923 11.1043 14.4194 11.124 14.308 11.004C14.2218 10.9115 14.1757 10.8105 14.1696 10.7012C14.1658 10.6286 14.1787 10.5237 14.2082 10.3865C14.2593 10.1525 14.3923 9.97459 14.6072 9.85271C15.0152 9.7741 15.421 9.82852 15.8247 10.016C15.8664 10.0351 15.8943 10.0141 15.9083 9.95319Z" fill="#E97066"/>
<path d="M9.68753 10.0684C9.71094 10.0154 9.73038 10.0044 9.74584 10.0356C9.7496 10.0434 9.7516 10.0532 9.75172 10.0645C9.75184 10.0757 9.75008 10.0883 9.74653 10.1012L9.67418 10.3608C9.6718 10.3688 9.66779 10.3759 9.66289 10.3807C9.65799 10.3856 9.65252 10.3879 9.64748 10.3873L9.63624 10.3859C9.63317 10.3857 9.63029 10.384 9.6282 10.3811C9.62611 10.3783 9.62496 10.3745 9.625 10.3705C9.625 10.2654 9.64584 10.1647 9.68753 10.0684Z" fill="#959E74"/>
<path d="M14.4692 11.9412C14.3123 11.93 14.1782 11.8653 14.0667 11.7472C13.7969 11.4132 13.6204 11.0643 13.537 10.7005C13.4831 10.467 13.4443 10.3107 13.4204 10.2316C13.4181 10.2238 13.4124 10.217 13.4042 10.2124C13.396 10.2079 13.3858 10.2058 13.3754 10.2065L13.2764 10.2121C13.348 10.0511 13.4171 10.0342 13.4836 10.1612C13.5019 10.1965 13.5162 10.2468 13.5265 10.3119C13.5869 10.6961 13.7154 11.0564 13.9121 11.3927C14.0442 11.6179 14.2299 11.8007 14.4692 11.9412Z" fill="#FDB9A8"/>
<path d="M14.0665 11.7471C14.0764 11.8578 14.1096 11.9625 14.1663 12.0611C14.23 12.4756 14.0476 12.6928 13.619 12.7128C13.8761 12.6519 14.0335 12.504 14.0911 12.269C14.0966 12.2483 14.0944 12.2252 14.0848 12.2035C13.9911 11.9862 13.8958 11.7697 13.7989 11.5538C13.7577 11.4622 13.7303 11.4587 13.7167 11.5434C13.7134 11.561 13.7146 11.5801 13.7202 11.6006C13.7755 11.7969 13.7904 12.0085 13.7652 12.2355C13.7441 12.4221 13.652 12.5295 13.4891 12.5579C13.5214 11.9425 13.4963 11.3361 13.4139 10.7388C13.4111 10.7165 13.4024 10.696 13.3879 10.6774C13.3373 10.6109 13.3109 10.5663 13.3085 10.5435C13.3034 10.4965 13.2741 10.4781 13.2207 10.4883L13.2762 10.212L13.3753 10.2064C13.3857 10.2057 13.3958 10.2078 13.404 10.2124C13.4122 10.2169 13.4179 10.2237 13.4202 10.2316C13.4441 10.3106 13.483 10.4669 13.5368 10.7005C13.6202 11.0642 13.7968 11.4131 14.0665 11.7471Z" fill="#F77E6B"/>
<path d="M15.2231 10.2266C15.3415 10.2569 15.4073 10.3436 15.4205 10.4869C15.4406 10.7027 15.3725 10.8063 15.216 10.7974C15.1055 10.7914 15.0212 10.746 14.9631 10.6613C14.8966 10.5646 14.8814 10.4397 14.9175 10.2866C15.0097 10.2155 15.1116 10.1955 15.2231 10.2266Z" fill="#744B46"/>
<path d="M11.9529 10.3015C12.0386 10.4388 12.055 10.5648 12.002 10.6797C11.9519 10.789 11.8606 10.8437 11.7281 10.8437C11.5267 10.8446 11.4379 10.7097 11.4618 10.439L11.4997 10.3022C11.6538 10.2315 11.8049 10.2313 11.9529 10.3015Z" fill="#5A403E"/>
<path d="M16.6254 10.5435C16.6339 10.7012 16.6217 10.8161 16.5889 10.8882C16.5069 11.0673 16.3578 11.2266 16.1414 11.3661C16.1245 11.3773 16.1081 11.3831 16.0922 11.3836C16.0449 11.3854 16.0372 11.364 16.069 11.3194C16.1426 11.0124 16.1894 10.7014 16.2095 10.3865C16.2873 10.2116 16.373 10.2069 16.4667 10.3725C16.506 10.4428 16.5589 10.4997 16.6254 10.5435Z" fill="#BF4633"/>
<path d="M17.2105 10.2644C17.3679 10.2858 17.4084 10.3628 17.3321 10.4954C17.297 10.6163 17.2789 10.7545 17.278 10.9098C17.2766 11.1448 17.2803 11.3252 17.2892 11.4513C17.3014 11.6248 17.3527 11.7788 17.4431 11.9132C17.5096 12.0123 17.6269 12.1165 17.795 12.2258C18.0896 12.4179 18.4018 12.5796 18.7315 12.7108C19.3713 12.9648 19.6829 13.4402 19.6665 14.137C19.6628 14.2845 19.6565 14.4317 19.6476 14.5787C19.6349 14.781 19.6368 14.928 19.6532 15.0197C19.7052 15.3072 19.848 15.5502 20.0817 15.7488C20.1857 15.8372 20.2911 15.9235 20.3979 16.0077C20.9233 16.4208 21.1976 16.9674 21.2205 17.6475C21.2355 17.8293 21.158 17.9975 20.988 18.1519C21.0184 17.5607 20.8744 17.0325 20.5559 16.5673C20.4805 16.4566 20.348 16.3208 20.1583 16.1598C19.9972 16.0231 19.8452 15.877 19.7024 15.7216C19.5731 15.5811 19.4858 15.4534 19.4403 15.3385C19.3818 15.1911 19.356 15.0348 19.3631 14.8697C19.3757 14.5789 19.3818 14.2882 19.3813 13.9974C19.3809 13.6821 19.2959 13.4364 19.1263 13.2606C18.9722 13.1006 18.7331 12.9531 18.409 12.8182C18.1308 12.7024 17.8871 12.5794 17.6777 12.4491C17.2197 12.1649 16.9991 11.7434 17.016 11.1848C17.0047 11.0843 17.0277 10.9694 17.0848 10.8401C17.1513 10.6893 17.1932 10.4975 17.2105 10.2644Z" fill="#F07239"/>
<path d="M11.4999 10.3022L11.462 10.439L11.228 10.5102C11.2725 10.3827 11.3631 10.3134 11.4999 10.3022Z" fill="#9F4035"/>
<path d="M9.7054 10.4214C9.7068 10.5581 9.74567 10.6177 9.82201 10.6C9.84965 10.5936 9.87861 10.5952 9.9054 10.6047C9.93219 10.6143 9.95568 10.6313 9.97305 10.6537C10.0925 10.8082 10.1086 10.9117 10.0215 10.9642C10.0119 10.97 10.0007 10.9726 9.98979 10.9716C9.97887 10.9705 9.96879 10.966 9.96111 10.9587L9.71734 10.7242C9.62507 10.627 9.62109 10.5261 9.7054 10.4214Z" fill="#E97066"/>
<path d="M20.3901 12.9321C20.273 12.8339 20.2161 12.6934 20.2194 12.5106C20.2334 11.7328 20.5044 11.099 21.0322 10.6092C21.3521 10.312 21.5239 10.3889 21.5478 10.8402C21.5778 11.404 21.4642 11.9359 21.2071 12.436C21.0877 12.6681 20.9121 12.8441 20.6802 12.9642C20.5763 13.0181 20.4795 13.0074 20.3901 12.9321Z" fill="#FAA575"/>
<path d="M8.87564 10.5212L8.95292 10.6454C8.66442 10.8724 8.49324 11.0174 8.43938 11.0802C8.15743 11.4062 7.99726 11.7854 7.95885 12.2175C7.9242 12.6138 7.89118 12.8511 7.8598 12.9292C7.76239 13.1725 7.61556 13.3816 7.41932 13.5565C7.3116 13.6528 7.20342 13.7479 7.09476 13.8419C6.59972 14.2694 6.43861 14.8044 6.61143 15.4468C6.72664 15.8747 6.61588 16.2392 6.27914 16.5402C5.96348 16.8216 5.7834 17.1835 5.7389 17.6259C5.70331 17.979 5.71595 18.5139 5.77684 19.2307C5.7375 19.3121 5.67217 19.3577 5.58084 19.3675C5.52557 18.8707 5.49935 18.373 5.50216 17.8743C5.5045 17.5408 5.53541 17.2851 5.59489 17.1074C5.68669 16.8358 5.83866 16.6176 6.05082 16.4529C6.31497 16.2478 6.42807 15.9766 6.39014 15.6393C6.36953 15.4579 6.35126 15.2765 6.33534 15.0951C6.29038 14.5862 6.45289 14.1603 6.82289 13.8175C7.0046 13.6496 7.18679 13.4819 7.36945 13.3144C7.52587 13.1707 7.63219 12.9971 7.68839 12.7939C7.71977 12.6804 7.75161 12.4713 7.78393 12.1666C7.86261 11.4302 8.22652 10.8818 8.87564 10.5212Z" fill="#F07239"/>
<path d="M13.2209 10.4883C13.2743 10.4781 13.3036 10.4965 13.3088 10.5435C13.3111 10.5663 13.3376 10.6109 13.3881 10.6774C13.4027 10.696 13.4113 10.7165 13.4141 10.7388C13.4966 11.3361 13.5216 11.9425 13.4893 12.5579C13.3394 12.6244 13.1821 12.6568 13.0172 12.6549C12.9985 12.6544 12.9819 12.6556 12.9673 12.6584C12.8769 12.6756 12.8793 12.6982 12.9744 12.7261C13.1996 12.7921 13.4146 12.7877 13.6193 12.7128C14.0478 12.6928 14.2302 12.4756 14.1665 12.0611C14.2176 12.0099 14.2693 12.0013 14.3218 12.0353C14.3443 12.0497 14.3649 12.0592 14.3836 12.0639C14.4539 12.0806 14.5009 12.1132 14.5248 12.1616C14.618 12.3472 14.6766 12.4577 14.7004 12.493C14.8447 12.7051 15.0547 12.7861 15.3306 12.7358C15.5264 12.7 15.6823 12.6075 15.7985 12.4581C15.902 12.3246 15.9896 12.1704 16.0612 11.9955C16.0795 11.9509 16.0828 11.9125 16.0711 11.8804C16.0565 11.8418 16.0305 11.809 15.9931 11.782L16.2593 11.6571C16.1422 12.4619 15.9184 13.2231 15.5877 13.9409C15.4018 14.3442 15.1414 14.6942 14.8065 14.991C14.0797 15.6371 13.2657 15.8279 12.3646 15.5632C11.9726 15.4478 11.5555 15.2234 11.1134 14.8898C10.4858 14.3447 10.035 13.6806 9.76105 12.8977C9.7592 12.8928 9.75644 12.8885 9.75316 12.8855C9.74988 12.8825 9.74625 12.8809 9.74279 12.881H9.72874L9.70556 12.7763C9.62453 12.4581 9.5332 12.1893 9.43157 11.9697C9.32104 11.7301 9.28592 11.4827 9.32619 11.2273C9.44281 11.4468 9.55802 11.6648 9.67183 11.8811C9.78985 12.1044 9.92357 12.3179 10.073 12.5216C10.2411 12.7505 10.4533 12.8645 10.7094 12.8635C11.301 12.8617 11.5644 12.5665 11.4998 11.9781C11.4986 11.9682 11.494 11.959 11.4867 11.9522C11.4794 11.9453 11.4699 11.9411 11.4597 11.9404C11.0546 11.906 10.6582 11.829 10.2704 11.7094C10.1528 11.6824 10.0606 11.6413 9.99358 11.5859C9.95003 11.5492 9.95448 11.5206 10.0069 11.5001C10.4416 11.7132 10.8921 11.8199 11.3586 11.8204C11.8176 11.8208 12.1995 11.7225 12.5044 11.5252C12.8599 11.2954 13.0987 10.9498 13.2209 10.4883ZM14.5375 13.0959C13.968 13.2387 13.3886 13.3017 12.7994 13.285C12.5596 13.218 12.2953 13.1801 12.0063 13.1712C11.9552 13.1698 11.9424 13.1913 11.9677 13.2354C12.1868 13.6155 12.4737 13.9127 12.8282 14.1272C13.1102 14.2979 13.3893 14.3461 13.6656 14.2716C13.889 14.2107 14.0925 14.0714 14.2761 13.8537C14.441 13.6583 14.5599 13.4336 14.633 13.1796C14.6414 13.1512 14.6438 13.1264 14.64 13.105C14.6297 13.038 14.5955 13.035 14.5375 13.0959Z" fill="#FEB9A6"/>
<path d="M8.95344 10.6455C9.00214 10.6595 9.01971 10.6944 9.00612 10.7502L8.84806 10.9072C8.62934 11.0546 8.46706 11.2491 8.36122 11.4905C8.22259 11.805 8.15936 12.1348 8.17154 12.4799C8.18886 12.966 8.02143 13.3724 7.66923 13.6989C7.4908 13.865 7.32009 14.0385 7.1571 14.2195C6.98054 14.4162 6.88242 14.6402 6.86275 14.8914C6.85572 14.9784 6.87329 15.1131 6.91544 15.2954C6.94682 15.4289 6.96976 15.5638 6.98428 15.7001C7.0077 15.9141 6.9871 16.1011 6.92246 16.2611C6.84659 16.4467 6.73466 16.6065 6.58666 16.7405C6.42649 16.8856 6.30238 17.0466 6.21433 17.2233C6.1422 17.368 6.09537 17.5606 6.07382 17.8011C6.03776 18.2077 6.04432 18.6144 6.09349 19.0215C6.01153 19.1271 5.90615 19.1968 5.77736 19.2308C5.71647 18.514 5.70383 17.979 5.73942 17.6259C5.78392 17.1836 5.964 16.8217 6.27966 16.5402C6.6164 16.2393 6.72716 15.8748 6.61195 15.4468C6.43913 14.8044 6.60024 14.2695 7.09528 13.842C7.20394 13.748 7.31212 13.6529 7.41984 13.5566C7.61608 13.3817 7.76291 13.1726 7.86032 12.9293C7.8917 12.8511 7.92472 12.6139 7.95937 12.2176C7.99778 11.7854 8.15795 11.4063 8.4399 11.0802C8.49376 11.0174 8.66494 10.8725 8.95344 10.6455Z" fill="#FAF3F0"/>
<path d="M9.00572 10.75C9.03429 10.7612 9.05771 10.7786 9.07597 10.8023C9.04038 10.8121 9.02282 10.8354 9.02329 10.8721C8.96849 10.9126 8.90995 10.9242 8.84766 10.907L9.00572 10.75Z" fill="#AE4035"/>
<path d="M9.07625 10.8025L9.44788 11.1542C9.44975 11.1811 9.4371 11.1937 9.40994 11.1918C9.35983 11.1802 9.3158 11.1581 9.27787 11.1256C9.27459 11.1228 9.2707 11.1208 9.26656 11.1197C9.26243 11.1186 9.25819 11.1185 9.25424 11.1193C9.2503 11.1201 9.24678 11.1219 9.24403 11.1245C9.24128 11.127 9.23938 11.1303 9.23853 11.1339L9.21675 11.2386C9.1273 11.6591 9.03246 12.0785 8.93223 12.4967C8.89523 12.6511 8.89055 12.8258 8.91818 13.0207C8.98843 13.5198 9.03901 13.8329 9.06992 13.9599C9.12238 14.1762 9.11629 14.3832 9.05166 14.5809C9.02684 14.6567 8.95846 14.7821 8.84652 14.957C8.73552 15.1305 8.6716 15.2584 8.65474 15.3408C8.61212 15.5505 8.60767 15.712 8.64139 15.825C8.73787 16.146 8.78915 16.3567 8.79524 16.4572C8.80554 16.6335 8.7669 16.7977 8.67932 16.9498C8.64654 17.0056 8.58121 17.1219 8.48332 17.2987C8.3269 17.581 8.30793 17.8869 8.42642 18.2162C8.35804 18.239 8.28779 18.2449 8.21566 18.2337C8.12434 17.8681 8.16977 17.5231 8.35195 17.1989C8.41846 17.0807 8.48496 16.9626 8.55147 16.8444C8.63483 16.697 8.66996 16.5442 8.65685 16.386C8.65685 16.3851 8.61914 16.2518 8.54374 15.9862C8.47208 15.7341 8.47957 15.4852 8.56622 15.2396C8.59057 15.1712 8.65731 15.0658 8.76644 14.9235C8.97438 14.6523 9.04838 14.3436 8.98843 13.9976C8.91818 13.5905 8.87322 13.2672 8.85355 13.0277C8.85261 13.0193 8.85027 13.0121 8.84652 13.006C8.83388 12.987 8.82638 12.9979 8.82404 13.0388C8.81233 13.2519 8.7559 13.4503 8.65474 13.634L8.61961 13.611C8.66082 13.5049 8.6901 13.3547 8.70742 13.1602C8.73318 12.8746 8.83622 12.3771 9.01653 11.6677C9.04276 11.5635 9.06149 11.4526 9.07273 11.3349C9.08351 11.2218 9.09638 11.1093 9.11137 10.9972C9.11746 10.952 9.08819 10.9104 9.02356 10.8723C9.02309 10.8355 9.04065 10.8123 9.07625 10.8025Z" fill="#F6F3F1"/>
<path d="M9.02353 10.8721C9.08816 10.9102 9.11744 10.9518 9.11135 10.997C9.09636 11.1091 9.08348 11.2217 9.07271 11.3347C9.06147 11.4524 9.04274 11.5633 9.01651 11.6675C8.8362 12.3769 8.73316 12.8744 8.7074 13.16C8.69007 13.3545 8.6608 13.5047 8.61959 13.6108C8.47487 13.8034 8.32125 13.9657 8.15874 14.0978C7.80139 14.3876 7.65129 14.7489 7.70842 15.1815C7.70889 15.1829 7.74097 15.3073 7.80467 15.5548C7.88944 15.8837 7.86063 16.2025 7.71826 16.5114C7.71779 16.5123 7.66721 16.5982 7.56651 16.7689C7.41196 17.0303 7.36583 17.3157 7.42812 17.625C7.48104 17.8879 7.46301 18.1612 7.37403 18.4449L6.09334 19.0213C6.04416 18.6142 6.03761 18.2074 6.07367 17.8009C6.09521 17.5604 6.14205 17.3678 6.21417 17.2231C6.30222 17.0464 6.42633 16.8854 6.5865 16.7403C6.7345 16.6063 6.84644 16.4465 6.92231 16.2609C6.98694 16.1009 7.00754 15.9139 6.98413 15.6999C6.96961 15.5636 6.94666 15.4287 6.91528 15.2952C6.87313 15.1129 6.85557 14.9782 6.86259 14.8912C6.88226 14.64 6.98038 14.416 7.15695 14.2192C7.31993 14.0383 7.49064 13.8648 7.66908 13.6987C8.02127 13.3722 8.18871 12.9658 8.17138 12.4797C8.1592 12.1346 8.22243 11.8048 8.36106 11.4903C8.46691 11.2489 8.62919 11.0544 8.8479 10.907C8.91019 10.9242 8.96874 10.9125 9.02353 10.8721Z" fill="#D15931"/>
<path d="M9.40999 11.1917L9.64954 11.408C9.6562 11.4142 9.66175 11.4227 9.66586 11.433C9.66996 11.4433 9.67254 11.4553 9.67343 11.4681C9.67905 11.5434 9.71863 11.603 9.79216 11.6467C9.94905 11.7402 10.1085 11.7611 10.2706 11.7095C10.6584 11.829 11.0548 11.906 11.4599 11.9404C11.4701 11.9412 11.4796 11.9453 11.4869 11.9522C11.4942 11.9591 11.4988 11.9683 11.5 11.9781C11.5646 12.5666 11.3012 12.8617 10.7096 12.8636C10.4535 12.8645 10.2413 12.7505 10.0732 12.5217C9.92376 12.3179 9.79005 12.1044 9.67203 11.8811C9.55822 11.6648 9.44301 11.4469 9.32639 11.2273C9.28517 11.1989 9.24864 11.2027 9.2168 11.2385L9.23857 11.1338C9.23943 11.1302 9.24133 11.1269 9.24408 11.1244C9.24683 11.1218 9.25034 11.12 9.25429 11.1192C9.25823 11.1184 9.26248 11.1185 9.26661 11.1196C9.27075 11.1207 9.27464 11.1227 9.27792 11.1255C9.31585 11.158 9.35988 11.1801 9.40999 11.1917Z" fill="#FB887C"/>
<path d="M9.4476 11.1541L10.0068 11.5001C9.95435 11.5206 9.9499 11.5492 9.99346 11.586C10.0604 11.6413 10.1527 11.6825 10.2703 11.7095C10.1082 11.7611 9.94873 11.7402 9.79184 11.6467C9.71831 11.6029 9.67873 11.5434 9.67311 11.468C9.67222 11.4553 9.66964 11.4433 9.66553 11.433C9.66143 11.4227 9.65588 11.4142 9.64922 11.408L9.40967 11.1917C9.43683 11.1936 9.44948 11.181 9.4476 11.1541Z" fill="#F5988B"/>
<path d="M16.8741 11.157V11.1863C16.8146 11.2347 16.7844 11.2996 16.7835 11.381C16.6758 11.4191 16.6182 11.4889 16.6107 11.5903C16.5681 12.1732 16.6392 12.7663 16.8242 13.3696C16.7657 13.4017 16.754 13.4424 16.7891 13.4917C16.8477 13.8038 16.8104 14.1034 16.6774 14.3904C16.5875 14.5844 16.5072 14.7823 16.4365 14.9842C16.3803 15.1461 16.369 15.3112 16.4027 15.4796C16.4528 15.7271 16.4622 15.9741 16.4308 16.2207C16.406 16.4151 16.3964 16.5388 16.402 16.5919C16.4137 16.7058 16.4437 16.8282 16.492 16.9589C16.6006 17.252 16.5992 17.5625 16.4877 17.8904L16.2433 17.8695C16.3299 17.5601 16.3397 17.2827 16.2728 17.037C16.1988 16.7677 16.1775 16.5154 16.2088 16.28C16.2369 16.0711 16.251 15.9557 16.251 15.9339C16.251 15.8278 16.2421 15.7115 16.2243 15.585C16.1775 15.2487 16.229 14.9247 16.3788 14.613C16.4641 14.4353 16.5069 14.346 16.5074 14.3451C16.646 13.9934 16.6809 13.6275 16.6121 13.2475C16.5226 12.7516 16.4863 12.2513 16.5032 11.7466L16.4772 11.5952C16.4755 11.5851 16.4766 11.5744 16.4805 11.5641C16.4845 11.5537 16.491 11.544 16.4997 11.5359C16.5531 11.4852 16.6065 11.4342 16.6599 11.3831C16.6753 11.3682 16.7048 11.3268 16.7484 11.2589C16.7779 11.2133 16.8198 11.1793 16.8741 11.157Z" fill="#F6F3F1"/>
<path d="M16.8738 11.186L16.9061 11.2237L16.9019 11.8057C16.8307 11.6773 16.7912 11.5356 16.7832 11.3807C16.7841 11.2993 16.8143 11.2344 16.8738 11.186Z" fill="#DC2C21"/>
<path d="M17.0162 11.1848C16.9993 11.7435 17.2199 12.165 17.6779 12.4492C17.8873 12.5794 18.131 12.7025 18.4092 12.8183C18.7333 12.9532 18.9724 13.1007 19.1265 13.2607C19.296 13.4365 19.3811 13.6821 19.3815 13.9975C19.382 14.2883 19.3759 14.579 19.3633 14.8697C19.3562 15.0349 19.382 15.1912 19.4405 15.3386C19.486 15.4535 19.5733 15.5812 19.7026 15.7217C19.8454 15.8771 19.9974 16.0231 20.1585 16.1599C20.3482 16.3208 20.4807 16.4567 20.5561 16.5674C20.8746 17.0326 21.0186 17.5608 20.9882 18.152C20.9442 18.273 20.8524 18.3148 20.7128 18.2776C20.6571 17.8399 20.5395 17.4096 20.3601 16.9867C20.2562 16.7425 20.0836 16.5369 19.8424 16.3699C19.6326 16.2243 19.4291 16.031 19.2319 15.7901C19.0282 15.5403 18.9556 15.237 19.0141 14.8802C19.0867 14.4411 19.0993 14.1236 19.052 13.9277C18.9912 13.6752 18.861 13.4847 18.6614 13.3563C18.4835 13.2418 18.1725 13.0686 17.7285 12.8364C17.2986 12.6122 17.0232 12.2687 16.9023 11.8058L16.9066 11.2239C16.9028 11.1895 16.9393 11.1765 17.0162 11.1848Z" fill="#FAEFE9"/>
<path d="M9.32614 11.2273C9.28586 11.4827 9.32099 11.7302 9.43152 11.9697C9.53315 12.1893 9.62447 12.4582 9.7055 12.7763C9.61089 12.9126 9.56499 13.0522 9.5678 13.195C9.57296 13.4374 9.59871 13.7462 9.64508 14.1216C9.64508 14.124 9.65351 14.1807 9.67037 14.2919C9.71112 14.5598 9.69051 14.8238 9.60855 15.0839C9.52753 15.3425 9.52073 15.6144 9.58817 15.8995C9.61768 16.0247 9.60738 16.1463 9.55726 16.2645C9.49357 16.4143 9.42917 16.5738 9.36407 16.7431C9.28399 16.9525 9.24207 17.1181 9.23832 17.2399C9.22989 17.5195 9.32801 17.7693 9.53268 17.9894L8.42621 18.2161C8.30772 17.8868 8.32669 17.5809 8.48312 17.2986C8.581 17.1218 8.64633 17.0055 8.67912 16.9497C8.7667 16.7976 8.80534 16.6334 8.79504 16.4571C8.78895 16.3566 8.73766 16.1459 8.64118 15.8249C8.60746 15.7118 8.61191 15.5504 8.65453 15.3406C8.67139 15.2583 8.73532 15.1304 8.84632 14.9569C8.95825 14.782 9.02663 14.6566 9.05146 14.5808C9.11609 14.3831 9.12217 14.1761 9.06972 13.9598C9.03881 13.8328 8.98823 13.5197 8.91798 13.0206C8.89034 12.8257 8.89503 12.651 8.93203 12.4965C9.03225 12.0784 9.12709 11.659 9.21655 11.2385C9.24839 11.2027 9.28492 11.1989 9.32614 11.2273Z" fill="#D05735"/>
<path d="M16.7834 11.3809C16.7914 11.5358 16.831 11.6774 16.9021 11.8058C17.023 12.2686 17.2984 12.6122 17.7283 12.8364C18.1723 13.0685 18.4833 13.2418 18.6612 13.3562C18.8608 13.4846 18.991 13.6751 19.0518 13.9277C19.0991 14.1235 19.0865 14.441 19.0139 14.8802C18.9554 15.2369 19.028 15.5402 19.2317 15.79C19.4289 16.031 19.6324 16.2243 19.8422 16.3699C20.0834 16.5369 20.256 16.7425 20.3599 16.9867C20.5393 17.4095 20.6569 17.8398 20.7126 18.2776C20.7594 18.4343 20.7423 18.5699 20.6613 18.6844C20.5461 18.8467 20.44 18.9898 20.3431 19.1135C19.8836 18.7995 19.4122 18.5236 18.9289 18.2859C19.0184 17.9371 19.0629 17.5845 19.0624 17.2281C19.0624 16.983 19.024 16.7892 18.9472 16.6469C18.8554 16.4771 18.716 16.3252 18.5292 16.1913C18.1657 15.9303 18.0292 15.573 18.1196 15.1195C18.1547 14.9446 18.1725 14.8557 18.173 14.8529C18.1959 14.6771 18.1962 14.5373 18.1737 14.4336C18.1362 14.261 18.0177 14.1226 17.8182 14.0184C17.6318 13.9212 17.4419 13.8305 17.2485 13.7463C17.0654 13.6658 16.9239 13.5402 16.8242 13.3695C16.6392 12.7662 16.568 12.1731 16.6106 11.5902C16.6181 11.4888 16.6757 11.419 16.7834 11.3809Z" fill="#CC5834"/>
<path d="M13.6194 12.7129C13.4147 12.7878 13.1997 12.7922 12.9745 12.7261C12.8794 12.6982 12.8771 12.6756 12.9674 12.6584C12.982 12.6556 12.9986 12.6545 13.0173 12.6549C13.1822 12.6568 13.3395 12.6245 13.4894 12.558C13.6524 12.5296 13.7444 12.4221 13.7655 12.2356C13.7908 12.0086 13.7758 11.7969 13.7205 11.6006C13.7149 11.5802 13.7138 11.5611 13.717 11.5434C13.7306 11.4587 13.758 11.4622 13.7992 11.5539C13.8962 11.7697 13.9915 11.9863 14.0852 12.2035C14.0947 12.2252 14.0969 12.2483 14.0915 12.2691C14.0339 12.504 13.8765 12.6519 13.6194 12.7129Z" fill="#FB9684"/>
<path d="M16.5032 11.7464C16.4864 12.2511 16.5227 12.7514 16.6121 13.2473C16.681 13.6273 16.6461 13.9932 16.5074 14.3449C16.507 14.3458 16.4641 14.4351 16.3789 14.6128C16.229 14.9245 16.1775 15.2485 16.2243 15.5848C16.2421 15.7113 16.251 15.8276 16.251 15.9337C16.251 15.9555 16.237 16.0709 16.2089 16.2798C16.1775 16.5152 16.1988 16.7675 16.2728 17.0368C16.3398 17.2825 16.3299 17.5599 16.2433 17.8693L15.5597 17.8002C15.1902 17.7072 14.9785 17.4862 14.9247 17.1373C14.8582 16.7066 14.8263 16.0416 14.8291 15.1424C14.8535 15.1117 14.846 15.0612 14.8066 14.991C15.1415 14.6942 15.4019 14.3442 15.5878 13.9409C15.9185 13.2231 16.1424 12.4618 16.2594 11.6571C16.3302 11.5854 16.3784 11.5966 16.4042 11.6906C16.4173 11.7371 16.4503 11.7557 16.5032 11.7464Z" fill="#C25331"/>
<path d="M14.0669 11.7471C14.1784 11.8652 14.3125 11.9299 14.4694 11.941C14.9912 12.035 15.4991 11.982 15.9932 11.782C16.0307 11.8089 16.0567 11.8417 16.0712 11.8803C16.0829 11.9124 16.0796 11.9508 16.0613 11.9955C15.9897 12.1704 15.9021 12.3246 15.7986 12.4581C15.6824 12.6074 15.5265 12.7 15.3307 12.7358C15.0549 12.786 14.8448 12.7051 14.7006 12.493C14.6767 12.4576 14.6181 12.3471 14.5249 12.1615C14.5011 12.1132 14.454 12.0806 14.3837 12.0639C14.365 12.0592 14.3444 12.0497 14.3219 12.0352C14.2695 12.0013 14.2177 12.0099 14.1667 12.0611C14.11 11.9624 14.0767 11.8578 14.0669 11.7471Z" fill="#FA8777"/>
<path d="M9.70547 12.7764L9.72865 12.881C9.66964 13.3057 9.68252 13.7286 9.76729 14.1496C9.83988 14.5119 9.83192 14.845 9.7434 15.1488C9.70828 15.2697 9.68884 15.3811 9.68509 15.483C9.68322 15.5356 9.7064 15.6435 9.75464 15.8068C9.78508 15.911 9.79867 16.017 9.79539 16.1249C9.79258 16.2063 9.76518 16.3073 9.71319 16.4278C9.63264 16.6129 9.56286 16.8018 9.50385 16.9944C9.47013 17.1055 9.45771 17.2025 9.46661 17.2853C9.47926 17.3998 9.51438 17.4944 9.57199 17.5693C9.65489 17.6763 9.73052 17.7882 9.7989 17.9049C9.72443 17.9663 9.63568 17.9945 9.53265 17.9894C9.32798 17.7693 9.22986 17.5195 9.23829 17.24C9.24204 17.1181 9.28396 16.9525 9.36404 16.7432C9.42914 16.5738 9.49354 16.4143 9.55723 16.2645C9.60735 16.1463 9.61765 16.0247 9.58814 15.8996C9.5207 15.6144 9.5275 15.3425 9.60852 15.0839C9.69048 14.8238 9.71109 14.5599 9.67034 14.2919C9.65348 14.1807 9.64505 14.124 9.64505 14.1217C9.59868 13.7463 9.57293 13.4374 9.56777 13.195C9.56496 13.0522 9.61086 12.9127 9.70547 12.7764Z" fill="#FAF9F9"/>
<path d="M9.72869 12.8811H9.74274C9.74621 12.881 9.74984 12.8826 9.75312 12.8856C9.7564 12.8887 9.75916 12.8929 9.76101 12.8979C10.035 13.6807 10.4858 14.3448 11.1134 14.89C11.0951 14.9951 11.1021 15.0877 11.1344 15.1677C11.1386 15.4914 11.1375 16.0841 11.1309 16.9456C11.1272 17.4112 10.9096 17.7078 10.4783 17.8352L9.79894 17.905C9.73056 17.7883 9.65493 17.6764 9.57203 17.5694C9.51442 17.4945 9.4793 17.3998 9.46665 17.2854C9.45776 17.2026 9.47017 17.1056 9.50389 16.9944C9.5629 16.8018 9.63268 16.613 9.71324 16.4278C9.76522 16.3074 9.79262 16.2064 9.79543 16.125C9.79871 16.0171 9.78513 15.911 9.75468 15.8068C9.70644 15.6436 9.68326 15.5356 9.68514 15.4831C9.68888 15.3812 9.70832 15.2698 9.74345 15.1488C9.83196 14.8451 9.83993 14.512 9.76733 14.1496C9.68256 13.7287 9.66968 13.3058 9.72869 12.8811Z" fill="#C55230"/>
<path d="M8.21554 18.2336L7.70621 18.3787L7.63596 18.3382C7.6917 18.047 7.68397 17.7489 7.61278 17.4437C7.59123 17.3521 7.59943 17.2634 7.63737 17.1779C7.73994 16.9467 7.84484 16.7031 7.95209 16.4473C8.01766 16.2896 8.04108 16.1417 8.02235 16.0035C8.00314 15.8635 7.94601 15.6004 7.85093 15.2143C7.75399 14.8208 7.86381 14.4733 8.18041 14.1719C8.38227 13.9798 8.54034 13.8004 8.65461 13.6339C8.75577 13.4502 8.81221 13.2518 8.82392 13.0387C8.82626 12.9978 8.83375 12.9868 8.8464 13.0059C8.85014 13.012 8.85249 13.0192 8.85342 13.0275C8.87309 13.2671 8.91805 13.5904 8.98831 13.9974C9.04825 14.3435 8.97426 14.6522 8.76631 14.9234C8.65719 15.0657 8.59045 15.1711 8.56609 15.2395C8.47945 15.4851 8.47196 15.7339 8.54361 15.9861C8.61902 16.2517 8.65672 16.385 8.65672 16.3859C8.66983 16.5441 8.63471 16.6969 8.55134 16.8443C8.48484 16.9625 8.41833 17.0806 8.35183 17.1988C8.16964 17.523 8.12421 17.8679 8.21554 18.2336Z" fill="#D05735"/>
<path d="M4.65913 15.3273C4.56312 15.3305 4.50107 15.2863 4.47297 15.1947C4.4355 15.0728 4.41864 14.9412 4.42239 14.7998C4.43971 14.1132 4.69121 13.5433 5.17689 13.0903C5.26915 13.0042 5.35135 12.9893 5.42347 13.0456C5.46984 13.0814 5.4963 13.1428 5.50286 13.2298C5.51691 13.4317 5.50707 13.6315 5.47335 13.8292C5.43869 14.0297 5.39373 14.2234 5.33847 14.4104C5.25697 14.6886 5.1263 14.9454 4.94646 15.1808C4.8748 15.2747 4.77903 15.3236 4.65913 15.3273Z" fill="#FB9C65"/>
<path d="M12.7994 13.2851C12.9025 13.4731 13.0137 13.6349 13.1331 13.7708C13.2736 13.9303 13.4368 14.0055 13.6228 13.9961C13.7708 13.9887 13.919 13.9203 14.0675 13.791C14.2782 13.6082 14.4349 13.3765 14.5375 13.096C14.5955 13.0351 14.6297 13.0381 14.64 13.1051C14.6438 13.1265 14.6414 13.1514 14.633 13.1798C14.5599 13.4338 14.441 13.6584 14.2761 13.8538C14.0925 14.0715 13.889 14.2108 13.6656 14.2718C13.3893 14.3462 13.1102 14.298 12.8282 14.1273C12.4737 13.9129 12.1868 13.6156 11.9676 13.2356C11.9424 13.1914 11.9552 13.17 12.0063 13.1714C12.2953 13.1802 12.5596 13.2181 12.7994 13.2851Z" fill="#DB534B"/>
<path d="M14.5373 13.0959C14.4348 13.3764 14.2781 13.6081 14.0674 13.7909C13.9189 13.9202 13.7707 13.9886 13.6227 13.9961C13.4367 14.0054 13.2735 13.9302 13.133 13.7707C13.0136 13.6349 12.9024 13.473 12.7993 13.285C13.3885 13.3018 13.9678 13.2388 14.5373 13.0959Z" fill="#FDFDFD"/>
<path d="M16.8244 13.3694C16.9242 13.5401 17.0656 13.6657 17.2487 13.7462C17.4422 13.8304 17.6321 13.9211 17.8185 14.0183C18.018 14.1225 18.1365 14.2609 18.174 14.4335C18.1964 14.5372 18.1962 14.677 18.1732 14.8528C18.1728 14.8556 18.155 14.9445 18.1199 15.1194C18.0295 15.5729 18.166 15.9302 18.5294 16.1911C18.7163 16.3251 18.8556 16.477 18.9474 16.6468C19.0242 16.7891 19.0626 16.9829 19.0626 17.228C19.0631 17.5843 19.0186 17.937 18.9292 18.2858C18.8851 18.2975 18.8257 18.2905 18.7507 18.2649C18.8392 17.889 18.8954 17.5097 18.9193 17.1268C18.9296 16.9571 18.9078 16.8173 18.854 16.7075C18.7884 16.5735 18.695 16.4591 18.5737 16.3642C18.451 16.2674 18.3889 16.2186 18.3875 16.2177C18.0681 15.9139 17.9616 15.5278 18.0679 15.0594C18.0908 14.9575 18.1093 14.8547 18.1234 14.751C18.166 14.4314 18.044 14.2002 17.7574 14.0574C17.5733 13.9653 17.3857 13.8799 17.1946 13.8013C17.0317 13.7339 16.8965 13.6306 16.7893 13.4915C16.7542 13.4422 16.7659 13.4015 16.8244 13.3694Z" fill="#F9D6D5"/>
<path d="M16.7891 13.4917C16.8964 13.6308 17.0315 13.7341 17.1945 13.8015C17.3856 13.8801 17.5732 13.9655 17.7572 14.0576C18.0438 14.2004 18.1658 14.4316 18.1232 14.7512C18.1092 14.8549 18.0907 14.9577 18.0677 15.0596C17.9614 15.528 18.068 15.9141 18.3874 16.2179C18.3888 16.2188 18.4508 16.2676 18.5735 16.3644C18.6948 16.4593 18.7883 16.5737 18.8538 16.7077C18.9077 16.8175 18.9295 16.9573 18.9192 17.1271C18.8953 17.5099 18.8391 17.8892 18.7506 18.2651C18.3253 18.147 17.8745 18.0735 17.3982 18.0446L16.4878 17.8904C16.5992 17.5625 16.6006 17.252 16.492 16.9589C16.4437 16.8282 16.4138 16.7058 16.4021 16.5919C16.3964 16.5388 16.406 16.4151 16.4309 16.2207C16.4622 15.9741 16.4529 15.7271 16.4028 15.4796C16.369 15.3112 16.3803 15.1461 16.4365 14.9842C16.5072 14.7823 16.5875 14.5844 16.6774 14.3904C16.8105 14.1034 16.8477 13.8038 16.7891 13.4917Z" fill="#CA5632"/>
<path d="M8.61958 13.6108L8.65471 13.6339C8.54043 13.8004 8.38237 13.9797 8.18051 14.1718C7.86391 14.4733 7.75408 14.8208 7.85103 15.2143C7.9461 15.6004 8.00324 15.8635 8.02244 16.0035C8.04118 16.1416 8.01776 16.2896 7.95219 16.4473C7.84494 16.7031 7.74003 16.9466 7.63747 17.1778C7.59953 17.2634 7.59133 17.352 7.61288 17.4437C7.68406 17.7488 7.69179 18.047 7.63606 18.3382C7.55738 18.401 7.47003 18.4366 7.37402 18.445C7.46301 18.1612 7.48104 17.8879 7.42811 17.6251C7.36582 17.3157 7.41196 17.0303 7.56651 16.7689C7.66721 16.5982 7.71779 16.5124 7.71825 16.5114C7.86063 16.2026 7.88944 15.8837 7.80467 15.5548C7.74097 15.3073 7.70889 15.1829 7.70842 15.1815C7.65128 14.7489 7.80139 14.3877 8.15873 14.0979C8.32125 13.9658 8.47486 13.8034 8.61958 13.6108Z" fill="#FAF9F9"/>
<path d="M11.1134 14.8899C11.5555 15.2234 11.9726 15.4479 12.3646 15.5632C13.2657 15.8279 14.0797 15.6372 14.8065 14.9911C14.8459 15.0613 14.8534 15.1118 14.829 15.1425C14.6103 15.496 14.3832 15.7758 14.1476 15.9819C13.7111 16.3629 13.2376 16.4885 12.7271 16.3587C12.4634 16.2912 12.1742 16.1275 11.8595 15.8675C11.6 15.653 11.3584 15.4197 11.1345 15.1676C11.1022 15.0876 11.0951 14.995 11.1134 14.8899Z" fill="#F4867C"/>
<path d="M14.8292 15.1426C14.8264 16.0418 14.8582 16.7067 14.9247 17.1375C14.9786 17.4864 15.1903 17.7073 15.5598 17.8004L15.4678 20.3451C15.3854 20.5093 15.2643 20.6568 15.1046 20.7875C14.5229 21.2643 13.8773 21.546 13.1677 21.6325C12.6624 21.6939 12.2016 21.6467 11.7852 21.4908C11.3257 21.3183 10.933 21.0301 10.6071 20.6263C10.6104 20.5617 10.5811 20.5326 10.5193 20.5391L10.4785 17.8353C10.9099 17.7078 11.1274 17.4112 11.1312 16.9456C11.1377 16.0841 11.1389 15.4915 11.1347 15.1677C11.3585 15.4198 11.6002 15.6531 11.8597 15.8676C12.1744 16.1276 12.4636 16.2913 12.7273 16.3588C13.2378 16.4886 13.7113 16.363 14.1478 15.982C14.3833 15.7759 14.6105 15.4961 14.8292 15.1426ZM12.8524 18.1334C12.8525 18.1162 12.8457 18.0997 12.8335 18.0875C12.8213 18.0753 12.8047 18.0684 12.7873 18.0683L12.7831 18.0683C12.7745 18.0683 12.766 18.0699 12.7581 18.0732C12.7502 18.0764 12.7429 18.0811 12.7369 18.0872C12.7308 18.0932 12.7259 18.1003 12.7226 18.1082C12.7193 18.116 12.7176 18.1244 12.7176 18.133L12.7131 19.4057C12.713 19.4229 12.7199 19.4394 12.7321 19.4516C12.7443 19.4638 12.7609 19.4707 12.7782 19.4708L12.7824 19.4708C12.791 19.4708 12.7995 19.4692 12.8074 19.466C12.8154 19.4627 12.8226 19.458 12.8287 19.452C12.8348 19.446 12.8396 19.4388 12.8429 19.431C12.8462 19.4231 12.8479 19.4147 12.848 19.4062L12.8524 18.1334Z" fill="#FDB9A8"/>
<path d="M15.5594 17.8003L16.2429 17.8694L16.4874 17.8903L17.3978 18.0445L17.8545 21.3868C17.1407 21.8357 16.36 22.1795 15.5123 22.4181C15.5052 22.4201 15.4977 22.4205 15.4905 22.4192C15.4832 22.4178 15.4764 22.4148 15.4704 22.4103C15.4645 22.4059 15.4597 22.4001 15.4563 22.3934C15.453 22.3868 15.4512 22.3795 15.4512 22.372L15.4673 20.345L15.5594 17.8003Z" fill="#3D2338"/>
<path d="M10.4781 17.8352L10.5189 20.539V21.1845L10.5161 22.4349C10.516 22.4447 10.5137 22.4544 10.5094 22.4632C10.505 22.472 10.4988 22.4798 10.491 22.4859C10.4833 22.492 10.4742 22.4963 10.4646 22.4984C10.4549 22.5006 10.4449 22.5006 10.4353 22.4984C9.33185 22.2407 8.32609 21.7955 7.41797 21.1628C7.56971 20.2292 7.66572 19.3012 7.706 18.3788L8.21532 18.2336C8.28745 18.2448 8.3577 18.239 8.42608 18.2162L9.53254 17.9894C9.63558 17.9945 9.72433 17.9664 9.79879 17.905L10.4781 17.8352Z" fill="#3D2338"/>
<path d="M18.7503 18.2649C18.8252 18.2905 18.8847 18.2975 18.9287 18.2859C19.4121 18.5236 19.8834 18.7994 20.3429 19.1134C19.6591 20.0335 18.8297 20.7913 17.8546 21.3867L17.3979 18.0444C17.8743 18.0733 18.325 18.1468 18.7503 18.2649Z" fill="#FCB7A5"/>
<path d="M12.7873 18.0681L12.7831 18.0681C12.747 18.068 12.7177 18.0969 12.7175 18.1328L12.7131 19.4055C12.7129 19.4413 12.7421 19.4705 12.7782 19.4706L12.7824 19.4706C12.8185 19.4707 12.8478 19.4418 12.848 19.4059L12.8524 18.1332C12.8526 18.0974 12.8234 18.0682 12.7873 18.0681Z" fill="#F98D7D"/>
<path d="M7.63575 18.3384L7.706 18.3788C7.66572 19.3013 7.56971 20.2293 7.41797 21.1629C6.70421 20.7001 6.07335 20.1491 5.52539 19.5099L5.58089 19.3676C5.67221 19.3578 5.73755 19.3122 5.77689 19.2308C5.90568 19.1969 6.01106 19.1271 6.09302 19.0215L7.37371 18.4451C7.46972 18.4368 7.55707 18.4012 7.63575 18.3384Z" fill="#FBBBA8"/>
<path d="M10.519 20.539C10.5809 20.5325 10.6101 20.5615 10.6069 20.6262L10.5577 20.6527C10.5514 20.656 10.546 20.6635 10.542 20.6743C10.538 20.6851 10.5356 20.6987 10.5352 20.7134L10.519 21.1844V20.539Z" fill="#FAF3F0"/>
</svg>
