<svg width="23" height="23" viewBox="0 0 23 23" fill="none" xmlns="http://www.w3.org/2000/svg">
<rect width="23" height="23" rx="7.5" fill="#CDC8C7"/>
<path d="M4.72 13.048V11.98H6.988V9.856H8.092V11.98H10.36V13.048H8.092V15.184H6.988V13.048H4.72ZM11.7621 16V15.088C12.3061 14.656 12.8261 14.22 13.3221 13.78C13.8181 13.34 14.2581 12.908 14.6421 12.484C15.0341 12.052 15.3421 11.632 15.5661 11.224C15.7901 10.808 15.9021 10.408 15.9021 10.024C15.9021 9.768 15.8581 9.528 15.7701 9.304C15.6821 9.072 15.5381 8.888 15.3381 8.752C15.1381 8.608 14.8701 8.536 14.5341 8.536C14.0301 8.536 13.6501 8.696 13.3941 9.016C13.1461 9.336 13.0261 9.72 13.0341 10.168H11.7981C11.8061 9.576 11.9301 9.08 12.1701 8.68C12.4181 8.28 12.7461 7.976 13.1541 7.768C13.5701 7.56 14.0381 7.456 14.5581 7.456C15.3501 7.456 15.9821 7.68 16.4541 8.128C16.9341 8.568 17.1741 9.184 17.1741 9.976C17.1741 10.448 17.0581 10.916 16.8261 11.38C16.6021 11.844 16.3061 12.292 15.9381 12.724C15.5781 13.148 15.1901 13.548 14.7741 13.924C14.3581 14.3 13.9621 14.64 13.5861 14.944H17.4261V16H11.7621Z" fill="#575757"/>
</svg>
