<svg width="26" height="25" viewBox="0 0 26 25" fill="none" xmlns="http://www.w3.org/2000/svg">
<rect x="1.5" y="1" width="23" height="23" rx="6.5" fill="#FDE8E1"/>
<rect x="1.5" y="1" width="23" height="23" rx="6.5" stroke="#FDFDFD" stroke-width="2"/>
<path d="M6.36035 19.1311C8.13573 20.8997 10.2709 21.8511 12.7658 21.9852C13.2437 22.0105 13.7123 22.0034 14.1715 21.9639C16.0417 21.8022 17.7305 21.1429 19.2381 19.986C19.7582 19.5869 20.2146 19.1656 20.6072 18.7219" stroke="#F2ACA9"/>
<path d="M20.6071 18.7219C21.9443 17.1641 22.7225 15.3698 22.9416 13.3389C23.0405 12.4236 23.0138 11.5508 22.8614 10.7204C22.3975 8.19033 21.1636 6.13191 19.1598 4.54516C18.7874 4.25031 18.4023 3.98968 18.0045 3.76327C16.118 2.68859 14.0809 2.29959 11.8932 2.59628C11.4199 2.66012 10.9619 2.75679 10.5191 2.8863C9.24606 3.25831 8.10531 3.85902 7.09684 4.68845C5.82898 5.73098 4.87797 7.0222 4.24381 8.56211C3.42906 10.5411 3.28365 12.5708 3.80759 14.6512C4.23537 16.3514 5.08623 17.8447 6.36019 19.1311" stroke="#FEF3F0"/>
<path d="M20.6071 18.722C20.314 18.6063 20.0649 18.4852 19.8599 18.3589C19.7971 18.3204 19.7288 18.2976 19.6552 18.2907C19.5098 18.277 19.4061 18.2384 19.3442 18.175C19.3128 18.1424 19.2961 18.1254 19.2942 18.124C19.1507 18.006 18.9854 17.9589 18.7982 17.9828C18.7873 17.9843 18.7763 17.9833 18.766 17.9798C18.7557 17.9763 18.7465 17.9705 18.7391 17.9628C18.6472 17.8687 18.5437 17.8025 18.4288 17.7644C18.0081 17.6253 17.6356 17.4914 17.3115 17.3628" stroke="#F1A19B"/>
<path d="M17.3114 17.3628L17.0771 17.1616" stroke="#DDA493"/>
<path d="M17.0771 17.1616C17.39 17.2874 17.7092 17.3056 18.0347 17.216C18.2238 17.1637 18.3701 17.0574 18.4738 16.8971C18.5038 16.8507 18.5071 16.8185 18.4836 16.8006C18.4766 16.7953 18.4668 16.7933 18.456 16.795C18.4451 16.7966 18.4338 16.8017 18.4238 16.8096C18.2878 16.9166 18.137 16.9536 17.9714 16.9205C17.7964 16.8856 17.6963 16.7956 17.671 16.6504C17.6541 16.5545 17.6745 16.4394 17.7322 16.3053C17.8321 16.0729 17.9925 15.869 18.2134 15.6936C18.4588 15.4984 18.6982 15.2727 18.9318 15.0164C19.1978 14.7248 19.3786 14.4552 19.4743 14.2076C19.6558 13.7364 19.6598 13.2411 19.4862 12.7217" stroke="#8B7A7F"/>
<path d="M19.4864 12.7215C19.8734 12.608 20.1462 12.3798 20.3047 12.0367C20.3896 11.8521 20.4091 11.6597 20.3631 11.4594C20.3439 11.374 20.3141 11.3703 20.2738 11.4484C20.1593 11.6693 19.9881 11.8018 19.7601 11.8459C19.5167 11.8932 19.2796 11.8725 19.0488 11.7839C18.7922 11.6851 18.538 11.4904 18.2861 11.1997" stroke="#8B7A7F"/>
<path d="M18.2862 11.2C18.0788 10.9157 17.9388 10.6296 17.8661 10.3416C17.7432 9.85524 17.6569 9.29815 17.6072 8.67034C17.5678 8.16974 17.4958 7.7509 17.3912 7.4138C17.2256 6.88013 16.867 6.48976 16.3154 6.24268" stroke="#AE8880"/>
<path d="M16.3152 6.2427C16.5722 6.12375 16.8429 6.05601 17.1271 6.03948C17.4278 6.02202 17.5624 5.86519 17.531 5.56896C17.5164 5.43026 17.474 5.30006 17.4036 5.17836C17.3309 5.05206 17.2308 5.02565 17.1032 5.09914C16.7322 5.31315 16.4059 5.58619 16.1245 5.91823" stroke="#F1A19B"/>
<path d="M16.1245 5.91813C15.5762 5.05701 14.8257 4.49923 13.873 4.2448C13.2768 4.08544 12.6577 4.05467 12.0156 4.15249C11.5948 4.21633 11.2433 4.30634 10.9609 4.42254C10.6063 4.56858 10.3033 4.77778 10.0519 5.05012C9.82858 5.29169 9.74298 5.59159 9.79504 5.94982" stroke="#AE8880"/>
<path d="M9.79515 5.94995C9.58314 6.21862 9.4253 6.47833 9.32164 6.72909C9.07304 7.33118 8.96704 7.9792 9.00362 8.67315" stroke="#DDA493"/>
<path d="M9.00368 8.6731C8.741 8.82465 8.71356 9.01042 8.92136 9.23041" stroke="#8B7D7E"/>
<path d="M8.92109 9.23047C8.88732 9.73061 8.90304 10.233 8.96823 10.7378" stroke="#DDA493"/>
<path d="M8.9683 10.7375C8.82429 10.9139 8.74714 11.1139 8.73682 11.3376" stroke="#D6948B"/>
<path d="M8.73695 11.3379C8.71256 11.5556 8.75219 11.776 8.85586 11.9992C9.09836 12.5228 9.34907 13.1414 9.60799 13.8551" stroke="#DDA493"/>
<path d="M9.60818 13.855C9.57535 14.1099 9.48575 14.3868 9.33941 14.6858C9.19682 14.9779 9.1349 15.2849 9.15366 15.6068C9.17149 15.921 9.2728 16.2053 9.45761 16.4597C9.69214 16.7821 10.0123 17.0198 10.418 17.1727" stroke="#8B7A80"/>
<path d="M10.4175 17.1726C10.199 17.3471 9.96114 17.4746 9.7041 17.5549" stroke="#DDA493"/>
<path d="M9.70449 17.5549C9.2162 17.7221 8.74644 17.9281 8.29521 18.1729C8.2469 18.199 8.15777 18.2303 8.02785 18.2666C7.92418 18.2955 7.82615 18.3483 7.73375 18.425C7.69716 18.4553 7.65706 18.4801 7.61343 18.4994C7.15939 18.701 6.74169 18.9116 6.36035 19.1311" stroke="#F1A19B"/>
<path d="M13.3601 8.48155C13.1045 8.4347 12.8561 8.42253 12.615 8.44504C12.5264 8.45284 12.4787 8.50015 12.4722 8.58695C12.4628 8.70957 12.487 8.80648 12.5447 8.87766" stroke="#6A382F"/>
<path d="M12.5446 8.87744C12.4484 8.96424 12.3211 9.00879 12.1625 9.01109C11.9815 9.01338 11.848 9.09421 11.7622 9.25358" stroke="#BC5F44"/>
<path d="M11.7621 9.25366C11.6345 9.4066 11.5641 9.53381 11.551 9.63531C11.5299 9.79881 11.5421 10.0023 11.5876 10.2457C11.6345 10.4932 11.668 10.6489 11.6882 10.7127C11.7384 10.868 11.8209 11.0087 11.9359 11.135C12.0278 11.2356 12.1075 11.3302 12.1751 11.4189C12.2267 11.4864 12.2292 11.5553 12.1828 11.6255C12.0974 11.756 11.9912 11.8496 11.8641 11.9066C11.5644 12.0407 11.2489 12.0981 10.9178 12.0788C10.6546 12.0637 10.4285 11.9691 10.2395 11.795C10.2315 11.7876 10.2218 11.7826 10.2115 11.7807C10.2013 11.7789 10.1912 11.7802 10.1825 11.7847C10.1192 11.8164 10.0964 11.862 10.1143 11.9218C10.126 11.9612 10.157 12.001 10.2071 12.0409C10.3394 12.1456 10.4872 12.2111 10.6504 12.2373C10.6978 12.2451 10.8551 12.2589 11.1225 12.2786C11.3786 12.2979 11.6328 12.2731 11.8852 12.2042" stroke="#A74E3B"/>
<path d="M11.8853 12.2043L11.8881 12.2533" stroke="#BC5F44"/>
<path d="M11.888 12.2532C11.6943 12.3143 11.5834 12.4247 11.5552 12.5845C11.5327 12.7136 11.5958 12.8031 11.7445 12.8532" stroke="#6B3632"/>
<path d="M11.7445 12.8533C11.5747 12.9015 11.4046 12.9015 11.2344 12.8533" stroke="#BE6246"/>
<path d="M11.2346 12.8533C11.2613 12.7541 11.2627 12.6588 11.2388 12.5674C11.2149 12.4779 11.1567 12.4111 11.0643 12.367C10.9063 12.2917 10.7475 12.2838 10.588 12.3436C10.2118 12.485 9.93625 12.7548 9.76129 13.153C9.67921 13.3404 9.62808 13.5744 9.60791 13.855" stroke="#6B3632"/>
<path d="M8.73682 11.3376C8.91037 11.5415 9.08767 11.6731 9.26873 11.7323C9.44884 11.7911 9.6102 11.7567 9.75279 11.629C9.95026 11.4517 10.0382 11.24 10.0166 10.9938C10.0087 10.9075 9.9777 10.84 9.92376 10.7913C9.86419 10.738 9.79102 10.7031 9.70424 10.6866C9.4533 10.6388 9.20798 10.6558 8.9683 10.7376" stroke="#B5503D"/>
<path d="M8.92139 9.23031L10.1442 8.99264C10.1657 8.98851 10.1854 8.97879 10.2011 8.96464C10.2168 8.95049 10.2278 8.93248 10.2329 8.91273C10.307 8.62569 10.2012 8.49181 9.91555 8.5111C9.62098 8.53085 9.31704 8.58481 9.00371 8.67299" stroke="#6A382F"/>
<path d="M11.2345 12.8533C11.0778 12.93 10.9136 12.986 10.742 13.0214C10.6069 13.0494 10.5185 13.0801 10.4767 13.1137C10.3956 13.1784 10.355 13.2705 10.355 13.3899C10.3545 13.7605 10.3798 14.1737 10.431 14.6292C10.4605 14.8942 10.5607 15.1119 10.7314 15.2823C10.8876 15.4385 11.0926 15.5379 11.3463 15.5806C11.8332 15.6619 12.1932 15.4584 12.4263 14.9702C12.7054 14.3851 12.7371 13.7757 12.5213 13.1419" stroke="#6D3933"/>
<path d="M12.5217 13.142C12.4058 13.0565 12.3003 13.0095 12.2051 13.0007" stroke="#888088"/>
<path d="M12.2048 13.0007C12.057 12.9203 11.9036 12.8712 11.7446 12.8533" stroke="#6D3933"/>
<path d="M17.3113 17.3628C17.2503 17.8064 17.1335 18.231 16.9609 18.6366C16.7789 19.0655 16.5392 19.4299 16.2418 19.7298C15.6264 20.3508 14.8426 20.706 13.8904 20.7956C13.4425 20.8378 13.0107 20.8185 12.5951 20.7377C12.1767 20.6559 11.7813 20.5021 11.4089 20.2761C10.4225 19.6773 9.8542 18.7702 9.7041 17.555" stroke="#D15C4C"/>
<path d="M10.418 17.1726C10.6483 17.2631 10.8912 17.3166 11.1469 17.3331C12.1694 17.3988 13.1298 17.196 14.0281 16.7248C14.7664 16.3372 15.2234 15.7695 15.3993 15.0219C15.5171 14.5204 15.5675 13.9624 15.5506 13.3479C15.5398 12.9437 15.5234 12.6385 15.5014 12.4323C15.4681 12.1219 15.4024 11.8217 15.3044 11.5319C15.2847 11.4736 15.2666 11.4741 15.2502 11.5333C15.1029 12.0523 14.9641 12.5731 14.8337 13.0957C14.8046 13.2137 14.7366 13.4266 14.6296 13.7343C14.5049 14.0935 14.3053 14.3904 14.0309 14.6251C13.9408 14.7018 13.8611 14.7481 13.7917 14.7642C13.6894 14.7886 13.5921 14.7681 13.4997 14.7029C13.221 14.5073 13.1066 14.2354 13.1563 13.8873C13.26 13.1616 12.9837 12.644 12.3275 12.3345C12.1891 12.2693 12.0428 12.2422 11.8885 12.2532" stroke="#6B3632"/>
<path d="M11.8852 12.2042C12.0892 12.1835 12.2372 12.0692 12.3292 11.8611C12.4783 11.524 12.4391 11.2322 12.2117 10.9855C12.0484 10.8087 11.9351 10.5812 11.8718 10.3028C11.7836 9.91248 11.7471 9.56275 11.7621 9.25366" stroke="#A74E3B"/>
<path d="M19.4316 12.7153L19.4865 12.7215" stroke="#180B1D"/>
<path d="M17.0773 17.1616C16.8118 17.0022 16.6467 16.7898 16.582 16.5244C16.2588 15.1953 15.9481 13.8629 15.6498 12.5274C15.648 12.5196 15.648 12.5115 15.6497 12.5037C15.6513 12.4958 15.6547 12.4884 15.6594 12.4819C15.6642 12.4754 15.6703 12.47 15.6774 12.466C15.6844 12.4619 15.6923 12.4594 15.7004 12.4585C15.9969 12.4259 16.2281 12.2845 16.3941 12.0342C16.5588 11.7857 16.6383 11.5129 16.6327 11.2158C16.6219 10.6605 16.3268 10.3459 15.7475 10.272C15.7309 10.2698 15.7154 10.2616 15.7039 10.2486C15.6923 10.2357 15.6854 10.2189 15.6842 10.201L15.6498 9.63818" stroke="#6A3531"/>
<path d="M16.1245 5.91821C16.1428 5.95404 16.1618 6.02637 16.1815 6.13521C16.1932 6.19813 16.2378 6.23396 16.3152 6.24268" stroke="#A2413A"/>
<path d="M18.2861 11.1997L18.4599 11.5194C18.4661 11.5307 18.4707 11.5419 18.4732 11.5525C18.4757 11.563 18.4762 11.5726 18.4747 11.5807C18.4306 11.808 18.4609 11.9876 18.5655 12.1194C18.746 12.3476 19.0289 12.5127 19.414 12.6147C19.4684 12.6289 19.4743 12.6625 19.4316 12.7153" stroke="#3C1A1E"/>
<path d="M19.4316 12.7155C19.1009 12.7839 18.7805 12.7685 18.4705 12.6693C18.2852 12.6105 18.1152 12.5391 17.9604 12.4551C17.7826 12.3586 17.6412 12.2383 17.5361 12.0941C17.4658 11.9967 17.4644 11.8874 17.5319 11.7662C17.5381 11.7548 17.5421 11.7432 17.5438 11.7322C17.5455 11.7212 17.5448 11.7112 17.5418 11.7028L17.3947 11.3239C17.3825 11.2927 17.3781 11.2938 17.3813 11.3274C17.3931 11.4532 17.3933 11.579 17.3821 11.7049C17.3656 11.8803 17.3595 12.0055 17.3638 12.0803C17.3806 12.3977 17.4182 12.7125 17.4763 13.0248C17.5481 13.4083 17.5898 13.6889 17.6016 13.8666C17.6339 14.3599 17.6403 14.8538 17.6206 15.3484C17.6201 15.3654 17.6173 15.3801 17.6121 15.3925C17.5971 15.426 17.5805 15.4311 17.5622 15.4077C17.5537 15.3971 17.549 15.3826 17.5481 15.3643C17.542 15.2297 17.5366 14.9103 17.5319 14.406C17.5291 14.136 17.4998 13.8397 17.444 13.5173C17.4088 13.3125 17.334 13.025 17.2195 12.6549C16.9639 11.8263 16.7924 11.0782 16.7052 10.4104C16.5889 9.51946 16.4648 8.62964 16.333 7.74097" stroke="#3C1A1E"/>
<path d="M16.3326 7.74097C16.2585 7.47643 16.2235 7.20661 16.2277 6.93151C16.2301 6.77077 16.2256 6.61003 16.2144 6.44929C16.2137 6.43781 16.2104 6.4269 16.2047 6.41769C16.199 6.40848 16.1912 6.40131 16.182 6.39693C16.1454 6.37948 16.1154 6.38201 16.092 6.40451C16.0854 6.4107 16.0808 6.41962 16.0788 6.4303C16.0769 6.44099 16.0775 6.45304 16.0807 6.46513C16.1351 6.6741 16.1475 6.88191 16.118 7.08858C16.0931 7.26035 16.0469 7.44222 15.9794 7.63419C15.9193 7.80366 15.8342 7.97266 15.724 8.14121C15.3886 8.65421 15.0122 9.09832 14.5947 9.47354" stroke="#55241E"/>
<path d="M14.595 9.47355L13.6909 8.93896" stroke="#8E4432"/>
<path d="M13.691 8.93887C13.654 8.7446 13.5438 8.59213 13.3604 8.48145" stroke="#3C1D1D"/>
<path d="M13.36 8.48139C13.3656 8.43454 13.3555 8.41135 13.3297 8.41181C13.304 8.41224 13.2784 8.4071 13.2548 8.39675C13.2312 8.38639 13.2102 8.37107 13.1932 8.35187C12.8058 7.90823 12.4599 7.47308 12.1554 7.04642C11.92 6.71621 11.6395 6.42825 11.314 6.18255C11.0963 6.01859 10.8545 5.90492 10.5886 5.84154C10.3071 5.77449 10.0426 5.81054 9.79492 5.9497" stroke="#8E4432"/>
<path d="M13.6911 8.939L12.5449 8.87769" stroke="#6A382F"/>
<path d="M12.2049 13.0007L11.0854 13.1468" stroke="#DBAC9C"/>
<path d="M11.0857 13.1467L10.8028 13.1791C10.7952 13.18 10.788 13.1828 10.7818 13.1873C10.7756 13.1918 10.7707 13.1979 10.7673 13.205C10.764 13.2121 10.7624 13.22 10.7627 13.2281C10.763 13.2362 10.7652 13.2442 10.7691 13.2514C10.8141 13.3346 10.884 13.4002 10.9787 13.4485C11.2203 13.572 11.4658 13.5883 11.7154 13.4974" stroke="#8E3A2E"/>
<path d="M11.7153 13.4973C11.9883 13.4574 12.2571 13.3389 12.5216 13.1418" stroke="#DBAC9C"/>
<path d="M11.7152 13.4974C11.4788 13.4294 11.2689 13.3125 11.0854 13.1467" stroke="#A98183"/>
<path d="M16.3326 7.74097C16.2294 8.23743 16.0941 8.64939 15.9266 8.97684C15.7929 9.23771 15.7005 9.45815 15.6494 9.63818" stroke="#32151D"/>
<path d="M15.6494 9.63804C15.284 9.7207 14.9324 9.66582 14.5947 9.47339" stroke="#843F30"/>
<path d="M6.00626 12.0678C6.14933 12.1569 6.29638 12.1606 6.44741 12.0789C6.68475 11.9507 6.87519 11.7741 7.01872 11.5491C7.32736 11.066 7.53234 10.5431 7.63365 9.98049C7.73685 9.41008 7.76546 8.83577 7.71949 8.25756C7.71011 8.14321 7.68291 8.044 7.63788 7.95996C7.59613 7.88188 7.53257 7.85731 7.4472 7.88625C7.28726 7.94044 7.15217 8.01622 7.04194 8.11358C6.00814 9.03119 5.56957 10.181 5.72624 11.5629C5.75344 11.8003 5.84679 11.9686 6.00626 12.0678Z" stroke="#F4D2CB"/>
<path d="M5.69256 16.7255C5.7662 16.7508 5.82835 16.7271 5.87901 16.6545C5.96203 16.5356 6.02254 16.4059 6.06054 16.2653C6.20923 15.7188 6.41092 15.1922 6.66562 14.6857C6.75615 14.5061 7.08167 14.0096 7.64219 13.1963C7.73976 13.0544 7.77705 12.9134 7.75406 12.7733C7.75041 12.7506 7.73922 12.7302 7.7224 12.7154C7.64032 12.6438 7.5519 12.6346 7.45715 12.6879C7.24045 12.8101 7.04509 12.9733 6.87107 13.1777C6.7538 13.3159 6.6098 13.521 6.43906 13.7929C6.03239 14.4414 5.75565 15.1443 5.60884 15.9016C5.56474 16.1298 5.56052 16.3657 5.59617 16.6091C5.60001 16.6353 5.611 16.66 5.62799 16.6805C5.64497 16.7011 5.66729 16.7166 5.69256 16.7255Z" stroke="#FCBF9A"/>
<path d="M20.1307 17.1657C20.4257 17.3995 20.7203 17.3866 21.0144 17.1271C21.277 16.8957 21.4851 16.5992 21.6385 16.2378C21.9663 15.4644 22.0648 14.6682 21.934 13.8494C21.903 13.6537 21.8502 13.518 21.7757 13.4422C21.6467 13.3109 21.4682 13.31 21.2402 13.4395C21.0676 13.5373 20.9292 13.637 20.8251 13.7384C20.4316 14.1238 20.1396 14.5748 19.9491 15.0914C19.8408 15.3863 19.7737 15.6409 19.7479 15.8554C19.716 16.1218 19.7367 16.3889 19.8098 16.6566C19.8689 16.8738 19.9759 17.0435 20.1307 17.1657Z" stroke="#FCBF99"/>
<path d="M6.74813 17.8524C6.80138 17.8784 6.86928 17.8744 6.94794 17.8405C7.02661 17.8067 7.11451 17.7436 7.20662 17.6551C7.29873 17.5665 7.39325 17.4542 7.48478 17.3244C7.57631 17.1946 7.66305 17.05 7.74007 16.8987C7.81708 16.7475 7.88285 16.5926 7.93362 16.4429C7.98439 16.2933 8.01917 16.1517 8.03597 16.0264C8.05277 15.9011 8.05127 15.7944 8.03154 15.7125C8.01181 15.6306 7.97425 15.5751 7.921 15.5491C7.86775 15.5231 7.79985 15.5272 7.72118 15.561C7.64251 15.5949 7.55461 15.6579 7.4625 15.7465C7.37039 15.835 7.27587 15.9474 7.18435 16.0772C7.09282 16.2069 7.00607 16.3516 6.92906 16.5028C6.85205 16.6541 6.78628 16.8089 6.73551 16.9586C6.68474 17.1083 6.64996 17.2498 6.63315 17.3751C6.61635 17.5005 6.61786 17.6071 6.63759 17.689C6.65731 17.7709 6.69487 17.8264 6.74813 17.8524Z" stroke="#F7D3C9"/>
<path d="M15.3118 6.54008C15.4942 6.69944 15.5132 6.68268 15.3688 6.48979C15.0465 6.05854 14.6891 5.6312 14.2965 5.20776C14.1722 5.07411 14.0313 4.96044 13.8736 4.86675C13.8028 4.82496 13.7773 4.83185 13.797 4.88742C13.8021 4.90212 13.8115 4.91704 13.8251 4.9322C14.0676 5.20225 14.3125 5.47 14.5596 5.73545C14.5657 5.74188 14.6863 5.87989 14.9213 6.14947C15.0418 6.28817 15.172 6.41837 15.3118 6.54008Z" stroke="#7B3429"/>
<path d="M12.3632 5.22665C12.6259 5.42689 12.8318 5.67282 12.981 5.96445C13.1695 6.33324 13.4392 6.63107 13.7901 6.85795C13.9224 6.94337 14.0673 7.0598 14.2249 7.20722C14.3577 7.33168 14.5744 7.51378 14.875 7.75351C14.8929 7.76729 14.91 7.77487 14.9264 7.77625C14.9564 7.77808 14.9742 7.7666 14.9799 7.7418C14.9841 7.72389 14.9789 7.70231 14.9644 7.67705C14.8706 7.51814 14.7489 7.38312 14.5992 7.27198C14.3877 7.11491 14.1712 6.96473 13.9498 6.82144C13.7786 6.70984 13.6205 6.58354 13.4756 6.44255C13.3945 6.36309 13.3051 6.23772 13.2075 6.06641C13.0115 5.72334 12.7429 5.40553 12.4019 5.11298C12.3712 5.0869 12.3335 5.07015 12.2936 5.06476C12.1721 5.04822 12.1348 5.05695 12.1817 5.09094C12.2432 5.13594 12.3037 5.18118 12.3632 5.22665Z" stroke="#58241C"/>
<path d="M13.9638 7.64442C14.2114 7.84557 14.4785 8.01757 14.7651 8.1604C14.7806 8.16821 14.7968 8.1728 14.8137 8.17418C14.9197 8.18428 14.9223 8.16109 14.8214 8.1046C14.5344 7.9434 14.2611 7.76176 14.0017 7.55968C13.9827 7.54549 13.9602 7.5384 13.9384 7.5397C13.8587 7.54476 13.8498 7.56749 13.9117 7.60791C13.9356 7.62352 13.953 7.63569 13.9638 7.64442Z" stroke="#57241C"/>
<path d="M13.7075 8.08821C14.072 8.39224 14.4329 8.59477 14.7903 8.69581C14.8053 8.69994 14.8185 8.70109 14.8297 8.69925C14.8569 8.6942 14.8635 8.68042 14.8494 8.65792C14.8429 8.64782 14.8316 8.63886 14.8157 8.63105C14.4465 8.45516 14.0879 8.2602 13.7399 8.04618C13.7024 8.02322 13.6836 8.02046 13.6836 8.03792C13.6836 8.04742 13.6857 8.05684 13.6899 8.06552C13.694 8.0742 13.7 8.08194 13.7075 8.08821Z" stroke="#55241E"/>
<path d="M17.1296 9.88471C17.1293 9.8822 17.1285 9.87977 17.1272 9.87755C17.1259 9.87534 17.1242 9.8734 17.1222 9.87183C17.1202 9.87026 17.1178 9.86909 17.1154 9.8684C17.1129 9.86772 17.1103 9.86751 17.1077 9.86781L17.0867 9.87022C17.0815 9.87082 17.0768 9.87341 17.0736 9.87742C17.0703 9.88143 17.0689 9.88654 17.0695 9.89162L17.2116 11.0766C17.2119 11.0792 17.2128 11.0816 17.214 11.0838C17.2153 11.086 17.217 11.088 17.219 11.0895C17.221 11.0911 17.2234 11.0923 17.2258 11.0929C17.2283 11.0936 17.2309 11.0938 17.2335 11.0935L17.2545 11.0911C17.2597 11.0905 17.2644 11.0879 17.2676 11.0839C17.2709 11.0799 17.2723 11.0748 17.2717 11.0697L17.1296 9.88471Z" stroke="#784133"/>
<path d="M11.5288 7.64601C11.8159 7.65566 12.0994 7.69309 12.3795 7.7583C12.47 7.77989 12.4805 7.76014 12.4111 7.69906C12.2657 7.5723 12.095 7.49055 11.8989 7.45381C11.7798 7.43131 11.5945 7.42212 11.3431 7.42626C10.9453 7.43314 10.5588 7.49882 10.1836 7.62328C9.98094 7.69033 9.80105 7.77529 9.64392 7.87817C9.46474 7.99574 9.31347 8.12663 9.19011 8.27084C9.16337 8.30207 9.16454 8.31929 9.19363 8.32251C9.20198 8.32357 9.2113 8.32227 9.22091 8.3187C9.23052 8.31513 9.24019 8.30937 9.24921 8.30184C9.52454 8.07313 9.82427 7.91055 10.1484 7.8141C10.5823 7.68551 11.0424 7.62948 11.5288 7.64601Z" stroke="#B3573F"/>
<path d="M9.16385 10.1567C9.06066 10.1972 9.0501 10.25 9.13219 10.3152" stroke="#733A30"/>
<path d="M9.13232 10.3154L9.75781 10.3182" stroke="#D79380"/>
<path d="M9.75781 10.3182C10.0543 10.444 10.225 10.3542 10.27 10.0488" stroke="#733A30"/>
<path d="M10.2703 10.0487C10.3791 10.0097 10.4072 10.0496 10.3547 10.1686C10.3078 10.2747 10.3273 10.3194 10.4131 10.3029C10.4237 10.301 10.4336 10.2964 10.4421 10.2894C10.4506 10.2824 10.4573 10.2733 10.4616 10.263C10.5522 10.0526 10.5569 9.84066 10.4757 9.6271C10.4466 9.54995 10.3915 9.49989 10.3104 9.47692C9.76158 9.32353 9.3617 9.48106 9.11076 9.9495C9.08543 9.99727 9.10326 10.0664 9.16423 10.1569" stroke="#A74E3B"/>
<path d="M10.2701 10.0486C10.2889 9.95258 10.2738 9.87427 10.2251 9.81365C10.1866 9.76543 10.1214 9.73466 10.0295 9.72134C9.6561 9.6676 9.36763 9.81273 9.16406 10.1567" stroke="#5E2927"/>
<path d="M9.75781 10.3181C9.69402 10.1573 9.65861 9.99819 9.65157 9.84066C9.64969 9.79428 9.63304 9.78739 9.60161 9.81999L9.13232 10.3153" stroke="#8E6E6C"/>
<path d="M6.64638 9.79384C6.55773 10.1525 6.4543 10.5158 6.3361 10.8837C6.31585 10.9472 6.31391 11.0149 6.33047 11.0793C6.3558 11.1762 6.39215 11.1937 6.43953 11.1317C6.45407 11.1124 6.46532 11.0857 6.4733 11.0518C6.55304 10.7165 6.65248 10.3576 6.77162 9.97502C6.79085 9.91348 6.79577 9.85079 6.78639 9.78695C6.76669 9.6556 6.73081 9.63103 6.67874 9.71324C6.66514 9.73391 6.65435 9.76077 6.64638 9.79384Z" stroke="#E9B7AE"/>
<path d="M13.1196 9.72168C12.9751 9.81445 12.8736 9.94075 12.8149 10.1006" stroke="#784033"/>
<path d="M12.8149 10.1003C12.7619 10.1453 12.7504 10.2133 12.7804 10.3043" stroke="#9F4236"/>
<path d="M12.7803 10.3045C12.9618 10.3715 13.1384 10.36 13.3101 10.27" stroke="#DDA493"/>
<path d="M13.3101 10.2698C13.4709 10.2891 13.6175 10.2547 13.7498 10.1665" stroke="#784033"/>
<path d="M13.75 10.1668C13.9118 10.1599 14.0359 10.0919 14.1222 9.96289" stroke="#CE927F"/>
<path d="M14.1221 9.96256C14.2107 10.0034 14.2942 10.0526 14.3726 10.11C14.381 10.116 14.389 10.1189 14.3965 10.1189C14.4106 10.1185 14.4181 10.1118 14.419 10.099C14.4199 10.0907 14.4164 10.0808 14.4085 10.0693C14.2443 9.83787 14.0731 9.66886 13.8948 9.56231C13.5271 9.34141 13.1366 9.31821 12.7234 9.49273C12.683 9.50973 12.6474 9.53338 12.6164 9.56369C12.448 9.72994 12.4809 9.77656 12.7149 9.70353C12.7323 9.69802 12.7729 9.67942 12.8367 9.64773C12.8854 9.62339 12.9377 9.6087 12.9935 9.60365C13.0916 9.59446 13.1336 9.63373 13.1195 9.72145" stroke="#924937"/>
<path d="M14.1223 9.96253C14.0266 9.86654 13.9152 9.79765 13.7881 9.75586" stroke="#A47C72"/>
<path d="M13.788 9.75611C13.7585 9.69043 13.6569 9.65737 13.4834 9.65691C13.4566 9.65691 13.4297 9.65484 13.4025 9.65071C13.3026 9.63601 13.2083 9.65966 13.1196 9.72166" stroke="#4D2A26"/>
<path d="M13.788 9.75586L13.75 10.1664" stroke="#8A726E"/>
<path d="M13.3102 10.27L13.2927 9.85802C13.288 9.75377 13.2396 9.72874 13.1477 9.78293C13.015 9.86101 12.9158 9.97261 12.8501 10.1177" stroke="#988482"/>
<path d="M12.8501 10.1178C12.8314 10.1215 12.8196 10.1157 12.8149 10.1006" stroke="#5B2325"/>
<path d="M12.7803 10.3044L12.8499 10.1177" stroke="#C08785"/>
<path d="M13.4117 11.534C13.5984 11.6759 13.7977 11.7248 14.0097 11.6807C14.1913 11.6426 14.3503 11.5507 14.4868 11.4052C14.6233 11.2591 14.6927 11.1064 14.695 10.947C14.6978 10.7822 14.6223 10.6602 14.4685 10.5812C14.3667 10.5289 14.2356 10.5036 14.0752 10.5055C13.9044 10.5078 13.7433 10.5335 13.5918 10.5826C13.415 10.64 13.2921 10.747 13.2231 10.9036C13.1725 11.0198 13.1633 11.1321 13.1957 11.2405C13.229 11.3526 13.301 11.4504 13.4117 11.534Z" stroke="#AE503D"/>
<path d="M15.6305 11.8183C15.6811 11.827 15.7374 11.8174 15.7993 11.7894C15.8476 11.7678 15.8927 11.7354 15.9344 11.6922C16.0953 11.526 16.1619 11.3221 16.1342 11.0805C16.1075 10.8486 15.9987 10.7055 15.8078 10.6513C15.6398 10.6035 15.5097 10.6375 15.4173 10.7533C15.3502 10.8382 15.315 10.9489 15.3117 11.0853C15.3075 11.2837 15.3659 11.4943 15.4869 11.717C15.5011 11.7436 15.5215 11.7665 15.5464 11.7841C15.5713 11.8017 15.6001 11.8134 15.6305 11.8183Z" stroke="#AE503D"/>
<path d="M12.5814 18.4835C12.5307 19.0328 12.5392 19.5508 12.6067 20.0377C12.6161 20.1052 12.6374 20.1252 12.6707 20.0976C12.6787 20.0909 12.6852 20.0821 12.6898 20.0718C12.6944 20.0614 12.697 20.0498 12.6975 20.0377L12.7432 18.4911C12.7436 18.4798 12.7416 18.4688 12.7372 18.459C12.7327 18.4492 12.7261 18.4408 12.7179 18.4346C12.6827 18.4084 12.6475 18.4061 12.6124 18.4277C12.6039 18.4326 12.5966 18.4403 12.5912 18.45C12.5859 18.4597 12.5825 18.4712 12.5814 18.4835Z" stroke="#AE503D"/>
<path d="M11.0034 14.0711C11.4068 14.1896 11.772 14.1262 12.0989 13.881C12.1693 13.8286 12.2246 13.7871 12.265 13.7563C12.3203 13.7141 12.3719 13.6679 12.4197 13.6178C12.4274 13.61 12.4321 13.6001 12.4332 13.59C12.4342 13.5798 12.4314 13.5702 12.4254 13.5627C12.3972 13.5278 12.3639 13.5276 12.3255 13.562C12.0928 13.7692 11.829 13.8709 11.5339 13.8672C11.3196 13.8649 11.1038 13.8367 10.8866 13.7825C10.8732 13.7792 10.8592 13.7794 10.8459 13.7829C10.8325 13.7864 10.8203 13.7933 10.8105 13.8027C10.8006 13.8122 10.7933 13.824 10.7894 13.8369C10.7855 13.8499 10.7851 13.8637 10.7881 13.8769C10.8003 13.9265 10.8275 13.9694 10.8698 14.0057C10.9007 14.0323 10.9453 14.0541 11.0034 14.0711Z" stroke="#B0533E"/>
<path d="M18.2852 18.1226C18.031 18.4707 17.7934 18.8294 17.5725 19.1987C17.5499 19.2363 17.5539 19.2577 17.5844 19.2627C17.5936 19.2642 17.6041 19.263 17.6151 19.2592C17.6261 19.2554 17.6372 19.249 17.6477 19.2407C17.8189 19.1029 17.9503 18.9208 18.0417 18.6944C18.1318 18.4721 18.2692 18.2501 18.454 18.0282C18.4576 18.024 18.4604 18.0191 18.4623 18.0141C18.4641 18.009 18.465 18.0038 18.4647 17.9989C18.4644 17.9941 18.4631 17.9896 18.4607 17.986C18.4584 17.9824 18.4551 17.9796 18.4512 17.9779C18.4362 17.9715 18.421 17.977 18.4055 17.9945C18.3877 18.0156 18.3743 18.0298 18.3654 18.0372C18.3349 18.062 18.3082 18.0905 18.2852 18.1226Z" stroke="#CF4644"/>
<path d="M18.7763 18.4148C18.44 18.9241 18.1834 19.3381 18.0066 19.6569C17.9967 19.6748 17.993 19.6918 17.9953 19.7078C18.0033 19.7524 18.0291 19.7519 18.0727 19.7065C18.2026 19.5728 18.3091 19.4245 18.3921 19.2614C18.4827 19.0828 18.5584 18.9443 18.6194 18.846C18.7029 18.7106 18.7744 18.5689 18.834 18.421C18.8462 18.3902 18.8391 18.378 18.8129 18.3845C18.7993 18.3882 18.7871 18.3983 18.7763 18.4148Z" stroke="#CF4644"/>
<path d="M19.2748 18.8034C19.281 18.8064 19.2887 18.8063 19.2974 18.8032C19.3061 18.8001 19.3157 18.794 19.3256 18.7853C19.3355 18.7765 19.3456 18.7653 19.3552 18.7522C19.3648 18.7391 19.3737 18.7245 19.3815 18.7091C19.3893 18.6937 19.3958 18.6779 19.4007 18.6625C19.4055 18.6471 19.4086 18.6325 19.4097 18.6195C19.4108 18.6064 19.41 18.5953 19.4072 18.5866C19.4045 18.5779 19.3999 18.5719 19.3937 18.5689C19.3875 18.5659 19.3798 18.5659 19.3711 18.569C19.3623 18.5721 19.3528 18.5782 19.3429 18.587C19.3329 18.5957 19.3229 18.607 19.3133 18.62C19.3037 18.6331 19.2948 18.6478 19.287 18.6631C19.2792 18.6785 19.2727 18.6944 19.2678 18.7098C19.263 18.7251 19.2599 18.7398 19.2588 18.7528C19.2577 18.7658 19.2585 18.777 19.2612 18.7857C19.264 18.7943 19.2686 18.8003 19.2748 18.8034Z" stroke="#CF4644"/>
<path d="M9.62949 19.6974C9.70735 19.7474 9.73362 19.7332 9.70829 19.6547C9.6764 19.555 9.5256 19.346 9.25589 19.0278C9.19819 18.9603 9.16184 18.957 9.14683 19.0181C9.14167 19.0406 9.14519 19.0652 9.15739 19.0918C9.29247 19.3803 9.44984 19.5821 9.62949 19.6974Z" stroke="#DA514D"/>
<path d="M9.36331 20.3671C9.41585 20.3722 9.42499 20.3221 9.39075 20.2169C9.37058 20.1549 9.33869 20.0996 9.29506 20.0509C8.9611 19.6784 8.62455 19.3556 8.28542 19.0823C8.26641 19.0672 8.24442 19.0592 8.22351 19.0596C8.13063 19.0619 8.11867 19.108 8.18762 19.1981C8.40104 19.4791 8.76339 19.852 9.27466 20.3168C9.3089 20.348 9.33845 20.3648 9.36331 20.3671Z" stroke="#DA514D"/>
<path d="M10.1181 20.9864C10.1341 20.9871 10.1502 20.9839 10.1654 20.977C10.1805 20.9701 10.1945 20.9597 10.2064 20.9464C10.2184 20.9331 10.2281 20.917 10.235 20.8993C10.2419 20.8815 10.2459 20.8623 10.2468 20.8427C10.2476 20.8232 10.2453 20.8038 10.2399 20.7855C10.2345 20.7672 10.2262 20.7504 10.2154 20.7361C10.2047 20.7219 10.1916 20.7104 10.1771 20.7023C10.1626 20.6942 10.1469 20.6897 10.1308 20.689C10.1147 20.6884 10.0987 20.6916 10.0835 20.6984C10.0683 20.7053 10.0544 20.7157 10.0424 20.729C10.0305 20.7424 10.0208 20.7584 10.0139 20.7762C10.0069 20.794 10.003 20.8132 10.0021 20.8327C10.0013 20.8522 10.0036 20.8717 10.009 20.89C10.0144 20.9083 10.0227 20.925 10.0334 20.9393C10.0442 20.9536 10.0572 20.9651 10.0717 20.9732C10.0863 20.9812 10.102 20.9857 10.1181 20.9864Z" stroke="#CA4F46"/>
<path d="M20.6071 18.7219C20.3139 18.6062 20.0648 18.4852 19.8599 18.3589C19.797 18.3203 19.7288 18.2976 19.6551 18.2907C19.5097 18.2769 19.406 18.2383 19.3441 18.1749C19.3127 18.1423 19.2961 18.1253 19.2942 18.124C19.1506 18.0059 18.9853 17.9589 18.7982 17.9827C18.7873 17.9842 18.7763 17.9832 18.766 17.9797C18.7557 17.9762 18.7465 17.9704 18.7391 17.9628C18.6471 17.8686 18.5437 17.8025 18.4288 17.7644C18.008 17.6252 17.6356 17.4913 17.3115 17.3627L17.0772 17.1616C17.39 17.2874 17.7092 17.3056 18.0348 17.216C18.2238 17.1636 18.3701 17.0573 18.4738 16.897C18.5038 16.8507 18.5071 16.8185 18.4836 16.8006C18.4766 16.7953 18.4669 16.7933 18.456 16.7949C18.4451 16.7966 18.4338 16.8017 18.4238 16.8096C18.2878 16.9166 18.137 16.9535 17.9714 16.9205C17.7965 16.8856 17.6963 16.7955 17.671 16.6504C17.6541 16.5544 17.6745 16.4394 17.7322 16.3053C17.8321 16.0729 17.9925 15.869 18.2135 15.6935C18.4588 15.4984 18.6982 15.2726 18.9318 15.0164C19.1978 14.7247 19.3786 14.4551 19.4743 14.2076C19.6558 13.7364 19.6598 13.2411 19.4863 12.7216C19.8732 12.6082 20.146 12.38 20.3045 12.0369C20.3894 11.8523 20.4089 11.6598 20.3629 11.4596C20.3437 11.3742 20.3139 11.3705 20.2736 11.4486C20.1591 11.6695 19.9879 11.802 19.76 11.8461C19.5165 11.8934 19.2794 11.8727 19.0486 11.7841C18.7921 11.6853 18.5378 11.4906 18.2859 11.1999C18.0786 10.9156 17.9386 10.6295 17.8659 10.3415C17.743 9.85516 17.6567 9.29807 17.607 8.67026C17.5676 8.16966 17.4956 7.75082 17.391 7.41372C17.2254 6.88005 16.8668 6.48968 16.3152 6.2426C16.5722 6.12365 16.8429 6.05591 17.1271 6.03937C17.4278 6.02192 17.5624 5.86508 17.531 5.56886C17.5165 5.43016 17.474 5.29996 17.4036 5.17825C17.3309 5.05196 17.2308 5.02555 17.1032 5.09903C16.7322 5.31305 16.406 5.58608 16.1245 5.91813C15.5762 5.05701 14.8257 4.49923 13.8731 4.2448C13.2769 4.08544 12.6577 4.05467 12.0156 4.15249C11.5949 4.21633 11.2433 4.30634 10.9609 4.42254C10.6063 4.56858 10.3033 4.77778 10.0519 5.05012C9.82863 5.29169 9.74302 5.59159 9.79509 5.94982C9.58307 6.21849 9.42524 6.4782 9.32158 6.72896C9.07298 7.33105 8.96697 7.97907 9.00356 8.67302C8.74088 8.82457 8.71344 9.01034 8.92124 9.23033C8.88746 9.73047 8.90318 10.2329 8.96838 10.7376C8.82438 10.914 8.74722 11.114 8.7369 11.3377C8.71251 11.5554 8.75214 11.7758 8.8558 11.999C9.09831 12.5226 9.34902 13.1412 9.60794 13.8549C9.5751 14.1098 9.48551 14.3867 9.33917 14.6857C9.19657 14.9778 9.13466 15.2848 9.15342 15.6067C9.17124 15.9209 9.27256 16.2052 9.45737 16.4596C9.6919 16.782 10.012 17.0197 10.4178 17.1726C10.1992 17.3471 9.96137 17.4746 9.70433 17.5549C9.21604 17.7221 8.74628 17.9281 8.29505 18.1729C8.24673 18.199 8.15761 18.2303 8.02768 18.2666C7.92402 18.2955 7.82599 18.3483 7.73359 18.425C7.697 18.4553 7.6569 18.4801 7.61327 18.4994C7.15923 18.701 6.74153 18.9116 6.36019 19.1311C5.08623 17.8447 4.23537 16.3514 3.80759 14.6512C3.28365 12.5708 3.42906 10.5411 4.24381 8.56211C4.87797 7.0222 5.82898 5.73098 7.09684 4.68845C8.10531 3.85902 9.24606 3.25831 10.5191 2.8863C10.9619 2.75679 11.4199 2.66012 11.8932 2.59628C14.0809 2.29959 16.118 2.68859 18.0045 3.76327C18.4023 3.98968 18.7874 4.25031 19.1598 4.54516C21.1636 6.13191 22.3975 8.19033 22.8614 10.7204C23.0138 11.5508 23.0405 12.4236 22.9416 13.3389C22.7225 15.3698 21.9443 17.1641 20.6071 18.7219ZM6.00629 12.0679C6.14935 12.157 6.2964 12.1607 6.44744 12.0789C6.68478 11.9508 6.87521 11.7742 7.01875 11.5492C7.32738 11.066 7.53236 10.5431 7.63368 9.98054C7.73687 9.41013 7.76548 8.83582 7.71952 8.25761C7.71013 8.14326 7.68293 8.04405 7.6379 7.96001C7.59615 7.88194 7.5326 7.85736 7.44723 7.8863C7.28728 7.94049 7.15219 8.01627 7.04196 8.11363C6.00816 9.03124 5.5696 10.181 5.72626 11.5629C5.75347 11.8004 5.84681 11.9687 6.00629 12.0679ZM5.69249 16.7255C5.76613 16.7508 5.82828 16.7271 5.87894 16.6545C5.96196 16.5356 6.02247 16.4059 6.06046 16.2653C6.20915 15.7188 6.41085 15.1923 6.66555 14.6857C6.75607 14.5061 7.0816 14.0097 7.64212 13.1963C7.73969 13.0544 7.77697 12.9134 7.75399 12.7733C7.75034 12.7506 7.73915 12.7302 7.72233 12.7155C7.64024 12.6438 7.55183 12.6346 7.45708 12.6879C7.24037 12.8101 7.04501 12.9733 6.87099 13.1777C6.75373 13.3159 6.60973 13.521 6.43899 13.7929C6.03232 14.4414 5.75558 15.1443 5.60876 15.9016C5.56467 16.1298 5.56045 16.3657 5.5961 16.6091C5.59993 16.6353 5.61093 16.66 5.62791 16.6805C5.6449 16.7011 5.66722 16.7166 5.69249 16.7255ZM20.1307 17.1657C20.4258 17.3995 20.7203 17.3866 21.0144 17.1271C21.2771 16.8957 21.4851 16.5992 21.6385 16.2378C21.9664 15.4644 22.0649 14.6682 21.934 13.8494C21.9031 13.6537 21.8503 13.518 21.7757 13.4422C21.6467 13.3109 21.4683 13.31 21.2403 13.4395C21.0677 13.5373 20.9293 13.637 20.8252 13.7385C20.4316 14.1238 20.1397 14.5748 19.9492 15.0914C19.8409 15.3863 19.7738 15.641 19.748 15.8554C19.7161 16.1218 19.7367 16.3889 19.8099 16.6566C19.869 16.8738 19.976 17.0435 20.1307 17.1657ZM6.74822 17.8524C6.80147 17.8784 6.86937 17.8743 6.94804 17.8404C7.02671 17.8066 7.1146 17.7436 7.20672 17.655C7.29883 17.5665 7.39334 17.4541 7.48487 17.3243C7.5764 17.1945 7.66315 17.0499 7.74016 16.8987C7.81717 16.7474 7.88294 16.5925 7.93371 16.4429C7.98448 16.2932 8.01926 16.1517 8.03606 16.0263C8.05286 15.901 8.05136 15.7944 8.03163 15.7125C8.0119 15.6306 7.97434 15.575 7.92109 15.5491C7.86784 15.5231 7.79994 15.5271 7.72127 15.561C7.6426 15.5948 7.5547 15.6578 7.46259 15.7464C7.37048 15.8349 7.27597 15.9473 7.18444 16.0771C7.09291 16.2069 7.00616 16.3515 6.92915 16.5028C6.85214 16.654 6.78637 16.8089 6.7356 16.9585C6.68483 17.1082 6.65005 17.2497 6.63325 17.3751C6.61645 17.5004 6.61795 17.607 6.63768 17.6889C6.6574 17.7708 6.69497 17.8264 6.74822 17.8524Z" fill="#FDE8E1"/>
<path d="M16.1245 5.91813C16.1428 5.95395 16.1618 6.02628 16.1815 6.13513C16.1932 6.19805 16.2378 6.23387 16.3152 6.2426C16.8668 6.48968 17.2254 6.88005 17.3909 7.41372C17.4955 7.75082 17.5675 8.16966 17.6069 8.67026C17.6567 9.29807 17.743 9.85516 17.8659 10.3415C17.9386 10.6295 18.0786 10.9156 18.2859 11.1999L18.4597 11.5195C18.4659 11.5309 18.4704 11.5421 18.473 11.5526C18.4755 11.5632 18.476 11.5727 18.4745 11.5808C18.4304 11.8082 18.4606 11.9877 18.5652 12.1196C18.7458 12.3478 19.0286 12.5129 19.4137 12.6149C19.4682 12.6291 19.474 12.6626 19.4313 12.7155C19.1006 12.7839 18.7803 12.7685 18.4702 12.6693C18.285 12.6105 18.1149 12.5391 17.9601 12.455C17.7824 12.3586 17.6409 12.2383 17.5359 12.0941C17.4655 11.9967 17.4641 11.8874 17.5317 11.7662C17.5378 11.7547 17.5419 11.7431 17.5436 11.7322C17.5453 11.7212 17.5446 11.7112 17.5415 11.7028L17.3945 11.3239C17.3823 11.2927 17.3778 11.2938 17.3811 11.3273C17.3928 11.4532 17.393 11.579 17.3818 11.7048C17.3654 11.8803 17.3593 12.0054 17.3635 12.0803C17.3804 12.3976 17.4179 12.7125 17.4761 13.0248C17.5478 13.4083 17.5896 13.6889 17.6013 13.8666C17.6337 14.3598 17.64 14.8538 17.6203 15.3484C17.6198 15.3654 17.617 15.3801 17.6119 15.3925C17.5969 15.426 17.5802 15.4311 17.5619 15.4076C17.5535 15.3971 17.5488 15.3826 17.5478 15.3642C17.5417 15.2297 17.5363 14.9103 17.5317 14.406C17.5288 14.136 17.4995 13.8397 17.4437 13.5173C17.4085 13.3125 17.3337 13.025 17.2193 12.6548C16.9636 11.8263 16.7922 11.0782 16.7049 10.4104C16.5886 9.51944 16.4646 8.62962 16.3327 7.74094C16.2586 7.47641 16.2237 7.20659 16.2279 6.93149C16.2303 6.77075 16.2258 6.61001 16.2145 6.44927C16.2139 6.43779 16.2106 6.42687 16.2049 6.41767C16.1992 6.40846 16.1913 6.40129 16.1822 6.39691C16.1456 6.37946 16.1156 6.38198 16.0921 6.40449C16.0855 6.41068 16.081 6.4196 16.079 6.43028C16.077 6.44097 16.0777 6.45301 16.0809 6.46511C16.1353 6.67408 16.1477 6.88189 16.1182 7.08856C16.0933 7.26032 16.0471 7.44219 15.9795 7.63417C15.9195 7.80363 15.8344 7.97264 15.7241 8.14119C15.3888 8.65419 15.0124 9.09829 14.5949 9.47351L13.6908 8.93893C13.6537 8.74466 13.5435 8.59219 13.3601 8.4815C13.3657 8.43466 13.3556 8.41147 13.3298 8.41193C13.3041 8.41236 13.2785 8.40722 13.2549 8.39686C13.2313 8.38651 13.2103 8.37119 13.1934 8.35199C12.8059 7.90834 12.46 7.47319 12.1556 7.04654C11.9201 6.71633 11.6396 6.42837 11.3141 6.18266C11.0964 6.01871 10.8546 5.90504 10.5887 5.84166C10.3073 5.77461 10.0427 5.81066 9.79504 5.94982C9.74298 5.59159 9.82858 5.29169 10.0519 5.05012C10.3033 4.77778 10.6063 4.56858 10.9609 4.42254C11.2433 4.30634 11.5948 4.21633 12.0156 4.15249C12.6577 4.05467 13.2768 4.08544 13.873 4.2448C14.8257 4.49923 15.5762 5.05701 16.1245 5.91813ZM15.3118 6.5402C15.4943 6.69956 15.5133 6.6828 15.3688 6.48991C15.0466 6.05866 14.6892 5.63132 14.2966 5.20788C14.1723 5.07423 14.0313 4.96056 13.8737 4.86687C13.8029 4.82508 13.7773 4.83197 13.797 4.88754C13.8022 4.90224 13.8116 4.91716 13.8252 4.93232C14.0677 5.20237 14.3125 5.47012 14.5597 5.73557C14.5658 5.742 14.6864 5.88001 14.9214 6.1496C15.0419 6.28829 15.1721 6.4185 15.3118 6.5402ZM12.3631 5.22648C12.6258 5.42672 12.8317 5.67265 12.9809 5.96428C13.1694 6.33307 13.4391 6.6309 13.79 6.85778C13.9223 6.9432 14.0672 7.05963 14.2248 7.20705C14.3576 7.33151 14.5743 7.51361 14.8749 7.75334C14.8927 7.76712 14.9099 7.7747 14.9263 7.77608C14.9563 7.77791 14.9741 7.76643 14.9798 7.74163C14.984 7.72372 14.9788 7.70214 14.9643 7.67688C14.8705 7.51797 14.7487 7.38295 14.5991 7.27181C14.3876 7.11474 14.1711 6.96456 13.9497 6.82127C13.7785 6.70967 13.6204 6.58337 13.4755 6.44238C13.3943 6.36292 13.305 6.23755 13.2074 6.06624C13.0114 5.72317 12.7428 5.40536 12.4018 5.11281C12.3711 5.08673 12.3334 5.06998 12.2935 5.06459C12.172 5.04805 12.1347 5.05678 12.1816 5.09077C12.243 5.13577 12.3036 5.18101 12.3631 5.22648ZM13.9638 7.6445C14.2114 7.84566 14.4786 8.01765 14.7652 8.16048C14.7806 8.16829 14.7968 8.17288 14.8137 8.17426C14.9197 8.18436 14.9223 8.16117 14.8214 8.10468C14.5344 7.94348 14.2612 7.76184 14.0018 7.55976C13.9827 7.54557 13.9602 7.53848 13.9384 7.53978C13.8587 7.54484 13.8498 7.56757 13.9117 7.60799C13.9356 7.6236 13.953 7.63577 13.9638 7.6445ZM13.7077 8.08815C14.0721 8.39218 14.4331 8.59471 14.7905 8.69575C14.8055 8.69988 14.8186 8.70103 14.8299 8.6992C14.8571 8.69414 14.8637 8.68037 14.8496 8.65786C14.843 8.64776 14.8318 8.6388 14.8158 8.631C14.4467 8.4551 14.0881 8.26014 13.74 8.04612C13.7025 8.02316 13.6838 8.0204 13.6838 8.03786C13.6837 8.04736 13.6859 8.05678 13.69 8.06546C13.6941 8.07414 13.7002 8.08188 13.7077 8.08815ZM17.1297 9.88471C17.1294 9.8822 17.1286 9.87977 17.1273 9.87756C17.126 9.87534 17.1243 9.8734 17.1223 9.87183C17.1203 9.87026 17.118 9.8691 17.1155 9.86841C17.113 9.86772 17.1104 9.86751 17.1078 9.86781L17.0868 9.87022C17.0817 9.87082 17.0769 9.87341 17.0737 9.87742C17.0705 9.88143 17.069 9.88654 17.0696 9.89162L17.2118 11.0766C17.2121 11.0792 17.2129 11.0816 17.2141 11.0838C17.2154 11.086 17.2171 11.088 17.2191 11.0895C17.2211 11.0911 17.2235 11.0923 17.226 11.0929C17.2284 11.0936 17.2311 11.0938 17.2336 11.0935L17.2546 11.0911C17.2598 11.0905 17.2645 11.0879 17.2677 11.0839C17.271 11.0799 17.2725 11.0748 17.2718 11.0697L17.1297 9.88471Z" fill="#5F281F"/>
<path d="M15.3118 6.54008C15.172 6.41837 15.0418 6.28817 14.9213 6.14947C14.6863 5.87989 14.5657 5.74188 14.5596 5.73545C14.3125 5.47 14.0676 5.20225 13.8251 4.9322C13.8115 4.91704 13.8021 4.90212 13.797 4.88742C13.7773 4.83185 13.8028 4.82496 13.8736 4.86675C14.0313 4.96044 14.1722 5.07411 14.2965 5.20776C14.6891 5.6312 15.0465 6.05854 15.3688 6.48979C15.5132 6.68268 15.4942 6.69944 15.3118 6.54008Z" fill="#973F33"/>
<path d="M12.3632 5.22665C12.3037 5.18118 12.2432 5.13594 12.1817 5.09094C12.1348 5.05695 12.1721 5.04822 12.2936 5.06476C12.3335 5.07015 12.3712 5.0869 12.4019 5.11298C12.7429 5.40553 13.0115 5.72334 13.2075 6.06641C13.3051 6.23772 13.3945 6.36309 13.4756 6.44255C13.6205 6.58354 13.7786 6.70984 13.9498 6.82144C14.1712 6.96473 14.3877 7.11491 14.5992 7.27198C14.7489 7.38312 14.8706 7.51814 14.9644 7.67705C14.9789 7.70231 14.9841 7.72389 14.9799 7.7418C14.9742 7.7666 14.9564 7.77808 14.9264 7.77625C14.91 7.77487 14.8929 7.76729 14.875 7.75351C14.5744 7.51378 14.3577 7.33168 14.2249 7.20722C14.0673 7.0598 13.9224 6.94337 13.7901 6.85795C13.4392 6.63107 13.1695 6.33324 12.981 5.96445C12.8318 5.67282 12.6259 5.42689 12.3632 5.22665Z" fill="#502018"/>
<path d="M16.3152 6.2427C16.2378 6.23398 16.1932 6.19815 16.1815 6.13523C16.1618 6.02639 16.1428 5.95405 16.1245 5.91823C16.4059 5.58619 16.7322 5.31315 17.1032 5.09914C17.2308 5.02565 17.3309 5.05206 17.4036 5.17836C17.474 5.30006 17.5164 5.43026 17.531 5.56896C17.5624 5.86519 17.4278 6.02202 17.1271 6.03948C16.8429 6.05601 16.5722 6.12375 16.3152 6.2427Z" fill="#E55954"/>
<path d="M13.3602 8.48139C13.1046 8.43454 12.8562 8.42237 12.6151 8.44488C12.5265 8.45268 12.4788 8.49999 12.4723 8.58679C12.4629 8.70941 12.4871 8.80632 12.5447 8.8775C12.4486 8.9643 12.3212 9.00885 12.1627 9.01115C11.9816 9.01344 11.8482 9.09427 11.7624 9.25364C11.6348 9.40657 11.5644 9.53379 11.5513 9.63529C11.5302 9.79878 11.5424 10.0022 11.5879 10.2456C11.6348 10.4932 11.6683 10.6489 11.6885 10.7127C11.7387 10.8679 11.8212 11.0087 11.9361 11.135C12.0281 11.2356 12.1078 11.3302 12.1754 11.4188C12.227 11.4863 12.2295 11.5552 12.1831 11.6255C12.0977 11.7559 11.9915 11.8496 11.8644 11.9066C11.5647 12.0407 11.2492 12.0981 10.9181 12.0788C10.6549 12.0636 10.4288 11.969 10.2398 11.795C10.2318 11.7875 10.2221 11.7826 10.2118 11.7807C10.2016 11.7788 10.1915 11.7802 10.1828 11.7846C10.1195 11.8163 10.0967 11.862 10.1146 11.9217C10.1263 11.9612 10.1573 12.0009 10.2074 12.0409C10.3397 12.1456 10.4875 12.2111 10.6507 12.2372C10.6981 12.245 10.8554 12.2588 11.1228 12.2786C11.3789 12.2979 11.6331 12.2731 11.8855 12.2042L11.8883 12.2531C11.6946 12.3142 11.5837 12.4246 11.5555 12.5844C11.533 12.7135 11.5961 12.8031 11.7448 12.8531C11.575 12.9013 11.4049 12.9013 11.2347 12.8531C11.2614 12.7539 11.2628 12.6586 11.2389 12.5672C11.215 12.4777 11.1568 12.4108 11.0644 12.3668C10.9063 12.2914 10.7476 12.2836 10.5881 12.3433C10.2119 12.4848 9.93633 12.7546 9.76137 13.1528C9.67928 13.3402 9.62816 13.5742 9.60799 13.8548C9.34907 13.1411 9.09836 12.5224 8.85586 11.9989C8.75219 11.7757 8.71256 11.5552 8.73695 11.3375C8.9105 11.5415 9.0878 11.673 9.26886 11.7323C9.44898 11.7911 9.61033 11.7566 9.75293 11.6289C9.9504 11.4517 10.0383 11.24 10.0168 10.9938C10.0088 10.9074 9.97784 10.8399 9.9239 10.7913C9.86433 10.738 9.79115 10.7031 9.70438 10.6865C9.45343 10.6388 9.20812 10.6558 8.96843 10.7375C8.90323 10.2328 8.88752 9.73035 8.92129 9.23022L10.1441 8.99255C10.1656 8.98842 10.1853 8.9787 10.201 8.96455C10.2167 8.9504 10.2277 8.93239 10.2328 8.91264C10.3069 8.6256 10.2011 8.49172 9.91545 8.51101C9.62089 8.53076 9.31694 8.58472 9.00361 8.6729C8.96702 7.97895 9.07303 7.33093 9.32163 6.72884C9.42529 6.47808 9.58313 6.21837 9.79514 5.9497C10.0428 5.81054 10.3073 5.77449 10.5888 5.84154C10.8547 5.90492 11.0965 6.01859 11.3142 6.18255C11.6397 6.42825 11.9202 6.71621 12.1557 7.04642C12.4601 7.47308 12.806 7.90823 13.1935 8.35187C13.2104 8.37107 13.2314 8.38639 13.255 8.39674C13.2786 8.4071 13.3042 8.41224 13.3299 8.41181C13.3557 8.41135 13.3658 8.43454 13.3602 8.48139ZM11.5288 7.64576C11.8158 7.6554 12.0994 7.69283 12.3794 7.75805C12.4699 7.77963 12.4805 7.75989 12.4111 7.6988C12.2657 7.57205 12.0949 7.4903 11.8989 7.45356C11.7797 7.43105 11.5944 7.42187 11.343 7.426C10.9453 7.43289 10.5588 7.49856 10.1835 7.62303C9.98089 7.69008 9.801 7.77504 9.64387 7.87791C9.46469 7.99549 9.31342 8.12638 9.19006 8.27059C9.16332 8.30182 9.16449 8.31904 9.19358 8.32225C9.20193 8.32332 9.21125 8.32202 9.22086 8.31845C9.23047 8.31487 9.24014 8.30911 9.24916 8.30159C9.52449 8.07287 9.82422 7.91029 10.1483 7.81385C10.5822 7.68525 11.0424 7.62922 11.5288 7.64576ZM9.16403 10.1568C9.06083 10.1972 9.05028 10.25 9.13236 10.3152L9.75785 10.318C10.0543 10.4438 10.225 10.354 10.2701 10.0486C10.3789 10.0096 10.407 10.0495 10.3545 10.1685C10.3076 10.2746 10.327 10.3194 10.4129 10.3028C10.4234 10.3009 10.4334 10.2963 10.4419 10.2893C10.4504 10.2823 10.4571 10.2732 10.4614 10.2629C10.552 10.0525 10.5567 9.84058 10.4755 9.62702C10.4464 9.54986 10.3913 9.4998 10.3102 9.47684C9.76137 9.32345 9.3615 9.48097 9.11055 9.94942C9.08522 9.99718 9.10305 10.0663 9.16403 10.1568Z" fill="#BC5F44"/>
<path d="M16.3326 7.74097C16.2294 8.23743 16.0941 8.64939 15.9266 8.97684C15.7929 9.2377 15.7005 9.45815 15.6494 9.63818C15.284 9.72085 14.9324 9.66597 14.5947 9.47354C15.0122 9.09832 15.3886 8.65421 15.724 8.14121C15.8342 7.97266 15.9193 7.80366 15.9794 7.63419C16.0469 7.44222 16.0931 7.26035 16.118 7.08858C16.1475 6.88191 16.1351 6.6741 16.0807 6.46513C16.0775 6.45304 16.0769 6.44099 16.0788 6.4303C16.0808 6.41962 16.0854 6.4107 16.092 6.40451C16.1154 6.38201 16.1454 6.37948 16.182 6.39693C16.1912 6.40131 16.199 6.40848 16.2047 6.41769C16.2104 6.4269 16.2137 6.43781 16.2144 6.44929C16.2256 6.61003 16.2301 6.77077 16.2277 6.93151C16.2235 7.20661 16.2585 7.47643 16.3326 7.74097Z" fill="#4B1F1C"/>
<path d="M11.5288 7.64601C11.0424 7.62948 10.5823 7.68551 10.1484 7.8141C9.82427 7.91055 9.52454 8.07313 9.24921 8.30184C9.24019 8.30937 9.23052 8.31513 9.22091 8.3187C9.2113 8.32227 9.20198 8.32357 9.19363 8.32251C9.16454 8.31929 9.16337 8.30207 9.19011 8.27084C9.31347 8.12663 9.46474 7.99574 9.64392 7.87817C9.80105 7.77529 9.98094 7.69033 10.1836 7.62328C10.5588 7.49882 10.9453 7.43314 11.3431 7.42626C11.5945 7.42212 11.7798 7.43131 11.8989 7.45381C12.095 7.49055 12.2657 7.5723 12.4111 7.69906C12.4805 7.76014 12.47 7.77989 12.3795 7.7583C12.0994 7.69309 11.8159 7.65566 11.5288 7.64601Z" fill="#A94E39"/>
<path d="M13.9117 7.60791C13.8498 7.56749 13.8587 7.54476 13.9384 7.5397C13.9602 7.5384 13.9827 7.54549 14.0017 7.55968C14.2611 7.76176 14.5344 7.9434 14.8214 8.1046C14.9223 8.16109 14.9197 8.18428 14.8137 8.17418C14.7968 8.1728 14.7806 8.16821 14.7651 8.1604C14.4785 8.01757 14.2114 7.84557 13.9638 7.64442C13.953 7.63569 13.9356 7.62352 13.9117 7.60791Z" fill="#4E1F18"/>
<path d="M16.3329 7.74097C16.4647 8.62964 16.5888 9.51946 16.7051 10.4104C16.7924 11.0782 16.9638 11.8263 17.2194 12.6549C17.3339 13.025 17.4087 13.3125 17.4439 13.5173C17.4997 13.8397 17.529 14.136 17.5318 14.406C17.5365 14.9103 17.5419 15.2297 17.548 15.3643C17.549 15.3826 17.5536 15.3971 17.5621 15.4077C17.5804 15.4311 17.597 15.426 17.612 15.3925C17.6172 15.3801 17.62 15.3654 17.6205 15.3484C17.6402 14.8538 17.6339 14.3599 17.6015 13.8666C17.5898 13.6889 17.548 13.4083 17.4763 13.0248C17.4181 12.7125 17.3806 12.3977 17.3637 12.0803C17.3595 12.0055 17.3656 11.8803 17.382 11.7049C17.3932 11.579 17.393 11.4532 17.3813 11.3274C17.378 11.2938 17.3824 11.2927 17.3946 11.3239L17.5417 11.7028C17.5448 11.7112 17.5455 11.7212 17.5438 11.7322C17.5421 11.7432 17.538 11.7548 17.5318 11.7662C17.4643 11.8874 17.4657 11.9967 17.5361 12.0941C17.6411 12.2383 17.7825 12.3586 17.9603 12.4551C18.1151 12.5391 18.2851 12.6105 18.4704 12.6693C18.7805 12.7685 19.1008 12.7839 19.4315 12.7155L19.4864 12.7217C19.6599 13.2411 19.656 13.7364 19.4744 14.2076C19.3787 14.4552 19.1979 14.7247 18.932 15.0164C18.6984 15.2727 18.4589 15.4984 18.2136 15.6936C17.9927 15.869 17.8323 16.0729 17.7324 16.3053C17.6747 16.4394 17.6543 16.5545 17.6711 16.6504C17.6965 16.7956 17.7966 16.8856 17.9716 16.9205C18.1372 16.9536 18.288 16.9166 18.424 16.8096C18.4339 16.8017 18.4453 16.7966 18.4561 16.795C18.467 16.7933 18.4768 16.7953 18.4838 16.8006C18.5072 16.8185 18.504 16.8507 18.4739 16.8971C18.3703 17.0573 18.2239 17.1637 18.0349 17.216C17.7094 17.3056 17.3902 17.2874 17.0773 17.1616C16.8118 17.0022 16.6467 16.7898 16.582 16.5244C16.2588 15.1953 15.9481 13.8629 15.6498 12.5274C15.648 12.5196 15.648 12.5115 15.6497 12.5037C15.6513 12.4958 15.6547 12.4884 15.6594 12.4819C15.6642 12.4754 15.6703 12.47 15.6774 12.466C15.6844 12.4619 15.6923 12.4594 15.7004 12.4585C15.9969 12.4259 16.2281 12.2845 16.3941 12.0342C16.5588 11.7857 16.6383 11.5129 16.6327 11.2158C16.6219 10.6605 16.3268 10.3459 15.7475 10.272C15.7309 10.2698 15.7154 10.2616 15.7039 10.2486C15.6923 10.2357 15.6854 10.2189 15.6842 10.201L15.6498 9.63818C15.7009 9.45815 15.7933 9.23771 15.927 8.97684C16.0944 8.64939 16.2297 8.23743 16.3329 7.74097Z" fill="#180B1D"/>
<path d="M6.00626 12.0678C5.84679 11.9686 5.75344 11.8003 5.72624 11.5629C5.56957 10.181 6.00814 9.03119 7.04194 8.11358C7.15217 8.01622 7.28726 7.94044 7.4472 7.88625C7.53257 7.85731 7.59613 7.88188 7.63788 7.95996C7.68291 8.044 7.71011 8.14321 7.71949 8.25756C7.76546 8.83577 7.73685 9.41008 7.63365 9.98049C7.53234 10.5431 7.32736 11.066 7.01872 11.5491C6.87519 11.7741 6.68475 11.9507 6.44741 12.0789C6.29638 12.1606 6.14933 12.1569 6.00626 12.0678ZM6.64653 9.7938C6.55787 10.1525 6.45445 10.5158 6.33625 10.8836C6.316 10.9472 6.31405 11.0149 6.33062 11.0793C6.35595 11.1762 6.3923 11.1936 6.43967 11.1316C6.45421 11.1123 6.46547 11.0857 6.47344 11.0517C6.55318 10.7165 6.65262 10.3575 6.77176 9.97498C6.791 9.91343 6.79592 9.85075 6.78654 9.78691C6.76684 9.65556 6.73096 9.63099 6.67889 9.7132C6.66529 9.73386 6.6545 9.76073 6.64653 9.7938Z" fill="#EBBCB5"/>
<path d="M13.7075 8.08821C13.7 8.08194 13.694 8.0742 13.6899 8.06552C13.6857 8.05684 13.6836 8.04742 13.6836 8.03792C13.6836 8.02046 13.7024 8.02322 13.7399 8.04618C14.0879 8.2602 14.4465 8.45516 14.8157 8.63105C14.8316 8.63886 14.8429 8.64782 14.8494 8.65792C14.8635 8.68042 14.8569 8.6942 14.8297 8.69925C14.8185 8.70109 14.8053 8.69994 14.7903 8.69581C14.4329 8.59477 14.072 8.39224 13.7075 8.08821Z" fill="#4B1F1C"/>
<path d="M13.3601 8.48155C13.5435 8.59223 13.6537 8.74471 13.6908 8.93897L12.5447 8.87766C12.487 8.80648 12.4628 8.70957 12.4722 8.58695C12.4787 8.50015 12.5264 8.45284 12.615 8.44504C12.8561 8.42253 13.1045 8.4347 13.3601 8.48155Z" fill="#18111A"/>
<path d="M8.92136 9.23031C8.71356 9.01032 8.741 8.82455 9.00368 8.67299C9.317 8.58481 9.62095 8.53085 9.91552 8.5111C10.2012 8.49181 10.3069 8.62569 10.2328 8.91273C10.2278 8.93248 10.2168 8.95049 10.2011 8.96464C10.1854 8.97879 10.1657 8.98851 10.1442 8.99264L8.92136 9.23031Z" fill="#18111A"/>
<path d="M12.5445 8.87769L13.6906 8.939L14.5947 9.47358C14.9324 9.66601 15.284 9.72089 15.6494 9.63823L15.6839 10.2011C15.685 10.2189 15.692 10.2357 15.7035 10.2487C15.7151 10.2616 15.7305 10.2699 15.7472 10.272C16.3265 10.3459 16.6215 10.6605 16.6323 11.2158C16.6379 11.5129 16.5584 11.7857 16.3938 12.0342C16.2277 12.2845 15.9965 12.426 15.7 12.4586C15.6919 12.4594 15.6841 12.462 15.677 12.466C15.67 12.47 15.6639 12.4755 15.6591 12.482C15.6543 12.4885 15.651 12.4959 15.6493 12.5037C15.6476 12.5115 15.6477 12.5196 15.6494 12.5274C15.9477 13.863 16.2585 15.1953 16.5816 16.5244C16.6464 16.7899 16.8115 17.0023 17.077 17.1616L17.3113 17.3628C17.2503 17.8064 17.1335 18.231 16.9609 18.6366C16.7789 19.0655 16.5392 19.4299 16.2418 19.7298C15.6264 20.3508 14.8426 20.706 13.8904 20.7956C13.4425 20.8378 13.0107 20.8185 12.5951 20.7377C12.1767 20.6559 11.7813 20.5021 11.4089 20.2761C10.4225 19.6773 9.8542 18.7702 9.7041 17.555C9.96114 17.4746 10.199 17.3472 10.4175 17.1727C10.6478 17.2631 10.8908 17.3166 11.1464 17.3332C12.169 17.3989 13.1294 17.1961 14.0276 16.7249C14.7659 16.3373 15.223 15.7696 15.3989 15.0219C15.5166 14.5204 15.5671 13.9624 15.5502 13.3479C15.5394 12.9438 15.523 12.6386 15.5009 12.4324C15.4676 12.1219 15.402 11.8218 15.3039 11.532C15.2842 11.4737 15.2662 11.4741 15.2498 11.5334C15.1025 12.0523 14.9636 12.5731 14.8332 13.0958C14.8041 13.2138 14.7361 13.4267 14.6292 13.7344C14.5044 14.0935 14.3048 14.3904 14.0304 14.6251C13.9404 14.7018 13.8606 14.7482 13.7912 14.7643C13.689 14.7886 13.5916 14.7682 13.4992 14.703C13.2206 14.5073 13.1062 14.2354 13.1559 13.8873C13.2595 13.1617 12.9833 12.6441 12.3271 12.3346C12.1887 12.2693 12.0423 12.2422 11.888 12.2533L11.8852 12.2044C12.0893 12.1837 12.2372 12.0693 12.3292 11.8613C12.4783 11.5242 12.4392 11.2323 12.2117 10.9857C12.0484 10.8089 11.9352 10.5813 11.8718 10.303C11.7837 9.91264 11.7471 9.56291 11.7621 9.25382C11.8479 9.09446 11.9814 9.01363 12.1624 9.01133C12.321 9.00903 12.4483 8.96449 12.5445 8.87769ZM13.1193 9.72158C12.9748 9.81435 12.8733 9.94065 12.8146 10.1005C12.7616 10.1455 12.7502 10.2135 12.7802 10.3044C12.9617 10.3714 13.1383 10.36 13.31 10.2699C13.4709 10.2892 13.6174 10.2548 13.7497 10.1666C13.9115 10.1597 14.0356 10.0917 14.1219 9.96269C14.2106 10.0036 14.2941 10.0527 14.3724 10.1101C14.3808 10.1161 14.3888 10.1191 14.3963 10.1191C14.4104 10.1186 14.4179 10.112 14.4188 10.0991C14.4198 10.0908 14.4162 10.081 14.4083 10.0695C14.2441 9.838 14.0729 9.669 13.8946 9.56245C13.5269 9.34154 13.1364 9.31835 12.7232 9.49287C12.6828 9.50986 12.6472 9.53351 12.6162 9.56382C12.4478 9.73008 12.4807 9.77669 12.7147 9.70367C12.7321 9.69816 12.7727 9.67956 12.8365 9.64787C12.8852 9.62353 12.9375 9.60883 12.9934 9.60378C13.0914 9.5946 13.1334 9.63386 13.1193 9.72158ZM13.4113 11.5341C13.598 11.676 13.7973 11.7249 14.0093 11.6808C14.1909 11.6427 14.3499 11.5508 14.4864 11.4052C14.6229 11.2592 14.6923 11.1065 14.6946 10.9471C14.6974 10.7823 14.6219 10.6603 14.4681 10.5813C14.3663 10.529 14.2352 10.5037 14.0748 10.5055C13.904 10.5078 13.7429 10.5336 13.5914 10.5827C13.4146 10.6401 13.2917 10.7471 13.2227 10.9037C13.1721 11.0199 13.1629 11.1322 13.1953 11.2406C13.2286 11.3527 13.3006 11.4505 13.4113 11.5341ZM15.6304 11.8186C15.681 11.8273 15.7373 11.8177 15.7993 11.7896C15.8476 11.7681 15.8926 11.7357 15.9343 11.6925C16.0952 11.5263 16.1618 11.3223 16.1342 11.0808C16.1074 10.8488 15.9986 10.7058 15.8077 10.6516C15.6398 10.6038 15.5096 10.6378 15.4172 10.7535C15.3501 10.8385 15.315 10.9492 15.3117 11.0856C15.3074 11.284 15.3658 11.4946 15.4869 11.7173C15.5011 11.7439 15.5214 11.7668 15.5463 11.7844C15.5712 11.802 15.6 11.8137 15.6304 11.8186ZM12.5811 18.4836C12.5304 19.0329 12.5388 19.551 12.6064 20.0378C12.6158 20.1053 12.6371 20.1253 12.6704 20.0977C12.6784 20.091 12.6849 20.0822 12.6895 20.0719C12.6941 20.0615 12.6967 20.0499 12.6971 20.0378L12.7429 18.4912C12.7433 18.48 12.7412 18.4689 12.7368 18.4591C12.7324 18.4493 12.7258 18.4409 12.7176 18.4347C12.6824 18.4085 12.6472 18.4062 12.612 18.4278C12.6035 18.4328 12.5963 18.4404 12.5909 18.4501C12.5855 18.4599 12.5821 18.4714 12.5811 18.4836Z" fill="#BC5F44"/>
<path d="M11.7621 9.25366C11.7471 9.56275 11.7836 9.91248 11.8718 10.3028C11.9351 10.5812 12.0484 10.8087 12.2117 10.9855C12.4391 11.2322 12.4783 11.524 12.3292 11.8611C12.2372 12.0692 12.0892 12.1835 11.8852 12.2042C11.6328 12.2731 11.3786 12.2979 11.1225 12.2786C10.8551 12.2589 10.6978 12.2451 10.6504 12.2373C10.4872 12.2111 10.3394 12.1456 10.2071 12.0409C10.157 12.001 10.126 11.9612 10.1143 11.9218C10.0964 11.862 10.1192 11.8164 10.1825 11.7847C10.1912 11.7802 10.2013 11.7789 10.2115 11.7807C10.2218 11.7826 10.2315 11.7876 10.2395 11.795C10.4285 11.9691 10.6546 12.0637 10.9178 12.0788C11.2489 12.0981 11.5644 12.0407 11.8641 11.9066C11.9912 11.8496 12.0974 11.756 12.1828 11.6255C12.2292 11.5553 12.2267 11.4864 12.1751 11.4189C12.1075 11.3302 12.0278 11.2356 11.9359 11.135C11.8209 11.0087 11.7384 10.868 11.6882 10.7127C11.668 10.6489 11.6345 10.4932 11.5876 10.2457C11.5421 10.0023 11.5299 9.79881 11.551 9.63531C11.5641 9.53381 11.6345 9.4066 11.7621 9.25366Z" fill="#913C32"/>
<path d="M14.1221 9.96256C14.0264 9.86657 13.915 9.79768 13.7879 9.75589C13.7583 9.69022 13.6568 9.65715 13.4832 9.65669C13.4565 9.65669 13.4295 9.65462 13.4023 9.65049C13.3024 9.63579 13.2081 9.65945 13.1195 9.72145C13.1336 9.63373 13.0916 9.59446 12.9935 9.60365C12.9377 9.6087 12.8854 9.62339 12.8367 9.64773C12.7729 9.67942 12.7323 9.69802 12.7149 9.70353C12.4809 9.77656 12.448 9.72994 12.6164 9.56369C12.6474 9.53338 12.683 9.50973 12.7234 9.49273C13.1366 9.31821 13.5271 9.34141 13.8948 9.56231C14.0731 9.66886 14.2443 9.83787 14.4085 10.0693C14.4164 10.0808 14.4199 10.0907 14.419 10.099C14.4181 10.1118 14.4106 10.1185 14.3965 10.1189C14.389 10.1189 14.381 10.116 14.3726 10.11C14.2942 10.0526 14.2107 10.0034 14.1221 9.96256Z" fill="#67332A"/>
<path d="M10.2703 10.0487C10.289 9.95272 10.274 9.87442 10.2252 9.81379C10.1868 9.76557 10.1216 9.7348 10.0296 9.72148C9.65627 9.66775 9.3678 9.81287 9.16423 10.1569C9.10326 10.0664 9.08543 9.99727 9.11076 9.9495C9.3617 9.48106 9.76158 9.32353 10.3104 9.47692C10.3915 9.49989 10.4466 9.54995 10.4757 9.6271C10.5569 9.84066 10.5522 10.0526 10.4616 10.263C10.4573 10.2733 10.4506 10.2824 10.4421 10.2894C10.4336 10.2964 10.4237 10.301 10.4131 10.3029C10.3273 10.3194 10.3078 10.2747 10.3547 10.1686C10.4072 10.0496 10.3791 10.0097 10.2703 10.0487Z" fill="#913C32"/>
<path d="M13.788 9.75611L13.75 10.1667C13.6177 10.2549 13.4712 10.2893 13.3103 10.27L13.2927 9.85807C13.288 9.75381 13.2397 9.72878 13.1477 9.78298C13.015 9.86105 12.9158 9.97265 12.8501 10.1178C12.8314 10.1215 12.8196 10.1157 12.8149 10.1006C12.8736 9.94073 12.9751 9.81444 13.1196 9.72166C13.2082 9.65966 13.3025 9.63601 13.4024 9.65071C13.4296 9.65484 13.4566 9.65691 13.4833 9.65691C13.6569 9.65737 13.7584 9.69043 13.788 9.75611Z" fill="#332022"/>
<path d="M6.67874 9.71324C6.73081 9.63103 6.76669 9.6556 6.78639 9.78695C6.79577 9.85079 6.79085 9.91348 6.77162 9.97502C6.65248 10.3576 6.55304 10.7165 6.4733 11.0518C6.46532 11.0857 6.45407 11.1124 6.43953 11.1317C6.39215 11.1937 6.3558 11.1762 6.33047 11.0793C6.31391 11.0149 6.31585 10.9472 6.3361 10.8837C6.4543 10.5158 6.55773 10.1525 6.64638 9.79384C6.65435 9.76077 6.66514 9.73391 6.67874 9.71324Z" fill="#E7B1A7"/>
<path d="M10.2699 10.0486C10.2249 10.354 10.0541 10.4438 9.75767 10.3179C9.69388 10.1572 9.65847 9.99805 9.65143 9.84052C9.64956 9.79413 9.6329 9.78724 9.60148 9.81985L9.13219 10.3152C9.0501 10.25 9.06066 10.1971 9.16385 10.1567C9.36742 9.81273 9.65589 9.6676 10.0293 9.72134C10.1212 9.73466 10.1864 9.76543 10.2249 9.81365C10.2736 9.87427 10.2886 9.95258 10.2699 10.0486Z" fill="#2A151C"/>
<path d="M14.1222 9.96253C14.0359 10.0916 13.9118 10.1596 13.75 10.1664L13.788 9.75586C13.9151 9.79765 14.0265 9.86654 14.1222 9.96253Z" fill="#E0C4B9"/>
<path d="M13.3101 10.2697C13.1384 10.3597 12.9618 10.3712 12.7803 10.3042L12.8499 10.1175C12.9156 9.97236 13.0148 9.86076 13.1475 9.78269C13.2395 9.72849 13.2878 9.75352 13.2925 9.85778L13.3101 10.2697Z" fill="#FDE8E1"/>
<path d="M9.75781 10.3181L9.13232 10.3153L9.60161 9.81999C9.63304 9.78739 9.64969 9.79428 9.65157 9.84066C9.65861 9.99819 9.69402 10.1573 9.75781 10.3181Z" fill="#F2C7BB"/>
<path d="M17.1079 9.86765L17.0869 9.87006C17.0761 9.87131 17.0684 9.88089 17.0697 9.89147L17.2119 11.0765C17.2131 11.0871 17.2229 11.0946 17.2337 11.0934L17.2547 11.091C17.2655 11.0897 17.2732 11.0802 17.272 11.0696L17.1298 9.88456C17.1285 9.87398 17.1187 9.86641 17.1079 9.86765Z" fill="#905947"/>
<path d="M12.8149 10.1003C12.8196 10.1155 12.8313 10.1212 12.8501 10.1176L12.7804 10.3043C12.7504 10.2133 12.7619 10.1453 12.8149 10.1003Z" fill="#822528"/>
<path d="M13.4117 11.534C13.301 11.4504 13.229 11.3526 13.1957 11.2405C13.1633 11.1321 13.1725 11.0198 13.2231 10.9036C13.2921 10.747 13.415 10.64 13.5918 10.5826C13.7433 10.5335 13.9044 10.5078 14.0752 10.5055C14.2356 10.5036 14.3667 10.5289 14.4685 10.5812C14.6223 10.6602 14.6978 10.7822 14.695 10.947C14.6927 11.1064 14.6233 11.2591 14.4868 11.4052C14.3503 11.5507 14.1913 11.6426 14.0097 11.6807C13.7977 11.7248 13.5984 11.6759 13.4117 11.534Z" fill="#9F4035"/>
<path d="M15.6305 11.8183C15.6001 11.8134 15.5713 11.8017 15.5464 11.7841C15.5215 11.7665 15.5011 11.7436 15.4869 11.717C15.3659 11.4943 15.3075 11.2837 15.3117 11.0853C15.315 10.9489 15.3502 10.8382 15.4173 10.7533C15.5097 10.6375 15.6398 10.6035 15.8078 10.6513C15.9987 10.7055 16.1075 10.8486 16.1342 11.0805C16.1619 11.3221 16.0953 11.526 15.9344 11.6922C15.8927 11.7354 15.8476 11.7678 15.7993 11.7894C15.7374 11.8174 15.6811 11.827 15.6305 11.8183Z" fill="#9F4035"/>
<path d="M8.73682 11.3376C8.74714 11.1139 8.82429 10.9139 8.9683 10.7376C9.20798 10.6558 9.4533 10.6388 9.70424 10.6866C9.79102 10.7031 9.86419 10.738 9.92376 10.7913C9.9777 10.84 10.0087 10.9075 10.0166 10.9938C10.0382 11.24 9.95026 11.4517 9.75279 11.629C9.6102 11.7567 9.44884 11.7911 9.26873 11.7323C9.08767 11.6731 8.91037 11.5415 8.73682 11.3376Z" fill="#AE4035"/>
<path d="M18.2861 11.1997C18.538 11.4904 18.7922 11.6851 19.0488 11.7839C19.2796 11.8725 19.5167 11.8932 19.7601 11.8459C19.9881 11.8018 20.1593 11.6693 20.2738 11.4484C20.3141 11.3703 20.3439 11.374 20.3631 11.4594C20.4091 11.6597 20.3896 11.8521 20.3047 12.0367C20.1462 12.3798 19.8734 12.608 19.4864 12.7215L19.4316 12.7153C19.4743 12.6625 19.4684 12.6289 19.414 12.6147C19.0289 12.5127 18.746 12.3476 18.5655 12.1194C18.4609 11.9876 18.4306 11.808 18.4747 11.5807C18.4762 11.5726 18.4757 11.563 18.4732 11.5525C18.4707 11.5419 18.4661 11.5307 18.4599 11.5194L18.2861 11.1997Z" fill="#180B1D"/>
<path d="M10.418 17.1726C10.0123 17.0197 9.69214 16.782 9.45761 16.4596C9.2728 16.2052 9.17149 15.9209 9.15366 15.6067C9.1349 15.2848 9.19682 14.9778 9.33941 14.6857C9.48575 14.3867 9.57535 14.1098 9.60818 13.8549C9.62835 13.5743 9.67948 13.3403 9.76156 13.1529C9.93652 12.7547 10.2121 12.4849 10.5883 12.3434C10.7478 12.2837 10.9065 12.2916 11.0646 12.3669C11.157 12.411 11.2152 12.4778 11.2391 12.5673C11.263 12.6587 11.2616 12.754 11.2349 12.8532C11.0782 12.9299 10.914 12.986 10.7424 13.0213C10.6073 13.0493 10.5189 13.0801 10.4771 13.1136C10.396 13.1784 10.3554 13.2705 10.3554 13.3899C10.3549 13.7605 10.3802 14.1736 10.4314 14.6292C10.4609 14.8942 10.5611 15.1119 10.7318 15.2823C10.888 15.4384 11.093 15.5379 11.3467 15.5806C11.8336 15.6619 12.1936 15.4584 12.4267 14.9702C12.7058 14.3851 12.7375 13.7757 12.5217 13.1419C12.4059 13.0565 12.3003 13.0094 12.2051 13.0007C12.0574 12.9203 11.904 12.8711 11.745 12.8532C11.5963 12.8032 11.5332 12.7136 11.5557 12.5846C11.5838 12.4247 11.6948 12.3143 11.8885 12.2532C12.0428 12.2422 12.1892 12.2693 12.3275 12.3345C12.9837 12.644 13.26 13.1616 13.1564 13.8873C13.1066 14.2354 13.2211 14.5073 13.4997 14.7029C13.5921 14.7681 13.6894 14.7886 13.7917 14.7642C13.8611 14.7481 13.9409 14.7018 14.0309 14.6251C14.3053 14.3904 14.5049 14.0935 14.6297 13.7343C14.7366 13.4266 14.8046 13.2137 14.8337 13.0957C14.9641 12.5731 15.1029 12.0523 15.2502 11.5333C15.2666 11.4741 15.2847 11.4736 15.3044 11.5319C15.4024 11.8217 15.4681 12.1219 15.5014 12.4323C15.5234 12.6385 15.5399 12.9437 15.5507 13.3479C15.5675 13.9624 15.5171 14.5204 15.3994 15.0219C15.2235 15.7695 14.7664 16.3372 14.0281 16.7248C13.1299 17.196 12.1695 17.3988 11.1469 17.3331C10.8913 17.3166 10.6483 17.2631 10.418 17.1726Z" fill="#190C1F"/>
<path d="M5.69256 16.7255C5.66729 16.7166 5.64497 16.7011 5.62799 16.6805C5.611 16.66 5.60001 16.6353 5.59617 16.6091C5.56052 16.3657 5.56474 16.1298 5.60884 15.9016C5.75565 15.1443 6.03239 14.4414 6.43906 13.7929C6.6098 13.521 6.7538 13.3159 6.87107 13.1777C7.04509 12.9733 7.24045 12.8101 7.45715 12.6879C7.5519 12.6346 7.64032 12.6438 7.7224 12.7154C7.73922 12.7302 7.75041 12.7506 7.75406 12.7733C7.77705 12.9134 7.73976 13.0544 7.64219 13.1963C7.08167 14.0096 6.75615 14.5061 6.66562 14.6857C6.41092 15.1922 6.20923 15.7188 6.06054 16.2653C6.02254 16.4059 5.96203 16.5356 5.87901 16.6545C5.82835 16.7271 5.7662 16.7508 5.69256 16.7255Z" fill="#FB9652"/>
<path d="M11.7446 12.8533C11.9036 12.8712 12.057 12.9203 12.2047 13.0007L11.0853 13.1467L10.8025 13.1791C10.7948 13.18 10.7876 13.1828 10.7814 13.1873C10.7753 13.1918 10.7703 13.1979 10.767 13.205C10.7636 13.2121 10.7621 13.2201 10.7624 13.2282C10.7627 13.2362 10.7648 13.2442 10.7687 13.2515C10.8137 13.3346 10.8836 13.4003 10.9784 13.4485C11.2199 13.572 11.4655 13.5883 11.715 13.4974C11.988 13.4574 12.2568 13.3389 12.5213 13.1419C12.7371 13.7757 12.7054 14.3851 12.4263 14.9702C12.1932 15.4584 11.8332 15.6619 11.3463 15.5806C11.0926 15.5379 10.8876 15.4385 10.7314 15.2823C10.5607 15.1119 10.4605 14.8942 10.431 14.6292C10.3798 14.1737 10.3545 13.7605 10.355 13.3899C10.355 13.2705 10.3956 13.1784 10.4767 13.1137C10.5185 13.0801 10.6069 13.0494 10.742 13.0214C10.9136 12.986 11.0778 12.93 11.2345 12.8533C11.4047 12.9015 11.5748 12.9015 11.7446 12.8533ZM11.003 14.0712C11.4064 14.1897 11.7715 14.1263 12.0985 13.8811C12.1688 13.8287 12.2242 13.7872 12.2645 13.7564C12.3199 13.7142 12.3715 13.668 12.4193 13.6179C12.4269 13.6101 12.4317 13.6002 12.4327 13.5901C12.4338 13.5799 12.431 13.5703 12.4249 13.5628C12.3968 13.5279 12.3635 13.5277 12.325 13.5621C12.0924 13.7693 11.8285 13.871 11.5335 13.8673C11.3191 13.865 11.1034 13.8368 10.8862 13.7826C10.8728 13.7793 10.8587 13.7795 10.8454 13.783C10.8321 13.7865 10.8199 13.7934 10.81 13.8028C10.8001 13.8123 10.7929 13.8241 10.789 13.8371C10.7851 13.85 10.7846 13.8638 10.7877 13.877C10.7999 13.9266 10.8271 13.9695 10.8693 14.0058C10.9003 14.0324 10.9448 14.0542 11.003 14.0712Z" fill="#C06547"/>
<path d="M12.2049 13.0007C12.3001 13.0095 12.4056 13.0565 12.5215 13.142C12.2569 13.339 11.9881 13.4575 11.7152 13.4974C11.4788 13.4295 11.2689 13.3126 11.0854 13.1468L12.2049 13.0007Z" fill="#F6F3F1"/>
<path d="M11.0857 13.1467C11.2691 13.3125 11.479 13.4294 11.7154 13.4974C11.4658 13.5883 11.2203 13.572 10.9787 13.4485C10.884 13.4002 10.8141 13.3346 10.7691 13.2514C10.7652 13.2442 10.763 13.2362 10.7627 13.2281C10.7624 13.22 10.764 13.2121 10.7673 13.205C10.7707 13.1979 10.7756 13.1918 10.7818 13.1873C10.788 13.1828 10.7952 13.18 10.8028 13.1791L11.0857 13.1467Z" fill="#5C0F15"/>
<path d="M20.1307 17.1657C19.9759 17.0435 19.8689 16.8738 19.8098 16.6566C19.7367 16.3889 19.716 16.1218 19.7479 15.8554C19.7737 15.6409 19.8408 15.3863 19.9491 15.0914C20.1396 14.5748 20.4316 14.1238 20.8251 13.7384C20.9292 13.637 21.0676 13.5373 21.2402 13.4395C21.4682 13.31 21.6467 13.3109 21.7757 13.4422C21.8502 13.518 21.903 13.6537 21.934 13.8494C22.0648 14.6682 21.9663 15.4644 21.6385 16.2378C21.4851 16.5992 21.277 16.8957 21.0144 17.1271C20.7203 17.3866 20.4257 17.3995 20.1307 17.1657Z" fill="#FB9550"/>
<path d="M10.8698 14.0057C10.8275 13.9694 10.8003 13.9265 10.7881 13.8769C10.7851 13.8637 10.7855 13.8499 10.7894 13.8369C10.7933 13.824 10.8006 13.8122 10.8105 13.8027C10.8203 13.7933 10.8325 13.7864 10.8459 13.7829C10.8592 13.7794 10.8732 13.7792 10.8866 13.7825C11.1038 13.8367 11.3196 13.8649 11.5339 13.8672C11.829 13.8709 12.0928 13.7692 12.3255 13.562C12.3639 13.5276 12.3972 13.5278 12.4254 13.5627C12.4314 13.5702 12.4342 13.5798 12.4332 13.59C12.4321 13.6001 12.4274 13.61 12.4197 13.6178C12.3719 13.6679 12.3203 13.7141 12.265 13.7563C12.2246 13.7871 12.1693 13.8286 12.0989 13.881C11.772 14.1262 11.4068 14.1896 11.0034 14.0711C10.9453 14.0541 10.9007 14.0323 10.8698 14.0057Z" fill="#9F4035"/>
<path d="M6.92922 16.5028C6.60534 17.1389 6.52433 17.7431 6.74829 17.8524C6.97224 17.9617 7.41634 17.5348 7.74022 16.8987C8.0641 16.2627 8.14511 15.6584 7.92116 15.5491C7.69721 15.4398 7.2531 15.8668 6.92922 16.5028Z" fill="#F0BDB1"/>
<path d="M17.3116 17.3628C17.6358 17.4914 18.0082 17.6253 18.4289 17.7644C18.5438 17.8025 18.6473 17.8687 18.7392 17.9628C18.7466 17.9705 18.7559 17.9763 18.7661 17.9798C18.7764 17.9833 18.7875 17.9843 18.7983 17.9828C18.9855 17.9589 19.1508 18.006 19.2943 18.124C19.2962 18.1254 19.3129 18.1424 19.3443 18.175C19.4062 18.2384 19.5099 18.277 19.6553 18.2907C19.7289 18.2976 19.7972 18.3204 19.86 18.3589C20.065 18.4852 20.3141 18.6063 20.6072 18.722C20.2146 19.1656 19.7582 19.587 19.2381 19.9861C17.7305 21.143 16.0417 21.8023 14.1715 21.9639C13.7123 22.0034 13.2437 22.0105 12.7658 21.9853C10.2709 21.8512 8.13573 20.8998 6.36035 19.1312C6.74169 18.9117 7.15939 18.7011 7.61343 18.4995C7.65706 18.4802 7.69716 18.4554 7.73375 18.4251C7.82615 18.3484 7.92418 18.2956 8.02785 18.2666C8.15777 18.2303 8.2469 18.1991 8.29521 18.1729C8.74644 17.9281 9.2162 17.7222 9.70449 17.555C9.85458 18.7702 10.4228 19.6773 11.4093 20.2761C11.7817 20.5021 12.1771 20.6559 12.5955 20.7377C13.0111 20.8185 13.4429 20.8378 13.8908 20.7956C14.843 20.706 15.6268 20.3508 16.2422 19.7298C16.5396 19.4299 16.7793 19.0655 16.9613 18.6366C17.1339 18.231 17.2507 17.8064 17.3116 17.3628ZM18.2854 18.1226C18.0312 18.4708 17.7936 18.8295 17.5727 19.1987C17.5502 19.2364 17.5541 19.2577 17.5846 19.2628C17.5938 19.2643 17.6043 19.2631 17.6153 19.2592C17.6263 19.2554 17.6374 19.2491 17.648 19.2407C17.8192 19.1029 17.9505 18.9208 18.042 18.6944C18.132 18.4721 18.2695 18.2501 18.4543 18.0283C18.4578 18.024 18.4607 18.0192 18.4625 18.0141C18.4644 18.009 18.4652 18.0038 18.4649 17.999C18.4646 17.9941 18.4633 17.9897 18.4609 17.986C18.4586 17.9824 18.4554 17.9796 18.4514 17.978C18.4364 17.9715 18.4212 17.9771 18.4057 17.9945C18.3879 18.0156 18.3745 18.0299 18.3656 18.0372C18.3351 18.062 18.3084 18.0905 18.2854 18.1226ZM18.7765 18.4147C18.4402 18.9241 18.1836 19.3381 18.0068 19.6568C17.9969 19.6747 17.9932 19.6917 17.9955 19.7078C18.0035 19.7523 18.0293 19.7519 18.0729 19.7064C18.2028 19.5728 18.3093 19.4244 18.3923 19.2614C18.4829 19.0827 18.5586 18.9443 18.6196 18.846C18.7031 18.7105 18.7746 18.5688 18.8342 18.4209C18.8464 18.3902 18.8394 18.378 18.8131 18.3844C18.7995 18.3881 18.7873 18.3982 18.7765 18.4147ZM19.275 18.8034C19.2812 18.8064 19.2889 18.8064 19.2976 18.8033C19.3063 18.8002 19.3159 18.7941 19.3258 18.7853C19.3357 18.7766 19.3458 18.7653 19.3554 18.7523C19.365 18.7392 19.3739 18.7245 19.3817 18.7091C19.3895 18.6937 19.396 18.6779 19.4009 18.6625C19.4057 18.6471 19.4088 18.6325 19.4099 18.6195C19.411 18.6065 19.4102 18.5953 19.4074 18.5866C19.4047 18.578 19.4001 18.5719 19.3939 18.5689C19.3877 18.5659 19.38 18.5659 19.3713 18.5691C19.3625 18.5722 19.353 18.5783 19.3431 18.587C19.3331 18.5958 19.3231 18.607 19.3135 18.6201C19.3039 18.6331 19.295 18.6478 19.2872 18.6632C19.2794 18.6786 19.2729 18.6944 19.268 18.7098C19.2632 18.7252 19.2601 18.7398 19.259 18.7528C19.2579 18.7658 19.2587 18.777 19.2614 18.7857C19.2642 18.7944 19.2688 18.8004 19.275 18.8034ZM9.62991 19.6975C9.70777 19.7475 9.73404 19.7333 9.70871 19.6547C9.67681 19.5551 9.52601 19.3461 9.2563 19.0279C9.19861 18.9603 9.16226 18.9571 9.14725 19.0182C9.14209 19.0407 9.14561 19.0653 9.1578 19.0919C9.29289 19.3803 9.45026 19.5822 9.62991 19.6975ZM9.36325 20.3671C9.41578 20.3721 9.42493 20.3221 9.39069 20.2169C9.37052 20.1549 9.33862 20.0995 9.295 20.0509C8.96103 19.6784 8.62449 19.3555 8.28536 19.0823C8.26634 19.0672 8.24435 19.0591 8.22344 19.0595C8.13057 19.0618 8.11861 19.108 8.18756 19.198C8.40098 19.4791 8.76333 19.852 9.2746 20.3168C9.30884 20.348 9.33839 20.3648 9.36325 20.3671ZM10.1182 20.9863C10.1342 20.9869 10.1503 20.9837 10.1655 20.9769C10.1806 20.97 10.1946 20.9596 10.2065 20.9463C10.2185 20.9329 10.2282 20.9169 10.2351 20.8991C10.242 20.8813 10.246 20.8621 10.2468 20.8426C10.2477 20.8231 10.2453 20.8036 10.24 20.7853C10.2346 20.767 10.2263 20.7503 10.2155 20.736C10.2048 20.7217 10.1917 20.7102 10.1772 20.7021C10.1627 20.6941 10.147 20.6896 10.1309 20.6889C10.1148 20.6882 10.0988 20.6914 10.0836 20.6983C10.0684 20.7052 10.0545 20.7156 10.0425 20.7289C10.0306 20.7422 10.0209 20.7583 10.014 20.776C10.007 20.7938 10.003 20.813 10.0022 20.8326C10.0014 20.8521 10.0037 20.8715 10.0091 20.8898C10.0145 20.9081 10.0228 20.9249 10.0335 20.9392C10.0443 20.9534 10.0573 20.9649 10.0718 20.973C10.0864 20.9811 10.1021 20.9856 10.1182 20.9863Z" fill="#E55954"/>
<path d="M18.2852 18.1226C18.3082 18.0905 18.3349 18.062 18.3654 18.0372C18.3743 18.0298 18.3877 18.0156 18.4055 17.9945C18.421 17.977 18.4362 17.9715 18.4512 17.9779C18.4551 17.9796 18.4584 17.9824 18.4607 17.986C18.4631 17.9896 18.4644 17.9941 18.4647 17.9989C18.465 18.0038 18.4641 18.009 18.4623 18.0141C18.4604 18.0191 18.4576 18.024 18.454 18.0282C18.2692 18.2501 18.1318 18.4721 18.0417 18.6944C17.9503 18.9208 17.8189 19.1029 17.6477 19.2407C17.6372 19.249 17.6261 19.2554 17.6151 19.2592C17.6041 19.263 17.5936 19.2642 17.5844 19.2627C17.5539 19.2577 17.5499 19.2363 17.5725 19.1987C17.7934 18.8294 18.031 18.4707 18.2852 18.1226Z" fill="#B93334"/>
<path d="M18.7763 18.4148C18.7871 18.3983 18.7993 18.3882 18.8129 18.3845C18.8391 18.378 18.8462 18.3902 18.834 18.421C18.7744 18.5689 18.7029 18.7106 18.6194 18.846C18.5584 18.9443 18.4827 19.0828 18.3921 19.2614C18.3091 19.4245 18.2026 19.5728 18.0727 19.7065C18.0291 19.7519 18.0033 19.7524 17.9953 19.7078C17.993 19.6918 17.9967 19.6748 18.0066 19.6569C18.1834 19.3381 18.44 18.9241 18.7763 18.4148Z" fill="#B93334"/>
<path d="M12.6124 18.4277C12.6475 18.4061 12.6827 18.4084 12.7179 18.4346C12.7261 18.4408 12.7327 18.4492 12.7372 18.459C12.7416 18.4688 12.7436 18.4798 12.7432 18.4911L12.6975 20.0377C12.697 20.0498 12.6944 20.0614 12.6898 20.0718C12.6852 20.0821 12.6787 20.0909 12.6707 20.0976C12.6374 20.1252 12.6161 20.1052 12.6067 20.0377C12.5392 19.5508 12.5307 19.0328 12.5814 18.4835C12.5825 18.4712 12.5859 18.4597 12.5912 18.45C12.5966 18.4403 12.6039 18.4326 12.6124 18.4277Z" fill="#9F4035"/>
<path d="M19.2869 18.6631C19.2541 18.7278 19.2487 18.7906 19.2748 18.8033C19.3009 18.816 19.3487 18.7738 19.3815 18.709C19.4143 18.6443 19.4198 18.5815 19.3937 18.5688C19.3675 18.5561 19.3198 18.5983 19.2869 18.6631Z" fill="#B93334"/>
<path d="M9.62949 19.6974C9.44984 19.5821 9.29247 19.3803 9.15739 19.0918C9.14519 19.0652 9.14167 19.0406 9.14683 19.0181C9.16184 18.957 9.19819 18.9603 9.25589 19.0278C9.5256 19.346 9.6764 19.555 9.70829 19.6547C9.73362 19.7332 9.70735 19.7474 9.62949 19.6974Z" fill="#CF4945"/>
<path d="M9.27466 20.3168C8.76339 19.852 8.40104 19.4791 8.18762 19.1981C8.11867 19.108 8.13063 19.0619 8.22351 19.0596C8.24442 19.0592 8.26641 19.0672 8.28542 19.0823C8.62455 19.3556 8.9611 19.6784 9.29506 20.0509C9.33869 20.0996 9.37058 20.1549 9.39075 20.2169C9.42499 20.3221 9.41585 20.3722 9.36331 20.3671C9.33845 20.3648 9.3089 20.348 9.27466 20.3168Z" fill="#CF4945"/>
<path d="M10.0019 20.8325C9.99842 20.9146 10.0503 20.9834 10.1179 20.9862C10.1854 20.9889 10.2431 20.9246 10.2466 20.8425C10.2501 20.7604 10.1982 20.6916 10.1306 20.6888C10.0631 20.6861 10.0054 20.7504 10.0019 20.8325Z" fill="#AE4538"/>
</svg>
