<svg width="25" height="25" viewBox="0 0 25 25" fill="none" xmlns="http://www.w3.org/2000/svg">
<rect x="1" y="1" width="23" height="23" rx="6.5" fill="#737197"/>
<rect x="1" y="1" width="23" height="23" rx="6.5" stroke="#FDFDFD" stroke-width="2"/>
<path d="M4.77783 17.9376C5.81138 19.382 7.14875 20.4719 8.78996 21.2072C9.72341 21.6254 10.6335 21.8717 11.5202 21.9462C12.2058 22.0036 12.8491 22.0151 13.4501 21.9807C14.7693 21.9044 16.0295 21.567 17.2306 20.9687C18.9073 20.1327 20.2144 18.92 21.1521 17.3303" stroke="#9E919B"/>
<path d="M21.1521 17.3304C22.0156 15.8942 22.4642 14.2848 22.4977 12.5022C22.5421 10.1281 21.8716 8.03133 20.4863 6.21191" stroke="#B9B8CB"/>
<path d="M20.4866 6.21174C19.7297 5.19978 18.7816 4.37395 17.6423 3.73423C17.5942 3.70712 17.5441 3.69609 17.4922 3.70114" stroke="#E1D7DE"/>
<path d="M17.4922 3.70122C17.4662 3.65526 17.4128 3.61183 17.3321 3.57093C16.0639 2.92892 14.7343 2.57644 13.3433 2.51348C12.8622 2.49188 12.3903 2.49624 11.9276 2.52657C11.0192 2.58678 10.1355 2.77726 9.27669 3.09804C7.15058 3.89309 5.51764 5.24834 4.37786 7.1638C3.50815 8.62614 3.05017 10.2332 3.00389 11.9851C2.94582 14.1859 3.53719 16.1701 4.77801 17.9376" stroke="#B9B8CB"/>
<path d="M17.4922 3.70117C17.6589 4.03527 17.7516 4.3379 17.7705 4.60904C17.7937 4.94544 17.835 5.19246 17.8945 5.35009C18.1202 5.9489 18.5569 6.22464 19.2047 6.1773C19.6938 6.14146 20.1211 6.15295 20.4866 6.21177" stroke="#9C91AA"/>
<path d="M21.1525 17.3303C21.0982 17.3298 21.026 17.3131 20.9358 17.28C20.4934 17.1182 19.4738 16.7558 17.877 16.1929" stroke="#584A68"/>
<path d="M17.8767 16.1929C19.008 16.0173 19.8116 15.4259 20.2875 14.4185C20.5868 13.7848 20.6343 13.131 20.4298 12.4573C20.2637 11.9104 19.9298 11.4911 19.4284 11.1993C19.2259 11.0811 18.9978 11.0157 18.7443 11.0028C18.4624 10.9885 18.2324 11.0584 18.0544 11.2123C17.876 11.3672 17.7896 11.5628 17.7952 11.799C17.8018 12.0559 17.9322 12.2638 18.1862 12.4228C18.3047 12.4968 18.4237 12.5699 18.5431 12.6421C18.8028 12.7997 18.9881 13.0051 19.0991 13.2583C19.1992 13.4881 19.2311 13.7468 19.1947 14.0345C19.1442 14.4284 18.969 14.7606 18.6692 15.0313C18.2131 15.4417 17.6437 15.6501 16.9609 15.6566" stroke="#9D91AB"/>
<path d="M16.9608 15.6565C16.7639 15.5904 16.4967 15.4867 16.1591 15.3457C16.1308 15.3337 16.1062 15.3394 16.0854 15.3629" stroke="#9088A8"/>
<path d="M16.0854 15.363L15.5776 15.2251" stroke="#504864"/>
<path d="M15.5776 15.2249L15.5847 13.3071" stroke="#B897A1"/>
<path d="M15.585 13.3073C15.8612 13.0095 16.0349 12.7181 16.1062 12.4332C16.2422 11.8895 16.263 11.2645 16.1685 10.5582C16.1674 10.5498 16.1687 10.5404 16.1724 10.5308C16.1761 10.5211 16.182 10.5114 16.1898 10.5024C16.2016 10.4886 16.2091 10.4725 16.2125 10.4541" stroke="#614858"/>
<path d="M16.2124 10.4541L16.4298 10.464" stroke="#B77A85"/>
<path d="M16.4297 10.4635C17.2323 10.3128 17.6084 9.83761 17.5579 9.03797C17.523 8.48281 17.222 8.17353 16.6549 8.11011" stroke="#B5929E"/>
<path d="M16.6548 8.11032L16.3921 8.09033" stroke="#B6A4B2"/>
<path d="M16.3922 8.09032C16.4277 7.91293 16.4149 7.73968 16.354 7.57056" stroke="#B895A0"/>
<path d="M16.3541 7.57045C16.6591 7.29287 16.8779 6.96176 17.0106 6.5771C17.1466 6.18417 17.0623 5.85444 16.7578 5.58789C16.677 5.51758 16.6546 5.43279 16.6905 5.33352C16.7472 5.17497 16.7764 5.01389 16.7783 4.85029C16.7802 4.66554 16.7394 4.51228 16.6558 4.39049C16.5288 4.20575 16.3345 4.11177 16.0729 4.10855C16.0691 4.10855 16.0326 4.11131 15.9631 4.11682C15.8092 4.12923 15.7153 4.05203 15.6813 3.88521C15.6312 3.63888 15.4688 3.45413 15.194 3.33097C14.7714 3.14163 14.3692 3.16783 13.9872 3.40956C13.9634 3.42452 13.9348 3.43066 13.9066 3.42687C13.8784 3.42307 13.8525 3.4096 13.8335 3.38888C13.5554 3.08143 13.2091 3.0164 12.7945 3.19379C12.7029 3.23331 12.6092 3.23837 12.5134 3.20896C12.3264 3.15151 12.1255 3.12325 11.9107 3.12417C11.6835 3.12555 11.4878 3.16392 11.3235 3.23929C11.0228 3.37716 10.8174 3.61406 10.7074 3.95C10.6753 4.04835 10.6066 4.09109 10.5013 4.07822C10.3308 4.05662 10.1637 4.04628 9.99985 4.0472C9.8091 4.04858 9.64739 4.07914 9.51471 4.13888C9.24133 4.26297 9.06782 4.46403 8.99416 4.74206C8.93798 4.95254 8.92358 5.17497 8.95096 5.40935C8.98023 5.65935 9.08269 5.86799 9.25833 6.03528C9.50432 6.26919 9.55744 6.55343 9.41768 6.888C9.35064 7.04838 9.35536 7.21934 9.43185 7.40087" stroke="#614858"/>
<path d="M9.43172 7.40088L9.39844 8.14193" stroke="#B895A0"/>
<path d="M9.39862 8.14185L9.28955 8.17907" stroke="#B6A4B2"/>
<path d="M9.28954 8.17925C8.70501 8.14708 8.3745 8.39892 8.29801 8.93477C8.26921 9.13652 8.28385 9.34677 8.34192 9.56552C8.4033 9.7976 8.50151 9.97936 8.63655 10.1108C8.88962 10.3571 9.22509 10.4157 9.64294 10.2866" stroke="#B796A0"/>
<path d="M9.64258 10.2866L9.74952 10.5865" stroke="#B6A4B2"/>
<path d="M9.74952 10.5864C9.70089 11.1181 9.69499 11.5786 9.73181 11.9679C9.7762 12.4362 9.9719 12.8484 10.3189 13.2046" stroke="#614858"/>
<path d="M10.3192 13.2046L10.3164 15.2278" stroke="#B897A1"/>
<path d="M10.3166 15.2278L9.75 15.4346" stroke="#4B455E"/>
<path d="M9.74951 15.4346C9.35573 15.6221 8.97211 15.8305 8.59863 16.0598" stroke="#7B789C"/>
<path d="M8.59874 16.0598C7.58077 16.4946 6.50072 17.0033 5.35858 17.586C5.13478 17.7 4.9412 17.8172 4.77783 17.9376" stroke="#584A68"/>
<path d="M16.4297 10.4638C16.5812 10.3962 16.6381 10.2813 16.6004 10.1191C16.5971 10.1045 16.5978 10.0893 16.6022 10.075C16.6067 10.0606 16.6148 10.0476 16.6259 10.0371C16.9847 9.69836 17.1419 9.33094 17.0975 8.93479C17.0673 8.66457 16.9099 8.50556 16.6252 8.45776" stroke="#F99B8B"/>
<path d="M10.3315 16.6554C10.0401 16.2933 9.84632 15.8863 9.75 15.4346" stroke="#534B63"/>
<path d="M16.2123 10.4542L16.1592 10.4485" stroke="#A45145"/>
<path d="M9.31912 8.47559C9.14348 8.48386 8.99263 8.5374 8.86656 8.6362C8.74947 8.72858 8.68101 8.85725 8.66118 9.02224C8.61443 9.40965 8.80589 9.67574 9.23555 9.8205" stroke="#F8A090"/>
<path d="M11.0954 17.6006L10.5728 18.8042" stroke="#524661"/>
<path d="M10.5725 18.8041C9.55404 18.1359 8.89609 17.2211 8.59863 16.0598" stroke="#60516D"/>
<path d="M16.0857 15.3628C15.9998 15.8178 15.8286 16.2394 15.5723 16.6277" stroke="#6C5F74"/>
<path d="M15.5848 13.3071L15.395 13.4843" stroke="#A66E62"/>
<path d="M15.3949 13.4844C14.9856 13.8686 14.5838 14.1889 14.1895 14.4454C13.2372 15.0635 12.3311 15.006 11.4713 14.273C11.061 13.9228 10.7359 13.6197 10.4961 13.3638" stroke="#A0524A"/>
<path d="M10.4964 13.3638L10.3193 13.2046" stroke="#A66E62"/>
<path d="M12.1176 11.4714C11.8229 11.5569 11.6974 11.7458 11.7408 12.0381C11.7545 12.13 11.7918 12.2918 11.8527 12.5234C11.9391 12.8547 12.1546 13.053 12.4993 13.1183C12.509 13.1201 12.5189 13.1196 12.5284 13.1169C12.538 13.1143 12.5468 13.1095 12.5542 13.103C12.5617 13.0964 12.5677 13.0883 12.5716 13.0791C12.5756 13.07 12.5775 13.06 12.5772 13.05L12.5475 12.2938C12.5471 12.2822 12.5523 12.2708 12.5617 12.2623C12.5711 12.2538 12.5841 12.2487 12.5978 12.2483L13.3124 12.2297C13.3215 12.2294 13.3306 12.2308 13.3391 12.2338C13.3477 12.2368 13.3554 12.2413 13.3619 12.247C13.3684 12.2528 13.3735 12.2597 13.3769 12.2672C13.3803 12.2748 13.382 12.2829 13.3818 12.2911L13.3669 12.9287C13.3668 12.9329 13.3677 12.9371 13.3695 12.9409C13.3712 12.9448 13.3739 12.9481 13.3772 12.9508C13.3804 12.9535 13.3843 12.9553 13.3884 12.9563C13.3925 12.9572 13.3968 12.9572 13.4009 12.9563C13.5907 12.9149 13.7297 12.8311 13.818 12.7047C13.9871 12.4625 14.0687 12.1651 14.0631 11.8127C14.0621 11.7511 14.0459 11.7021 14.0142 11.6658C14.0089 11.6596 14.0013 11.6556 13.9931 11.6547C13.9849 11.6537 13.9767 11.656 13.9703 11.661C13.7602 11.8177 13.5317 11.9032 13.2847 11.9174C13.2352 11.9202 13.1875 11.9305 13.1417 11.9485C13.0576 11.982 13.0189 11.9721 13.0255 11.9188" stroke="#A56B60"/>
<path d="M13.0254 11.919C13.2091 11.856 13.3965 11.8075 13.5877 11.7735C13.6434 11.7639 13.6895 11.7457 13.7258 11.7191C13.7664 11.6901 13.8049 11.6577 13.8413 11.6219C13.8449 11.6183 13.8476 11.614 13.8494 11.6093C13.8511 11.6046 13.8517 11.5996 13.8513 11.5946C13.8508 11.5896 13.8492 11.5848 13.8466 11.5804C13.8441 11.5761 13.8405 11.5724 13.8363 11.5695C13.6956 11.4711 13.5492 11.425 13.3972 11.4309" stroke="#A47B77"/>
<path d="M16.3539 7.57051C15.979 7.366 15.7304 7.06269 15.6081 6.66057C15.5736 6.5466 15.5415 6.4648 15.5118 6.41516C15.4528 6.31774 15.3798 6.30625 15.293 6.3807C14.8123 6.79246 14.2842 6.90689 13.7086 6.72399C13.1704 6.55303 12.702 6.27178 12.3035 5.88023C12.0575 5.6385 11.8953 5.50339 11.817 5.47489C11.5507 5.37839 11.3469 5.44158 11.2058 5.66446C11.0759 5.86989 10.9683 6.12702 10.8828 6.43584C10.8101 6.69779 10.6257 6.9262 10.3297 7.12105C10.113 7.26352 9.81361 7.35681 9.43164 7.40093" stroke="#A66C60"/>
<path d="M16.3924 8.09035C16.171 8.21397 15.9694 8.19582 15.7876 8.03589" stroke="#FBC8BA"/>
<path d="M15.7873 8.03572C15.8605 7.90475 15.8549 7.78917 15.7703 7.68898C15.757 7.67289 15.7368 7.66101 15.713 7.6552C15.1398 7.51641 14.5569 7.44702 13.9644 7.44702" stroke="#906966"/>
<path d="M13.9644 7.44709C13.4791 7.3754 12.9916 7.36368 12.5019 7.41193C12.4746 7.41469 12.4337 7.41515 12.3794 7.41331C12.2637 7.40917 12.2359 7.44778 12.2958 7.52912C12.302 7.53765 12.3104 7.54466 12.3204 7.54957C12.3303 7.55448 12.3416 7.55716 12.3532 7.55738L13.7916 7.57324" stroke="#F9A99A"/>
<path d="M13.7917 7.57324C13.693 7.80532 13.7563 7.92665 13.9815 7.93722C14.3842 7.9556 14.7856 7.98846 15.1855 8.03579" stroke="#906966"/>
<path d="M15.1853 8.03589L15.1081 8.0414C15.1024 8.04191 15.0943 8.04555 15.0846 8.05197C15.0749 8.05839 15.0639 8.06735 15.0528 8.07794C15.0212 8.10919 14.9768 8.12481 14.9197 8.12481C14.4277 8.12527 13.9013 8.18065 13.3403 8.29095" stroke="#FBC8BA"/>
<path d="M13.3404 8.29102C13.1832 8.38109 13.0014 8.41188 12.7951 8.38339C12.7615 8.37879 12.732 8.39511 12.7065 8.43233" stroke="#FC9E8D"/>
<path d="M12.7067 8.4323C12.6038 8.40565 12.5103 8.4238 12.4263 8.48676" stroke="#FBC8BA"/>
<path d="M12.4263 8.48662C12.4079 8.46548 12.3843 8.45399 12.3555 8.45215" stroke="#FC9E8D"/>
<path d="M12.3551 8.45225C12.3344 8.421 12.2758 8.38516 12.1795 8.34472C11.806 8.188 11.4623 8.11287 11.1483 8.1193C11.0081 8.12206 10.8782 8.09035 10.7588 8.02417" stroke="#FBC8BA"/>
<path d="M10.7588 8.02414L12.0527 7.90075C12.1566 7.89064 12.2095 7.83365 12.2114 7.72979C12.2151 7.51609 12.0969 7.41407 11.8565 7.42372C11.5171 7.43705 11.1792 7.4683 10.8431 7.51747C10.5017 7.56711 10.2411 7.62593 10.0612 7.69395C10.0505 7.69807 10.041 7.70429 10.0333 7.71215C10.0256 7.72002 10.0199 7.72934 10.0166 7.73944C9.96981 7.88329 10.0166 7.98968 10.1568 8.05861" stroke="#916667"/>
<path d="M10.157 8.05859C9.91332 8.16337 9.66048 8.19118 9.39844 8.142" stroke="#FBC8BA"/>
<path d="M10.4965 13.3638C10.4809 13.395 10.4727 13.4256 10.4717 13.4555C10.4708 13.4807 10.4809 13.5092 10.5022 13.5409C10.8034 13.9849 11.1644 14.3714 11.5851 14.7004C11.8585 14.9146 12.1191 15.0598 12.367 15.1361C12.6691 15.2294 12.976 15.2533 13.2877 15.2078C13.6177 15.16 13.9494 15.0166 14.2827 14.7776C14.5816 14.563 14.8462 14.3107 15.0767 14.0207C15.1206 13.9656 15.1763 13.9015 15.2438 13.8284C15.2924 13.7755 15.3484 13.7112 15.4116 13.6354C15.4593 13.5779 15.4539 13.5276 15.3954 13.4844" stroke="#F7A093"/>
<path d="M15.578 15.2251C15.5463 15.6865 15.5444 16.1541 15.5723 16.6279" stroke="#956D6E"/>
<path d="M15.5719 16.6279C15.3065 17.0549 14.9642 17.4136 14.5449 17.704" stroke="#D5AEB2"/>
<path d="M14.5453 17.7039C14.4659 17.7507 14.3503 17.8047 14.1982 17.8659C14.0599 17.9219 13.9645 18.0278 13.9121 18.1836" stroke="#8E6765"/>
<path d="M13.9118 18.1836C13.6989 18.616 13.5362 19.0643 13.4238 19.5285" stroke="#FBCABC"/>
<path d="M13.4241 19.5286C13.2636 19.9881 13.066 20.4535 12.8313 20.9245C12.8162 20.9553 12.8013 20.9553 12.7867 20.9245C12.4557 20.2448 12.1517 19.5504 11.8745 18.8413" stroke="#9D7072"/>
<path d="M11.8748 18.8414L11.6524 17.9976C11.6445 17.9676 11.6292 17.9384 11.6073 17.912C11.5854 17.8856 11.5574 17.8624 11.5249 17.8439L11.0957 17.6006" stroke="#8F6566"/>
<path d="M11.0952 17.6006C10.9862 17.4729 10.8707 17.3506 10.7489 17.2339C10.5733 17.0652 10.434 16.8724 10.3311 16.6555" stroke="#C09DA6"/>
<path d="M10.3313 16.6554L10.3164 15.2278" stroke="#906A68"/>
<path d="M10.5728 18.8041C10.7281 18.9116 10.8931 19.0042 11.0678 19.0819C11.0716 19.0832 11.1091 19.1028 11.1804 19.1405C11.2857 19.1965 11.3603 19.1706 11.4042 19.0626C11.4255 19.0102 11.4366 18.9828 11.4375 18.9805C11.5097 18.8284 11.5747 18.6731 11.6323 18.5145C11.6408 18.492 11.6519 18.4904 11.6656 18.5097C11.708 18.5685 11.7338 18.6356 11.7428 18.711C11.7527 18.7951 11.7966 18.8385 11.8745 18.8413" stroke="#2F192D"/>
<path d="M13.4238 19.5286L13.5917 19.2205" stroke="#9B7D82"/>
<path d="M13.5918 19.2205C13.6291 19.2283 13.6605 19.2228 13.686 19.2039C13.7025 19.1915 13.7153 19.1667 13.7242 19.1295C13.762 18.9751 13.8491 18.8641 13.9856 18.7965C14.3047 18.6394 14.5699 18.4369 14.7809 18.1892" stroke="#2E1A2B"/>
<path d="M17.1871 15.9971C17.1158 16.3656 16.9912 16.7105 16.8132 17.0318C16.426 17.7322 15.8861 18.3163 15.1934 18.7841C15.1836 18.7908 15.1724 18.7953 15.1606 18.7974C15.1488 18.7995 15.1367 18.7991 15.1251 18.7962C15.1134 18.7933 15.1026 18.788 15.0932 18.7807C15.0839 18.7734 15.0763 18.7642 15.0709 18.7538L14.7812 18.1892" stroke="#756178"/>
<path d="M14.7808 18.1892L14.5449 17.7039" stroke="#65586B"/>
<path d="M17.8768 16.1928L17.187 15.9971" stroke="#826A7C"/>
<path d="M17.1869 15.997L16.9609 15.6565" stroke="#B9A8BC"/>
<path d="M16.6551 8.11011L16.653 8.32725C16.6527 8.33545 16.6498 8.34453 16.6445 8.35382C16.6391 8.36312 16.6313 8.3724 16.6218 8.38102C16.5963 8.40354 16.5975 8.42904 16.6253 8.45754" stroke="#F8C5B8"/>
<path d="M16.6255 8.45776L16.5611 9.80061C16.5606 9.81005 16.5581 9.81928 16.5537 9.8277C16.5493 9.83612 16.5432 9.84354 16.5357 9.84947C16.5282 9.85539 16.5195 9.8597 16.5102 9.86209C16.5009 9.86448 16.4912 9.86491 16.4817 9.86334C16.4463 9.85737 16.4116 9.86058 16.3776 9.87299C16.3493 9.8831 16.3247 9.90424 16.304 9.93641C16.2029 10.0917 16.1548 10.2625 16.1595 10.4486" stroke="#FAAD9F"/>
<path d="M16.1593 10.4485C16.0894 10.5675 16.0186 10.6316 15.9468 10.6408C15.7627 10.6638 15.5797 10.6934 15.3979 10.7297" stroke="#A47B72"/>
<path d="M15.398 10.7297C15.1827 10.6828 14.9698 10.6899 14.7592 10.751C14.7372 10.7572 14.7137 10.756 14.6926 10.7476C14.5992 10.7094 14.5021 10.6821 14.4016 10.6655C14.1787 10.6283 13.9924 10.5281 13.8428 10.365" stroke="#FBBEB0"/>
<path d="M13.8428 10.3651C13.6204 10.0668 13.4847 9.73341 13.4356 9.36484C13.411 9.17734 13.382 8.99052 13.3485 8.8044C13.3452 8.78464 13.3381 8.7697 13.3272 8.75959C13.3088 8.74121 13.2904 8.73662 13.272 8.74581" stroke="#DF9383"/>
<path d="M13.2718 8.74629L12.8306 8.73071" stroke="#FAC7BA"/>
<path d="M12.8307 8.7306C12.6319 8.73704 12.4971 8.65569 12.4263 8.48657" stroke="#FAAD9F"/>
<path d="M12.7065 8.43233C12.8954 8.54263 13.0911 8.5594 13.2937 8.48265C13.3058 8.47797 13.3163 8.47103 13.3238 8.46269C13.3314 8.45436 13.3357 8.445 13.3362 8.43578L13.3404 8.29102" stroke="#FAAD9F"/>
<path d="M12.3554 8.45215C12.3686 8.90436 12.3152 9.34761 12.1953 9.7819C12.1259 10.0337 12.0742 10.1914 12.0402 10.2548C11.9562 10.411 11.8225 10.5262 11.6393 10.6002C11.4963 10.6576 11.3504 10.7065 11.2017 10.747" stroke="#FAAD9F"/>
<path d="M11.2015 10.747C11.1137 10.7534 11.0457 10.7369 10.9976 10.6974C10.9206 10.6335 10.8635 10.6473 10.8262 10.7387C10.7563 10.9083 10.7645 11.082 10.851 11.2599" stroke="#FAC7BA"/>
<path d="M10.8513 11.2599C10.7177 11.1106 10.6237 10.9456 10.5694 10.765C10.5667 10.7556 10.5611 10.7471 10.5532 10.7405C10.5453 10.7338 10.5355 10.7291 10.5248 10.7271L9.75 10.5864" stroke="#A47B72"/>
<path d="M9.64258 10.2866C9.62275 10.0324 9.48701 9.87708 9.23535 9.82056" stroke="#FAC9BA"/>
<path d="M9.23535 9.8205C9.31562 9.69872 9.35575 9.62036 9.35575 9.58543C9.3567 9.22422 9.34442 8.85427 9.31892 8.47559" stroke="#F7AEA2"/>
<path d="M9.3193 8.47562C9.38776 8.37267 9.37784 8.27387 9.28955 8.1792" stroke="#FAC9BA"/>
<path d="M13.0255 11.9189L12.8491 11.9644" stroke="#FAC6BE"/>
<path d="M12.849 11.9644L12.1606 11.6252" stroke="#EB817B"/>
<path d="M12.1606 11.6252L12.2109 11.5225" stroke="#FAC6BE"/>
<path d="M12.1605 11.6253C12.1019 11.5476 12.0469 11.5437 11.9955 11.6136C11.9913 11.6193 11.9883 11.6257 11.9867 11.6325C11.9851 11.6393 11.9849 11.6463 11.9862 11.6531C11.9874 11.66 11.9901 11.6664 11.994 11.6722C11.9979 11.678 12.003 11.6829 12.0089 11.6867C12.2733 11.8539 12.5533 11.9465 12.8489 11.9645" stroke="#EC7164"/>
<path d="M13.8429 10.365C13.8274 10.4335 13.8328 10.4978 13.8592 10.558C13.8638 10.5681 13.8662 10.5788 13.8661 10.5893C13.8659 10.5999 13.8634 10.6099 13.8585 10.6187C13.8061 10.7152 13.7787 10.8117 13.7764 10.9082" stroke="#E17967"/>
<path d="M13.776 10.9084C13.6221 10.9291 13.4616 10.9928 13.2944 11.0994C13.2886 11.1031 13.2821 11.1056 13.2753 11.1068C13.2684 11.108 13.2615 11.1078 13.2548 11.1063C13.1924 11.092 13.1776 11.1074 13.2101 11.1525C13.2758 11.243 13.3381 11.3358 13.3971 11.431" stroke="#8A3729"/>
<path d="M13.3972 11.4309C13.1272 11.4654 12.8557 11.4764 12.5828 11.464C12.4543 11.458 12.3304 11.4776 12.2109 11.5226" stroke="#DF9288"/>
<path d="M12.2107 11.5224L12.1172 11.4714" stroke="#E08271"/>
<path d="M12.1172 11.4716C12.3094 11.3309 12.5294 11.2659 12.7773 11.2765C12.7879 11.2769 12.7983 11.2742 12.8068 11.2687C12.8152 11.2632 12.8213 11.2552 12.824 11.2462C12.8443 11.1772 12.8405 11.1085 12.8127 11.04" stroke="#8A3729"/>
<path d="M13.2719 8.74585C13.2658 9.35753 13.3612 9.96852 13.558 10.5788C13.5678 10.609 13.5694 10.6411 13.5629 10.6721C13.5563 10.7031 13.5417 10.732 13.5205 10.756C13.3411 10.9568 13.1053 11.0515 12.813 11.04" stroke="#E08271"/>
<path d="M12.8129 11.04C12.6807 11.0064 12.5515 10.9639 12.4255 10.9125C12.2522 10.8417 12.0825 10.8458 11.9163 10.9249C11.6108 11.0696 11.378 11.2865 11.2179 11.5756C11.2132 11.5841 11.2056 11.5907 11.1966 11.594C11.1875 11.5973 11.1777 11.5972 11.1691 11.5935C11.009 11.5264 10.903 11.4152 10.8511 11.2599" stroke="#A56B60"/>
<path d="M15.3982 10.7297C15.3279 10.8474 15.2637 10.9682 15.2056 11.0923C15.0885 11.3414 14.9048 11.522 14.6546 11.6342C14.6466 11.6377 14.638 11.6396 14.6293 11.6396C14.6205 11.6397 14.6119 11.638 14.6039 11.6346C14.5959 11.6313 14.5887 11.6263 14.5828 11.62C14.5769 11.6138 14.5724 11.6064 14.5696 11.5983C14.4421 11.2251 14.1777 10.9951 13.7764 10.9083" stroke="#A66256"/>
<path d="M12.8308 8.73071C12.7572 9.41546 12.5154 10.031 12.1056 10.5775C12.0135 10.6993 11.908 10.7843 11.789 10.8325C11.6119 10.9038 11.4384 10.9274 11.2685 10.9035C11.1296 10.8842 11.1074 10.8321 11.2019 10.7471" stroke="#FB9D8D"/>
<path d="M13.9643 7.44702L13.7915 7.57317" stroke="#8C5858"/>
<path d="M10.7592 8.02417L10.1572 8.05864" stroke="#8F7579"/>
<path d="M15.7875 8.03589H15.1855" stroke="#8E7878"/>
<path d="M13.5918 19.2204C13.7306 18.8872 13.8373 18.5416 13.9119 18.1836" stroke="#8C7475"/>
<path d="M20.9063 8.48545C20.8948 8.44416 20.8646 8.40963 20.8223 8.38946C20.7801 8.36928 20.7293 8.36511 20.6811 8.37786C20.6328 8.39061 20.5912 8.41924 20.5652 8.45745C20.5393 8.49565 20.5312 8.54031 20.5427 8.5816C20.5542 8.62288 20.5844 8.65741 20.6267 8.67758C20.6689 8.69776 20.7197 8.70193 20.768 8.68918C20.8162 8.67643 20.8578 8.6478 20.8838 8.6096C20.9097 8.57139 20.9178 8.52673 20.9063 8.48545Z" stroke="#9088A8"/>
<path d="M20.8819 9.81927C20.8819 9.72365 20.8429 9.63195 20.7734 9.56434C20.704 9.49672 20.6098 9.45874 20.5115 9.45874C20.4133 9.45874 20.3191 9.49672 20.2496 9.56434C20.1801 9.63195 20.1411 9.72365 20.1411 9.81927C20.1411 9.91488 20.1801 10.0066 20.2496 10.0742C20.3191 10.1418 20.4133 10.1798 20.5115 10.1798C20.6098 10.1798 20.704 10.1418 20.7734 10.0742C20.8429 10.0066 20.8819 9.91488 20.8819 9.81927Z" stroke="#948DAA"/>
<path d="M21.4502 10.8841C21.4502 10.8622 21.4458 10.8405 21.4372 10.8203C21.4285 10.8 21.4159 10.7816 21.4 10.7661C21.3841 10.7507 21.3652 10.7384 21.3444 10.73C21.3236 10.7216 21.3013 10.7173 21.2788 10.7173C21.2334 10.7173 21.1898 10.7349 21.1576 10.7661C21.1255 10.7974 21.1074 10.8399 21.1074 10.8841C21.1074 10.9284 21.1255 10.9708 21.1576 11.0021C21.1898 11.0334 21.2334 11.0509 21.2788 11.0509C21.3013 11.0509 21.3236 11.0466 21.3444 11.0382C21.3652 11.0298 21.3841 11.0176 21.4 11.0021C21.4159 10.9866 21.4285 10.9682 21.4372 10.9479C21.4458 10.9277 21.4502 10.906 21.4502 10.8841Z" stroke="#948DAA"/>
<path d="M6.73435 13.4951C6.82843 13.5095 6.92769 13.4671 7.01029 13.3774C7.09289 13.2876 7.15206 13.1579 7.17478 13.0166C7.18604 12.9467 7.188 12.876 7.18057 12.8087C7.17314 12.7414 7.15645 12.6787 7.13147 12.6242C7.10648 12.5697 7.07368 12.5245 7.03495 12.4912C6.99622 12.4579 6.9523 12.4371 6.90571 12.43C6.81163 12.4156 6.71237 12.458 6.62977 12.5477C6.54717 12.6375 6.488 12.7672 6.46528 12.9085C6.45403 12.9784 6.45206 13.0491 6.45949 13.1164C6.46693 13.1837 6.48361 13.2464 6.5086 13.3009C6.53358 13.3554 6.56638 13.4006 6.60511 13.4339C6.64385 13.4672 6.68776 13.488 6.73435 13.4951Z" stroke="#948BA5"/>
<path d="M17.2039 14.1372C17.0637 14.1354 17.0104 14.2234 17.0439 14.4013C17.0684 14.5327 17.1284 14.5924 17.2238 14.5805C17.2918 14.5722 17.3475 14.5354 17.3909 14.4702C17.4466 14.3865 17.4469 14.3066 17.3916 14.2303C17.3477 14.1687 17.2852 14.1377 17.2039 14.1372Z" stroke="#9088A8"/>
<path d="M18.054 14.4177C18.054 14.3689 18.0341 14.3221 17.9986 14.2876C17.9631 14.253 17.915 14.2336 17.8649 14.2336C17.8147 14.2336 17.7666 14.253 17.7312 14.2876C17.6957 14.3221 17.6758 14.3689 17.6758 14.4177C17.6758 14.4419 17.6807 14.4658 17.6902 14.4881C17.6997 14.5105 17.7136 14.5308 17.7312 14.5478C17.7487 14.5649 17.7696 14.5785 17.7925 14.5877C17.8155 14.597 17.84 14.6018 17.8649 14.6018C17.915 14.6018 17.9631 14.5824 17.9986 14.5478C18.0341 14.5133 18.054 14.4665 18.054 14.4177Z" stroke="#9088A8"/>
<path d="M10.5111 8.38599L10.0557 8.40157" stroke="#F7BEAC"/>
<path d="M10.0557 8.40128L9.67888 8.43505C9.65995 8.43669 9.64225 8.44631 9.62918 8.46208C9.61612 8.47785 9.6086 8.49866 9.60806 8.52053C9.59484 9.1051 9.66283 9.68001 9.81203 10.2453C9.85972 10.4263 9.99829 10.5238 10.2278 10.5376C10.7249 10.567 11.1435 10.5364 11.4835 10.4459C11.6888 10.3912 11.8236 10.2538 11.8879 10.0336C12.0163 9.59155 12.0779 9.16829 12.0727 8.76387C12.0713 8.65909 12.055 8.58096 12.0238 8.52949C11.9766 8.45275 11.9032 8.40403 11.8036 8.38335C11.3867 8.29741 10.9558 8.29833 10.5111 8.38611" stroke="#F8AB9C"/>
<path d="M10.0559 8.40115C10.1074 8.75594 10.1072 9.07878 10.0552 9.36968C10.0496 9.40231 10.0536 9.4246 10.0673 9.43655C10.0703 9.43911 10.074 9.44057 10.0781 9.44079C10.0822 9.44101 10.0865 9.43999 10.0907 9.43781C10.0949 9.43563 10.0988 9.43236 10.1021 9.4283C10.1055 9.42423 10.1081 9.41949 10.1098 9.41449C10.2363 9.02524 10.4825 8.73135 10.8484 8.53282C10.8595 8.52685 10.8688 8.51924 10.8753 8.51084C10.8818 8.50245 10.8852 8.49359 10.8853 8.48525C10.8857 8.47147 10.8817 8.45998 10.8732 8.45079C10.8619 8.4393 10.8435 8.43539 10.818 8.43907C10.7495 8.44964 10.682 8.46181 10.6154 8.4756C10.5389 8.49123 10.5042 8.46135 10.5113 8.38599" stroke="#F6917C"/>
<path d="M15.4228 8.35424C15.266 8.31472 15.0984 8.30231 14.9199 8.31702" stroke="#F9C1B3"/>
<path d="M14.9199 8.31713C14.5823 8.28955 14.2155 8.30449 13.8193 8.36193C13.7343 8.37434 13.6881 8.42213 13.6805 8.50532C13.6626 8.69512 13.6505 8.90146 13.6444 9.12435C13.6312 9.57978 13.7756 9.96512 14.0778 10.2804C14.1524 10.358 14.2466 10.4111 14.3604 10.4396C14.8647 10.5642 15.3574 10.5738 15.8385 10.4686C15.9339 10.4479 15.9969 10.3925 16.0276 10.3024C16.1565 9.92284 16.2294 9.54163 16.2464 9.15882C16.2568 8.92903 16.2693 8.69466 16.284 8.45568C16.2845 8.44647 16.2813 8.43741 16.2749 8.43045C16.2686 8.42348 16.2596 8.41918 16.25 8.41846L15.4228 8.35435" stroke="#FAAD9F"/>
<path d="M14.9198 8.31714C14.8735 8.35436 14.8464 8.39825 14.8383 8.4488C14.8369 8.45779 14.839 8.4673 14.8443 8.47597C14.8497 8.48464 14.858 8.49203 14.8681 8.49706C14.9842 8.5545 15.0702 8.64802 15.1259 8.77762" stroke="#F99786"/>
<path d="M15.1257 8.77765C14.9071 8.62186 14.6731 8.57567 14.4238 8.63909" stroke="#E06956"/>
<path d="M14.424 8.63892C14.3216 8.68349 14.2616 8.75909 14.2441 8.86571" stroke="#B15B4E"/>
<path d="M14.2441 8.86572C14.2215 8.88456 14.2047 8.90846 14.1938 8.93742" stroke="#C56E5D"/>
<path d="M14.1941 8.93758C14.1526 8.93069 14.1282 8.98607 14.1212 9.10372C14.1179 9.15381 14.1065 9.20206 14.0872 9.24848C14.0041 9.44885 13.9998 9.64393 14.0744 9.83373C14.081 9.85028 14.0891 9.84982 14.0985 9.83235L14.2607 9.53042C14.2669 9.51912 14.2709 9.50754 14.272 9.4972C14.2732 9.48686 14.2714 9.47825 14.2671 9.47252L14.2331 9.42771C14.2128 9.40059 14.2017 9.38152 14.1998 9.37049C14.1932 9.31902 14.2149 9.30271 14.2649 9.32155C14.2777 9.32614 14.2966 9.33786 14.3216 9.35671C14.4004 9.41737 14.4878 9.42518 14.5836 9.38014" stroke="#FC9483"/>
<path d="M14.5835 9.38C14.7492 9.40022 14.905 9.37196 15.0509 9.29521C15.0566 9.292 15.0918 9.27683 15.1565 9.24972C15.24 9.21433 15.2743 9.14379 15.2591 9.03809" stroke="#F6A597"/>
<path d="M15.2588 9.03809C15.2951 9.10748 15.379 9.13896 15.5102 9.13253" stroke="#E06956"/>
<path d="M15.5107 9.13252C15.6098 8.86735 15.5806 8.60793 15.4229 8.35425" stroke="#F99786"/>
<path d="M15.5105 9.1326L15.126 8.77759" stroke="#DF7C6A"/>
<path d="M14.6367 8.70801C14.6797 8.72685 14.7101 8.75649 14.7281 8.79693" stroke="#AD7D73"/>
<path d="M14.7279 8.79688C14.7274 8.85386 14.717 8.88097 14.6967 8.87822C14.6762 8.87522 14.6553 8.8792 14.6374 8.88948C14.6194 8.89977 14.6056 8.91574 14.5983 8.93474C14.5388 9.0887 14.4717 9.11949 14.3971 9.02712C14.3508 8.97013 14.2999 8.91636 14.2441 8.86581" stroke="#7C4639"/>
<path d="M14.5834 9.34628C14.3515 9.30124 14.2217 9.16498 14.1938 8.9375" stroke="#C77F6D"/>
<path d="M14.5835 9.37997V9.34619" stroke="#F8B6A7"/>
<path d="M14.5835 9.34628C14.7624 9.19095 14.8106 9.00781 14.728 8.79688" stroke="#C19081"/>
<path d="M15.2589 9.03804C15.0795 8.87352 14.8897 8.75288 14.6895 8.67614C14.6498 8.66097 14.6321 8.67154 14.6364 8.70785" stroke="#DC8B7B"/>
<path d="M14.6363 8.70785L14.4238 8.63892" stroke="#964132"/>
<path d="M11.0423 8.66181C10.9374 8.65675 10.8853 8.69605 10.8857 8.77969" stroke="#DE6653"/>
<path d="M10.8855 8.77954L10.5838 9.12973C10.5811 9.13268 10.5792 9.13628 10.5785 9.14018C10.5778 9.14408 10.5781 9.14815 10.5795 9.15197C10.581 9.1558 10.5834 9.15925 10.5867 9.162C10.5899 9.16475 10.5938 9.16669 10.5979 9.16764C10.7684 9.21084 10.9414 9.23037 11.1171 9.22624" stroke="#EF9889"/>
<path d="M11.1171 9.22635C11.2597 9.28196 11.3671 9.26542 11.4393 9.17672C11.4917 9.11238 11.513 9.02621 11.5031 8.91821C11.4823 8.68016 11.3286 8.59468 11.042 8.66178" stroke="#A95F55"/>
<path d="M11.1172 9.22644C11.0223 9.08995 10.9923 8.95254 11.0273 8.81421" stroke="#A17973"/>
<path d="M11.0273 8.81421C11.0467 8.76733 11.0517 8.71655 11.0422 8.66187" stroke="#90473C"/>
<path d="M11.0274 8.81403C11.0024 8.75015 10.9551 8.73866 10.8857 8.77956" stroke="#D68071"/>
<path d="M11.5357 9.77309C11.6183 9.8287 11.6735 9.80963 11.7014 9.71588C11.7255 9.63499 11.7363 9.56353 11.734 9.50149C11.7302 9.40452 11.6919 9.38913 11.6192 9.4553C11.4615 9.59823 11.4337 9.70416 11.5357 9.77309Z" stroke="#F7B9AE"/>
<path d="M12.6569 16.8374C12.6569 16.8216 12.6505 16.8066 12.639 16.7954C12.6276 16.7843 12.6121 16.7781 12.596 16.7781H12.5931C12.577 16.7781 12.5615 16.7843 12.5501 16.7954C12.5386 16.8066 12.5322 16.8216 12.5322 16.8374V17.6866C12.5322 17.7024 12.5386 17.7174 12.5501 17.7286C12.5615 17.7397 12.577 17.7459 12.5931 17.7459H12.596C12.6121 17.7459 12.6276 17.7397 12.639 17.7286C12.6505 17.7174 12.6569 17.7024 12.6569 17.6866V16.8374Z" stroke="#FCA294"/>
<path d="M17.4922 3.70122C17.6588 4.03532 17.7516 4.33794 17.7705 4.60909C17.7936 4.94549 17.8349 5.1925 17.8944 5.35013C18.1201 5.94895 18.5569 6.22468 19.2047 6.17735C19.6938 6.1415 20.1211 6.15299 20.4866 6.21182C21.8719 8.03123 22.5423 10.128 22.4979 12.5021C22.4644 14.2847 22.0159 15.8941 21.1523 17.3303C21.098 17.3298 21.0258 17.313 20.9356 17.28C20.4932 17.1182 19.4736 16.7558 17.8767 16.1929C19.008 16.0173 19.8116 15.4258 20.2875 14.4185C20.5869 13.7847 20.6343 13.131 20.4299 12.4573C20.2637 11.9104 19.9299 11.4911 19.4285 11.1992C19.2259 11.0811 18.9979 11.0156 18.7443 11.0028C18.4624 10.9885 18.2325 11.0584 18.0545 11.2123C17.876 11.3672 17.7896 11.5628 17.7953 11.799C17.8019 12.0559 17.9322 12.2638 18.1862 12.4228C18.3047 12.4968 18.4237 12.5699 18.5432 12.642C18.8029 12.7997 18.9882 13.0051 19.0991 13.2583C19.1992 13.4881 19.2311 13.7468 19.1947 14.0345C19.1442 14.4284 18.9691 14.7606 18.6692 15.0313C18.2131 15.4417 17.6437 15.6501 16.961 15.6565C16.7641 15.5904 16.4969 15.4867 16.1593 15.3457C16.1309 15.3337 16.1064 15.3394 16.0856 15.3629L15.5778 15.225L15.5849 13.3073C15.8611 13.0095 16.0349 12.7181 16.1062 12.4332C16.2421 11.8895 16.2629 11.2645 16.1685 10.5581C16.1674 10.5497 16.1687 10.5404 16.1723 10.5307C16.176 10.5211 16.1819 10.5114 16.1897 10.5023C16.2015 10.4885 16.2091 10.4724 16.2124 10.4541L16.4298 10.4637C17.2325 10.313 17.6085 9.83778 17.558 9.03814C17.5231 8.48298 17.2221 8.1737 16.655 8.11028L16.3923 8.09029C16.4277 7.91289 16.4149 7.73964 16.354 7.57052C16.659 7.29294 16.8779 6.96182 17.0106 6.57717C17.1465 6.18424 17.0623 5.85451 16.7577 5.58796C16.677 5.51765 16.6546 5.43286 16.6904 5.33359C16.7471 5.17504 16.7764 5.01396 16.7783 4.85036C16.7802 4.66561 16.7393 4.51235 16.6557 4.39056C16.5287 4.20582 16.3344 4.11184 16.0729 4.10862C16.0691 4.10862 16.0325 4.11138 15.9631 4.11689C15.8092 4.1293 15.7152 4.0521 15.6812 3.88527C15.6312 3.63895 15.4687 3.4542 15.194 3.33104C14.7714 3.1417 14.3691 3.1679 13.9871 3.40963C13.9633 3.42459 13.9347 3.43073 13.9065 3.42694C13.8784 3.42314 13.8524 3.40967 13.8334 3.38894C13.5553 3.0815 13.209 3.01647 12.7945 3.19386C12.7029 3.23338 12.6091 3.23844 12.5133 3.20903C12.3263 3.15158 12.1254 3.12332 11.9106 3.12424C11.6835 3.12561 11.4878 3.16399 11.3235 3.23936C11.0227 3.37723 10.8173 3.61413 10.7073 3.95007C10.6752 4.04842 10.6065 4.09116 10.5012 4.07829C10.3308 4.05669 10.1636 4.04635 9.99979 4.04727C9.80904 4.04865 9.64733 4.07921 9.51466 4.13895C9.24128 4.26304 9.06776 4.46409 8.99411 4.74213C8.93792 4.95261 8.92352 5.17504 8.9509 5.40942C8.98018 5.65942 9.08263 5.86806 9.25828 6.03534C9.50427 6.26926 9.55739 6.5535 9.41763 6.88807C9.35058 7.04845 9.3553 7.21941 9.43179 7.40094L9.39851 8.14199L9.28944 8.17921C8.70491 8.14704 8.3744 8.39888 8.29792 8.93473C8.26911 9.13648 8.28375 9.34673 8.34183 9.56549C8.40321 9.79757 8.50141 9.97932 8.63645 10.1108C8.88952 10.3571 9.22499 10.4157 9.64284 10.2865L9.74979 10.5864C9.70116 11.1181 9.69525 11.5786 9.73208 11.9679C9.77646 12.4362 9.97217 12.8484 10.3192 13.2045L10.3164 15.2278L9.74979 15.4346C9.35601 15.6221 8.97239 15.8305 8.59891 16.0598C7.58095 16.4946 6.5009 17.0033 5.35876 17.586C5.13496 17.7 4.94138 17.8172 4.77801 17.9376C3.53719 16.1701 2.94582 14.1859 3.00389 11.9851C3.05017 10.2332 3.50815 8.62614 4.37786 7.1638C5.51764 5.24834 7.15058 3.89309 9.27669 3.09804C10.1355 2.77726 11.0192 2.58678 11.9276 2.52657C12.3903 2.49624 12.8622 2.49188 13.3433 2.51348C14.7343 2.57644 16.0639 2.92892 17.3321 3.57093C17.4128 3.61183 17.4662 3.65526 17.4922 3.70122ZM20.9063 8.48546C20.8948 8.44418 20.8646 8.40965 20.8223 8.38947C20.7801 8.3693 20.7293 8.36512 20.6811 8.37787C20.6329 8.39062 20.5912 8.41925 20.5653 8.45746C20.5393 8.49567 20.5312 8.54033 20.5427 8.58161C20.5543 8.62289 20.5845 8.65742 20.6267 8.6776C20.6689 8.69777 20.7198 8.70195 20.768 8.6892C20.8162 8.67645 20.8579 8.64782 20.8838 8.60961C20.9097 8.5714 20.9178 8.52674 20.9063 8.48546ZM20.8818 9.81916C20.8818 9.72355 20.8427 9.63185 20.7733 9.56423C20.7038 9.49662 20.6096 9.45864 20.5113 9.45864C20.4131 9.45864 20.3189 9.49662 20.2494 9.56423C20.18 9.63185 20.1409 9.72355 20.1409 9.81916C20.1409 9.91478 20.18 10.0065 20.2494 10.0741C20.3189 10.1417 20.4131 10.1797 20.5113 10.1797C20.6096 10.1797 20.7038 10.1417 20.7733 10.0741C20.8427 10.0065 20.8818 9.91478 20.8818 9.81916ZM21.4505 10.8842C21.4505 10.8623 21.446 10.8406 21.4374 10.8204C21.4288 10.8001 21.4162 10.7817 21.4003 10.7662C21.3843 10.7508 21.3654 10.7385 21.3447 10.7301C21.3239 10.7217 21.3016 10.7174 21.2791 10.7174C21.2336 10.7174 21.19 10.735 21.1579 10.7662C21.1257 10.7975 21.1077 10.84 21.1077 10.8842C21.1077 10.9284 21.1257 10.9709 21.1579 11.0022C21.19 11.0335 21.2336 11.051 21.2791 11.051C21.3016 11.051 21.3239 11.0467 21.3447 11.0383C21.3654 11.0299 21.3843 11.0177 21.4003 11.0022C21.4162 10.9867 21.4288 10.9683 21.4374 10.948C21.446 10.9278 21.4505 10.9061 21.4505 10.8842ZM6.73416 13.4952C6.82824 13.5095 6.9275 13.4671 7.0101 13.3774C7.0927 13.2877 7.15187 13.1579 7.17459 13.0167C7.18584 12.9467 7.18781 12.8761 7.18038 12.8087C7.17294 12.7414 7.15626 12.6787 7.13128 12.6242C7.10629 12.5698 7.07349 12.5246 7.03476 12.4912C6.99602 12.4579 6.95211 12.4371 6.90552 12.43C6.81144 12.4157 6.71218 12.458 6.62958 12.5478C6.54698 12.6375 6.48781 12.7673 6.46509 12.9085C6.45384 12.9785 6.45187 13.0491 6.4593 13.1164C6.46673 13.1838 6.48342 13.2465 6.50841 13.3009C6.53339 13.3554 6.56619 13.4006 6.60492 13.4339C6.64366 13.4673 6.68757 13.4881 6.73416 13.4952ZM17.2039 14.1372C17.0637 14.1354 17.0103 14.2234 17.0439 14.4012C17.0684 14.5327 17.1284 14.5924 17.2237 14.5805C17.2917 14.5722 17.3474 14.5354 17.3909 14.4702C17.4466 14.3865 17.4468 14.3066 17.3916 14.2303C17.3477 14.1687 17.2851 14.1377 17.2039 14.1372ZM18.0538 14.4178C18.0538 14.369 18.0339 14.3222 17.9984 14.2876C17.9629 14.2531 17.9148 14.2337 17.8647 14.2337C17.8145 14.2337 17.7664 14.2531 17.731 14.2876C17.6955 14.3222 17.6756 14.369 17.6756 14.4178C17.6756 14.442 17.6805 14.4659 17.69 14.4882C17.6995 14.5106 17.7134 14.5308 17.731 14.5479C17.7485 14.565 17.7694 14.5786 17.7923 14.5878C17.8153 14.5971 17.8399 14.6018 17.8647 14.6018C17.9148 14.6018 17.9629 14.5825 17.9984 14.5479C18.0339 14.5134 18.0538 14.4666 18.0538 14.4178Z" fill="#737197"/>
<path d="M16.3541 7.57045C15.9792 7.36594 15.7306 7.06263 15.6083 6.66051C15.5739 6.54654 15.5418 6.46474 15.512 6.41511C15.453 6.31768 15.38 6.30619 15.2932 6.38064C14.8125 6.79241 14.2844 6.90684 13.7089 6.72393C13.1706 6.55297 12.7022 6.27172 12.3037 5.88017C12.0577 5.63844 11.8955 5.50333 11.8172 5.47484C11.5509 5.37833 11.3471 5.44152 11.206 5.66441C11.0761 5.86983 10.9685 6.12696 10.883 6.43579C10.8103 6.69774 10.6259 6.92614 10.3299 7.121C10.1132 7.26346 9.81382 7.35675 9.43185 7.40087C9.35536 7.21934 9.35064 7.04838 9.41768 6.888C9.55744 6.55343 9.50432 6.26919 9.25833 6.03528C9.08269 5.86799 8.98023 5.65935 8.95096 5.40935C8.92358 5.17497 8.93798 4.95254 8.99416 4.74206C9.06782 4.46403 9.24133 4.26297 9.51471 4.13888C9.64739 4.07914 9.8091 4.04858 9.99985 4.0472C10.1637 4.04628 10.3308 4.05662 10.5013 4.07822C10.6066 4.09109 10.6753 4.04835 10.7074 3.95C10.8174 3.61406 11.0228 3.37716 11.3235 3.23929C11.4878 3.16392 11.6835 3.12555 11.9107 3.12417C12.1255 3.12325 12.3264 3.15151 12.5134 3.20896C12.6092 3.23837 12.7029 3.23331 12.7945 3.19379C13.2091 3.0164 13.5554 3.08143 13.8335 3.38888C13.8525 3.4096 13.8784 3.42307 13.9066 3.42687C13.9348 3.43066 13.9634 3.42452 13.9872 3.40956C14.3692 3.16783 14.7714 3.14163 15.194 3.33097C15.4688 3.45413 15.6312 3.63888 15.6813 3.88521C15.7153 4.05203 15.8092 4.12923 15.9631 4.11682C16.0326 4.11131 16.0691 4.10855 16.0729 4.10855C16.3345 4.11177 16.5288 4.20575 16.6558 4.39049C16.7394 4.51228 16.7802 4.66554 16.7783 4.85029C16.7764 5.01389 16.7472 5.17497 16.6905 5.33352C16.6546 5.43279 16.677 5.51758 16.7578 5.58789C17.0623 5.85444 17.1466 6.18417 17.0106 6.5771C16.8779 6.96176 16.6591 7.29287 16.3541 7.57045Z" fill="#4E1F18"/>
<path d="M17.4922 3.70114C17.5441 3.69609 17.5942 3.70712 17.6423 3.73423C18.7816 4.37395 19.7297 5.19978 20.4866 6.21174C20.1211 6.15292 19.6938 6.14143 19.2047 6.17727C18.5569 6.22461 18.1202 5.94887 17.8945 5.35006C17.835 5.19243 17.7937 4.94541 17.7705 4.60901C17.7516 4.33787 17.6589 4.03525 17.4922 3.70114Z" fill="#C4B0BD"/>
<path d="M16.354 7.57051C16.4149 7.73962 16.4276 7.91288 16.3922 8.09027C16.1708 8.2139 15.9692 8.19574 15.7874 8.03581C15.8606 7.90484 15.8549 7.78926 15.7704 7.68907C15.7571 7.67299 15.7369 7.6611 15.713 7.6553C15.1398 7.51651 14.557 7.44711 13.9644 7.44711C13.479 7.37542 12.9915 7.3637 12.5019 7.41196C12.4745 7.41471 12.4337 7.41517 12.3794 7.41333C12.2637 7.4092 12.2358 7.4478 12.2958 7.52914C12.302 7.53768 12.3104 7.54468 12.3203 7.54959C12.3303 7.55451 12.3416 7.55718 12.3532 7.55741L13.7916 7.57326C13.6929 7.80534 13.7562 7.92667 13.9814 7.93724C14.3841 7.95562 14.7855 7.98848 15.1854 8.03581L15.1082 8.04133C15.1025 8.04183 15.0944 8.04548 15.0847 8.0519C15.075 8.05832 15.0641 8.06728 15.0529 8.07787C15.0213 8.10912 14.9769 8.12474 14.9198 8.12474C14.4278 8.1252 13.9014 8.18058 13.3404 8.29087C13.1832 8.38095 13.0014 8.41174 12.7951 8.38324C12.7616 8.37865 12.7321 8.39496 12.7066 8.43219C12.6037 8.40553 12.5102 8.42369 12.4261 8.48665C12.4077 8.46551 12.3841 8.45402 12.3553 8.45218C12.3345 8.42093 12.276 8.38508 12.1797 8.34464C11.8062 8.18793 11.4625 8.11279 11.1485 8.11923C11.0082 8.12198 10.8784 8.09027 10.7589 8.0241L12.0529 7.9007C12.1568 7.89059 12.2096 7.83361 12.2115 7.72974C12.2153 7.51605 12.097 7.41402 11.8567 7.42367C11.5172 7.437 11.1794 7.46825 10.8432 7.51743C10.5019 7.56706 10.2412 7.62588 10.0613 7.6939C10.0507 7.69802 10.0412 7.70424 10.0335 7.71211C10.0257 7.71997 10.02 7.7293 10.0167 7.7394C9.96998 7.88324 10.0167 7.98963 10.157 8.05856C9.91332 8.16334 9.66048 8.19115 9.39844 8.14197L9.43172 7.40093C9.8137 7.35681 10.113 7.26352 10.3298 7.12105C10.6258 6.9262 10.8102 6.69779 10.8829 6.43584C10.9683 6.12702 11.076 5.86989 11.2058 5.66446C11.347 5.44158 11.5507 5.37839 11.817 5.47489C11.8954 5.50339 12.0576 5.6385 12.3036 5.88023C12.7021 6.27178 13.1705 6.55303 13.7087 6.72399C14.2843 6.90689 14.8124 6.79246 15.293 6.3807C15.3799 6.30625 15.4529 6.31774 15.5119 6.41516C15.5416 6.4648 15.5737 6.5466 15.6082 6.66057C15.7305 7.06269 15.9791 7.366 16.354 7.57051Z" fill="#FDB9A8"/>
<path d="M13.9644 7.44709L13.7916 7.57324L12.3532 7.55738C12.3416 7.55716 12.3303 7.55448 12.3204 7.54957C12.3104 7.54466 12.302 7.53765 12.2958 7.52912C12.2359 7.44778 12.2637 7.40917 12.3794 7.41331C12.4337 7.41515 12.4746 7.41469 12.5019 7.41193C12.9916 7.36368 13.4791 7.3754 13.9644 7.44709Z" fill="#F5988B"/>
<path d="M10.7588 8.02414L10.1568 8.05861C10.0166 7.98968 9.96981 7.88329 10.0166 7.73944C10.0199 7.72934 10.0256 7.72002 10.0333 7.71215C10.041 7.70429 10.0505 7.69807 10.0612 7.69395C10.2411 7.62593 10.5017 7.56711 10.8431 7.51747C11.1792 7.4683 11.5171 7.43705 11.8565 7.42372C12.0969 7.41407 12.2151 7.51609 12.2114 7.72979C12.2095 7.83365 12.1566 7.89064 12.0527 7.90075L10.7588 8.02414Z" fill="#241225"/>
<path d="M13.9645 7.44702C14.557 7.44702 15.1399 7.51641 15.7131 7.6552C15.737 7.66101 15.7572 7.67289 15.7705 7.68898C15.855 7.78917 15.8607 7.90475 15.7875 8.03572H15.1855C14.7856 7.98839 14.3842 7.95553 13.9815 7.93715C13.7563 7.92658 13.693 7.80525 13.7917 7.57317L13.9645 7.44702Z" fill="#221824"/>
<path d="M10.7588 8.02417C10.8782 8.09035 11.0081 8.12206 11.1483 8.1193C11.4623 8.11287 11.806 8.188 12.1795 8.34472C12.2758 8.38516 12.3343 8.421 12.3551 8.45225C12.3683 8.90446 12.315 9.34771 12.195 9.782C12.1256 10.0338 12.0739 10.1915 12.0399 10.2549C11.9559 10.4111 11.8223 10.5263 11.6391 10.6003C11.496 10.6577 11.3501 10.7066 11.2014 10.7471C11.1136 10.7535 11.0456 10.737 10.9974 10.6975C10.9205 10.6336 10.8633 10.6474 10.826 10.7388C10.7562 10.9084 10.7644 11.0821 10.8508 11.26C10.7172 11.1106 10.6232 10.9456 10.569 10.765C10.5662 10.7557 10.5606 10.7472 10.5527 10.7405C10.5449 10.7338 10.535 10.7292 10.5243 10.7271L9.74953 10.5865L9.64258 10.2866C9.62275 10.0325 9.48701 9.87713 9.23535 9.82061C9.31562 9.69882 9.35575 9.62047 9.35575 9.58554C9.3567 9.22432 9.34442 8.85437 9.31892 8.47569C9.38739 8.37275 9.37747 8.27394 9.28918 8.17927L9.39825 8.14205C9.66029 8.19122 9.91313 8.16342 10.1568 8.05864L10.7588 8.02417ZM10.5109 8.38608L10.0555 8.40124L9.6787 8.43502C9.65977 8.43665 9.64207 8.44627 9.62901 8.46205C9.61594 8.47782 9.60842 8.49863 9.60788 8.5205C9.59466 9.10506 9.66265 9.67998 9.81185 10.2452C9.85954 10.4263 9.99812 10.5237 10.2276 10.5375C10.7248 10.5669 11.1433 10.5364 11.4833 10.4458C11.6887 10.3912 11.8235 10.2537 11.8877 10.0336C12.0161 9.59151 12.0777 9.16825 12.0725 8.76384C12.0711 8.65906 12.0548 8.58093 12.0237 8.52946C11.9764 8.45271 11.903 8.404 11.8034 8.38332C11.3865 8.29738 10.9556 8.2983 10.5109 8.38608Z" fill="#F9D7CC"/>
<path d="M15.1855 8.03589H15.7875C15.9693 8.19582 16.1709 8.21397 16.3924 8.09035L16.6551 8.11034L16.653 8.32748C16.6528 8.33568 16.6499 8.34476 16.6445 8.35405C16.6391 8.36335 16.6314 8.37264 16.6218 8.38125C16.5963 8.40377 16.5975 8.42928 16.6254 8.45777L16.5609 9.80062C16.5604 9.81005 16.5579 9.81928 16.5536 9.8277C16.5492 9.83613 16.543 9.84354 16.5356 9.84947C16.5281 9.8554 16.5194 9.8597 16.5101 9.86209C16.5008 9.86448 16.4911 9.86491 16.4816 9.86335C16.4462 9.85737 16.4115 9.86059 16.3775 9.873C16.3492 9.88311 16.3246 9.90425 16.3038 9.93642C16.2028 10.0917 16.1546 10.2625 16.1594 10.4486C16.0895 10.5676 16.0186 10.6317 15.9469 10.6409C15.7627 10.6639 15.5798 10.6935 15.398 10.7299C15.1827 10.683 14.9698 10.6901 14.7592 10.7512C14.7372 10.7574 14.7137 10.7562 14.6926 10.7478C14.5991 10.7096 14.5021 10.6823 14.4015 10.6657C14.1787 10.6285 13.9924 10.5283 13.8427 10.3652C13.6203 10.0669 13.4846 9.73352 13.4355 9.36495C13.4109 9.17745 13.3819 8.99063 13.3484 8.80451C13.3451 8.78475 13.338 8.76981 13.3271 8.7597C13.3087 8.74132 13.2903 8.73673 13.2719 8.74592L12.8307 8.73075C12.6319 8.73718 12.4971 8.65584 12.4263 8.48672C12.5103 8.42376 12.6038 8.40561 12.7067 8.43226C12.8956 8.54256 13.0913 8.55933 13.2938 8.48259C13.306 8.4779 13.3165 8.47096 13.324 8.46263C13.3316 8.45429 13.3359 8.44493 13.3363 8.43571L13.3406 8.29095C13.9015 8.18065 14.428 8.12527 14.9199 8.12481C14.9771 8.12481 15.0215 8.10919 15.0531 8.07794C15.0642 8.06735 15.0752 8.05839 15.0849 8.05197C15.0946 8.04555 15.1027 8.04191 15.1083 8.0414L15.1855 8.03589ZM15.4228 8.35437C15.266 8.31484 15.0984 8.30244 14.9199 8.31714C14.5824 8.28957 14.2155 8.3045 13.8194 8.36195C13.7344 8.37436 13.6881 8.42215 13.6805 8.50533C13.6626 8.69513 13.6506 8.90148 13.6444 9.12437C13.6312 9.57979 13.7757 9.96514 14.0779 10.2804C14.1525 10.3581 14.2467 10.4111 14.3604 10.4396C14.8647 10.5642 15.3574 10.5738 15.8385 10.4686C15.9339 10.4479 15.9969 10.3925 16.0276 10.3025C16.1565 9.92286 16.2295 9.54165 16.2465 9.15883C16.2568 8.92905 16.2694 8.69467 16.284 8.4557C16.2846 8.44649 16.2813 8.43743 16.275 8.43046C16.2686 8.4235 16.2596 8.41919 16.25 8.41848L15.4228 8.35437Z" fill="#F9D7CC"/>
<path d="M16.6549 8.11011C17.222 8.17353 17.523 8.48281 17.5579 9.03797C17.6084 9.83761 17.2323 10.3128 16.4297 10.4635C16.5812 10.396 16.6381 10.2811 16.6004 10.1189C16.5971 10.1043 16.5978 10.0891 16.6022 10.0747C16.6067 10.0604 16.6148 10.0473 16.6259 10.0368C16.9847 9.69813 17.1419 9.33071 17.0975 8.93456C17.0673 8.66434 16.9099 8.50533 16.6252 8.45754C16.5973 8.42904 16.5961 8.40354 16.6216 8.38102C16.6312 8.3724 16.6389 8.36312 16.6443 8.35382C16.6497 8.34453 16.6526 8.33545 16.6528 8.32725L16.6549 8.11011Z" fill="#F7B3A4"/>
<path d="M9.28954 8.17925C9.37783 8.27392 9.38775 8.37272 9.31928 8.47566C9.14364 8.48394 8.99279 8.53748 8.86672 8.63628C8.74963 8.72866 8.68117 8.85733 8.66134 9.02232C8.61459 9.40973 8.80605 9.67582 9.23571 9.82058C9.48737 9.87711 9.62311 10.0324 9.64294 10.2866C9.22509 10.4157 8.88962 10.3571 8.63655 10.1108C8.50151 9.97936 8.4033 9.7976 8.34192 9.56552C8.28385 9.34677 8.26921 9.13652 8.29801 8.93477C8.3745 8.39892 8.70501 8.14708 9.28954 8.17925Z" fill="#FBBBA8"/>
<path d="M13.3404 8.29102L13.3362 8.43578C13.3357 8.445 13.3314 8.45436 13.3238 8.46269C13.3163 8.47103 13.3058 8.47797 13.2937 8.48265C13.0911 8.5594 12.8954 8.54263 12.7065 8.43233C12.732 8.39511 12.7615 8.37879 12.7951 8.38339C13.0014 8.41188 13.1832 8.38109 13.3404 8.29102Z" fill="#FA8372"/>
<path d="M14.9199 8.31713C14.8736 8.35435 14.8465 8.39824 14.8385 8.44879C14.837 8.45778 14.8391 8.46729 14.8444 8.47596C14.8498 8.48463 14.8581 8.49201 14.8682 8.49704C14.9844 8.55449 15.0703 8.64801 15.126 8.77761C14.9074 8.62182 14.6734 8.57563 14.4241 8.63905C14.3217 8.68363 14.2617 8.75923 14.2443 8.86584C14.2216 8.88469 14.2048 8.90858 14.194 8.93754C14.1524 8.93064 14.1281 8.98602 14.121 9.10367C14.1177 9.15376 14.1064 9.20201 14.087 9.24843C14.0039 9.4488 13.9997 9.64389 14.0743 9.83369C14.0809 9.85023 14.0889 9.84977 14.0984 9.83231L14.2605 9.53037C14.2668 9.51907 14.2707 9.50749 14.2719 9.49715C14.273 9.48681 14.2713 9.4782 14.2669 9.47247L14.2329 9.42766C14.2126 9.40055 14.2015 9.38148 14.1996 9.37045C14.193 9.31897 14.2147 9.30266 14.2648 9.3215C14.2775 9.3261 14.2964 9.33782 14.3215 9.35666C14.4003 9.41732 14.4877 9.42513 14.5835 9.3801C14.7492 9.40032 14.905 9.37205 15.0509 9.29531C15.0566 9.29209 15.0918 9.27692 15.1565 9.24981C15.24 9.21442 15.2743 9.14388 15.2592 9.03818C15.2955 9.10757 15.3793 9.13905 15.5106 9.13262C15.6097 8.86745 15.5805 8.60803 15.4228 8.35435L16.25 8.41846C16.2596 8.41918 16.2686 8.42348 16.2749 8.43045C16.2813 8.43741 16.2845 8.44647 16.284 8.45568C16.2693 8.69466 16.2568 8.92903 16.2464 9.15882C16.2294 9.54163 16.1565 9.92284 16.0276 10.3024C15.9969 10.3925 15.9339 10.4479 15.8385 10.4686C15.3574 10.5738 14.8647 10.5642 14.3604 10.4396C14.2466 10.4111 14.1524 10.358 14.0778 10.2804C13.7756 9.96512 13.6312 9.57978 13.6444 9.12435C13.6505 8.90146 13.6626 8.69512 13.6805 8.50532C13.6881 8.42213 13.7343 8.37434 13.8193 8.36193C14.2155 8.30449 14.5823 8.28955 14.9199 8.31713Z" fill="#FA8372"/>
<path d="M10.0557 8.40128C10.1071 8.75606 10.1069 9.0789 10.055 9.36981C10.0493 9.40243 10.0533 9.42472 10.067 9.43667C10.07 9.43924 10.0737 9.44069 10.0778 9.44091C10.0819 9.44113 10.0862 9.44011 10.0904 9.43793C10.0946 9.43575 10.0986 9.43249 10.1019 9.42842C10.1052 9.42436 10.1078 9.41961 10.1095 9.41461C10.236 9.02536 10.4823 8.73147 10.8482 8.53294C10.8592 8.52697 10.8685 8.51936 10.875 8.51097C10.8815 8.50257 10.885 8.49371 10.885 8.48538C10.8855 8.47159 10.8815 8.4601 10.873 8.45091C10.8616 8.43942 10.8432 8.43551 10.8177 8.43919C10.7493 8.44976 10.6817 8.46194 10.6152 8.47572C10.5387 8.49135 10.504 8.46148 10.5111 8.38611C10.9558 8.29833 11.3867 8.29741 11.8036 8.38335C11.9032 8.40403 11.9766 8.45275 12.0238 8.52949C12.055 8.58096 12.0713 8.65909 12.0727 8.76387C12.0779 9.16829 12.0163 9.59155 11.8879 10.0336C11.8236 10.2538 11.6888 10.3912 11.4835 10.4459C11.1435 10.5364 10.7249 10.567 10.2278 10.5376C9.99829 10.5238 9.85972 10.4263 9.81203 10.2453C9.66283 9.68001 9.59484 9.1051 9.60806 8.52053C9.6086 8.49866 9.61612 8.47785 9.62918 8.46208C9.64225 8.44631 9.65995 8.43669 9.67888 8.43505L10.0557 8.40128ZM11.0422 8.66185C10.9374 8.65679 10.8852 8.69608 10.8857 8.77973L10.584 9.12991C10.5813 9.13286 10.5795 9.13647 10.5787 9.14037C10.578 9.14427 10.5783 9.14833 10.5798 9.15216C10.5812 9.15598 10.5836 9.15944 10.5869 9.16219C10.5901 9.16493 10.594 9.16688 10.5982 9.16783C10.7686 9.21103 10.9417 9.23056 11.1173 9.22642C11.2599 9.28203 11.3673 9.26549 11.4395 9.17679C11.492 9.11245 11.5132 9.02628 11.5033 8.91828C11.4825 8.68023 11.3288 8.59475 11.0422 8.66185ZM11.5359 9.77307C11.6185 9.82868 11.6737 9.80961 11.7016 9.71586C11.7257 9.63497 11.7365 9.56351 11.7342 9.50147C11.7304 9.4045 11.6921 9.38911 11.6194 9.45528C11.4617 9.59821 11.4339 9.70414 11.5359 9.77307Z" fill="#F77E6B"/>
<path d="M14.9198 8.31702C15.0983 8.30231 15.2659 8.31472 15.4226 8.35424C15.5803 8.60792 15.6096 8.86734 15.5105 9.13251L15.1259 8.7775C15.0702 8.6479 14.9842 8.55438 14.8681 8.49694C14.858 8.4919 14.8497 8.48452 14.8443 8.47585C14.839 8.46718 14.8369 8.45767 14.8383 8.44868C14.8464 8.39813 14.8735 8.35424 14.9198 8.31702Z" fill="#F8AA9A"/>
<path d="M20.7677 8.68928C20.8681 8.66272 20.9301 8.57151 20.9061 8.48554C20.8821 8.39957 20.7812 8.3514 20.6808 8.37795C20.5804 8.4045 20.5185 8.49572 20.5425 8.58169C20.5665 8.66766 20.6673 8.71583 20.7677 8.68928Z" fill="#AC9FB8"/>
<path d="M10.5113 8.38599C10.5042 8.46135 10.5389 8.49123 10.6154 8.4756C10.682 8.46181 10.7495 8.44964 10.818 8.43907C10.8435 8.43539 10.8619 8.4393 10.8732 8.45079C10.8817 8.45998 10.8857 8.47147 10.8853 8.48525C10.8852 8.49359 10.8818 8.50245 10.8753 8.51084C10.8688 8.51924 10.8595 8.52685 10.8484 8.53282C10.4825 8.73135 10.2363 9.02524 10.1098 9.41449C10.1081 9.41949 10.1055 9.42423 10.1021 9.4283C10.0988 9.43236 10.0949 9.43563 10.0907 9.43781C10.0865 9.43999 10.0822 9.44101 10.0781 9.44079C10.074 9.44057 10.0703 9.43911 10.0673 9.43655C10.0536 9.4246 10.0496 9.40231 10.0552 9.36968C10.1072 9.07878 10.1074 8.75594 10.0559 8.40115L10.5113 8.38599Z" fill="#F5A48C"/>
<path d="M16.43 10.4638L16.2126 10.4541L16.1595 10.4486C16.1548 10.2625 16.2029 10.0917 16.304 9.93641C16.3247 9.90424 16.3493 9.8831 16.3776 9.87299C16.4116 9.86058 16.4463 9.85737 16.4817 9.86334C16.4912 9.86491 16.5009 9.86448 16.5102 9.86209C16.5195 9.8597 16.5282 9.85539 16.5357 9.84947C16.5432 9.84354 16.5493 9.83612 16.5537 9.8277C16.5581 9.81928 16.5606 9.81005 16.5611 9.80061L16.6255 8.45776C16.9102 8.50556 17.0677 8.66457 17.0979 8.93479C17.1423 9.33094 16.9851 9.69836 16.6262 10.0371C16.6152 10.0476 16.607 10.0606 16.6026 10.075C16.5981 10.0893 16.5975 10.1045 16.6007 10.1191C16.6385 10.2813 16.5816 10.3962 16.43 10.4638Z" fill="#FA8372"/>
<path d="M9.31912 8.47559C9.34462 8.85427 9.35689 9.22422 9.35595 9.58543C9.35595 9.62036 9.31582 9.69872 9.23555 9.8205C8.80589 9.67574 8.61443 9.40965 8.66118 9.02224C8.68101 8.85725 8.74947 8.72858 8.86656 8.6362C8.99263 8.5374 9.14348 8.48386 9.31912 8.47559Z" fill="#F58477"/>
<path d="M12.3556 8.45215C12.3844 8.45399 12.408 8.46548 12.4264 8.48662C12.4972 8.65574 12.632 8.73708 12.8308 8.73064C12.7572 9.4154 12.5154 10.031 12.1056 10.5774C12.0135 10.6992 11.908 10.7842 11.789 10.8325C11.6119 10.9037 11.4384 10.9274 11.2685 10.9035C11.1296 10.8842 11.1074 10.832 11.2019 10.747C11.3506 10.7065 11.4965 10.6576 11.6396 10.6002C11.8228 10.5262 11.9564 10.411 12.0404 10.2548C12.0744 10.1914 12.1261 10.0337 12.1955 9.7819C12.3155 9.34761 12.3688 8.90436 12.3556 8.45215Z" fill="#FA8372"/>
<path d="M15.1257 8.77765L15.5103 9.13267C15.379 9.1391 15.2952 9.10762 15.2588 9.03823C15.0794 8.8737 14.8896 8.75307 14.6894 8.67632C14.6498 8.66115 14.632 8.67172 14.6363 8.70803L14.4238 8.63909C14.6731 8.57567 14.9071 8.62186 15.1257 8.77765Z" fill="#C54E3A"/>
<path d="M11.1172 9.22635C11.0223 9.08986 10.9923 8.95245 11.0273 8.81412C11.0466 8.76725 11.0516 8.71647 11.0422 8.66178C11.3288 8.59468 11.4824 8.68016 11.5032 8.91821C11.5131 9.02621 11.4919 9.11238 11.4395 9.17672C11.3672 9.26542 11.2598 9.28196 11.1172 9.22635Z" fill="#5A403E"/>
<path d="M14.424 8.63892L14.6365 8.70785C14.6795 8.72669 14.7099 8.75634 14.7279 8.79678C14.7274 8.85376 14.717 8.88088 14.6967 8.87812C14.6762 8.87513 14.6553 8.8791 14.6374 8.88939C14.6194 8.89967 14.6056 8.91564 14.5983 8.93465C14.5388 9.0886 14.4717 9.11939 14.3971 9.02702C14.3508 8.97003 14.2999 8.91626 14.2441 8.86571C14.2616 8.75909 14.3216 8.68349 14.424 8.63892Z" fill="#67332A"/>
<path d="M11.0423 8.66181C11.0517 8.7165 11.0467 8.76728 11.0274 8.81415C11.0024 8.75027 10.9552 8.73879 10.8857 8.77969C10.8853 8.69605 10.9374 8.65675 11.0423 8.66181Z" fill="#C54E3A"/>
<path d="M15.2591 9.03804C15.2743 9.14374 15.24 9.21429 15.1565 9.24967C15.0918 9.27679 15.0566 9.29195 15.0509 9.29517C14.905 9.37192 14.7492 9.40018 14.5835 9.37996V9.34618C14.7624 9.19085 14.8106 9.00771 14.728 8.79677C14.71 8.75633 14.6796 8.72669 14.6366 8.70785C14.6324 8.67154 14.6501 8.66097 14.6897 8.67614C14.8899 8.75288 15.0797 8.87352 15.2591 9.03804Z" fill="#F2C7BB"/>
<path d="M12.8305 8.73071L13.2717 8.74588C13.2655 9.35756 13.3609 9.96855 13.5578 10.5788C13.5675 10.609 13.5692 10.6412 13.5626 10.6722C13.5561 10.7032 13.5415 10.732 13.5203 10.756C13.3409 10.9568 13.105 11.0515 12.8127 11.04C12.6805 11.0065 12.5514 10.964 12.4253 10.9125C12.2521 10.8417 12.0823 10.8459 11.9161 10.9249C11.6106 11.0697 11.3779 11.2866 11.2178 11.5756C11.2131 11.5842 11.2055 11.5907 11.1964 11.5941C11.1874 11.5974 11.1776 11.5972 11.1689 11.5936C11.0089 11.5265 10.9029 11.4153 10.851 11.2599C10.7645 11.0821 10.7563 10.9084 10.8262 10.7388C10.8635 10.6473 10.9206 10.6335 10.9976 10.6974C11.0457 10.7369 11.1137 10.7535 11.2015 10.7471C11.1071 10.8321 11.1293 10.8842 11.2681 10.9035C11.4381 10.9274 11.6116 10.9038 11.7886 10.8325C11.9076 10.7843 12.0132 10.6993 12.1052 10.5775C12.5151 10.031 12.7568 9.41546 12.8305 8.73071Z" fill="#FBB6A7"/>
<path d="M13.2716 8.74581C13.29 8.73662 13.3084 8.74121 13.3268 8.75959C13.3377 8.7697 13.3448 8.78464 13.3481 8.8044C13.3816 8.99052 13.4107 9.17734 13.4352 9.36484C13.4843 9.73341 13.6201 10.0668 13.8424 10.3651C13.8269 10.4336 13.8323 10.4979 13.8587 10.5581C13.8633 10.5682 13.8657 10.5789 13.8656 10.5894C13.8654 10.5999 13.8629 10.61 13.858 10.6188C13.8056 10.7153 13.7782 10.8118 13.7759 10.9083C13.6219 10.929 13.4614 10.9926 13.2943 11.0992C13.2884 11.1029 13.2819 11.1054 13.2751 11.1066C13.2683 11.1078 13.2613 11.1076 13.2546 11.1061C13.1923 11.0919 13.1774 11.1073 13.21 11.1523C13.2756 11.2428 13.3379 11.3357 13.397 11.4308C13.1269 11.4653 12.8554 11.4763 12.5825 11.4639C12.4541 11.4579 12.3301 11.4775 12.2107 11.5225L12.1172 11.4715C12.3094 11.3309 12.5294 11.2658 12.7773 11.2764C12.7879 11.2768 12.7983 11.2741 12.8068 11.2686C12.8152 11.2631 12.8213 11.2551 12.824 11.2461C12.8443 11.1771 12.8405 11.1084 12.8127 11.04C13.1049 11.0514 13.3408 10.9568 13.5202 10.7559C13.5414 10.732 13.556 10.7031 13.5626 10.6721C13.5691 10.6411 13.5675 10.609 13.5577 10.5788C13.3608 9.96848 13.2655 9.35749 13.2716 8.74581Z" fill="#C54E3A"/>
<path d="M11.0271 8.81403C10.9922 8.95236 11.0222 9.08977 11.1171 9.22626C10.9414 9.2304 10.7684 9.21087 10.5979 9.16767C10.5938 9.16672 10.5899 9.16477 10.5867 9.16202C10.5834 9.15928 10.581 9.15582 10.5795 9.152C10.5781 9.14817 10.5778 9.14411 10.5785 9.14021C10.5792 9.13631 10.5811 9.1327 10.5838 9.12975L10.8855 8.77956C10.9549 8.73866 11.0021 8.75015 11.0271 8.81403Z" fill="#E7B1A7"/>
<path d="M14.7279 8.79688C14.8105 9.00781 14.7623 9.19095 14.5834 9.34628C14.3515 9.30125 14.2217 9.16499 14.1938 8.9375C14.2047 8.90855 14.2215 8.88465 14.2441 8.86581C14.2998 8.91636 14.3508 8.97013 14.3971 9.02712C14.4717 9.11949 14.5388 9.0887 14.5982 8.93474C14.6056 8.91574 14.6194 8.89977 14.6374 8.88948C14.6553 8.8792 14.6762 8.87522 14.6967 8.87822C14.717 8.88097 14.7274 8.85386 14.7279 8.79688Z" fill="#905947"/>
<path d="M14.1941 8.93758C14.222 9.16507 14.3518 9.30133 14.5836 9.34637V9.38014C14.4878 9.42518 14.4004 9.41737 14.3216 9.35671C14.2966 9.33786 14.2777 9.32614 14.2649 9.32155C14.2149 9.30271 14.1932 9.31902 14.1998 9.37049C14.2017 9.38152 14.2128 9.40059 14.2331 9.42771L14.2671 9.47252C14.2714 9.47825 14.2732 9.48686 14.272 9.4972C14.2709 9.50754 14.2669 9.51912 14.2607 9.53042L14.0985 9.83235C14.0891 9.84982 14.081 9.85028 14.0744 9.83373C13.9998 9.64393 14.0041 9.44885 14.0872 9.24848C14.1065 9.20206 14.1179 9.15381 14.1212 9.10372C14.1282 8.98607 14.1526 8.93069 14.1941 8.93758Z" fill="#FDA493"/>
<path d="M11.5357 9.77309C11.4337 9.70416 11.4615 9.59823 11.6192 9.4553C11.6919 9.38913 11.7302 9.40452 11.734 9.50149C11.7363 9.56353 11.7255 9.63499 11.7014 9.71588C11.6735 9.80963 11.6183 9.8287 11.5357 9.77309Z" fill="#F6F3F1"/>
<path d="M20.5115 10.1798C20.7161 10.1798 20.8819 10.0184 20.8819 9.81927C20.8819 9.62015 20.7161 9.45874 20.5115 9.45874C20.307 9.45874 20.1411 9.62015 20.1411 9.81927C20.1411 10.0184 20.307 10.1798 20.5115 10.1798Z" fill="#B5A9BC"/>
<path d="M13.8429 10.365C13.9926 10.5281 14.1789 10.6283 14.4017 10.6655C14.5023 10.6821 14.5993 10.7094 14.6928 10.7476C14.7139 10.756 14.7374 10.7572 14.7594 10.751C14.97 10.6899 15.1829 10.6828 15.3982 10.7297C15.3279 10.8473 15.2637 10.9682 15.2056 11.0922C15.0885 11.3413 14.9048 11.5219 14.6546 11.6341C14.6466 11.6376 14.638 11.6395 14.6293 11.6396C14.6205 11.6396 14.6119 11.6379 14.6039 11.6346C14.5959 11.6312 14.5887 11.6262 14.5828 11.6199C14.5769 11.6137 14.5724 11.6063 14.5696 11.5982C14.4421 11.2251 14.1777 10.9951 13.7764 10.9082C13.7787 10.8117 13.8061 10.7152 13.8585 10.6187C13.8634 10.6099 13.8659 10.5999 13.8661 10.5893C13.8662 10.5788 13.8638 10.5681 13.8592 10.558C13.8328 10.4978 13.8274 10.4335 13.8429 10.365Z" fill="#FDA493"/>
<path d="M16.159 10.4485L16.2121 10.454C16.2088 10.4724 16.2013 10.4885 16.1895 10.5023C16.1817 10.5113 16.1757 10.521 16.1721 10.5307C16.1684 10.5403 16.1671 10.5497 16.1682 10.5581C16.2626 11.2644 16.2419 11.8895 16.1059 12.4331C16.0346 12.718 15.8608 13.0094 15.5846 13.3072L15.3948 13.4844C14.9855 13.8686 14.5837 14.1889 14.1894 14.4453C13.2371 15.0634 12.331 15.006 11.4712 14.273C11.0609 13.9228 10.7358 13.6197 10.496 13.3637L10.3189 13.2045C9.9719 12.8483 9.7762 12.4361 9.73181 11.9678C9.69499 11.5786 9.70089 11.1181 9.74952 10.5864L10.5243 10.727C10.535 10.7291 10.5448 10.7337 10.5527 10.7404C10.5606 10.7471 10.5662 10.7556 10.5689 10.7649C10.6232 10.9455 10.7172 11.1105 10.8508 11.2598C10.9028 11.4152 11.0088 11.5264 11.1688 11.5935C11.1774 11.5971 11.1873 11.5973 11.1963 11.594C11.2054 11.5907 11.213 11.5841 11.2177 11.5756C11.3777 11.2865 11.6105 11.0696 11.916 10.9248C12.0822 10.8458 12.2519 10.8416 12.4252 10.9124C12.5513 10.9639 12.6804 11.0064 12.8126 11.0399C12.8405 11.1084 12.8442 11.1771 12.8239 11.2461C12.8213 11.2551 12.8152 11.2631 12.8067 11.2686C12.7982 11.2741 12.7878 11.2768 12.7772 11.2764C12.5293 11.2658 12.3093 11.3308 12.1171 11.4715C11.8225 11.557 11.6969 11.7458 11.7404 12.0381C11.754 12.13 11.7913 12.2918 11.8523 12.5234C11.9387 12.8548 12.1542 13.0531 12.4989 13.1183C12.5085 13.1201 12.5185 13.1196 12.528 13.117C12.5375 13.1143 12.5463 13.1096 12.5538 13.103C12.5613 13.0965 12.5672 13.0883 12.5712 13.0792C12.5752 13.07 12.5771 13.0601 12.5768 13.0501L12.547 12.2939C12.5467 12.2822 12.5518 12.2709 12.5612 12.2623C12.5707 12.2538 12.5836 12.2488 12.5973 12.2484L13.3119 12.2298C13.3211 12.2295 13.3302 12.2309 13.3387 12.2339C13.3472 12.2368 13.355 12.2413 13.3615 12.2471C13.368 12.2528 13.3731 12.2597 13.3765 12.2673C13.3799 12.2748 13.3816 12.2829 13.3813 12.2911L13.3665 12.9288C13.3664 12.933 13.3672 12.9371 13.369 12.941C13.3708 12.9448 13.3734 12.9482 13.3767 12.9508C13.38 12.9535 13.3838 12.9554 13.388 12.9563C13.3921 12.9573 13.3963 12.9573 13.4004 12.9563C13.5903 12.915 13.7293 12.8311 13.8176 12.7047C13.9866 12.4625 14.0683 12.1652 14.0626 11.8127C14.0617 11.7511 14.0454 11.7022 14.0138 11.6659C14.0084 11.6596 14.0008 11.6556 13.9926 11.6547C13.9844 11.6538 13.9762 11.6561 13.9699 11.661C13.7598 11.8178 13.5312 11.9032 13.2843 11.9175C13.2347 11.9202 13.187 11.9306 13.1412 11.9485C13.0572 11.9821 13.0185 11.9722 13.0251 11.9189C13.2088 11.8559 13.3962 11.8074 13.5874 11.7734C13.6431 11.7638 13.6892 11.7456 13.7255 11.719C13.7661 11.69 13.8046 11.6576 13.841 11.6218C13.8446 11.6182 13.8473 11.6139 13.8491 11.6092C13.8508 11.6045 13.8514 11.5994 13.851 11.5944C13.8505 11.5895 13.8489 11.5846 13.8463 11.5803C13.8437 11.576 13.8402 11.5722 13.836 11.5694C13.6953 11.471 13.5489 11.4248 13.3969 11.4308C13.3379 11.3357 13.2756 11.2428 13.2099 11.1523C13.1774 11.1073 13.1922 11.0919 13.2546 11.1061C13.2613 11.1076 13.2682 11.1078 13.275 11.1066C13.2819 11.1054 13.2884 11.1029 13.2942 11.0992C13.4614 10.9926 13.6219 10.929 13.7758 10.9083C14.1771 10.9951 14.4415 11.2252 14.569 11.5983C14.5718 11.6064 14.5763 11.6138 14.5822 11.62C14.5881 11.6263 14.5953 11.6313 14.6033 11.6347C14.6113 11.638 14.62 11.6397 14.6287 11.6397C14.6375 11.6396 14.6461 11.6377 14.654 11.6342C14.9043 11.522 15.0879 11.3414 15.205 11.0923C15.2631 10.9683 15.3273 10.8474 15.3977 10.7297C15.5794 10.6934 15.7624 10.6638 15.9465 10.6408C16.0183 10.6316 16.0891 10.5675 16.159 10.4485Z" fill="#4E1F18"/>
<path d="M21.2788 11.0509C21.3735 11.0509 21.4502 10.9762 21.4502 10.8841C21.4502 10.792 21.3735 10.7173 21.2788 10.7173C21.1842 10.7173 21.1074 10.792 21.1074 10.8841C21.1074 10.9762 21.1842 11.0509 21.2788 11.0509Z" fill="#B5A9BC"/>
<path d="M17.8767 16.1929L17.1869 15.9971L16.9609 15.6566C17.6437 15.6501 18.2131 15.4417 18.6692 15.0313C18.969 14.7606 19.1442 14.4284 19.1947 14.0345C19.2311 13.7468 19.1992 13.4881 19.0991 13.2583C18.9881 13.0051 18.8028 12.7997 18.5431 12.6421C18.4237 12.5699 18.3047 12.4968 18.1862 12.4228C17.9322 12.2638 17.8018 12.0559 17.7952 11.799C17.7896 11.5628 17.876 11.3672 18.0544 11.2123C18.2324 11.0584 18.4624 10.9885 18.7443 11.0028C18.9978 11.0157 19.2259 11.0811 19.4284 11.1993C19.9298 11.4911 20.2636 11.9104 20.4298 12.4573C20.6343 13.131 20.5868 13.7848 20.2875 14.4185C19.8116 15.4259 19.008 16.0173 17.8767 16.1929Z" fill="#C6B1BF"/>
<path d="M13.3972 11.4309C13.5492 11.425 13.6956 11.4711 13.8363 11.5695C13.8405 11.5724 13.8441 11.5761 13.8466 11.5804C13.8492 11.5848 13.8508 11.5896 13.8513 11.5946C13.8517 11.5996 13.8511 11.6046 13.8494 11.6093C13.8476 11.614 13.8449 11.6183 13.8413 11.6219C13.8049 11.6577 13.7664 11.6901 13.7258 11.7191C13.6895 11.7457 13.6434 11.7639 13.5877 11.7735C13.3965 11.8075 13.2091 11.856 13.0254 11.919L12.849 11.9645L12.1606 11.6253L12.2109 11.5226C12.3304 11.4776 12.4543 11.458 12.5827 11.464C12.8557 11.4764 13.1271 11.4654 13.3972 11.4309Z" fill="#F9D6D5"/>
<path d="M12.1176 11.4714L12.2111 11.5224L12.1608 11.6252C12.1022 11.5475 12.0472 11.5436 11.9958 11.6134C11.9916 11.6191 11.9886 11.6255 11.987 11.6323C11.9854 11.6391 11.9852 11.6462 11.9865 11.653C11.9877 11.6598 11.9904 11.6663 11.9943 11.6721C11.9982 11.6778 12.0033 11.6827 12.0092 11.6865C12.2736 11.8538 12.5536 11.9464 12.8492 11.9643L13.0255 11.9188C13.0189 11.9721 13.0576 11.982 13.1417 11.9485C13.1875 11.9305 13.2352 11.9202 13.2847 11.9174C13.5317 11.9032 13.7602 11.8177 13.9703 11.661C13.9767 11.656 13.9849 11.6537 13.9931 11.6547C14.0013 11.6556 14.0089 11.6596 14.0142 11.6658C14.0459 11.7021 14.0621 11.7511 14.0631 11.8127C14.0687 12.1651 13.9871 12.4625 13.818 12.7047C13.7297 12.8311 13.5907 12.9149 13.4009 12.9563C13.3968 12.9572 13.3925 12.9572 13.3884 12.9563C13.3843 12.9553 13.3804 12.9535 13.3772 12.9508C13.3739 12.9481 13.3712 12.9448 13.3695 12.9409C13.3677 12.9371 13.3668 12.9329 13.3669 12.9287L13.3818 12.2911C13.382 12.2829 13.3803 12.2748 13.3769 12.2672C13.3735 12.2597 13.3684 12.2528 13.3619 12.247C13.3554 12.2413 13.3477 12.2368 13.3391 12.2338C13.3306 12.2308 13.3215 12.2294 13.3124 12.2297L12.5978 12.2483C12.5841 12.2487 12.5711 12.2538 12.5617 12.2623C12.5523 12.2708 12.5471 12.2822 12.5475 12.2938L12.5772 13.05C12.5775 13.06 12.5756 13.07 12.5716 13.0791C12.5677 13.0883 12.5617 13.0964 12.5542 13.103C12.5468 13.1095 12.538 13.1143 12.5284 13.1169C12.5189 13.1196 12.509 13.1201 12.4993 13.1183C12.1546 13.053 11.9391 12.8547 11.8527 12.5234C11.7918 12.2918 11.7545 12.13 11.7408 12.0381C11.6974 11.7458 11.8229 11.5569 12.1176 11.4714Z" fill="#FBB6A7"/>
<path d="M12.1605 11.6253L12.8489 11.9645C12.5533 11.9465 12.2733 11.8539 12.0089 11.6867C12.003 11.6829 11.9979 11.678 11.994 11.6722C11.9901 11.6664 11.9874 11.66 11.9862 11.6531C11.9849 11.6463 11.9851 11.6393 11.9867 11.6325C11.9883 11.6257 11.9913 11.6193 11.9955 11.6136C12.0469 11.5437 12.1019 11.5476 12.1605 11.6253Z" fill="#DC2C21"/>
<path d="M6.46507 12.9086C6.41775 13.2027 6.53821 13.4654 6.73414 13.4952C6.93006 13.5251 7.12725 13.3108 7.17457 13.0167C7.22189 12.7226 7.10143 12.4599 6.9055 12.4301C6.70958 12.4002 6.51239 12.6144 6.46507 12.9086Z" fill="#B4A4B3"/>
<path d="M10.3192 13.2046L10.4963 13.3638C10.4807 13.3951 10.4725 13.4256 10.4715 13.4555C10.4706 13.4808 10.4807 13.5093 10.502 13.541C10.8032 13.9849 11.1642 14.3714 11.5848 14.7005C11.8582 14.9146 12.1189 15.0599 12.3667 15.1361C12.6689 15.2294 12.9758 15.2533 13.2874 15.2078C13.6175 15.16 13.9492 15.0167 14.2825 14.7777C14.5814 14.5631 14.846 14.3108 15.0764 14.0208C15.1203 13.9656 15.176 13.9015 15.2436 13.8284C15.2922 13.7756 15.3481 13.7113 15.4114 13.6354C15.4591 13.578 15.4537 13.5277 15.3951 13.4845L15.5849 13.3073L15.5778 15.2251C15.5462 15.6865 15.5443 16.1541 15.5722 16.6279C15.3068 17.0548 14.9645 17.4135 14.5453 17.704C14.4659 17.7508 14.3502 17.8048 14.1982 17.8659C14.0599 17.922 13.9645 18.0279 13.9121 18.1837C13.6992 18.6162 13.5365 19.0645 13.4241 19.5287C13.2636 19.9882 13.066 20.4535 12.8313 20.9246C12.8162 20.9554 12.8014 20.9554 12.7867 20.9246C12.4557 20.2449 12.1517 19.5505 11.8745 18.8414L11.6521 17.9976C11.6443 17.9675 11.629 17.9384 11.6071 17.912C11.5852 17.8856 11.5571 17.8624 11.5246 17.8439L11.0955 17.6006C10.9864 17.4728 10.8709 17.3505 10.7491 17.2338C10.5735 17.0652 10.4342 16.8724 10.3313 16.6555L10.3164 15.2278L10.3192 13.2046ZM12.6571 16.8374C12.6571 16.8217 12.6507 16.8066 12.6393 16.7955C12.6278 16.7844 12.6124 16.7782 12.5962 16.7782H12.5934C12.5772 16.7782 12.5617 16.7844 12.5503 16.7955C12.5389 16.8066 12.5325 16.8217 12.5325 16.8374V17.6867C12.5325 17.7024 12.5389 17.7175 12.5503 17.7286C12.5617 17.7398 12.5772 17.746 12.5934 17.746H12.5962C12.6124 17.746 12.6278 17.7398 12.6393 17.7286C12.6507 17.7175 12.6571 17.7024 12.6571 17.6867V16.8374Z" fill="#FDBCAB"/>
<path d="M10.4965 13.3638C10.7364 13.6197 11.0615 13.9228 11.4718 14.273C12.3316 15.006 13.2376 15.0635 14.1899 14.4454C14.5842 14.1889 14.986 13.8686 15.3954 13.4844C15.4539 13.5276 15.4593 13.5779 15.4116 13.6354C15.3484 13.7112 15.2924 13.7755 15.2438 13.8284C15.1763 13.9015 15.1206 13.9656 15.0767 14.0207C14.8462 14.3107 14.5816 14.563 14.2827 14.7776C13.9494 15.0166 13.6177 15.16 13.2877 15.2078C12.976 15.2533 12.6691 15.2294 12.367 15.1361C12.1191 15.0598 11.8585 14.9146 11.5851 14.7004C11.1644 14.3714 10.8034 13.9849 10.5022 13.5409C10.4809 13.5092 10.4708 13.4807 10.4717 13.4555C10.4727 13.4256 10.4809 13.395 10.4965 13.3638Z" fill="#F1847B"/>
<path d="M17.3916 14.2303C17.4469 14.3066 17.4466 14.3865 17.3909 14.4702C17.3475 14.5354 17.2918 14.5722 17.2238 14.5805C17.1284 14.5924 17.0684 14.5327 17.0439 14.4013C17.0104 14.2234 17.0637 14.1354 17.2039 14.1372C17.2852 14.1377 17.3477 14.1687 17.3916 14.2303Z" fill="#AC9FB8"/>
<path d="M17.8649 14.6018C17.9693 14.6018 18.054 14.5193 18.054 14.4177C18.054 14.316 17.9693 14.2336 17.8649 14.2336C17.7604 14.2336 17.6758 14.316 17.6758 14.4177C17.6758 14.5193 17.7604 14.6018 17.8649 14.6018Z" fill="#AC9FB8"/>
<path d="M10.3166 15.2278L10.3315 16.6554C10.0401 16.2933 9.84632 15.8863 9.75 15.4346L10.3166 15.2278Z" fill="#221824"/>
<path d="M15.578 15.2251L16.0858 15.363C15.9998 15.8179 15.8287 16.2396 15.5723 16.6279C15.5444 16.1541 15.5463 15.6865 15.578 15.2251Z" fill="#2C1E30"/>
<path d="M16.9607 15.6565L17.1866 15.9971C17.1153 16.3657 16.9907 16.7106 16.8127 17.0318C16.4255 17.7322 15.8856 18.3163 15.193 18.7841C15.1831 18.7908 15.1719 18.7953 15.1601 18.7974C15.1483 18.7995 15.1362 18.7991 15.1246 18.7962C15.1129 18.7933 15.1021 18.7881 15.0927 18.7807C15.0834 18.7734 15.0758 18.7642 15.0704 18.7538L14.7808 18.1892L14.5449 17.7039C14.9642 17.4135 15.3065 17.0548 15.5719 16.6278C15.8282 16.2395 15.9994 15.8179 16.0853 15.3629C16.1061 15.3394 16.1306 15.3337 16.159 15.3457C16.4966 15.4867 16.7638 15.5904 16.9607 15.6565Z" fill="#AC9FB8"/>
<path d="M9.74951 15.4346C9.84583 15.8863 10.0396 16.2933 10.331 16.6554C10.4339 16.8723 10.5732 17.0651 10.7488 17.2338C10.8706 17.3505 10.9861 17.4727 11.0951 17.6005L10.5725 18.8041C9.55404 18.1359 8.89609 17.2211 8.59863 16.0598C8.97211 15.8305 9.35573 15.6221 9.74951 15.4346Z" fill="#837EA1"/>
<path d="M17.8766 16.1928C19.4734 16.7558 20.493 17.1182 20.9354 17.2799C21.0256 17.313 21.0978 17.3298 21.1521 17.3303C20.2144 18.9199 18.9073 20.1327 17.2306 20.9686C16.0295 21.567 14.7693 21.9043 13.4501 21.9806C12.8491 22.0151 12.2058 22.0036 11.5202 21.9461C10.6335 21.8717 9.72341 21.6254 8.78996 21.2071C7.14875 20.4718 5.81138 19.382 4.77783 17.9376C4.9412 17.8172 5.13478 17.7 5.35858 17.586C6.50072 17.0033 7.58077 16.4945 8.59874 16.0598C8.89619 17.2211 9.55414 18.1359 10.5726 18.8041C10.7279 18.9116 10.8929 19.0042 11.0676 19.0819C11.0714 19.0833 11.1089 19.1028 11.1802 19.1405C11.2855 19.1966 11.3601 19.1706 11.404 19.0626C11.4253 19.0102 11.4364 18.9829 11.4373 18.9806C11.5096 18.8284 11.5745 18.6731 11.6321 18.5146C11.6406 18.492 11.6517 18.4904 11.6654 18.5097C11.7079 18.5686 11.7336 18.6357 11.7426 18.711C11.7525 18.7951 11.7964 18.8386 11.8743 18.8413C12.1515 19.5504 12.4555 20.2448 12.7865 20.9245C12.8011 20.9553 12.816 20.9553 12.8311 20.9245C13.0658 20.4535 13.2634 19.9882 13.4239 19.5286L13.5918 19.2205C13.6291 19.2283 13.6605 19.2227 13.686 19.2039C13.7025 19.1915 13.7152 19.1667 13.7242 19.1295C13.762 18.975 13.8491 18.8641 13.9855 18.7965C14.3047 18.6393 14.5698 18.4369 14.7809 18.1892L15.0705 18.7538C15.0759 18.7642 15.0835 18.7734 15.0929 18.7807C15.1022 18.788 15.1131 18.7933 15.1247 18.7962C15.1363 18.7991 15.1484 18.7995 15.1602 18.7974C15.172 18.7953 15.1832 18.7908 15.1931 18.7841C15.8857 18.3163 16.4256 17.7322 16.8128 17.0318C16.9908 16.7105 17.1154 16.3656 17.1867 15.9971L17.8766 16.1928Z" fill="#3D2338"/>
<path d="M12.596 16.7781H12.5931C12.5595 16.7781 12.5322 16.8046 12.5322 16.8374V17.6866C12.5322 17.7194 12.5595 17.7459 12.5931 17.7459H12.596C12.6296 17.7459 12.6569 17.7194 12.6569 17.6866V16.8374C12.6569 16.8046 12.6296 16.7781 12.596 16.7781Z" fill="#FB887C"/>
<path d="M11.0954 17.6006L11.5246 17.8439C11.5571 17.8624 11.5851 17.8856 11.607 17.912C11.6289 17.9384 11.6443 17.9676 11.6521 17.9976L11.8745 18.8414C11.7966 18.8387 11.7527 18.7952 11.7428 18.7111C11.7338 18.6358 11.708 18.5687 11.6656 18.5098C11.6519 18.4905 11.6408 18.4921 11.6323 18.5147C11.5747 18.6732 11.5097 18.8285 11.4375 18.9807C11.4366 18.983 11.4255 19.0103 11.4042 19.0627C11.3603 19.1707 11.2857 19.1966 11.1804 19.1406C11.1091 19.1029 11.0716 19.0834 11.0678 19.082C10.8931 19.0043 10.7281 18.9117 10.5728 18.8042L11.0954 17.6006Z" fill="#200E21"/>
<path d="M14.5451 17.7039L14.7809 18.1892C14.5699 18.4369 14.3047 18.6393 13.9856 18.7965C13.8491 18.864 13.762 18.975 13.7242 19.1294C13.7153 19.1666 13.7025 19.1915 13.686 19.2039C13.6605 19.2227 13.6291 19.2282 13.5918 19.2204C13.7306 18.8872 13.8373 18.5416 13.9119 18.1836C13.9643 18.0278 14.0597 17.9219 14.198 17.8659C14.3501 17.8047 14.4658 17.7507 14.5451 17.7039Z" fill="#1E111E"/>
<path d="M13.9118 18.1836C13.8372 18.5416 13.7305 18.8872 13.5917 19.2204L13.4238 19.5285C13.5362 19.0643 13.6989 18.616 13.9118 18.1836Z" fill="#F9D7CC"/>
</svg>
