<svg width="50" height="50" viewBox="0 0 50 50" fill="none" xmlns="http://www.w3.org/2000/svg">
<rect width="50" height="50" rx="15" fill="#FDE8E1"/>
<path d="M11.0635 38.7283C14.0243 41.6941 17.5993 43.4901 21.7886 44.1162C22.0161 44.1507 22.2296 44.1101 22.429 43.9942C22.7858 43.7886 23.0878 43.4392 23.335 42.9458C24.0326 41.5582 23.9385 40.2322 23.0527 38.968" stroke="#FEC8A3" stroke-width="2"/>
<path d="M23.0522 38.968C24.6487 39.8435 26.2654 40.129 27.9021 39.8244C29.5529 39.516 30.8667 38.6059 31.8433 37.094" stroke="#D5A99D" stroke-width="2"/>
<path d="M31.8432 37.094L31.773 42.9164C31.7729 42.9273 31.7755 42.9381 31.7805 42.9477C31.7856 42.9574 31.7929 42.9656 31.8018 42.9717C31.8107 42.9779 31.8209 42.9816 31.8316 42.9827C31.8422 42.9838 31.853 42.9822 31.8628 42.9781C34.5671 41.8979 36.9103 40.286 38.8926 38.1424C38.9254 38.106 38.938 38.0737 38.9305 38.0457" stroke="#ACCDCB" stroke-width="2"/>
<path d="M38.9307 40.2474C39.0056 40.2155 39.0683 40.1682 39.1189 40.1054C41.6724 36.9551 43.2618 33.3183 43.8873 29.195C44.2572 26.7585 44.2015 24.3335 43.7202 21.92C42.7773 17.1836 40.5927 13.2412 37.1666 10.0929C34.4015 7.55278 31.2418 5.97764 27.6873 5.36752C26.8203 5.21898 25.8886 5.13972 24.8923 5.12975C23.7387 5.11679 22.6614 5.18359 21.6604 5.33014C20.328 5.52454 19.0026 5.8954 17.6842 6.44271C14.2056 7.88426 11.3633 10.1443 9.15718 13.2228C8.59724 14.0054 8.08598 14.8403 7.62342 15.7276C5.57466 19.6594 4.78765 23.8699 5.26238 28.3591C5.77926 33.243 7.71284 37.4486 11.0631 40.9757" stroke="#FEF3F0" stroke-width="2"/>
<path d="M38.9308 38.0457L31.8252 35.0195" stroke="#ABC2BC" stroke-width="2"/>
<path d="M31.8246 35.0195C31.0718 34.8149 30.6668 34.3042 30.6097 33.4875C30.5657 32.8587 30.5301 32.2289 30.5029 31.5981" stroke="#D59E8F" stroke-width="2"/>
<path d="M30.5029 31.599V31.1428" stroke="#C59089" stroke-width="2"/>
<path d="M30.5029 31.1426C32.5545 29.7326 33.7235 27.7035 34.0101 25.0553C34.0121 25.0362 34.0183 25.0177 34.0284 25.0012C34.0385 24.9848 34.0521 24.9707 34.0684 24.9602C34.0846 24.9496 34.1031 24.9427 34.1224 24.94C34.1417 24.9373 34.1614 24.9389 34.18 24.9446C34.2821 24.9764 34.4216 24.953 34.5986 24.8745C35.3636 24.5372 35.8416 24.0018 36.0326 23.2682C36.159 22.7833 36.181 22.331 36.0986 21.9115C36.0041 21.4321 35.7423 21.0322 35.3135 20.7117C34.8556 20.3687 34.3701 20.2893 33.857 20.4734C33.8435 20.4782 33.829 20.4796 33.8148 20.4775C33.8006 20.4755 33.7871 20.47 33.7755 20.4616C33.7638 20.4532 33.7545 20.4421 33.7481 20.4292C33.7418 20.4164 33.7386 20.4022 33.739 20.3879C33.7877 18.6956 33.7816 17.0039 33.7207 15.3126C33.7161 15.1733 33.6852 15.042 33.628 14.9187" stroke="#D59E8F" stroke-width="2"/>
<path d="M33.6281 14.9185C33.6253 14.8512 33.6651 14.7956 33.7475 14.7517C34.5509 14.3265 35.2574 13.7234 35.867 12.9422C36.1629 12.5628 36.3782 12.1498 36.513 11.7031C36.6647 11.2023 36.6849 10.75 36.5734 10.3464C36.3909 9.69039 35.8997 9.34606 35.1001 9.31335C35.0973 9.31335 34.9409 9.33017 34.631 9.36381C34.3941 9.38997 34.1792 9.3255 33.9863 9.17038C33.2625 8.58824 32.5574 8.55974 31.871 9.08489C31.6575 9.24935 31.5152 9.33858 31.444 9.3526C31.2558 9.38997 31.0817 9.30915 30.9216 9.11011C30.6275 8.74476 30.2207 8.62609 29.701 8.7541C29.4707 8.81017 29.253 8.89286 29.0479 9.00219C28.9196 9.07133 28.8822 9.03817 28.9355 8.90268C29.0835 8.53451 29.0802 8.207 28.9257 7.92013C28.7984 7.68372 28.569 7.49497 28.2375 7.35387C27.818 7.17633 27.3578 7.11652 26.8568 7.17446C26.1985 7.25108 25.5997 7.4146 25.0604 7.66503C25.0567 7.6669 24.9513 7.7225 24.7444 7.83182C24.1507 8.14392 23.462 8.25185 22.6783 8.1556C22.139 8.08926 21.7241 8.24577 21.4339 8.62515C21.2887 8.81483 21.1946 9.10544 21.1516 9.49697C21.1169 9.8072 21.0841 10.1174 21.0532 10.4277C21.0308 10.65 20.9755 10.8024 20.8875 10.8846C20.7377 11.0247 20.5387 11.0145 20.2906 10.8538C19.8711 10.5818 19.5326 10.608 19.2751 10.9322C19.174 11.0593 19.1196 11.2126 19.1122 11.392C19.1037 11.5714 19.1248 11.7396 19.1754 11.8966C19.3795 12.5226 19.7531 13.051 20.2962 13.4818" stroke="#947F85" stroke-width="2"/>
<path d="M20.2964 13.4819C19.7805 13.8193 19.4345 14.2851 19.2585 14.8794C19.1461 15.2578 19.0805 15.7615 19.0618 16.3903C19.0234 17.6752 19.0122 19.0114 19.0281 20.399C19.0284 20.416 19.0246 20.4328 19.0171 20.448C19.0096 20.4633 18.9986 20.4766 18.985 20.487C18.9714 20.4973 18.9555 20.5044 18.9386 20.5076C18.9217 20.5108 18.9043 20.5101 18.8877 20.5055C18.2528 20.3196 17.7266 20.4074 17.3089 20.769C16.9672 21.0662 16.7443 21.489 16.6404 22.0375C16.5496 22.5187 16.5861 22.9897 16.7499 23.4504C16.9278 23.9522 17.191 24.3217 17.5393 24.5591C17.9354 24.8282 18.4298 24.9263 19.0225 24.8534C19.0389 24.8515 19.0556 24.8529 19.0714 24.8575C19.0873 24.8622 19.102 24.87 19.1146 24.8805C19.1273 24.891 19.1376 24.904 19.1449 24.9186C19.1523 24.9333 19.1565 24.9492 19.1573 24.9655C19.2631 26.8933 19.9453 28.4967 21.2037 29.776C21.362 29.9367 21.4383 30.1193 21.4327 30.324C21.428 30.5212 21.4257 30.6235 21.4257 30.6309C21.494 31.6084 21.4903 32.4914 21.4144 33.28C21.3545 33.9024 21.0474 34.3901 20.493 34.7434C20.3694 34.8218 20.0913 34.9784 19.6587 35.2129" stroke="#D59E8F" stroke-width="2"/>
<path d="M19.6593 35.2129C19.1939 35.2867 18.7786 35.4689 18.4135 35.7595C18.3968 35.7727 18.3772 35.7822 18.3561 35.7872C18.3351 35.7923 18.313 35.7929 18.2913 35.789C17.9392 35.7245 17.6587 35.8133 17.4499 36.0553C17.4187 36.0917 17.3791 36.1202 17.3343 36.1382C17.2896 36.1562 17.2411 36.1634 17.1929 36.159C16.8099 36.1244 16.5164 36.252 16.3123 36.5416C16.2826 36.5839 16.2383 36.6136 16.188 36.625C16.1376 36.6364 16.0848 36.6287 16.0398 36.6033C15.9443 36.5491 15.8207 36.5571 15.669 36.6271C14.1951 37.3093 12.7087 37.9629 11.2096 38.588C11.1581 38.6095 11.1094 38.6562 11.0635 38.7282" stroke="#FDBD95" stroke-width="2"/>
<path d="M33.6283 14.9186C33.5778 14.8906 33.53 14.8873 33.4851 14.9088C32.2097 15.5283 30.8735 15.683 29.4765 15.3727C28.1131 15.07 26.9825 14.6733 26.0845 14.1828C25.1238 13.6585 24.0933 13.4315 22.9931 13.5016C21.9959 13.5651 21.3409 13.617 21.0282 13.6571C20.7398 13.6945 20.4958 13.6361 20.2964 13.4819" stroke="#6C3533" stroke-width="2"/>
<path d="M30.5034 31.1425C29.9032 31.4835 29.2753 31.748 28.6199 31.9358C27.9682 32.1227 27.3001 32.2021 26.6156 32.1741C24.9535 32.1059 23.439 31.563 22.0719 30.5454C22.0583 30.5352 22.044 30.5279 22.0304 30.5242C22.0168 30.5205 22.0044 30.5206 21.9946 30.5244C21.9675 30.5337 21.9768 30.5608 22.0227 30.6057C22.9535 31.5363 24.0214 32.2227 25.2265 32.6647C26.0561 32.9683 26.8309 33.0763 27.551 32.9884C28.4836 32.8754 29.3315 32.5058 30.0946 31.8797C30.1095 31.8675 30.1215 31.8509 30.1298 31.831C30.1381 31.8111 30.1424 31.7885 30.1424 31.7648C30.1424 31.6676 30.1944 31.6354 30.2983 31.6681C30.3919 31.698 30.4603 31.6746 30.5034 31.598" stroke="#9C4637" stroke-width="2"/>
<path d="M31.8252 35.0195C31.8852 35.7568 31.8912 36.4483 31.8432 37.094" stroke="#83786A" stroke-width="2"/>
<path d="M23.0526 38.9679C22.7155 38.696 22.3306 38.3213 21.898 37.8438C20.9869 36.8402 20.2407 35.9632 19.6592 35.2129" stroke="#D57342" stroke-width="2"/>
<path d="M13.0379 14.0455C13.1999 14.1371 13.3203 14.0988 13.3989 13.9306C13.7519 13.1802 14.0839 12.4215 14.3947 11.6543C14.4472 11.5244 14.4804 11.4081 14.4945 11.3053C14.5544 10.8904 14.4299 10.8063 14.1209 11.053C14.0328 11.124 13.949 11.2175 13.8694 11.3333C13.4031 12.0127 13.0703 12.7537 12.8708 13.5563C12.8137 13.7862 12.8694 13.9493 13.0379 14.0455Z" stroke="#FABE99" stroke-width="2"/>
<path d="M12.6745 37.0407C13.0275 37.108 13.2101 36.9529 13.2223 36.5754C13.3674 32.0537 13.5252 27.533 13.6956 23.0131C13.7078 22.7095 13.61 22.5235 13.4021 22.4553C13.2373 22.4002 13.0678 22.4277 12.8936 22.538C12.7345 22.638 12.616 22.7795 12.5383 22.9627C12.4456 23.1804 12.3964 23.407 12.3908 23.6425C12.2944 27.6259 12.2714 31.6094 12.322 35.5928C12.3276 36.0058 12.3754 36.4203 12.4653 36.8361C12.4761 36.8868 12.5018 36.9332 12.539 36.9696C12.5762 37.0059 12.6233 37.0307 12.6745 37.0407Z" stroke="#FABE99" stroke-width="2"/>
<path d="M11.4453 34.0439C11.6522 34.1813 11.7683 34.1271 11.7936 33.8813C11.8254 33.5627 11.8418 33.2454 11.8427 32.9296C11.8474 30.3945 11.8774 27.8604 11.9326 25.3271C11.9401 24.9879 11.8966 24.6576 11.802 24.3362C11.744 24.1353 11.662 24.1175 11.5562 24.2829C11.4148 24.5053 11.3357 24.7483 11.3188 25.0118C11.1821 27.0881 11.0913 29.1667 11.0464 31.2476C11.0201 32.4437 11.0468 33.2146 11.1264 33.5603C11.1751 33.7743 11.2814 33.9355 11.4453 34.0439Z" stroke="#FABE99" stroke-width="2"/>
<path d="M14.0463 25.6987C13.9845 25.7968 13.9475 25.9038 13.9353 26.0196C13.8033 27.3531 13.7443 28.687 13.7584 30.0213C13.7593 30.071 13.7753 30.1158 13.8033 30.1475C13.9054 30.2643 14.0126 30.2708 14.125 30.1671C14.1548 30.14 14.1753 30.0977 14.1825 30.0479C14.3754 28.6388 14.4578 27.2237 14.4297 25.8024C14.4279 25.6977 14.4026 25.6221 14.3539 25.5753C14.2593 25.4847 14.1568 25.5258 14.0463 25.6987Z" stroke="#FCC19D" stroke-width="2"/>
<path d="M9.99578 35.217C10.1737 35.4348 10.3151 35.4133 10.4199 35.1526C10.5735 34.7704 10.6334 34.3681 10.5997 33.9458C10.5585 33.4374 10.5276 32.0475 10.507 29.7759C10.5033 29.3909 10.3137 29.2306 9.93819 29.2951C9.72657 29.3316 9.60625 29.4558 9.57722 29.668C9.38058 31.078 9.37731 32.4965 9.56739 33.9233C9.61796 34.3018 9.65307 34.527 9.67274 34.5989C9.73454 34.8241 9.84222 35.0302 9.99578 35.217Z" stroke="#FDBD95" stroke-width="2"/>
<path d="M26.884 16.8783C28.4009 16.9549 29.8171 17.282 31.1327 17.8595C31.2264 17.9006 31.3223 17.9337 31.4206 17.959C31.7306 18.0356 31.8486 18.0001 31.7746 17.8525C31.7564 17.8154 31.7204 17.7839 31.6735 17.7641C30.4946 17.2474 29.2764 16.8797 28.0188 16.6611C27.1733 16.5144 26.3488 16.4588 25.5454 16.4943C24.7149 16.5316 23.8923 16.6456 23.0777 16.8363C22.5383 16.9615 22.0285 17.1596 21.5481 17.4306C21.4273 17.4988 21.3187 17.6184 21.2223 17.7894C21.1352 17.9445 21.1731 17.9861 21.336 17.9141C23.1039 17.1264 24.9532 16.7811 26.884 16.8783Z" stroke="#A24A38" stroke-width="2"/>
<path d="M29.5092 19.1179C29.5433 19.1572 29.5851 19.1892 29.6322 19.2119C29.6793 19.2345 29.7307 19.2474 29.783 19.2496C30.9591 19.2982 31.9961 19.4902 32.8941 19.8257C32.903 19.829 32.9125 19.8305 32.9219 19.8302C32.9313 19.8299 32.9405 19.8279 32.949 19.8241C32.9575 19.8203 32.9651 19.8149 32.9714 19.8082C32.9776 19.8015 32.9824 19.7936 32.9854 19.785C33.0547 19.5944 33.0495 19.4038 32.97 19.2132C32.9536 19.1732 32.9219 19.1382 32.8801 19.1137C31.9699 18.596 30.9942 18.3502 29.953 18.3764C29.7498 18.3811 29.5953 18.4301 29.4895 18.5236C29.3032 18.688 29.3097 18.8861 29.5092 19.1179Z" stroke="#67352C" stroke-width="2"/>
<path d="M24.9104 18.5474C24.8702 18.4918 24.8169 18.4471 24.7551 18.4173C24.6933 18.3874 24.6251 18.3734 24.5565 18.3764C23.6117 18.4165 22.7727 18.553 22.0395 18.7857C21.7118 18.8894 21.4773 19.0225 21.3359 19.1851C21.1711 19.3729 21.1706 19.5687 21.3345 19.7724C21.347 19.7877 21.3644 19.7988 21.3844 19.8043C21.4044 19.8098 21.4261 19.8094 21.4468 19.8032C22.4113 19.5108 23.3959 19.3248 24.4006 19.2454C24.6141 19.2286 24.769 19.1879 24.8655 19.1234C25.0734 18.9823 25.0883 18.7903 24.9104 18.5474Z" stroke="#65332D" stroke-width="2"/>
<path d="M27.8838 20.4146C27.6151 21.7601 27.6848 23.087 28.0931 24.3952C28.0968 24.4064 28.1268 24.4816 28.183 24.6209C28.2888 24.8797 28.227 25.0979 27.9976 25.2754C27.7101 25.4988 27.3847 25.681 27.0214 25.8221C26.9559 25.8473 26.9578 25.8674 27.027 25.8823C27.5008 25.9823 27.9648 25.9627 28.4189 25.8235C28.6736 25.745 28.8539 25.6146 28.9597 25.4324C29.0711 25.2371 29.1282 25.0054 29.1311 24.7372" stroke="#964332" stroke-width="2"/>
<path d="M29.1313 24.7373C29.2503 24.5867 29.4268 24.561 29.6609 24.6601" stroke="#A44D38" stroke-width="2"/>
<path d="M29.6606 24.6601C29.8423 25.8366 30.5113 26.3855 31.6677 26.3071C32.4702 26.2529 33.0315 25.8772 33.3518 25.1801C33.481 24.8989 33.533 24.6372 33.5077 24.3952C33.4805 24.1308 33.3794 23.8715 33.2043 23.6173C32.8738 23.1389 32.4435 22.8656 31.9135 22.7974C30.8779 22.6637 30.1621 23.0627 29.766 23.9944" stroke="#9F4837" stroke-width="2"/>
<path d="M29.7656 23.9944C29.7263 24.0271 29.6907 24.0383 29.6589 24.028C29.6428 24.0229 29.6302 24.0088 29.6234 23.9885C29.6166 23.9682 29.6162 23.9432 29.6223 23.9187C29.7085 23.5748 29.7347 23.2847 29.701 23.0482C29.6176 22.4633 29.5961 21.9844 29.6364 21.6116" stroke="#A44D38" stroke-width="2"/>
<path d="M29.6367 21.6122C29.9719 21.31 30.3563 21.1416 30.7899 21.1069" stroke="#964332" stroke-width="2"/>
<path d="M30.79 21.1069C30.8668 21.861 31.2058 22.1119 31.8069 21.8596C31.8712 21.8327 31.9258 21.7872 31.9639 21.729C32.0019 21.6708 32.0216 21.6025 32.0204 21.533C32.0157 21.2574 31.9493 21.0107 31.821 20.793" stroke="#7C3A2C" stroke-width="2"/>
<path d="M31.8214 20.793L32.9633 21.5457C32.9806 21.5566 32.998 21.5645 33.0137 21.5685C33.0293 21.5725 33.0425 21.5723 33.0517 21.5681C33.0798 21.5559 33.0803 21.5288 33.0532 21.4868C32.5981 20.8019 31.9492 20.4463 31.1065 20.4202C30.525 20.4024 30.127 20.4159 29.9126 20.4608" stroke="#964332" stroke-width="2"/>
<path d="M29.912 20.461C29.7865 20.4525 29.6802 20.3801 29.5931 20.2437C29.5088 20.111 29.3876 20.0428 29.2293 20.0391C28.9044 20.0316 28.7317 19.9283 28.7111 19.7293C28.708 19.7036 28.7012 19.6799 28.6912 19.6602C28.6812 19.6405 28.6682 19.6252 28.6535 19.6158C28.5458 19.5476 28.4526 19.5733 28.374 19.6929C28.2195 19.9265 28.0561 20.1671 27.8838 20.4147" stroke="#A44D38" stroke-width="2"/>
<path d="M29.912 20.4609C29.9261 20.6058 29.9888 20.731 30.1002 20.8366C30.1237 20.8585 30.1416 20.8855 30.1527 20.9156C30.1639 20.9456 30.1678 20.9779 30.1643 21.0097C30.1607 21.0415 30.1498 21.0721 30.1323 21.099C30.1149 21.1259 30.0914 21.1483 30.0637 21.1646C29.8437 21.2935 29.7013 21.4426 29.6367 21.6117" stroke="#8E3C2E" stroke-width="2"/>
<path d="M29.766 23.9941L29.6606 24.6608" stroke="#974133" stroke-width="2"/>
<path d="M29.131 24.7372C28.203 23.4598 27.7873 22.019 27.8837 20.4146" stroke="#8E3C2E" stroke-width="2"/>
<path d="M31.821 20.7929C31.3182 20.6582 30.9745 20.763 30.79 21.1073" stroke="#652922" stroke-width="2"/>
<path d="M22.4681 21.2669C22.4363 21.5584 22.5107 21.7612 22.6914 21.8752C22.844 21.9705 23.0032 21.9864 23.169 21.9228C23.3412 21.8565 23.4471 21.706 23.4864 21.4715C23.5285 21.2211 23.5515 21.0248 23.5552 20.8828" stroke="#7A3E33" stroke-width="2"/>
<path d="M23.555 20.8828C24.0278 20.8726 24.4263 21.0454 24.7503 21.4014C24.8298 21.4884 24.8533 21.4767 24.8205 21.3664C24.6304 20.7207 24.2512 20.3638 23.6828 20.2956C23.3083 20.2507 22.9206 20.2741 22.5198 20.3656C21.9131 20.503 21.494 20.9174 21.2628 21.6089C21.2272 21.7154 21.2632 21.7472 21.3709 21.7042L22.4679 21.2669" stroke="#984534" stroke-width="2"/>
<path d="M23.5549 20.8829C23.0408 20.6976 22.6785 20.8258 22.4678 21.2675" stroke="#662F2B" stroke-width="2"/>
<path d="M34.7523 21.1435C34.3234 21.0192 34.0715 21.1201 33.9966 21.4462C33.9957 21.4546 33.977 21.6756 33.9404 22.1092C33.9058 22.5278 33.9161 22.9245 33.9713 23.2992C34.0051 23.53 34.1357 23.6211 34.3632 23.5725C34.8445 23.4707 35.1301 23.2202 35.22 22.8212C35.2687 22.6073 35.2771 22.3601 35.2453 22.0798C35.2172 21.8359 35.1409 21.5953 35.0163 21.3579C34.9887 21.3064 34.9511 21.261 34.9058 21.2241C34.8605 21.1873 34.8083 21.1599 34.7523 21.1435Z" stroke="#A64A39" stroke-width="2"/>
<path d="M18.1053 23.3721C18.3254 23.5459 18.5477 23.5763 18.7725 23.4632C18.9382 23.3801 19.0613 23.2278 19.1419 23.0063C19.2917 22.5895 19.2931 22.1611 19.1461 21.721C19.1389 21.6997 19.1277 21.68 19.113 21.6632C19.0983 21.6463 19.0804 21.6326 19.0604 21.6229C18.7402 21.4678 18.4457 21.4575 18.1769 21.592C17.9204 21.7201 17.757 21.9443 17.6868 22.2648C17.5894 22.7077 17.7289 23.0768 18.1053 23.3721Z" stroke="#A24A38" stroke-width="2"/>
<path d="M23.9984 24.2957C23.97 24.0676 23.8937 23.8477 23.774 23.6485C23.6544 23.4493 23.4936 23.2748 23.3009 23.135C23.1083 22.9951 22.8875 22.8926 22.6512 22.8333C22.4149 22.774 22.1677 22.7591 21.9237 22.7895C21.431 22.8507 20.9812 23.0925 20.6735 23.4616C20.3657 23.8307 20.2251 24.2969 20.2826 24.7576C20.3111 24.9857 20.3874 25.2057 20.507 25.4048C20.6267 25.604 20.7875 25.7785 20.9801 25.9184C21.1728 26.0582 21.3936 26.1607 21.6299 26.22C21.8662 26.2793 22.1134 26.2942 22.3574 26.2639C22.8501 26.2026 23.2998 25.9609 23.6076 25.5918C23.9154 25.2227 24.0559 24.7565 23.9984 24.2957Z" stroke="#9F4837" stroke-width="2"/>
<path d="M25.937 28.4726L26.5677 28.6186C26.5852 28.6228 26.6011 28.6328 26.6129 28.6472C26.6248 28.6615 26.632 28.6795 26.6337 28.6986C26.6393 28.7679 26.6758 28.8263 26.7432 28.8741C27.143 29.1604 27.5415 29.166 27.9385 28.8909C28.0546 28.8104 28.0424 28.7669 27.902 28.7604C27.7072 28.751 27.5115 28.7641 27.3149 28.7997C27.151 28.8287 27.0059 28.8053 26.8795 28.7295C26.8373 28.7042 26.8406 28.6832 26.8893 28.6663C27.218 28.5494 27.4502 28.5133 27.5859 28.5583C27.9034 28.664 28.1538 28.6055 28.3374 28.3828" stroke="#973D32" stroke-width="2"/>
<path d="M28.3375 28.3829C29.198 28.0297 29.8366 27.4574 30.2533 26.6659C30.3095 26.5603 30.279 26.5197 30.162 26.544C28.1573 26.9682 26.1445 26.9663 24.1239 26.5384C23.9029 26.4916 23.8383 26.5711 23.93 26.7766C24.3336 27.6802 25.0026 28.2456 25.9371 28.4726" stroke="#D5A99D" stroke-width="2"/>
<path d="M28.3374 28.3827C27.5368 28.3584 26.7367 28.3883 25.937 28.4725" stroke="#C09193" stroke-width="2"/>
<path d="M25.6984 36.6464C25.6987 36.6304 25.6958 36.6145 25.6899 36.5996C25.684 36.5847 25.6753 36.5711 25.6641 36.5596C25.653 36.5481 25.6397 36.5389 25.625 36.5325C25.6102 36.5261 25.5944 36.5227 25.5784 36.5224L25.5699 36.5222C25.5375 36.5217 25.5062 36.534 25.4829 36.5564C25.4596 36.5789 25.4462 36.6097 25.4456 36.642L25.4087 38.7526C25.4084 38.7686 25.4113 38.7845 25.4172 38.7994C25.4231 38.8143 25.4318 38.8279 25.443 38.8394C25.4541 38.8509 25.4674 38.8601 25.4822 38.8665C25.4969 38.8729 25.5127 38.8763 25.5288 38.8766L25.5372 38.8768C25.5696 38.8773 25.6009 38.865 25.6242 38.8426C25.6475 38.8201 25.6609 38.7893 25.6615 38.757L25.6984 36.6464Z" stroke="#9F4837" stroke-width="2"/>
<path d="M19.9325 40.1579C20.0318 40.2215 20.0809 40.1944 20.08 40.0766C20.0791 39.9271 20.051 39.7827 19.9957 39.6435C19.683 38.8511 19.3464 38.0685 18.9859 37.2958C18.9559 37.2322 18.9269 37.1794 18.8988 37.1374C18.7424 36.9066 18.6694 36.9407 18.6797 37.2397C18.6815 37.2995 18.6932 37.3621 18.7148 37.4275C18.9994 38.2648 19.3267 39.0847 19.6966 39.8874C19.749 40.0005 19.8276 40.0906 19.9325 40.1579Z" stroke="#ED7A3D" stroke-width="2"/>
<path d="M19.0885 40.7174C19.2402 40.822 19.2898 40.7959 19.2374 40.6389C18.8844 39.5811 18.4611 38.5528 17.9677 37.5539C17.9218 37.4604 17.8759 37.3918 17.83 37.3478C17.6989 37.2198 17.6011 37.2549 17.5365 37.453C17.5229 37.4937 17.5254 37.5405 17.5435 37.5847C17.9021 38.4435 18.2841 39.2919 18.6896 40.1301C18.6943 40.1385 18.7219 40.2044 18.7725 40.3277C18.838 40.4884 18.9433 40.6183 19.0885 40.7174Z" stroke="#ED7A3D" stroke-width="2"/>
<path d="M15.0835 38.7746C15.1071 38.7545 15.1255 38.7288 15.1376 38.6989C15.1497 38.669 15.1553 38.6355 15.154 38.6004C15.1528 38.5653 15.1448 38.5292 15.1305 38.4941C15.1162 38.4591 15.0958 38.4259 15.0705 38.3963C15.0195 38.3366 14.9516 38.2954 14.8819 38.2819C14.8121 38.2684 14.7462 38.2836 14.6986 38.3242C14.675 38.3443 14.6567 38.3701 14.6446 38.4C14.6325 38.4299 14.6269 38.4633 14.6281 38.4985C14.6293 38.5336 14.6373 38.5697 14.6516 38.6047C14.666 38.6398 14.6864 38.673 14.7116 38.7026C14.7627 38.7623 14.8305 38.8035 14.9003 38.817C14.97 38.8305 15.0359 38.8153 15.0835 38.7746Z" stroke="#E77948" stroke-width="2"/>
<path d="M38.9307 38.0457L31.8251 35.0195C31.0723 34.8149 30.6673 34.3042 30.6102 33.4876C30.5662 32.8587 30.5306 32.2289 30.5034 31.5981V31.1426C32.555 29.7326 33.7241 27.7035 34.0106 25.0553C34.0126 25.0361 34.0188 25.0177 34.0289 25.0012C34.039 24.9848 34.0526 24.9707 34.0689 24.9601C34.0852 24.9496 34.1036 24.9427 34.1229 24.94C34.1422 24.9373 34.1619 24.9389 34.1805 24.9446C34.2826 24.9764 34.4221 24.953 34.5991 24.8745C35.3641 24.5372 35.8421 24.0018 36.0331 23.2682C36.1595 22.7833 36.1815 22.331 36.0991 21.9114C36.0046 21.4321 35.7429 21.0322 35.314 20.7116C34.8561 20.3687 34.3706 20.2893 33.8575 20.4734C33.844 20.4781 33.8295 20.4796 33.8153 20.4775C33.8011 20.4755 33.7876 20.47 33.776 20.4616C33.7644 20.4532 33.755 20.4421 33.7486 20.4292C33.7423 20.4164 33.7391 20.4022 33.7395 20.3879C33.7882 18.6956 33.7821 17.0038 33.7212 15.3125C33.7166 15.1733 33.6857 15.042 33.6285 14.9187C33.6257 14.8514 33.6655 14.7958 33.7479 14.7519C34.5513 14.3267 35.2578 13.7236 35.8674 12.9424C36.1633 12.563 36.3786 12.15 36.5135 11.7033C36.6652 11.2025 36.6853 10.7502 36.5739 10.3465C36.3913 9.69058 35.9002 9.34625 35.1005 9.31354C35.0977 9.31354 34.9413 9.33036 34.6314 9.364C34.3945 9.39016 34.1796 9.32569 33.9867 9.17057C33.2629 8.58843 32.5578 8.55993 31.8715 9.08508C31.658 9.24953 31.5156 9.33877 31.4445 9.35278C31.2563 9.39016 31.0821 9.30934 30.922 9.1103C30.628 8.74494 30.2211 8.62628 29.7014 8.75429C29.4711 8.81036 29.2534 8.89305 29.0483 9.00237C28.92 9.07152 28.8826 9.03836 28.936 8.90286C29.0839 8.5347 29.0806 8.20718 28.9261 7.92032C28.7988 7.68391 28.5694 7.49516 28.2379 7.35406C27.8184 7.17652 27.3582 7.11671 26.8572 7.17464C26.199 7.25127 25.6002 7.41479 25.0608 7.66522C25.0571 7.66709 24.9517 7.72268 24.7448 7.83201C24.1512 8.14411 23.4625 8.25204 22.6787 8.15579C22.1394 8.08945 21.7246 8.24596 21.4343 8.62533C21.2892 8.81502 21.1951 9.10563 21.152 9.49716C21.1173 9.80739 21.0846 10.1176 21.0537 10.4278C21.0312 10.6502 20.9759 10.8025 20.8879 10.8848C20.7381 11.0249 20.5391 11.0147 20.291 10.8539C19.8715 10.582 19.533 10.6082 19.2755 10.9324C19.1744 11.0595 19.1201 11.2128 19.1126 11.3922C19.1042 11.5716 19.1252 11.7398 19.1758 11.8968C19.3799 12.5228 19.7535 13.0512 20.2966 13.482C19.7807 13.8193 19.4347 14.2851 19.2587 14.8794C19.1463 15.2579 19.0808 15.7615 19.062 16.3904C19.0236 17.6752 19.0124 19.0115 19.0283 20.3991C19.0286 20.4161 19.0248 20.4328 19.0173 20.4481C19.0098 20.4634 18.9989 20.4767 18.9852 20.487C18.9716 20.4974 18.9557 20.5044 18.9388 20.5077C18.9219 20.5109 18.9045 20.5102 18.8879 20.5056C18.253 20.3197 17.7268 20.4075 17.3092 20.7691C16.9674 21.0663 16.7445 21.4891 16.6406 22.0376C16.5498 22.5188 16.5863 22.9898 16.7501 23.4504C16.9281 23.9522 17.1912 24.3218 17.5395 24.5591C17.9356 24.8283 18.43 24.9264 19.0227 24.8535C19.0391 24.8515 19.0558 24.8529 19.0717 24.8576C19.0875 24.8623 19.1022 24.8701 19.1149 24.8806C19.1275 24.8911 19.1378 24.9041 19.1452 24.9187C19.1525 24.9333 19.1567 24.9493 19.1575 24.9656C19.2633 26.8933 19.9455 28.4968 21.204 29.776C21.3622 29.9367 21.4385 30.1194 21.4329 30.3241C21.4282 30.5212 21.4259 30.6235 21.4259 30.631C21.4942 31.6084 21.4905 32.4915 21.4146 33.2801C21.3547 33.9024 21.0476 34.3902 20.4933 34.7434C20.3697 34.8219 20.0916 34.9784 19.659 35.213C19.1936 35.2868 18.7783 35.469 18.4131 35.7596C18.3964 35.7728 18.3769 35.7822 18.3558 35.7873C18.3347 35.7924 18.3126 35.793 18.2909 35.789C17.9389 35.7246 17.6584 35.8133 17.4496 36.0553C17.4184 36.0918 17.3787 36.1202 17.334 36.1383C17.2893 36.1563 17.2408 36.1634 17.1926 36.1591C16.8096 36.1245 16.5161 36.2521 16.3119 36.5417C16.2823 36.5839 16.238 36.6137 16.1876 36.6251C16.1372 36.6365 16.0844 36.6287 16.0394 36.6034C15.9439 36.5492 15.8203 36.5571 15.6687 36.6272C14.1948 37.3093 12.7083 37.963 11.2092 38.5881C11.1577 38.6096 11.109 38.6563 11.0631 38.7283C7.71284 35.4223 5.77926 31.4804 5.26238 26.9027C4.78765 22.695 5.57466 18.7484 7.62342 15.0631C8.08598 14.2314 8.59724 13.4488 9.15718 12.7153C11.3633 9.82981 14.2056 7.71147 17.6842 6.36029C19.0026 5.8473 20.328 5.49969 21.6604 5.31748C22.6614 5.18012 23.7387 5.11751 24.8923 5.12965C25.8886 5.139 26.8203 5.21329 27.6873 5.35252C31.2418 5.92439 34.4015 7.40077 37.1666 9.78168C40.5927 12.7326 42.7773 16.4278 43.7202 20.8672C44.2015 23.1295 44.2572 25.4025 43.8873 27.6862C43.2618 31.551 41.6724 34.9597 39.1189 37.9125C39.0683 37.9714 39.0056 38.0158 38.9307 38.0457ZM13.0379 14.0455C13.1999 14.137 13.3202 14.0987 13.3989 13.9305C13.7519 13.1802 14.0839 12.4214 14.3947 11.6543C14.4472 11.5244 14.4804 11.408 14.4944 11.3053C14.5544 10.8904 14.4298 10.8063 14.1208 11.053C14.0328 11.124 13.949 11.2174 13.8694 11.3333C13.4031 12.0126 13.0702 12.7536 12.8708 13.5563C12.8137 13.7862 12.8694 13.9492 13.0379 14.0455ZM12.6742 37.0407C13.0272 37.108 13.2098 36.9529 13.2219 36.5754C13.3671 32.0537 13.5248 27.5329 13.6953 23.0131C13.7074 22.7094 13.6096 22.5235 13.4017 22.4553C13.2369 22.4002 13.0674 22.4277 12.8933 22.538C12.7341 22.638 12.6156 22.7795 12.5379 22.9627C12.4452 23.1804 12.3961 23.407 12.3904 23.6425C12.294 27.6259 12.2711 31.6094 12.3216 35.5928C12.3272 36.0058 12.375 36.4202 12.4649 36.8361C12.4758 36.8868 12.5014 36.9332 12.5386 36.9695C12.5758 37.0059 12.6229 37.0307 12.6742 37.0407ZM11.4452 34.044C11.6521 34.1814 11.7682 34.1272 11.7935 33.8814C11.8253 33.5628 11.8417 33.2455 11.8427 32.9297C11.8473 30.3946 11.8773 27.8605 11.9326 25.3272C11.9401 24.988 11.8965 24.6577 11.8019 24.3363C11.7439 24.1354 11.662 24.1176 11.5561 24.283C11.4148 24.5054 11.3356 24.7484 11.3188 25.0119C11.1821 27.0882 11.0912 29.1668 11.0463 31.2477C11.0201 32.4438 11.0468 33.2147 11.1264 33.5604C11.175 33.7744 11.2813 33.9356 11.4452 34.044ZM14.0464 25.6987C13.9846 25.7968 13.9476 25.9038 13.9354 26.0196C13.8034 27.3531 13.7444 28.687 13.7585 30.0213C13.7594 30.0709 13.7754 30.1158 13.8034 30.1475C13.9055 30.2643 14.0127 30.2708 14.125 30.1671C14.1549 30.14 14.1754 30.0977 14.1826 30.0479C14.3755 28.6388 14.4579 27.2236 14.4298 25.8024C14.428 25.6977 14.4027 25.622 14.354 25.5753C14.2594 25.4847 14.1569 25.5258 14.0464 25.6987ZM9.9957 35.2172C10.1736 35.4349 10.315 35.4134 10.4199 35.1527C10.5734 34.7705 10.6334 34.3682 10.5996 33.9459C10.5584 33.4376 10.5276 32.0476 10.507 29.776C10.5032 29.391 10.3136 29.2308 9.93811 29.2953C9.72649 29.3317 9.60616 29.456 9.57714 29.6681C9.3805 31.0781 9.37723 32.4966 9.56731 33.9235C9.61788 34.3019 9.65299 34.5271 9.67265 34.599C9.73445 34.8242 9.84213 35.0303 9.9957 35.2172Z" fill="#FDE8E1"/>
<path d="M33.6281 14.9185C33.5776 14.8905 33.5298 14.8872 33.4849 14.9087C32.2095 15.5282 30.8733 15.6829 29.4763 15.3726C28.1129 15.0699 26.9823 14.6732 26.0843 14.1826C25.1236 13.6584 24.0931 13.4314 22.9929 13.5014C21.9957 13.565 21.3407 13.6168 21.028 13.657C20.7396 13.6944 20.4956 13.636 20.2962 13.4818C19.7531 13.051 19.3795 12.5226 19.1754 11.8966C19.1248 11.7396 19.1037 11.5714 19.1122 11.392C19.1196 11.2126 19.174 11.0593 19.2751 10.9322C19.5326 10.608 19.8711 10.5818 20.2906 10.8538C20.5387 11.0145 20.7377 11.0247 20.8875 10.8846C20.9755 10.8024 21.0308 10.65 21.0532 10.4277C21.0841 10.1174 21.1169 9.8072 21.1516 9.49697C21.1946 9.10544 21.2887 8.81483 21.4339 8.62515C21.7241 8.24577 22.139 8.08926 22.6783 8.1556C23.462 8.25185 24.1507 8.14392 24.7444 7.83182C24.9513 7.7225 25.0567 7.6669 25.0604 7.66503C25.5997 7.4146 26.1985 7.25108 26.8568 7.17446C27.3578 7.11652 27.818 7.17633 28.2375 7.35387C28.569 7.49497 28.7984 7.68372 28.9257 7.92013C29.0802 8.207 29.0835 8.53451 28.9355 8.90268C28.8822 9.03817 28.9196 9.07133 29.0479 9.00219C29.253 8.89286 29.4707 8.81017 29.701 8.7541C30.2207 8.62609 30.6275 8.74476 30.9216 9.11011C31.0817 9.30915 31.2558 9.38997 31.444 9.3526C31.5152 9.33858 31.6575 9.24935 31.871 9.08489C32.5574 8.55974 33.2625 8.58824 33.9863 9.17038C34.1792 9.3255 34.3941 9.38997 34.631 9.36381C34.9409 9.33017 35.0973 9.31335 35.1001 9.31335C35.8997 9.34606 36.3909 9.69039 36.5734 10.3464C36.6849 10.75 36.6647 11.2023 36.513 11.7031C36.3782 12.1498 36.1629 12.5628 35.867 12.9422C35.2574 13.7234 34.5509 14.3265 33.7475 14.7517C33.6651 14.7956 33.6253 14.8512 33.6281 14.9185Z" fill="#2B1529"/>
<path d="M13.0379 14.0455C12.8694 13.9493 12.8137 13.7862 12.8708 13.5563C13.0703 12.7537 13.4031 12.0127 13.8694 11.3333C13.949 11.2175 14.0328 11.124 14.1209 11.053C14.4299 10.8063 14.5544 10.8904 14.4945 11.3053C14.4804 11.4081 14.4472 11.5244 14.3947 11.6543C14.0839 12.4215 13.7519 13.1802 13.3989 13.9306C13.3203 14.0988 13.1999 14.1371 13.0379 14.0455Z" fill="#599B97"/>
<path d="M20.2964 13.4819C20.4959 13.6361 20.7398 13.6945 21.0282 13.6571C21.3409 13.617 21.9959 13.5651 22.9931 13.5016C24.0934 13.4315 25.1238 13.6585 26.0845 14.1828C26.9825 14.6733 28.1132 15.07 29.4765 15.3727C30.8736 15.683 32.2098 15.5283 33.4851 14.9088C33.53 14.8873 33.5778 14.8906 33.6283 14.9186C33.6855 15.042 33.7164 15.1732 33.721 15.3125C33.7819 17.0038 33.788 18.6956 33.7393 20.3878C33.7389 20.4021 33.7421 20.4163 33.7484 20.4291C33.7548 20.442 33.7641 20.4531 33.7758 20.4615C33.7874 20.4699 33.8009 20.4754 33.8151 20.4774C33.8293 20.4795 33.8438 20.4781 33.8573 20.4733C34.3704 20.2892 34.8559 20.3686 35.3138 20.7116C35.7426 21.0321 36.0044 21.432 36.0989 21.9114C36.1813 22.3309 36.1593 22.7832 36.0329 23.2682C35.8419 24.0017 35.3639 24.5371 34.5989 24.8744C34.4219 24.9529 34.2824 24.9763 34.1803 24.9445C34.1617 24.9388 34.142 24.9372 34.1227 24.9399C34.1034 24.9426 34.0849 24.9495 34.0687 24.9601C34.0524 24.9707 34.0388 24.9847 34.0287 25.0011C34.0186 25.0176 34.0124 25.0361 34.0104 25.0552C33.7238 27.7034 32.5548 29.7325 30.5032 31.1425C29.903 31.4836 29.2752 31.748 28.6197 31.9359C27.968 32.1228 27.2999 32.2022 26.6155 32.1741C24.9534 32.1059 23.4388 31.563 22.0718 30.5454C22.0582 30.5353 22.0439 30.528 22.0303 30.5243C22.0166 30.5206 22.0043 30.5206 21.9945 30.5244C21.9673 30.5338 21.9767 30.5609 22.0226 30.6057C22.9533 31.5364 24.0213 32.2227 25.2264 32.6647C26.056 32.9684 26.8308 33.0763 27.5509 32.9885C28.4835 32.8754 29.3314 32.5059 30.0945 31.8798C30.1094 31.8676 30.1214 31.8509 30.1297 31.831C30.1379 31.8111 30.1422 31.7885 30.1423 31.7649C30.1423 31.6677 30.1942 31.6355 30.2982 31.6682C30.3918 31.6981 30.4602 31.6747 30.5032 31.5981C30.5304 32.2288 30.566 32.8586 30.61 33.4875C30.6671 34.3042 31.0721 34.8148 31.8249 35.0195C31.8858 35.7567 31.8919 36.4482 31.8432 37.0939C30.8665 38.6058 29.5528 39.5159 27.902 39.8243C26.2653 40.1289 24.6486 39.8434 23.0521 38.9679C22.715 38.696 22.3302 38.3213 21.8976 37.8438C20.9865 36.8402 20.2402 35.9632 19.6587 35.2129C20.0913 34.9784 20.3694 34.8218 20.493 34.7433C21.0474 34.3901 21.3545 33.9024 21.4144 33.28C21.4903 32.4914 21.494 31.6084 21.4257 30.6309C21.4257 30.6235 21.428 30.5211 21.4327 30.324C21.4383 30.1193 21.362 29.9367 21.2037 29.776C19.9453 28.4967 19.2631 26.8933 19.1573 24.9655C19.1565 24.9492 19.1523 24.9333 19.1449 24.9186C19.1376 24.904 19.1273 24.891 19.1146 24.8805C19.102 24.87 19.0873 24.8622 19.0714 24.8575C19.0556 24.8529 19.0389 24.8515 19.0225 24.8534C18.4298 24.9263 17.9354 24.8282 17.5393 24.5591C17.191 24.3217 16.9278 23.9522 16.7499 23.4504C16.5861 22.9897 16.5496 22.5187 16.6404 22.0375C16.7443 21.489 16.9672 21.0662 17.3089 20.769C17.7266 20.4074 18.2528 20.3196 18.8877 20.5055C18.9043 20.5101 18.9217 20.5108 18.9386 20.5076C18.9555 20.5044 18.9714 20.4973 18.985 20.487C18.9986 20.4766 19.0096 20.4633 19.0171 20.448C19.0246 20.4328 19.0284 20.416 19.0281 20.399C19.0122 19.0114 19.0234 17.6752 19.0618 16.3903C19.0805 15.7615 19.1461 15.2578 19.2585 14.8794C19.4345 14.2851 19.7805 13.8193 20.2964 13.4819ZM26.8837 16.8781C28.4006 16.9547 29.8169 17.2818 31.1325 17.8592C31.2261 17.9004 31.3221 17.9335 31.4204 17.9588C31.7303 18.0354 31.8483 17.9999 31.7743 17.8522C31.7562 17.8152 31.7201 17.7837 31.6732 17.7639C30.4943 17.2472 29.2761 16.8795 28.0186 16.6608C27.1731 16.5141 26.3486 16.4585 25.5452 16.494C24.7146 16.5314 23.892 16.6454 23.0774 16.836C22.5381 16.9613 22.0282 17.1594 21.5479 17.4303C21.4271 17.4986 21.3185 17.6182 21.222 17.7892C21.1349 17.9443 21.1728 17.9859 21.3358 17.9139C23.1036 17.1262 24.9529 16.7809 26.8837 16.8781ZM29.5088 19.1179C29.5429 19.1573 29.5848 19.1893 29.6319 19.2119C29.679 19.2346 29.7303 19.2474 29.7827 19.2497C30.9588 19.2983 31.9958 19.4903 32.8938 19.8257C32.9027 19.829 32.9121 19.8305 32.9215 19.8303C32.931 19.83 32.9402 19.8279 32.9487 19.8241C32.9572 19.8203 32.9648 19.8149 32.971 19.8082C32.9773 19.8015 32.982 19.7937 32.9851 19.7851C33.0543 19.5945 33.0492 19.4038 32.9696 19.2132C32.9532 19.1733 32.9216 19.1383 32.8797 19.1137C31.9696 18.596 30.9939 18.3503 29.9526 18.3764C29.7495 18.3811 29.595 18.4302 29.4891 18.5236C29.3028 18.6881 29.3094 18.8862 29.5088 19.1179ZM24.9103 18.5474C24.8702 18.4919 24.8168 18.4472 24.755 18.4174C24.6932 18.3875 24.625 18.3735 24.5564 18.3764C23.6116 18.4166 22.7726 18.5531 22.0395 18.7857C21.7117 18.8894 21.4772 19.0226 21.3358 19.1852C21.171 19.373 21.1705 19.5688 21.3344 19.7725C21.3469 19.7878 21.3643 19.7989 21.3843 19.8044C21.4043 19.8099 21.426 19.8095 21.4467 19.8033C22.4112 19.5108 23.3958 19.3249 24.4005 19.2455C24.614 19.2286 24.7689 19.188 24.8654 19.1235C25.0733 18.9824 25.0882 18.7904 24.9103 18.5474ZM27.8838 20.4144C27.615 21.76 27.6848 23.0869 28.093 24.3951C28.0968 24.4063 28.1267 24.4815 28.1829 24.6207C28.2887 24.8796 28.2269 25.0978 27.9975 25.2753C27.7101 25.4986 27.3847 25.6808 27.0214 25.8219C26.9558 25.8472 26.9577 25.8673 27.027 25.8822C27.5008 25.9822 27.9647 25.9626 28.4189 25.8233C28.6736 25.7448 28.8538 25.6145 28.9596 25.4323C29.0711 25.237 29.1282 25.0052 29.131 24.7371C29.2499 24.5866 29.4264 24.5609 29.6605 24.66C29.8422 25.8364 30.5112 26.3854 31.6676 26.3069C32.4701 26.2527 33.0314 25.8771 33.3516 25.18C33.4809 24.8987 33.5328 24.6371 33.5075 24.3951C33.4804 24.1306 33.3793 23.8713 33.2042 23.6172C32.8736 23.1387 32.4434 22.8654 31.9134 22.7972C30.8778 22.6636 30.1619 23.0626 29.7658 23.9942C29.7265 24.0269 29.6909 24.0381 29.6591 24.0278C29.6431 24.0228 29.6304 24.0087 29.6236 23.9883C29.6168 23.968 29.6165 23.9431 29.6226 23.9185C29.7087 23.5746 29.7349 23.2845 29.7012 23.0481C29.6179 22.4631 29.5964 21.9843 29.6366 21.6114C29.9718 21.3096 30.3562 21.1414 30.7898 21.1068C30.8665 21.8609 31.2055 22.1118 31.8066 21.8595C31.8709 21.8326 31.9255 21.7871 31.9636 21.7289C32.0017 21.6707 32.0214 21.6024 32.0201 21.5329C32.0155 21.2573 31.949 21.0106 31.8207 20.7929L32.9626 21.5455C32.9799 21.5565 32.9974 21.5644 33.013 21.5684C33.0287 21.5723 33.0419 21.5722 33.0511 21.568C33.0792 21.5558 33.0796 21.5287 33.0525 21.4867C32.5974 20.8017 31.9485 20.4462 31.1058 20.42C30.5243 20.4023 30.1263 20.4158 29.9119 20.4607C29.7864 20.4523 29.6802 20.3798 29.5931 20.2434C29.5088 20.1107 29.3876 20.0425 29.2293 20.0388C28.9044 20.0313 28.7316 19.9281 28.711 19.729C28.7079 19.7033 28.7011 19.6796 28.6911 19.6599C28.6811 19.6402 28.6682 19.625 28.6534 19.6155C28.5458 19.5473 28.4526 19.573 28.3739 19.6926C28.2194 19.9262 28.056 20.1668 27.8838 20.4144ZM22.4678 21.2666C22.436 21.5582 22.5104 21.7609 22.6912 21.8749C22.8438 21.9702 23.003 21.9861 23.1687 21.9226C23.341 21.8562 23.4468 21.7058 23.4861 21.4713C23.5283 21.2208 23.5512 21.0246 23.5549 20.8826C24.0278 20.8723 24.4262 21.0452 24.7502 21.4012C24.8298 21.4881 24.8532 21.4764 24.8204 21.3661C24.6304 20.7204 24.2511 20.3635 23.6828 20.2953C23.3082 20.2504 22.9206 20.2738 22.5198 20.3654C21.913 20.5027 21.494 20.9171 21.2627 21.6086C21.2272 21.7151 21.2632 21.7469 21.3709 21.7039L22.4678 21.2666ZM34.752 21.1433C34.3231 21.019 34.0712 21.1199 33.9963 21.446C33.9954 21.4544 33.9767 21.6754 33.9401 22.109C33.9055 22.5276 33.9158 22.9243 33.9711 23.299C34.0048 23.5298 34.1354 23.6209 34.3629 23.5723C34.8442 23.4705 35.1298 23.22 35.2197 22.821C35.2684 22.6071 35.2768 22.3599 35.245 22.0796C35.2169 21.8357 35.1406 21.5951 35.016 21.3577C34.9884 21.3062 34.9509 21.2608 34.9055 21.2239C34.8602 21.1871 34.808 21.1597 34.752 21.1433ZM18.1053 23.3719C18.3254 23.5457 18.5478 23.5761 18.7725 23.463C18.9382 23.3798 19.0613 23.2275 19.1419 23.0061C19.2917 22.5893 19.2931 22.1609 19.1461 21.7208C19.139 21.6994 19.1277 21.6798 19.113 21.6629C19.0983 21.6461 19.0804 21.6324 19.0604 21.6226C18.7402 21.4675 18.4457 21.4572 18.177 21.5918C17.9204 21.7198 17.757 21.9441 17.6868 22.2646C17.5894 22.7075 17.7289 23.0766 18.1053 23.3719ZM23.9985 24.2959C23.97 24.0678 23.8938 23.8478 23.7741 23.6487C23.6544 23.4495 23.4936 23.275 23.301 23.1351C23.1083 22.9953 22.8875 22.8928 22.6512 22.8335C22.4149 22.7742 22.1677 22.7593 21.9237 22.7896C21.431 22.8509 20.9813 23.0926 20.6735 23.4617C20.3658 23.8308 20.2252 24.297 20.2827 24.7578C20.3111 24.9859 20.3874 25.2058 20.5071 25.405C20.6268 25.6041 20.7875 25.7786 20.9802 25.9185C21.1728 26.0584 21.3936 26.1609 21.6299 26.2202C21.8662 26.2795 22.1134 26.2944 22.3574 26.264C22.8502 26.2028 23.2999 25.961 23.6076 25.5919C23.9154 25.2228 24.056 24.7566 23.9985 24.2959ZM25.9371 28.4724L26.5677 28.6182C26.5853 28.6224 26.6011 28.6324 26.613 28.6467C26.6248 28.661 26.6321 28.679 26.6337 28.6981C26.6393 28.7672 26.6758 28.8256 26.7433 28.8733C27.1431 29.1592 27.5415 29.1648 27.9385 28.8901C28.0546 28.8098 28.0425 28.7663 27.902 28.7598C27.7073 28.7504 27.5116 28.7635 27.3149 28.799C27.1511 28.828 27.0059 28.8046 26.8795 28.7289C26.8374 28.7037 26.8406 28.6827 26.8893 28.6659C27.218 28.5491 27.4502 28.5131 27.586 28.5579C27.9034 28.6635 28.1539 28.6051 28.3374 28.3827C29.1979 28.0295 29.8365 27.4572 30.2532 26.6657C30.3094 26.5601 30.279 26.5195 30.1619 26.5438C28.1572 26.968 26.1445 26.9661 24.1238 26.5382C23.9028 26.4915 23.8382 26.5709 23.93 26.7764C24.3335 27.68 25.0026 28.2454 25.9371 28.4724ZM25.6985 36.6463C25.6987 36.6303 25.6959 36.6144 25.69 36.5995C25.6841 36.5846 25.6753 36.571 25.6642 36.5595C25.653 36.548 25.6397 36.5388 25.625 36.5324C25.6103 36.526 25.5945 36.5226 25.5784 36.5223L25.57 36.5221C25.5376 36.5216 25.5063 36.5339 25.483 36.5563C25.4597 36.5788 25.4463 36.6096 25.4457 36.6419L25.4088 38.7525C25.4085 38.7685 25.4114 38.7844 25.4172 38.7993C25.4231 38.8142 25.4319 38.8278 25.443 38.8393C25.4542 38.8508 25.4675 38.86 25.4822 38.8664C25.4969 38.8728 25.5128 38.8762 25.5288 38.8765L25.5372 38.8767C25.5696 38.8772 25.6009 38.8649 25.6243 38.8425C25.6476 38.82 25.661 38.7892 25.6615 38.7569L25.6985 36.6463Z" fill="#AC543C"/>
<path d="M26.884 16.8783C24.9532 16.7811 23.1039 17.1264 21.336 17.9141C21.1731 17.9861 21.1352 17.9445 21.2223 17.7894C21.3187 17.6184 21.4273 17.4988 21.5481 17.4306C22.0285 17.1596 22.5383 16.9615 23.0777 16.8363C23.8923 16.6456 24.7149 16.5316 25.5454 16.4943C26.3488 16.4588 27.1733 16.5144 28.0188 16.6611C29.2764 16.8797 30.4946 17.2474 31.6735 17.7641C31.7204 17.7839 31.7564 17.8154 31.7746 17.8525C31.8486 18.0001 31.7306 18.0356 31.4206 17.959C31.3223 17.9337 31.2264 17.9006 31.1327 17.8595C29.8171 17.282 28.4009 16.9549 26.884 16.8783Z" fill="#973F33"/>
<path d="M29.5092 19.1179C29.3097 18.8861 29.3032 18.688 29.4895 18.5236C29.5953 18.4301 29.7498 18.3811 29.953 18.3764C30.9942 18.3502 31.9699 18.596 32.8801 19.1137C32.9219 19.1382 32.9536 19.1732 32.97 19.2132C33.0495 19.4038 33.0547 19.5944 32.9854 19.785C32.9824 19.7936 32.9776 19.8015 32.9714 19.8082C32.9651 19.8149 32.9575 19.8203 32.949 19.8241C32.9405 19.8279 32.9313 19.8299 32.9219 19.8302C32.9125 19.8305 32.903 19.829 32.8941 19.8257C31.9961 19.4902 30.9591 19.2982 29.783 19.2496C29.7307 19.2474 29.6793 19.2345 29.6322 19.2119C29.5851 19.1892 29.5433 19.1572 29.5092 19.1179Z" fill="#22151C"/>
<path d="M24.9104 18.5474C25.0883 18.7903 25.0734 18.9823 24.8655 19.1234C24.769 19.1879 24.6141 19.2286 24.4006 19.2454C23.3959 19.3248 22.4113 19.5108 21.4468 19.8032C21.4261 19.8094 21.4044 19.8098 21.3844 19.8043C21.3644 19.7988 21.347 19.7877 21.3345 19.7724C21.1706 19.5687 21.1711 19.3729 21.3359 19.1851C21.4773 19.0225 21.7118 18.8894 22.0395 18.7857C22.7727 18.553 23.6117 18.4165 24.5565 18.3764C24.6251 18.3734 24.6933 18.3874 24.7551 18.4173C24.8169 18.4471 24.8702 18.4918 24.9104 18.5474Z" fill="#1E111E"/>
<path d="M29.9119 20.461C29.9259 20.6058 29.9887 20.731 30.1001 20.8366C30.1235 20.8585 30.1415 20.8855 30.1526 20.9156C30.1638 20.9457 30.1677 20.9779 30.1642 21.0097C30.1606 21.0416 30.1497 21.0721 30.1322 21.099C30.1148 21.1259 30.0913 21.1483 30.0636 21.1646C29.8435 21.2935 29.7012 21.4426 29.6366 21.6117C29.5963 21.9845 29.6179 22.4634 29.7012 23.0484C29.7349 23.2848 29.7087 23.5749 29.6226 23.9188C29.6164 23.9433 29.6168 23.9683 29.6236 23.9886C29.6304 24.0089 29.6431 24.0231 29.6591 24.0281C29.6909 24.0384 29.7265 24.0272 29.7658 23.9945L29.6605 24.6603C29.4264 24.5612 29.2499 24.5869 29.131 24.7373C28.203 23.46 27.7873 22.0191 27.8837 20.4147C28.056 20.1671 28.2194 19.9265 28.3739 19.6929C28.4526 19.5733 28.5457 19.5476 28.6534 19.6158C28.6682 19.6252 28.6811 19.6405 28.6911 19.6602C28.7011 19.6799 28.7079 19.7036 28.711 19.7293C28.7316 19.9283 28.9044 20.0316 29.2293 20.0391C29.3875 20.0428 29.5088 20.111 29.5931 20.2437C29.6801 20.3801 29.7864 20.4525 29.9119 20.461Z" fill="#9C4534"/>
<path d="M23.555 20.8828C23.0409 20.6978 22.6785 20.8258 22.4679 21.2669L21.3709 21.7042C21.2632 21.7472 21.2272 21.7154 21.2628 21.6089C21.494 20.9174 21.9131 20.503 22.5198 20.3656C22.9206 20.2741 23.3083 20.2507 23.6828 20.2956C24.2512 20.3638 24.6304 20.7207 24.8205 21.3664C24.8533 21.4767 24.8298 21.4884 24.7503 21.4014C24.4263 21.0454 24.0278 20.8726 23.555 20.8828Z" fill="#84362C"/>
<path d="M31.8208 20.793C31.318 20.6584 30.9743 20.7631 30.7899 21.107C30.3563 21.1415 29.9719 21.3097 29.6367 21.6115C29.7013 21.4424 29.8437 21.2934 30.0637 21.1644C30.0914 21.1482 30.1149 21.1257 30.1323 21.0989C30.1498 21.072 30.1607 21.0414 30.1643 21.0096C30.1678 20.9777 30.1639 20.9455 30.1527 20.9154C30.1416 20.8854 30.1237 20.8583 30.1002 20.8364C29.9888 20.7308 29.9261 20.6056 29.912 20.4608C30.1264 20.4159 30.5244 20.4024 31.1059 20.4202C31.9486 20.4463 32.5975 20.8019 33.0526 21.4868C33.0797 21.5288 33.0793 21.5559 33.0512 21.5681C33.042 21.5723 33.0288 21.5725 33.0131 21.5685C32.9974 21.5645 32.98 21.5566 32.9627 21.5457L31.8208 20.793Z" fill="#7F3228"/>
<path d="M27.8838 20.4146C27.7874 22.019 28.2031 23.4598 29.1311 24.7372C29.1282 25.0054 29.0711 25.2371 28.9597 25.4324C28.8539 25.6146 28.6736 25.745 28.4189 25.8235C27.9648 25.9627 27.5008 25.9823 27.027 25.8823C26.9578 25.8674 26.9559 25.8473 27.0214 25.8221C27.3847 25.681 27.7101 25.4988 27.9976 25.2754C28.227 25.0979 28.2888 24.8797 28.183 24.6209C28.1268 24.4816 28.0968 24.4064 28.0931 24.3952C27.6848 23.087 27.6151 21.7601 27.8838 20.4146Z" fill="#7F3228"/>
<path d="M31.821 20.7928C31.9493 21.0106 32.0157 21.2573 32.0204 21.5329C32.0216 21.6024 32.0019 21.6707 31.9639 21.7289C31.9258 21.7871 31.8712 21.8326 31.8069 21.8595C31.2058 22.1118 30.8668 21.8609 30.79 21.1068C30.9745 20.763 31.3182 20.6583 31.821 20.7928Z" fill="#4B1F1C"/>
<path d="M23.5552 20.8828C23.5515 21.0248 23.5285 21.2211 23.4864 21.4715C23.4471 21.706 23.3412 21.8565 23.169 21.9228C23.0032 21.9863 22.844 21.9705 22.6914 21.8752C22.5107 21.7612 22.4363 21.5584 22.4681 21.2668C22.6788 20.8258 23.0411 20.6978 23.5552 20.8828Z" fill="#482729"/>
<path d="M34.7523 21.1435C34.8083 21.1599 34.8605 21.1873 34.9058 21.2241C34.9511 21.261 34.9887 21.3064 35.0163 21.3579C35.1409 21.5953 35.2172 21.8359 35.2453 22.0798C35.2771 22.3601 35.2687 22.6073 35.22 22.8212C35.1301 23.2202 34.8445 23.4707 34.3632 23.5725C34.1357 23.6211 34.0051 23.53 33.9713 23.2992C33.9161 22.9245 33.9058 22.5278 33.9404 22.1092C33.977 21.6756 33.9957 21.4546 33.9966 21.4462C34.0715 21.1201 34.3234 21.0192 34.7523 21.1435Z" fill="#9F4035"/>
<path d="M18.1053 23.3721C17.7289 23.0768 17.5894 22.7077 17.6868 22.2648C17.757 21.9443 17.9204 21.7201 18.1769 21.592C18.4457 21.4575 18.7402 21.4678 19.0604 21.6229C19.0804 21.6326 19.0983 21.6463 19.113 21.6632C19.1277 21.68 19.1389 21.6997 19.1461 21.721C19.2931 22.1611 19.2917 22.5895 19.1419 23.0063C19.0613 23.2278 18.9382 23.3801 18.7725 23.4632C18.5477 23.5763 18.3254 23.5459 18.1053 23.3721Z" fill="#973F33"/>
<path d="M12.6745 37.0407C12.6233 37.0307 12.5762 37.0059 12.539 36.9696C12.5018 36.9332 12.4761 36.8868 12.4653 36.8361C12.3754 36.4203 12.3276 36.0058 12.322 35.5928C12.2714 31.6094 12.2944 27.6259 12.3908 23.6425C12.3964 23.407 12.4456 23.1804 12.5383 22.9627C12.616 22.7795 12.7345 22.638 12.8936 22.538C13.0678 22.4277 13.2373 22.4002 13.4021 22.4553C13.61 22.5235 13.7078 22.7095 13.6956 23.0131C13.5252 27.533 13.3674 32.0537 13.2223 36.5754C13.2101 36.9529 13.0275 37.108 12.6745 37.0407Z" fill="#599B97"/>
<path d="M22.3575 26.2643C23.3836 26.1367 24.1183 25.2555 23.9985 24.2961C23.8788 23.3367 22.9499 22.6623 21.9238 22.7898C20.8977 22.9174 20.163 23.7985 20.2827 24.758C20.4025 25.7174 21.3314 26.3918 22.3575 26.2643Z" fill="#913C32"/>
<path d="M29.6606 24.6601L29.766 23.9944C30.1621 23.0627 30.8779 22.6637 31.9135 22.7974C32.4435 22.8656 32.8738 23.1389 33.2043 23.6173C33.3794 23.8715 33.4805 24.1308 33.5077 24.3952C33.533 24.6372 33.481 24.8989 33.3518 25.1801C33.0315 25.8772 32.4702 26.2529 31.6677 26.3071C30.5113 26.3855 29.8423 25.8366 29.6606 24.6601Z" fill="#913C32"/>
<path d="M11.4453 34.0439C11.2814 33.9355 11.1751 33.7743 11.1264 33.5603C11.0468 33.2146 11.0201 32.4437 11.0464 31.2476C11.0913 29.1667 11.1821 27.0881 11.3188 25.0118C11.3357 24.7483 11.4148 24.5053 11.5562 24.2829C11.662 24.1175 11.744 24.1353 11.802 24.3362C11.8966 24.6576 11.9401 24.9879 11.9326 25.3271C11.8774 27.8604 11.8474 30.3945 11.8427 32.9296C11.8418 33.2454 11.8254 33.5627 11.7936 33.8813C11.7683 34.1271 11.6522 34.1813 11.4453 34.0439Z" fill="#599B97"/>
<path d="M14.0463 25.6987C14.1568 25.5258 14.2593 25.4847 14.3539 25.5753C14.4026 25.6221 14.4279 25.6977 14.4297 25.8024C14.4578 27.2237 14.3754 28.6388 14.1825 30.0479C14.1753 30.0977 14.1548 30.14 14.125 30.1671C14.0126 30.2708 13.9054 30.2643 13.8033 30.1475C13.7753 30.1158 13.7593 30.071 13.7584 30.0213C13.7443 28.687 13.8033 27.3531 13.9353 26.0196C13.9475 25.9038 13.9845 25.7968 14.0463 25.6987Z" fill="#599B97"/>
<path d="M28.3375 28.3829C27.5369 28.3586 26.7368 28.3885 25.9371 28.4726C25.0026 28.2456 24.3336 27.6802 23.93 26.7766C23.8383 26.5711 23.9029 26.4916 24.1239 26.5384C26.1445 26.9663 28.1573 26.9682 30.162 26.544C30.279 26.5197 30.3095 26.5603 30.2533 26.6659C29.8366 27.4574 29.198 28.0297 28.3375 28.3829Z" fill="#FDFDFD"/>
<path d="M28.3374 28.3827C28.1538 28.6054 27.9034 28.6639 27.5859 28.5581C27.4502 28.5132 27.218 28.5493 26.8893 28.6662C26.8406 28.6831 26.8373 28.7041 26.8795 28.7294C27.0059 28.8052 27.151 28.8286 27.3149 28.7996C27.5115 28.764 27.7072 28.7509 27.902 28.7603C28.0424 28.7668 28.0546 28.8103 27.9385 28.8908C27.5415 29.1659 27.143 29.1603 26.7432 28.8739C26.6758 28.8262 26.6393 28.7677 26.6337 28.6985C26.632 28.6794 26.6248 28.6614 26.6129 28.647C26.6011 28.6327 26.5852 28.6227 26.5677 28.6185L25.937 28.4725C26.7367 28.3883 27.5368 28.3584 28.3374 28.3827Z" fill="#822528"/>
<path d="M9.99578 35.217C9.84222 35.0302 9.73454 34.8241 9.67274 34.5989C9.65307 34.527 9.61796 34.3018 9.56739 33.9233C9.37731 32.4965 9.38058 31.078 9.57722 29.668C9.60625 29.4558 9.72657 29.3316 9.93819 29.2951C10.3137 29.2306 10.5033 29.3909 10.507 29.7759C10.5276 32.0475 10.5585 33.4374 10.5997 33.9458C10.6334 34.3681 10.5735 34.7704 10.4199 35.1526C10.3151 35.4133 10.1737 35.4348 9.99578 35.217Z" fill="#599B97"/>
<path d="M30.5034 31.1425V31.598C30.4603 31.6746 30.3919 31.698 30.2983 31.6681C30.1944 31.6354 30.1424 31.6676 30.1424 31.7648C30.1424 31.7885 30.1381 31.8111 30.1298 31.831C30.1215 31.8509 30.1095 31.8675 30.0946 31.8797C29.3315 32.5058 28.4836 32.8754 27.551 32.9884C26.8309 33.0763 26.0561 32.9683 25.2265 32.6647C24.0214 32.2227 22.9535 31.5363 22.0227 30.6057C21.9768 30.5608 21.9675 30.5337 21.9946 30.5244C22.0044 30.5206 22.0168 30.5205 22.0304 30.5242C22.044 30.5279 22.0583 30.5352 22.0719 30.5454C23.439 31.563 24.9535 32.1059 26.6156 32.1741C27.3001 32.2021 27.9682 32.1227 28.6199 31.9358C29.2753 31.748 29.9032 31.4835 30.5034 31.1425Z" fill="#8C3831"/>
<path d="M31.8249 35.0195L38.9305 38.0457C38.938 38.0737 38.9254 38.1059 38.8926 38.1424C36.9103 40.2859 34.5671 41.8978 31.8628 42.978C31.853 42.9822 31.8422 42.9838 31.8316 42.9827C31.8209 42.9816 31.8107 42.9778 31.8018 42.9717C31.7929 42.9656 31.7856 42.9573 31.7805 42.9477C31.7755 42.938 31.7729 42.9273 31.773 42.9164L31.8432 37.094C31.8919 36.4483 31.8858 35.7568 31.8249 35.0195Z" fill="#599B97"/>
<path d="M19.6593 35.2129C20.2408 35.9632 20.987 36.8402 21.8981 37.8438C22.3307 38.3213 22.7156 38.696 23.0527 38.9679C23.9385 40.2322 24.0326 41.5581 23.335 42.9457C23.0878 43.4391 22.7858 43.7886 22.429 43.9941C22.2296 44.11 22.0161 44.1507 21.7886 44.1161C17.5993 43.49 14.0243 41.6941 11.0635 38.7282C11.1094 38.6562 11.1581 38.6095 11.2096 38.588C12.7087 37.9629 14.1951 37.3093 15.669 36.6271C15.8207 36.5571 15.9443 36.5491 16.0398 36.6033C16.0848 36.6287 16.1376 36.6364 16.188 36.625C16.2383 36.6136 16.2826 36.5839 16.3123 36.5416C16.5164 36.252 16.8099 36.1244 17.1929 36.159C17.2411 36.1634 17.2896 36.1562 17.3343 36.1382C17.3791 36.1202 17.4187 36.0917 17.4499 36.0553C17.6587 35.8133 17.9392 35.7245 18.2913 35.789C18.313 35.7929 18.3351 35.7923 18.3561 35.7872C18.3772 35.7822 18.3968 35.7727 18.4135 35.7595C18.7786 35.4689 19.1939 35.2867 19.6593 35.2129ZM19.9332 40.1579C20.0324 40.2214 20.0816 40.1943 20.0806 40.0766C20.0797 39.9271 20.0516 39.7827 19.9964 39.6435C19.6836 38.8511 19.347 38.0685 18.9865 37.2957C18.9565 37.2322 18.9275 37.1794 18.8994 37.1373C18.7431 36.9065 18.67 36.9406 18.6803 37.2397C18.6822 37.2995 18.6939 37.3621 18.7154 37.4275C19.0001 38.2647 19.3273 39.0847 19.6972 39.8874C19.7496 40.0004 19.8283 40.0906 19.9332 40.1579ZM19.089 40.7171C19.2407 40.8218 19.2904 40.7956 19.2379 40.6386C18.8849 39.5809 18.4617 38.5525 17.9682 37.5536C17.9223 37.4602 17.8764 37.3915 17.8306 37.3476C17.6995 37.2196 17.6016 37.2546 17.537 37.4527C17.5235 37.4934 17.526 37.5402 17.544 37.5845C17.9027 38.4432 18.2847 39.2917 18.6901 40.1298C18.6948 40.1382 18.7225 40.2041 18.773 40.3275C18.8386 40.4882 18.9439 40.6181 19.089 40.7171ZM15.0833 38.7737C15.1069 38.7536 15.1252 38.7279 15.1373 38.698C15.1494 38.6682 15.155 38.6348 15.1538 38.5997C15.1526 38.5646 15.1446 38.5285 15.1303 38.4936C15.116 38.4586 15.0956 38.4254 15.0703 38.3959C15.0192 38.3362 14.9514 38.2951 14.8816 38.2816C14.8119 38.2681 14.746 38.2833 14.6984 38.3239C14.6748 38.344 14.6565 38.3697 14.6444 38.3995C14.6323 38.4294 14.6267 38.4628 14.6279 38.4979C14.6291 38.533 14.6371 38.569 14.6514 38.604C14.6658 38.639 14.6862 38.6722 14.7114 38.7017C14.7625 38.7614 14.8303 38.8024 14.9001 38.8159C14.9698 38.8294 15.0357 38.8142 15.0833 38.7737Z" fill="#FD9148"/>
<path d="M25.5788 36.5223L25.5704 36.5221C25.5029 36.521 25.4473 36.5746 25.4461 36.6419L25.4092 38.7525C25.408 38.8198 25.4618 38.8754 25.5292 38.8765L25.5377 38.8767C25.6051 38.8779 25.6608 38.8242 25.662 38.7569L25.6989 36.6463C25.7001 36.579 25.6463 36.5235 25.5788 36.5223Z" fill="#913C32"/>
<path d="M19.9325 40.1579C19.8276 40.0906 19.749 40.0005 19.6966 39.8874C19.3267 39.0847 18.9994 38.2648 18.7148 37.4275C18.6932 37.3621 18.6815 37.2995 18.6797 37.2397C18.6694 36.9407 18.7424 36.9066 18.8988 37.1374C18.9269 37.1794 18.9559 37.2322 18.9859 37.2958C19.3464 38.0685 19.683 38.8511 19.9957 39.6435C20.051 39.7827 20.0791 39.9271 20.08 40.0766C20.0809 40.1944 20.0318 40.2215 19.9325 40.1579Z" fill="#DC6232"/>
<path d="M19.0885 40.7174C18.9433 40.6183 18.838 40.4884 18.7725 40.3277C18.7219 40.2044 18.6943 40.1385 18.6896 40.1301C18.2841 39.2919 17.9021 38.4435 17.5435 37.5847C17.5254 37.5405 17.5229 37.4937 17.5365 37.453C17.6011 37.2549 17.6989 37.2198 17.83 37.3478C17.8759 37.3918 17.9218 37.4604 17.9677 37.5539C18.4611 38.5528 18.8844 39.5811 19.2374 40.6389C19.2898 40.7959 19.2402 40.822 19.0885 40.7174Z" fill="#DC6232"/>
<path d="M14.7115 38.702C14.8179 38.8263 14.9845 38.8586 15.0836 38.7741C15.1828 38.6895 15.1769 38.5203 15.0706 38.396C14.9642 38.2717 14.7975 38.2394 14.6984 38.3239C14.5992 38.4084 14.6051 38.5777 14.7115 38.702Z" fill="#D16047"/>
</svg>
